<?xml version="1.0" encoding="utf-8" standalone="no"?>
<!DOCTYPE svg PUBLIC "-//W3C//DTD SVG 1.1//EN"
  "http://www.w3.org/Graphics/SVG/1.1/DTD/svg11.dtd">
<svg xmlns:xlink="http://www.w3.org/1999/xlink" width="460.8pt" height="345.6pt" viewBox="0 0 460.8 345.6" xmlns="http://www.w3.org/2000/svg" version="1.1">
 <metadata>
  <rdf:RDF xmlns:dc="http://purl.org/dc/elements/1.1/" xmlns:cc="http://creativecommons.org/ns#" xmlns:rdf="http://www.w3.org/1999/02/22-rdf-syntax-ns#">
   <cc:Work>
    <dc:type rdf:resource="http://purl.org/dc/dcmitype/StillImage"/>
    <dc:date>2024-08-02T13:11:05.331769</dc:date>
    <dc:format>image/svg+xml</dc:format>
    <dc:creator>
     <cc:Agent>
      <dc:title>Matplotlib v3.7.4, https://matplotlib.org/</dc:title>
     </cc:Agent>
    </dc:creator>
   </cc:Work>
  </rdf:RDF>
 </metadata>
 <defs>
  <style type="text/css">*{stroke-linejoin: round; stroke-linecap: butt}</style>
 </defs>
 <g id="figure_1">
  <g id="patch_1">
   <path d="M 0 345.6 
L 460.8 345.6 
L 460.8 0 
L 0 0 
z
" style="fill: #ffffff"/>
  </g>
  <g id="axes_1">
   <g id="patch_2">
    <path d="M 57.6 307.584 
L 414.72 307.584 
L 414.72 41.472 
L 57.6 41.472 
z
" style="fill: #ffffff"/>
   </g>
   <g id="matplotlib.axis_1">
    <g id="xtick_1">
     <g id="line2d_1">
      <defs>
       <path id="m00ecd1993e" d="M 0 0 
L 0 3.5 
" style="stroke: #000000; stroke-width: 0.8"/>
      </defs>
      <g>
       <use xlink:href="#m00ecd1993e" x="102.24" y="307.584" style="stroke: #000000; stroke-width: 0.8"/>
      </g>
     </g>
     <g id="text_1">
      <!-- 10 -->
      <g transform="translate(95.8775 322.182437) scale(0.1 -0.1)">
       <defs>
        <path id="DejaVuSans-31" d="M 794 531 
L 1825 531 
L 1825 4091 
L 703 3866 
L 703 4441 
L 1819 4666 
L 2450 4666 
L 2450 531 
L 3481 531 
L 3481 0 
L 794 0 
L 794 531 
z
" transform="scale(0.015625)"/>
        <path id="DejaVuSans-30" d="M 2034 4250 
Q 1547 4250 1301 3770 
Q 1056 3291 1056 2328 
Q 1056 1369 1301 889 
Q 1547 409 2034 409 
Q 2525 409 2770 889 
Q 3016 1369 3016 2328 
Q 3016 3291 2770 3770 
Q 2525 4250 2034 4250 
z
M 2034 4750 
Q 2819 4750 3233 4129 
Q 3647 3509 3647 2328 
Q 3647 1150 3233 529 
Q 2819 -91 2034 -91 
Q 1250 -91 836 529 
Q 422 1150 422 2328 
Q 422 3509 836 4129 
Q 1250 4750 2034 4750 
z
" transform="scale(0.015625)"/>
       </defs>
       <use xlink:href="#DejaVuSans-31"/>
       <use xlink:href="#DejaVuSans-30" x="63.623047"/>
      </g>
     </g>
    </g>
    <g id="xtick_2">
     <g id="line2d_2">
      <g>
       <use xlink:href="#m00ecd1993e" x="151.84" y="307.584" style="stroke: #000000; stroke-width: 0.8"/>
      </g>
     </g>
     <g id="text_2">
      <!-- 20 -->
      <g transform="translate(145.4775 322.182437) scale(0.1 -0.1)">
       <defs>
        <path id="DejaVuSans-32" d="M 1228 531 
L 3431 531 
L 3431 0 
L 469 0 
L 469 531 
Q 828 903 1448 1529 
Q 2069 2156 2228 2338 
Q 2531 2678 2651 2914 
Q 2772 3150 2772 3378 
Q 2772 3750 2511 3984 
Q 2250 4219 1831 4219 
Q 1534 4219 1204 4116 
Q 875 4013 500 3803 
L 500 4441 
Q 881 4594 1212 4672 
Q 1544 4750 1819 4750 
Q 2544 4750 2975 4387 
Q 3406 4025 3406 3419 
Q 3406 3131 3298 2873 
Q 3191 2616 2906 2266 
Q 2828 2175 2409 1742 
Q 1991 1309 1228 531 
z
" transform="scale(0.015625)"/>
       </defs>
       <use xlink:href="#DejaVuSans-32"/>
       <use xlink:href="#DejaVuSans-30" x="63.623047"/>
      </g>
     </g>
    </g>
    <g id="xtick_3">
     <g id="line2d_3">
      <g>
       <use xlink:href="#m00ecd1993e" x="201.44" y="307.584" style="stroke: #000000; stroke-width: 0.8"/>
      </g>
     </g>
     <g id="text_3">
      <!-- 30 -->
      <g transform="translate(195.0775 322.182437) scale(0.1 -0.1)">
       <defs>
        <path id="DejaVuSans-33" d="M 2597 2516 
Q 3050 2419 3304 2112 
Q 3559 1806 3559 1356 
Q 3559 666 3084 287 
Q 2609 -91 1734 -91 
Q 1441 -91 1130 -33 
Q 819 25 488 141 
L 488 750 
Q 750 597 1062 519 
Q 1375 441 1716 441 
Q 2309 441 2620 675 
Q 2931 909 2931 1356 
Q 2931 1769 2642 2001 
Q 2353 2234 1838 2234 
L 1294 2234 
L 1294 2753 
L 1863 2753 
Q 2328 2753 2575 2939 
Q 2822 3125 2822 3475 
Q 2822 3834 2567 4026 
Q 2313 4219 1838 4219 
Q 1578 4219 1281 4162 
Q 984 4106 628 3988 
L 628 4550 
Q 988 4650 1302 4700 
Q 1616 4750 1894 4750 
Q 2613 4750 3031 4423 
Q 3450 4097 3450 3541 
Q 3450 3153 3228 2886 
Q 3006 2619 2597 2516 
z
" transform="scale(0.015625)"/>
       </defs>
       <use xlink:href="#DejaVuSans-33"/>
       <use xlink:href="#DejaVuSans-30" x="63.623047"/>
      </g>
     </g>
    </g>
    <g id="xtick_4">
     <g id="line2d_4">
      <g>
       <use xlink:href="#m00ecd1993e" x="251.04" y="307.584" style="stroke: #000000; stroke-width: 0.8"/>
      </g>
     </g>
     <g id="text_4">
      <!-- 40 -->
      <g transform="translate(244.6775 322.182437) scale(0.1 -0.1)">
       <defs>
        <path id="DejaVuSans-34" d="M 2419 4116 
L 825 1625 
L 2419 1625 
L 2419 4116 
z
M 2253 4666 
L 3047 4666 
L 3047 1625 
L 3713 1625 
L 3713 1100 
L 3047 1100 
L 3047 0 
L 2419 0 
L 2419 1100 
L 313 1100 
L 313 1709 
L 2253 4666 
z
" transform="scale(0.015625)"/>
       </defs>
       <use xlink:href="#DejaVuSans-34"/>
       <use xlink:href="#DejaVuSans-30" x="63.623047"/>
      </g>
     </g>
    </g>
    <g id="xtick_5">
     <g id="line2d_5">
      <g>
       <use xlink:href="#m00ecd1993e" x="300.64" y="307.584" style="stroke: #000000; stroke-width: 0.8"/>
      </g>
     </g>
     <g id="text_5">
      <!-- 50 -->
      <g transform="translate(294.2775 322.182437) scale(0.1 -0.1)">
       <defs>
        <path id="DejaVuSans-35" d="M 691 4666 
L 3169 4666 
L 3169 4134 
L 1269 4134 
L 1269 2991 
Q 1406 3038 1543 3061 
Q 1681 3084 1819 3084 
Q 2600 3084 3056 2656 
Q 3513 2228 3513 1497 
Q 3513 744 3044 326 
Q 2575 -91 1722 -91 
Q 1428 -91 1123 -41 
Q 819 9 494 109 
L 494 744 
Q 775 591 1075 516 
Q 1375 441 1709 441 
Q 2250 441 2565 725 
Q 2881 1009 2881 1497 
Q 2881 1984 2565 2268 
Q 2250 2553 1709 2553 
Q 1456 2553 1204 2497 
Q 953 2441 691 2322 
L 691 4666 
z
" transform="scale(0.015625)"/>
       </defs>
       <use xlink:href="#DejaVuSans-35"/>
       <use xlink:href="#DejaVuSans-30" x="63.623047"/>
      </g>
     </g>
    </g>
    <g id="xtick_6">
     <g id="line2d_6">
      <g>
       <use xlink:href="#m00ecd1993e" x="350.24" y="307.584" style="stroke: #000000; stroke-width: 0.8"/>
      </g>
     </g>
     <g id="text_6">
      <!-- 60 -->
      <g transform="translate(343.8775 322.182437) scale(0.1 -0.1)">
       <defs>
        <path id="DejaVuSans-36" d="M 2113 2584 
Q 1688 2584 1439 2293 
Q 1191 2003 1191 1497 
Q 1191 994 1439 701 
Q 1688 409 2113 409 
Q 2538 409 2786 701 
Q 3034 994 3034 1497 
Q 3034 2003 2786 2293 
Q 2538 2584 2113 2584 
z
M 3366 4563 
L 3366 3988 
Q 3128 4100 2886 4159 
Q 2644 4219 2406 4219 
Q 1781 4219 1451 3797 
Q 1122 3375 1075 2522 
Q 1259 2794 1537 2939 
Q 1816 3084 2150 3084 
Q 2853 3084 3261 2657 
Q 3669 2231 3669 1497 
Q 3669 778 3244 343 
Q 2819 -91 2113 -91 
Q 1303 -91 875 529 
Q 447 1150 447 2328 
Q 447 3434 972 4092 
Q 1497 4750 2381 4750 
Q 2619 4750 2861 4703 
Q 3103 4656 3366 4563 
z
" transform="scale(0.015625)"/>
       </defs>
       <use xlink:href="#DejaVuSans-36"/>
       <use xlink:href="#DejaVuSans-30" x="63.623047"/>
      </g>
     </g>
    </g>
    <g id="xtick_7">
     <g id="line2d_7">
      <g>
       <use xlink:href="#m00ecd1993e" x="399.84" y="307.584" style="stroke: #000000; stroke-width: 0.8"/>
      </g>
     </g>
     <g id="text_7">
      <!-- 70 -->
      <g transform="translate(393.4775 322.182437) scale(0.1 -0.1)">
       <defs>
        <path id="DejaVuSans-37" d="M 525 4666 
L 3525 4666 
L 3525 4397 
L 1831 0 
L 1172 0 
L 2766 4134 
L 525 4134 
L 525 4666 
z
" transform="scale(0.015625)"/>
       </defs>
       <use xlink:href="#DejaVuSans-37"/>
       <use xlink:href="#DejaVuSans-30" x="63.623047"/>
      </g>
     </g>
    </g>
    <g id="text_8">
     <!-- Epoch -->
     <g transform="translate(220.849063 335.860562) scale(0.1 -0.1)">
      <defs>
       <path id="DejaVuSans-45" d="M 628 4666 
L 3578 4666 
L 3578 4134 
L 1259 4134 
L 1259 2753 
L 3481 2753 
L 3481 2222 
L 1259 2222 
L 1259 531 
L 3634 531 
L 3634 0 
L 628 0 
L 628 4666 
z
" transform="scale(0.015625)"/>
       <path id="DejaVuSans-70" d="M 1159 525 
L 1159 -1331 
L 581 -1331 
L 581 3500 
L 1159 3500 
L 1159 2969 
Q 1341 3281 1617 3432 
Q 1894 3584 2278 3584 
Q 2916 3584 3314 3078 
Q 3713 2572 3713 1747 
Q 3713 922 3314 415 
Q 2916 -91 2278 -91 
Q 1894 -91 1617 61 
Q 1341 213 1159 525 
z
M 3116 1747 
Q 3116 2381 2855 2742 
Q 2594 3103 2138 3103 
Q 1681 3103 1420 2742 
Q 1159 2381 1159 1747 
Q 1159 1113 1420 752 
Q 1681 391 2138 391 
Q 2594 391 2855 752 
Q 3116 1113 3116 1747 
z
" transform="scale(0.015625)"/>
       <path id="DejaVuSans-6f" d="M 1959 3097 
Q 1497 3097 1228 2736 
Q 959 2375 959 1747 
Q 959 1119 1226 758 
Q 1494 397 1959 397 
Q 2419 397 2687 759 
Q 2956 1122 2956 1747 
Q 2956 2369 2687 2733 
Q 2419 3097 1959 3097 
z
M 1959 3584 
Q 2709 3584 3137 3096 
Q 3566 2609 3566 1747 
Q 3566 888 3137 398 
Q 2709 -91 1959 -91 
Q 1206 -91 779 398 
Q 353 888 353 1747 
Q 353 2609 779 3096 
Q 1206 3584 1959 3584 
z
" transform="scale(0.015625)"/>
       <path id="DejaVuSans-63" d="M 3122 3366 
L 3122 2828 
Q 2878 2963 2633 3030 
Q 2388 3097 2138 3097 
Q 1578 3097 1268 2742 
Q 959 2388 959 1747 
Q 959 1106 1268 751 
Q 1578 397 2138 397 
Q 2388 397 2633 464 
Q 2878 531 3122 666 
L 3122 134 
Q 2881 22 2623 -34 
Q 2366 -91 2075 -91 
Q 1284 -91 818 406 
Q 353 903 353 1747 
Q 353 2603 823 3093 
Q 1294 3584 2113 3584 
Q 2378 3584 2631 3529 
Q 2884 3475 3122 3366 
z
" transform="scale(0.015625)"/>
       <path id="DejaVuSans-68" d="M 3513 2113 
L 3513 0 
L 2938 0 
L 2938 2094 
Q 2938 2591 2744 2837 
Q 2550 3084 2163 3084 
Q 1697 3084 1428 2787 
Q 1159 2491 1159 1978 
L 1159 0 
L 581 0 
L 581 4863 
L 1159 4863 
L 1159 2956 
Q 1366 3272 1645 3428 
Q 1925 3584 2291 3584 
Q 2894 3584 3203 3211 
Q 3513 2838 3513 2113 
z
" transform="scale(0.015625)"/>
      </defs>
      <use xlink:href="#DejaVuSans-45"/>
      <use xlink:href="#DejaVuSans-70" x="63.183594"/>
      <use xlink:href="#DejaVuSans-6f" x="126.660156"/>
      <use xlink:href="#DejaVuSans-63" x="187.841797"/>
      <use xlink:href="#DejaVuSans-68" x="242.822266"/>
     </g>
    </g>
   </g>
   <g id="matplotlib.axis_2">
    <g id="ytick_1">
     <g id="line2d_8">
      <defs>
       <path id="m875048d683" d="M 0 0 
L -3.5 0 
" style="stroke: #000000; stroke-width: 0.8"/>
      </defs>
      <g>
       <use xlink:href="#m875048d683" x="57.6" y="272.331045" style="stroke: #000000; stroke-width: 0.8"/>
      </g>
     </g>
     <g id="text_9">
      <!-- 0.20 -->
      <g transform="translate(28.334375 276.130264) scale(0.1 -0.1)">
       <defs>
        <path id="DejaVuSans-2e" d="M 684 794 
L 1344 794 
L 1344 0 
L 684 0 
L 684 794 
z
" transform="scale(0.015625)"/>
       </defs>
       <use xlink:href="#DejaVuSans-30"/>
       <use xlink:href="#DejaVuSans-2e" x="63.623047"/>
       <use xlink:href="#DejaVuSans-32" x="95.410156"/>
       <use xlink:href="#DejaVuSans-30" x="159.033203"/>
      </g>
     </g>
    </g>
    <g id="ytick_2">
     <g id="line2d_9">
      <g>
       <use xlink:href="#m875048d683" x="57.6" y="236.162975" style="stroke: #000000; stroke-width: 0.8"/>
      </g>
     </g>
     <g id="text_10">
      <!-- 0.22 -->
      <g transform="translate(28.334375 239.962194) scale(0.1 -0.1)">
       <use xlink:href="#DejaVuSans-30"/>
       <use xlink:href="#DejaVuSans-2e" x="63.623047"/>
       <use xlink:href="#DejaVuSans-32" x="95.410156"/>
       <use xlink:href="#DejaVuSans-32" x="159.033203"/>
      </g>
     </g>
    </g>
    <g id="ytick_3">
     <g id="line2d_10">
      <g>
       <use xlink:href="#m875048d683" x="57.6" y="199.994905" style="stroke: #000000; stroke-width: 0.8"/>
      </g>
     </g>
     <g id="text_11">
      <!-- 0.24 -->
      <g transform="translate(28.334375 203.794124) scale(0.1 -0.1)">
       <use xlink:href="#DejaVuSans-30"/>
       <use xlink:href="#DejaVuSans-2e" x="63.623047"/>
       <use xlink:href="#DejaVuSans-32" x="95.410156"/>
       <use xlink:href="#DejaVuSans-34" x="159.033203"/>
      </g>
     </g>
    </g>
    <g id="ytick_4">
     <g id="line2d_11">
      <g>
       <use xlink:href="#m875048d683" x="57.6" y="163.826835" style="stroke: #000000; stroke-width: 0.8"/>
      </g>
     </g>
     <g id="text_12">
      <!-- 0.26 -->
      <g transform="translate(28.334375 167.626054) scale(0.1 -0.1)">
       <use xlink:href="#DejaVuSans-30"/>
       <use xlink:href="#DejaVuSans-2e" x="63.623047"/>
       <use xlink:href="#DejaVuSans-32" x="95.410156"/>
       <use xlink:href="#DejaVuSans-36" x="159.033203"/>
      </g>
     </g>
    </g>
    <g id="ytick_5">
     <g id="line2d_12">
      <g>
       <use xlink:href="#m875048d683" x="57.6" y="127.658765" style="stroke: #000000; stroke-width: 0.8"/>
      </g>
     </g>
     <g id="text_13">
      <!-- 0.28 -->
      <g transform="translate(28.334375 131.457984) scale(0.1 -0.1)">
       <defs>
        <path id="DejaVuSans-38" d="M 2034 2216 
Q 1584 2216 1326 1975 
Q 1069 1734 1069 1313 
Q 1069 891 1326 650 
Q 1584 409 2034 409 
Q 2484 409 2743 651 
Q 3003 894 3003 1313 
Q 3003 1734 2745 1975 
Q 2488 2216 2034 2216 
z
M 1403 2484 
Q 997 2584 770 2862 
Q 544 3141 544 3541 
Q 544 4100 942 4425 
Q 1341 4750 2034 4750 
Q 2731 4750 3128 4425 
Q 3525 4100 3525 3541 
Q 3525 3141 3298 2862 
Q 3072 2584 2669 2484 
Q 3125 2378 3379 2068 
Q 3634 1759 3634 1313 
Q 3634 634 3220 271 
Q 2806 -91 2034 -91 
Q 1263 -91 848 271 
Q 434 634 434 1313 
Q 434 1759 690 2068 
Q 947 2378 1403 2484 
z
M 1172 3481 
Q 1172 3119 1398 2916 
Q 1625 2713 2034 2713 
Q 2441 2713 2670 2916 
Q 2900 3119 2900 3481 
Q 2900 3844 2670 4047 
Q 2441 4250 2034 4250 
Q 1625 4250 1398 4047 
Q 1172 3844 1172 3481 
z
" transform="scale(0.015625)"/>
       </defs>
       <use xlink:href="#DejaVuSans-30"/>
       <use xlink:href="#DejaVuSans-2e" x="63.623047"/>
       <use xlink:href="#DejaVuSans-32" x="95.410156"/>
       <use xlink:href="#DejaVuSans-38" x="159.033203"/>
      </g>
     </g>
    </g>
    <g id="ytick_6">
     <g id="line2d_13">
      <g>
       <use xlink:href="#m875048d683" x="57.6" y="91.490695" style="stroke: #000000; stroke-width: 0.8"/>
      </g>
     </g>
     <g id="text_14">
      <!-- 0.30 -->
      <g transform="translate(28.334375 95.289914) scale(0.1 -0.1)">
       <use xlink:href="#DejaVuSans-30"/>
       <use xlink:href="#DejaVuSans-2e" x="63.623047"/>
       <use xlink:href="#DejaVuSans-33" x="95.410156"/>
       <use xlink:href="#DejaVuSans-30" x="159.033203"/>
      </g>
     </g>
    </g>
    <g id="ytick_7">
     <g id="line2d_14">
      <g>
       <use xlink:href="#m875048d683" x="57.6" y="55.322626" style="stroke: #000000; stroke-width: 0.8"/>
      </g>
     </g>
     <g id="text_15">
      <!-- 0.32 -->
      <g transform="translate(28.334375 59.121844) scale(0.1 -0.1)">
       <use xlink:href="#DejaVuSans-30"/>
       <use xlink:href="#DejaVuSans-2e" x="63.623047"/>
       <use xlink:href="#DejaVuSans-33" x="95.410156"/>
       <use xlink:href="#DejaVuSans-32" x="159.033203"/>
      </g>
     </g>
    </g>
    <g id="text_16">
     <!-- Loss -->
     <g transform="translate(22.254688 185.495187) rotate(-90) scale(0.1 -0.1)">
      <defs>
       <path id="DejaVuSans-4c" d="M 628 4666 
L 1259 4666 
L 1259 531 
L 3531 531 
L 3531 0 
L 628 0 
L 628 4666 
z
" transform="scale(0.015625)"/>
       <path id="DejaVuSans-73" d="M 2834 3397 
L 2834 2853 
Q 2591 2978 2328 3040 
Q 2066 3103 1784 3103 
Q 1356 3103 1142 2972 
Q 928 2841 928 2578 
Q 928 2378 1081 2264 
Q 1234 2150 1697 2047 
L 1894 2003 
Q 2506 1872 2764 1633 
Q 3022 1394 3022 966 
Q 3022 478 2636 193 
Q 2250 -91 1575 -91 
Q 1294 -91 989 -36 
Q 684 19 347 128 
L 347 722 
Q 666 556 975 473 
Q 1284 391 1588 391 
Q 1994 391 2212 530 
Q 2431 669 2431 922 
Q 2431 1156 2273 1281 
Q 2116 1406 1581 1522 
L 1381 1569 
Q 847 1681 609 1914 
Q 372 2147 372 2553 
Q 372 3047 722 3315 
Q 1072 3584 1716 3584 
Q 2034 3584 2315 3537 
Q 2597 3491 2834 3397 
z
" transform="scale(0.015625)"/>
      </defs>
      <use xlink:href="#DejaVuSans-4c"/>
      <use xlink:href="#DejaVuSans-6f" x="53.962891"/>
      <use xlink:href="#DejaVuSans-73" x="115.144531"/>
      <use xlink:href="#DejaVuSans-73" x="167.244141"/>
     </g>
    </g>
   </g>
   <g id="line2d_15">
    <path d="M 57.6 53.568 
L 62.56 214.701817 
L 67.52 227.612489 
L 72.48 231.060222 
L 77.44 233.200246 
L 82.4 234.980363 
L 87.36 236.39872 
L 92.32 237.6713 
L 97.28 238.831555 
L 102.24 239.844769 
L 107.2 240.787897 
L 112.16 241.741174 
L 117.12 242.547737 
L 122.08 243.240408 
L 127.04 243.993804 
L 132 244.627507 
L 136.96 245.222528 
L 141.92 245.76672 
L 146.88 246.36084 
L 151.84 246.905474 
L 156.8 247.361336 
L 161.76 247.827731 
L 166.72 248.226605 
L 171.68 248.704447 
L 176.64 249.086648 
L 181.6 249.492741 
L 186.56 249.854003 
L 191.52 250.243481 
L 196.48 250.561972 
L 201.44 250.911212 
L 206.4 251.153532 
L 211.36 251.515553 
L 216.32 251.785416 
L 221.28 252.105522 
L 226.24 252.369992 
L 231.2 252.666427 
L 236.16 252.932393 
L 241.12 253.093912 
L 246.08 253.281968 
L 251.04 253.618899 
L 256 253.826683 
L 260.96 254.057136 
L 265.92 254.246751 
L 270.88 254.446915 
L 275.84 254.691949 
L 280.8 254.903396 
L 285.76 255.030947 
L 290.72 255.259126 
L 295.68 255.441234 
L 300.64 255.554518 
L 305.6 255.839531 
L 310.56 255.960741 
L 315.52 256.209726 
L 320.48 256.293393 
L 325.44 256.419399 
L 330.4 256.657241 
L 335.36 256.758638 
L 340.32 256.894111 
L 345.28 257.103037 
L 350.24 257.216096 
L 355.2 257.386127 
L 360.16 257.474145 
L 365.12 257.643356 
L 370.08 257.828315 
L 375.04 257.8776 
L 380 258.028932 
L 384.96 258.095636 
L 389.92 258.261407 
L 394.88 258.390213 
L 399.84 258.511525 
L 404.8 258.648707 
L 409.76 258.72756 
L 414.72 258.793441 
L 419.68 258.905386 
L 424.64 259.072233 
L 429.6 259.142918 
L 434.56 259.276338 
L 439.52 259.381178 
L 444.48 259.493015 
L 449.44 259.600168 
L 454.4 259.679695 
L 459.36 259.730061 
L 461.8 259.787771 
" clip-path="url(#p49d30a5c63)" style="fill: none; stroke: #1f77b4; stroke-width: 1.5; stroke-linecap: square"/>
   </g>
   <g id="line2d_16">
    <path d="M 57.6 198.213489 
L 62.56 227.565861 
L 67.52 232.089073 
L 72.48 235.50385 
L 77.44 236.605578 
L 82.4 238.351827 
L 87.36 239.5965 
L 92.32 240.459184 
L 97.28 240.736076 
L 102.24 242.691016 
L 107.2 243.610703 
L 112.16 243.904581 
L 117.12 244.956684 
L 122.08 245.442972 
L 127.04 245.99617 
L 132 246.308929 
L 136.96 247.070776 
L 141.92 248.542626 
L 146.88 248.115921 
L 151.84 249.329029 
L 156.8 249.888634 
L 161.76 250.090755 
L 166.72 250.479001 
L 171.68 250.113821 
L 176.64 250.53491 
L 181.6 251.08083 
L 186.56 251.820836 
L 191.52 251.814557 
L 196.48 252.191104 
L 201.44 252.375748 
L 206.4 252.217164 
L 211.36 252.898216 
L 216.32 252.650467 
L 221.28 253.510298 
L 226.24 253.495229 
L 231.2 253.27802 
L 236.16 253.542968 
L 241.12 254.209628 
L 246.08 253.92413 
L 251.04 254.2283 
L 256 254.442998 
L 260.96 254.894974 
L 265.92 255.492547 
L 270.88 254.88346 
L 275.84 255.592663 
L 280.8 254.91376 
L 285.76 255.903672 
L 290.72 256.722927 
L 295.68 256.445292 
L 300.64 255.324223 
L 305.6 256.578207 
L 310.56 256.898028 
L 315.52 256.806748 
L 320.48 256.764655 
L 325.44 256.742948 
L 330.4 257.923049 
L 335.36 257.489461 
L 340.32 257.601157 
L 345.28 257.805205 
L 350.24 257.657919 
L 355.2 257.525313 
L 360.16 258.035531 
L 365.12 258.528137 
L 370.08 257.906155 
L 375.04 258.15162 
L 380 258.009038 
L 384.96 258.242425 
L 389.92 258.869497 
L 394.88 258.850273 
L 399.84 259.365188 
L 404.8 259.851348 
L 409.76 259.490278 
L 414.72 259.146941 
L 419.68 259.479541 
L 424.64 259.039126 
L 429.6 259.020572 
L 434.56 259.422831 
L 439.52 259.959067 
L 444.48 260.005396 
L 449.44 259.031602 
L 454.4 259.843655 
L 459.36 259.566541 
L 461.8 259.834718 
" clip-path="url(#p49d30a5c63)" style="fill: none; stroke: #ff7f0e; stroke-width: 1.5; stroke-linecap: square"/>
   </g>
   <g id="line2d_17">
    <path d="M 57.6 54.418199 
L 62.56 213.521463 
L 67.52 226.055247 
L 72.48 229.288876 
L 77.44 231.378801 
L 82.4 232.937421 
L 87.36 234.306201 
L 92.32 235.526509 
L 97.28 236.62637 
L 102.24 237.614722 
L 107.2 238.642387 
L 112.16 239.417191 
L 117.12 240.245824 
L 122.08 241.064901 
L 127.04 241.724697 
L 132 242.44209 
L 136.96 243.019044 
L 141.92 243.616376 
L 146.88 244.182251 
L 151.84 244.714074 
L 156.8 245.26661 
L 161.76 245.681969 
L 166.72 246.205831 
L 171.68 246.597147 
L 176.64 247.027903 
L 181.6 247.394365 
L 186.56 247.888791 
L 191.52 248.178259 
L 196.48 248.514752 
L 201.44 248.860122 
L 206.4 249.178011 
L 211.36 249.569595 
L 216.32 249.79161 
L 221.28 250.0638 
L 226.24 250.43293 
L 231.2 250.702521 
L 236.16 251.013731 
L 241.12 251.216266 
L 246.08 251.429473 
L 251.04 251.68343 
L 256 251.869221 
L 260.96 252.170576 
L 265.92 252.41553 
L 270.88 252.595835 
L 275.84 252.830386 
L 280.8 253.046277 
L 285.76 253.227079 
L 290.72 253.388801 
L 295.68 253.612163 
L 300.64 253.820415 
L 305.6 253.963344 
L 310.56 254.107923 
L 315.52 254.280877 
L 320.48 254.394651 
L 325.44 254.616006 
L 330.4 254.729487 
L 335.36 254.877279 
L 340.32 255.069411 
L 345.28 255.1773 
L 350.24 255.327609 
L 355.2 255.510508 
L 360.16 255.688495 
L 365.12 255.807954 
L 370.08 255.897051 
L 375.04 256.069516 
L 380 256.14576 
L 384.96 256.287526 
L 389.92 256.419649 
L 394.88 256.486907 
L 399.84 256.615924 
L 404.8 256.675709 
L 409.76 256.856446 
L 414.72 256.965064 
L 419.68 257.071832 
L 424.64 257.189197 
L 429.6 257.212681 
L 434.56 257.354013 
L 439.52 257.448488 
L 444.48 257.569316 
L 449.44 257.633958 
L 454.4 257.738756 
L 459.36 257.899356 
L 461.8 257.9129 
" clip-path="url(#p49d30a5c63)" style="fill: none; stroke: #2ca02c; stroke-width: 1.5; stroke-linecap: square"/>
   </g>
   <g id="line2d_18">
    <path d="M 57.6 197.255676 
L 62.56 227.095594 
L 67.52 231.66379 
L 72.48 234.047549 
L 77.44 235.333014 
L 82.4 236.961866 
L 87.36 237.652676 
L 92.32 238.58142 
L 97.28 239.618525 
L 102.24 239.719644 
L 107.2 241.4203 
L 112.16 241.650183 
L 117.12 243.305947 
L 122.08 242.913922 
L 127.04 244.14401 
L 132 245.066734 
L 136.96 245.053581 
L 141.92 246.551369 
L 146.88 245.540167 
L 151.84 246.809001 
L 156.8 247.204954 
L 161.76 247.409672 
L 166.72 248.526073 
L 171.68 248.446581 
L 176.64 248.5107 
L 181.6 248.844752 
L 186.56 249.933431 
L 191.52 249.693371 
L 196.48 249.535666 
L 201.44 250.569236 
L 206.4 250.051503 
L 211.36 251.426853 
L 216.32 251.675904 
L 221.28 251.502326 
L 226.24 251.536558 
L 231.2 252.179493 
L 236.16 251.876536 
L 241.12 252.139166 
L 246.08 253.134283 
L 251.04 252.320236 
L 256 252.76887 
L 260.96 253.221555 
L 265.92 253.832273 
L 270.88 254.009112 
L 275.84 254.190077 
L 280.8 253.394276 
L 285.76 253.604115 
L 290.72 254.693193 
L 295.68 254.421429 
L 300.64 255.200117 
L 305.6 254.78855 
L 310.56 255.103777 
L 315.52 256.015446 
L 320.48 255.553965 
L 325.44 255.675829 
L 330.4 254.935018 
L 335.36 256.114914 
L 340.32 255.334367 
L 345.28 255.91414 
L 350.24 255.625542 
L 355.2 256.679882 
L 360.16 256.701944 
L 365.12 256.430223 
L 370.08 256.618963 
L 375.04 256.971665 
L 380 256.66924 
L 384.96 257.472767 
L 389.92 256.230717 
L 394.88 257.473452 
L 399.84 257.425905 
L 404.8 257.585305 
L 409.76 257.644815 
L 414.72 258.446612 
L 419.68 257.400532 
L 424.64 257.327817 
L 429.6 257.99045 
L 434.56 258.107008 
L 439.52 258.224351 
L 444.48 257.569737 
L 449.44 258.782382 
L 454.4 258.49803 
L 459.36 258.212541 
L 461.8 258.19222 
" clip-path="url(#p49d30a5c63)" style="fill: none; stroke: #d62728; stroke-width: 1.5; stroke-linecap: square"/>
   </g>
   <g id="line2d_19">
    <path d="M 57.6 76.264006 
L 62.56 220.485695 
L 67.52 230.708626 
L 72.48 234.106912 
L 77.44 236.177285 
L 82.4 238.081005 
L 87.36 239.519166 
L 92.32 241.008999 
L 97.28 242.157813 
L 102.24 243.204846 
L 107.2 244.222433 
L 112.16 245.080574 
L 117.12 245.876368 
L 122.08 246.619945 
L 127.04 247.350151 
L 132 248.040705 
L 136.96 248.625271 
L 141.92 249.161292 
L 146.88 249.715782 
L 151.84 250.252886 
L 156.8 250.726411 
L 161.76 251.23305 
L 166.72 251.642387 
L 171.68 252.104766 
L 176.64 252.417772 
L 181.6 252.892943 
L 186.56 253.177695 
L 191.52 253.56174 
L 196.48 253.851648 
L 201.44 254.297698 
L 206.4 254.56567 
L 211.36 254.861379 
L 216.32 255.216186 
L 221.28 255.49204 
L 226.24 255.674205 
L 231.2 255.976526 
L 236.16 256.259994 
L 241.12 256.484944 
L 246.08 256.806503 
L 251.04 256.907209 
L 256 257.174828 
L 260.96 257.450718 
L 265.92 257.587629 
L 270.88 257.860117 
L 275.84 258.059153 
L 280.8 258.266585 
L 285.76 258.388733 
L 290.72 258.67815 
L 295.68 258.794157 
L 300.64 259.002824 
L 305.6 259.189141 
L 310.56 259.387949 
L 315.52 259.483694 
L 320.48 259.74803 
L 325.44 259.810495 
L 330.4 259.976964 
L 335.36 260.133757 
L 340.32 260.286888 
L 345.28 260.454792 
L 350.24 260.594208 
L 355.2 260.775482 
L 360.16 260.797198 
L 365.12 260.910923 
L 370.08 261.142909 
L 375.04 261.232367 
L 380 261.318924 
L 384.96 261.453969 
L 389.92 261.637015 
L 394.88 261.733068 
L 399.84 261.795811 
L 404.8 261.976433 
L 409.76 261.9811 
L 414.72 262.118511 
L 419.68 262.205289 
L 424.64 262.366828 
L 429.6 262.445287 
L 434.56 262.501803 
L 439.52 262.628892 
L 444.48 262.738574 
L 449.44 262.87508 
L 454.4 262.93838 
L 459.36 263.027459 
L 461.8 263.059675 
" clip-path="url(#p49d30a5c63)" style="fill: none; stroke: #9467bd; stroke-width: 1.5; stroke-linecap: square"/>
   </g>
   <g id="line2d_20">
    <path d="M 57.6 208.469129 
L 62.56 232.346436 
L 67.52 235.396066 
L 72.48 237.514151 
L 77.44 240.77776 
L 82.4 241.446025 
L 87.36 242.621151 
L 92.32 244.297668 
L 97.28 245.104799 
L 102.24 246.338346 
L 107.2 246.494597 
L 112.16 247.8389 
L 117.12 247.680038 
L 122.08 248.870865 
L 127.04 249.664223 
L 132 250.301261 
L 136.96 250.580303 
L 141.92 250.451185 
L 146.88 251.838982 
L 151.84 252.704844 
L 156.8 252.748045 
L 161.76 251.631832 
L 166.72 253.154617 
L 171.68 253.969958 
L 176.64 254.112507 
L 181.6 253.899109 
L 186.56 254.689859 
L 191.52 255.667833 
L 196.48 255.921281 
L 201.44 255.084521 
L 206.4 255.95018 
L 211.36 255.968615 
L 216.32 255.841259 
L 221.28 257.362971 
L 226.24 257.329401 
L 231.2 257.25858 
L 236.16 257.386212 
L 241.12 258.220455 
L 246.08 256.914595 
L 251.04 257.788866 
L 256 258.278126 
L 260.96 258.481229 
L 265.92 258.567089 
L 270.88 258.518862 
L 275.84 259.514274 
L 280.8 257.795835 
L 285.76 259.065317 
L 290.72 259.694139 
L 295.68 259.183024 
L 300.64 260.169631 
L 305.6 259.632965 
L 310.56 259.771501 
L 315.52 260.118309 
L 320.48 260.098439 
L 325.44 261.10822 
L 330.4 260.868381 
L 335.36 260.350537 
L 340.32 260.905728 
L 345.28 261.057565 
L 350.24 261.382086 
L 355.2 261.817103 
L 360.16 261.475153 
L 365.12 261.044859 
L 370.08 261.772055 
L 375.04 262.174317 
L 380 260.355922 
L 384.96 262.024883 
L 389.92 261.940252 
L 394.88 261.492565 
L 399.84 262.693398 
L 404.8 261.543032 
L 409.76 263.024885 
L 414.72 262.318662 
L 419.68 262.097241 
L 424.64 262.055091 
L 429.6 262.186562 
L 434.56 262.634117 
L 439.52 263.11037 
L 444.48 263.253782 
L 449.44 263.188585 
L 454.4 263.716143 
L 459.36 262.279866 
L 461.8 262.766079 
" clip-path="url(#p49d30a5c63)" style="fill: none; stroke: #8c564b; stroke-width: 1.5; stroke-linecap: square"/>
   </g>
   <g id="line2d_21">
    <path d="M 57.6 77.082882 
L 62.56 220.996323 
L 67.52 231.125757 
L 72.48 234.401391 
L 77.44 236.649216 
L 82.4 238.543627 
L 87.36 240.085966 
L 92.32 241.422658 
L 97.28 242.634919 
L 102.24 243.764373 
L 107.2 244.814577 
L 112.16 245.730295 
L 117.12 246.601268 
L 122.08 247.385402 
L 127.04 248.16774 
L 132 248.720063 
L 136.96 249.404309 
L 141.92 249.990894 
L 146.88 250.591067 
L 151.84 251.132709 
L 156.8 251.682942 
L 161.76 252.109107 
L 166.72 252.594716 
L 171.68 253.018204 
L 176.64 253.401966 
L 181.6 253.874345 
L 186.56 254.184512 
L 191.52 254.517648 
L 196.48 254.889268 
L 201.44 255.293302 
L 206.4 255.590702 
L 211.36 255.908559 
L 216.32 256.208576 
L 221.28 256.477549 
L 226.24 256.836366 
L 231.2 257.045154 
L 236.16 257.271727 
L 241.12 257.604024 
L 246.08 257.805793 
L 251.04 258.026895 
L 256 258.247226 
L 260.96 258.487817 
L 265.92 258.744617 
L 270.88 258.904873 
L 275.84 259.099899 
L 280.8 259.274809 
L 285.76 259.487548 
L 290.72 259.613179 
L 295.68 259.875407 
L 300.64 260.084669 
L 305.6 260.170364 
L 310.56 260.355716 
L 315.52 260.534005 
L 320.48 260.680899 
L 325.44 260.7876 
L 330.4 261.027647 
L 335.36 261.088319 
L 340.32 261.254569 
L 345.28 261.31446 
L 350.24 261.535109 
L 355.2 261.680264 
L 360.16 261.799643 
L 365.12 261.909747 
L 370.08 261.967442 
L 375.04 262.185089 
L 380 262.267372 
L 384.96 262.457362 
L 389.92 262.481307 
L 394.88 262.679985 
L 399.84 262.70981 
L 404.8 262.860699 
L 409.76 262.932806 
L 414.72 263.055653 
L 419.68 263.218711 
L 424.64 263.26774 
L 429.6 263.393498 
L 434.56 263.400364 
L 439.52 263.590393 
L 444.48 263.551999 
L 449.44 263.724278 
L 454.4 263.718442 
L 459.36 263.826664 
L 461.8 263.889816 
" clip-path="url(#p49d30a5c63)" style="fill: none; stroke: #e377c2; stroke-width: 1.5; stroke-linecap: square"/>
   </g>
   <g id="line2d_22">
    <path d="M 57.6 209.095981 
L 62.56 232.765817 
L 67.52 236.306701 
L 72.48 238.289439 
L 77.44 240.63474 
L 82.4 242.093034 
L 87.36 243.215116 
L 92.32 244.176675 
L 97.28 245.487343 
L 102.24 246.521135 
L 107.2 247.501953 
L 112.16 248.232652 
L 117.12 248.728739 
L 122.08 248.930437 
L 127.04 250.528562 
L 132 250.872904 
L 136.96 251.533482 
L 141.92 252.689649 
L 146.88 252.659809 
L 151.84 252.262973 
L 156.8 253.609606 
L 161.76 253.358048 
L 166.72 254.166884 
L 171.68 253.674008 
L 176.64 254.19182 
L 181.6 255.086614 
L 186.56 255.670677 
L 191.52 255.678792 
L 196.48 256.550164 
L 201.44 254.623364 
L 206.4 256.341231 
L 211.36 256.941087 
L 216.32 257.438858 
L 221.28 257.749732 
L 226.24 257.938154 
L 231.2 257.555434 
L 236.16 258.172577 
L 241.12 258.099032 
L 246.08 258.0149 
L 251.04 258.419356 
L 256 259.104936 
L 260.96 259.306718 
L 265.92 259.808715 
L 270.88 259.510619 
L 275.84 260.130267 
L 280.8 259.873407 
L 285.76 260.690694 
L 290.72 261.113952 
L 295.68 260.177179 
L 300.64 260.820563 
L 305.6 260.588327 
L 310.56 259.69304 
L 315.52 260.947709 
L 320.48 260.768247 
L 325.44 261.42118 
L 330.4 260.577932 
L 335.36 262.333205 
L 340.32 261.716515 
L 345.28 261.553524 
L 350.24 261.886889 
L 355.2 261.867754 
L 360.16 262.219862 
L 365.12 261.649899 
L 370.08 262.95143 
L 375.04 261.799254 
L 380 262.493361 
L 384.96 262.464769 
L 389.92 262.140481 
L 394.88 262.683234 
L 399.84 263.383741 
L 404.8 262.72044 
L 409.76 262.514003 
L 414.72 263.800172 
L 419.68 263.171188 
L 424.64 263.233891 
L 429.6 263.206276 
L 434.56 263.027913 
L 439.52 263.564708 
L 444.48 263.531685 
L 449.44 262.992342 
L 454.4 262.979648 
L 459.36 263.864835 
L 461.8 264.00377 
" clip-path="url(#p49d30a5c63)" style="fill: none; stroke: #7f7f7f; stroke-width: 1.5; stroke-linecap: square"/>
   </g>
   <g id="line2d_23">
    <path d="M 57.6 235.391882 
L 62.56 251.220813 
L 67.52 256.334278 
L 72.48 259.55957 
L 77.44 262.284006 
L 82.4 264.454545 
L 87.36 266.203073 
L 92.32 267.816676 
L 97.28 269.037782 
L 102.24 270.23132 
L 107.2 271.266233 
L 112.16 272.165084 
L 117.12 273.074915 
L 122.08 273.882776 
L 127.04 274.661501 
L 132 275.199767 
L 136.96 275.916184 
L 141.92 276.477975 
L 146.88 276.991546 
L 151.84 277.470969 
L 156.8 278.075971 
L 161.76 278.596066 
L 166.72 279.079674 
L 171.68 279.364458 
L 176.64 280.008296 
L 181.6 280.317332 
L 186.56 280.714414 
L 191.52 281.003108 
L 196.48 281.374905 
L 201.44 281.862056 
L 206.4 282.087558 
L 211.36 282.413532 
L 216.32 282.73074 
L 221.28 283.270156 
L 226.24 283.364245 
L 231.2 283.644651 
L 236.16 283.979982 
L 241.12 284.112851 
L 246.08 284.645799 
L 251.04 284.669599 
L 256 285.01128 
L 260.96 285.231693 
L 265.92 285.537462 
L 270.88 285.676957 
L 275.84 286.07232 
L 280.8 286.112653 
L 285.76 286.345922 
L 290.72 286.388368 
L 295.68 286.825603 
L 300.64 286.933217 
L 305.6 287.287539 
L 310.56 287.208066 
L 315.52 287.533028 
L 320.48 287.872963 
L 325.44 287.246316 
L 330.4 288.471224 
L 335.36 288.323142 
L 340.32 288.424213 
L 345.28 288.868154 
L 350.24 289.047704 
" clip-path="url(#p49d30a5c63)" style="fill: none; stroke: #bcbd22; stroke-width: 1.5; stroke-linecap: square"/>
   </g>
   <g id="line2d_24">
    <path d="M 57.6 249.0471 
L 62.56 255.716367 
L 67.52 255.032285 
L 72.48 258.936758 
L 77.44 258.676272 
L 82.4 261.417713 
L 87.36 262.109375 
L 92.32 263.451722 
L 97.28 265.451837 
L 102.24 263.367079 
L 107.2 265.712156 
L 112.16 265.815703 
L 117.12 266.796408 
L 122.08 267.35262 
L 127.04 266.544657 
L 132 266.834453 
L 136.96 266.983699 
L 141.92 267.347042 
L 146.88 267.474341 
L 151.84 267.753522 
L 156.8 267.97959 
L 161.76 266.387842 
L 166.72 267.117309 
L 171.68 269.08247 
L 176.64 268.729998 
L 181.6 268.401051 
L 186.56 268.52567 
L 191.52 268.254918 
L 196.48 267.983954 
L 201.44 268.445816 
L 206.4 269.914035 
L 211.36 269.45702 
L 216.32 269.549818 
L 221.28 268.34501 
L 226.24 269.364726 
L 231.2 268.832512 
L 236.16 268.833821 
L 241.12 270.117659 
L 246.08 269.972318 
L 251.04 269.775729 
L 256 269.888735 
L 260.96 269.829442 
L 265.92 270.249102 
L 270.88 269.511667 
L 275.84 269.942845 
L 280.8 270.248431 
L 285.76 270.12672 
L 290.72 270.955225 
L 295.68 270.330706 
L 300.64 271.034045 
L 305.6 269.976405 
L 310.56 270.630504 
L 315.52 269.178671 
L 320.48 270.141827 
L 325.44 270.524387 
L 330.4 269.814335 
L 335.36 269.37938 
L 340.32 269.62222 
L 345.28 270.464928 
L 350.24 269.017853 
" clip-path="url(#p49d30a5c63)" style="fill: none; stroke: #17becf; stroke-width: 1.5; stroke-linecap: square"/>
   </g>
   <g id="line2d_25">
    <path d="M 57.6 234.932418 
L 62.56 251.430136 
L 67.52 256.606587 
L 72.48 260.022036 
L 77.44 262.637123 
L 82.4 264.683773 
L 87.36 266.42372 
L 92.32 267.811087 
L 97.28 269.216901 
L 102.24 270.26858 
L 107.2 271.322857 
L 112.16 272.400478 
L 117.12 273.200414 
L 122.08 273.895703 
L 127.04 274.759468 
L 132 275.465796 
L 136.96 275.951855 
L 141.92 276.482817 
L 146.88 277.115944 
L 151.84 277.692929 
L 156.8 278.088557 
L 161.76 278.637857 
L 166.72 279.226449 
L 171.68 279.612141 
L 176.64 279.940632 
L 181.6 280.509151 
L 186.56 280.738722 
L 191.52 281.273935 
L 196.48 281.834887 
L 201.44 281.913861 
L 206.4 282.23465 
L 211.36 282.730012 
L 216.32 282.959784 
L 221.28 283.348044 
L 226.24 283.635858 
L 231.2 283.789979 
L 236.16 284.174848 
L 241.12 284.478725 
L 246.08 284.787903 
L 251.04 284.905751 
L 256 285.430905 
L 260.96 285.516415 
L 265.92 285.496579 
L 270.88 286.141514 
L 275.84 286.255621 
L 280.8 286.305323 
L 285.76 286.792258 
L 290.72 286.845361 
L 295.68 287.259295 
" clip-path="url(#p49d30a5c63)" style="fill: none; stroke: #1f77b4; stroke-width: 1.5; stroke-linecap: square"/>
   </g>
   <g id="line2d_26">
    <path d="M 57.6 246.322698 
L 62.56 253.531682 
L 67.52 256.526542 
L 72.48 257.660324 
L 77.44 259.004761 
L 82.4 261.689781 
L 87.36 261.526517 
L 92.32 263.560248 
L 97.28 262.188478 
L 102.24 263.918462 
L 107.2 265.531692 
L 112.16 265.804231 
L 117.12 265.32277 
L 122.08 264.025642 
L 127.04 266.276237 
L 132 266.545086 
L 136.96 266.221285 
L 141.92 268.211817 
L 146.88 266.045203 
L 151.84 267.879091 
L 156.8 267.962613 
L 161.76 267.184594 
L 166.72 267.998618 
L 171.68 268.467048 
L 176.64 267.379912 
L 181.6 268.375613 
L 186.56 267.537605 
L 191.52 269.062676 
L 196.48 269.114655 
L 201.44 269.037872 
L 206.4 268.990867 
L 211.36 268.262978 
L 216.32 269.11491 
L 221.28 268.36862 
L 226.24 267.543284 
L 231.2 268.969183 
L 236.16 269.11135 
L 241.12 269.897724 
L 246.08 270.718323 
L 251.04 269.419162 
L 256 267.616074 
L 260.96 268.842824 
L 265.92 268.641035 
L 270.88 269.508518 
L 275.84 269.349265 
L 280.8 270.13229 
L 285.76 269.269199 
L 290.72 268.909311 
L 295.68 268.067167 
" clip-path="url(#p49d30a5c63)" style="fill: none; stroke: #ff7f0e; stroke-width: 1.5; stroke-linecap: square"/>
   </g>
   <g id="line2d_27">
    <path d="M 57.6 237.556246 
L 62.56 254.203181 
L 67.52 259.469208 
L 72.48 262.932061 
L 77.44 265.511592 
L 82.4 267.654758 
L 87.36 269.425712 
L 92.32 270.787525 
L 97.28 272.194682 
L 102.24 273.283875 
L 107.2 274.309247 
L 112.16 275.379862 
L 117.12 276.275298 
L 122.08 277.106011 
L 127.04 277.544141 
L 132 278.389164 
L 136.96 278.94036 
L 141.92 279.653341 
L 146.88 280.187371 
L 151.84 280.994007 
L 156.8 281.405669 
L 161.76 281.927375 
L 166.72 282.432976 
L 171.68 282.918053 
L 176.64 283.274732 
L 181.6 283.746372 
L 186.56 284.152817 
L 191.52 284.674803 
L 196.48 284.927325 
L 201.44 285.279752 
L 206.4 285.573505 
L 211.36 285.917464 
L 216.32 286.485367 
L 221.28 286.709956 
L 226.24 287.062522 
L 231.2 287.356371 
L 236.16 287.668774 
L 241.12 287.884738 
L 246.08 288.117153 
L 251.04 288.51573 
L 256 288.705864 
L 260.96 288.895245 
L 265.92 289.185597 
L 270.88 289.411539 
L 275.84 289.695851 
L 280.8 290.159751 
L 285.76 290.258915 
L 290.72 290.4492 
L 295.68 290.723593 
L 300.64 290.911806 
L 305.6 291.043271 
L 310.56 291.402442 
L 315.52 291.48918 
L 320.48 291.587817 
L 325.44 292.073624 
L 330.4 292.215652 
L 335.36 292.272191 
L 340.32 292.515845 
L 345.28 292.87817 
L 350.24 292.847027 
L 355.2 293.290108 
L 360.16 293.353091 
L 365.12 293.586321 
L 370.08 293.861856 
L 375.04 293.875586 
L 380 294.080955 
L 384.96 294.415514 
L 389.92 294.624299 
L 394.88 294.824902 
L 399.84 294.773844 
L 404.8 295.235148 
L 409.76 295.45107 
L 414.72 295.488 
" clip-path="url(#p49d30a5c63)" style="fill: none; stroke: #2ca02c; stroke-width: 1.5; stroke-linecap: square"/>
   </g>
   <g id="line2d_28">
    <path d="M 57.6 250.779471 
L 62.56 256.18224 
L 67.52 260.209522 
L 72.48 260.379021 
L 77.44 261.801925 
L 82.4 262.248284 
L 87.36 266.018631 
L 92.32 266.986998 
L 97.28 265.576544 
L 102.24 267.522753 
L 107.2 269.144168 
L 112.16 269.757492 
L 117.12 267.64381 
L 122.08 269.511225 
L 127.04 269.307319 
L 132 270.407699 
L 136.96 269.536866 
L 141.92 267.972653 
L 146.88 270.139778 
L 151.84 270.257335 
L 156.8 269.117593 
L 161.76 271.565614 
L 166.72 271.175752 
L 171.68 271.267047 
L 176.64 271.291729 
L 181.6 271.603034 
L 186.56 271.962762 
L 191.52 271.065648 
L 196.48 270.763027 
L 201.44 270.387695 
L 206.4 272.242187 
L 211.36 271.308877 
L 216.32 272.548052 
L 221.28 271.828862 
L 226.24 271.766627 
L 231.2 271.779378 
L 236.16 272.598475 
L 241.12 273.31803 
L 246.08 271.759975 
L 251.04 271.415931 
L 256 272.763394 
L 260.96 272.671341 
L 265.92 272.579378 
L 270.88 273.384058 
L 275.84 271.711894 
L 280.8 272.786768 
L 285.76 273.029338 
L 290.72 272.920712 
L 295.68 272.194202 
L 300.64 273.434543 
L 305.6 272.435144 
L 310.56 269.307503 
L 315.52 273.142171 
L 320.48 271.505519 
L 325.44 272.149835 
L 330.4 272.36849 
L 335.36 273.503901 
L 340.32 272.626575 
L 345.28 272.381047 
L 350.24 272.669783 
L 355.2 273.371887 
L 360.16 271.593911 
L 365.12 273.981967 
L 370.08 271.637133 
L 375.04 271.924193 
L 380 272.818207 
L 384.96 271.672134 
L 389.92 272.660153 
L 394.88 272.109752 
L 399.84 273.353785 
L 404.8 271.597875 
L 409.76 273.279178 
L 414.72 271.832354 
" clip-path="url(#p49d30a5c63)" style="fill: none; stroke: #d62728; stroke-width: 1.5; stroke-linecap: square"/>
   </g>
   <g id="patch_3">
    <path d="M 57.6 307.584 
L 57.6 41.472 
" style="fill: none; stroke: #000000; stroke-width: 0.8; stroke-linejoin: miter; stroke-linecap: square"/>
   </g>
   <g id="patch_4">
    <path d="M 414.72 307.584 
L 414.72 41.472 
" style="fill: none; stroke: #000000; stroke-width: 0.8; stroke-linejoin: miter; stroke-linecap: square"/>
   </g>
   <g id="patch_5">
    <path d="M 57.6 307.584 
L 414.72 307.584 
" style="fill: none; stroke: #000000; stroke-width: 0.8; stroke-linejoin: miter; stroke-linecap: square"/>
   </g>
   <g id="patch_6">
    <path d="M 57.6 41.472 
L 414.72 41.472 
" style="fill: none; stroke: #000000; stroke-width: 0.8; stroke-linejoin: miter; stroke-linecap: square"/>
   </g>
   <g id="legend_1">
    <g id="patch_7">
     <path d="M 352.445 254.96575 
L 407.72 254.96575 
Q 409.72 254.96575 409.72 252.96575 
L 409.72 48.472 
Q 409.72 46.472 407.72 46.472 
L 352.445 46.472 
Q 350.445 46.472 350.445 48.472 
L 350.445 252.96575 
Q 350.445 254.96575 352.445 254.96575 
z
" style="fill: #ffffff; opacity: 0.8; stroke: #cccccc; stroke-linejoin: miter"/>
    </g>
    <g id="line2d_29">
     <path d="M 354.445 54.570437 
L 364.445 54.570437 
L 374.445 54.570437 
" style="fill: none; stroke: #1f77b4; stroke-width: 1.5; stroke-linecap: square"/>
    </g>
    <g id="text_17">
     <!-- train -->
     <g transform="translate(382.445 58.070437) scale(0.1 -0.1)">
      <defs>
       <path id="DejaVuSans-74" d="M 1172 4494 
L 1172 3500 
L 2356 3500 
L 2356 3053 
L 1172 3053 
L 1172 1153 
Q 1172 725 1289 603 
Q 1406 481 1766 481 
L 2356 481 
L 2356 0 
L 1766 0 
Q 1100 0 847 248 
Q 594 497 594 1153 
L 594 3053 
L 172 3053 
L 172 3500 
L 594 3500 
L 594 4494 
L 1172 4494 
z
" transform="scale(0.015625)"/>
       <path id="DejaVuSans-72" d="M 2631 2963 
Q 2534 3019 2420 3045 
Q 2306 3072 2169 3072 
Q 1681 3072 1420 2755 
Q 1159 2438 1159 1844 
L 1159 0 
L 581 0 
L 581 3500 
L 1159 3500 
L 1159 2956 
Q 1341 3275 1631 3429 
Q 1922 3584 2338 3584 
Q 2397 3584 2469 3576 
Q 2541 3569 2628 3553 
L 2631 2963 
z
" transform="scale(0.015625)"/>
       <path id="DejaVuSans-61" d="M 2194 1759 
Q 1497 1759 1228 1600 
Q 959 1441 959 1056 
Q 959 750 1161 570 
Q 1363 391 1709 391 
Q 2188 391 2477 730 
Q 2766 1069 2766 1631 
L 2766 1759 
L 2194 1759 
z
M 3341 1997 
L 3341 0 
L 2766 0 
L 2766 531 
Q 2569 213 2275 61 
Q 1981 -91 1556 -91 
Q 1019 -91 701 211 
Q 384 513 384 1019 
Q 384 1609 779 1909 
Q 1175 2209 1959 2209 
L 2766 2209 
L 2766 2266 
Q 2766 2663 2505 2880 
Q 2244 3097 1772 3097 
Q 1472 3097 1187 3025 
Q 903 2953 641 2809 
L 641 3341 
Q 956 3463 1253 3523 
Q 1550 3584 1831 3584 
Q 2591 3584 2966 3190 
Q 3341 2797 3341 1997 
z
" transform="scale(0.015625)"/>
       <path id="DejaVuSans-69" d="M 603 3500 
L 1178 3500 
L 1178 0 
L 603 0 
L 603 3500 
z
M 603 4863 
L 1178 4863 
L 1178 4134 
L 603 4134 
L 603 4863 
z
" transform="scale(0.015625)"/>
       <path id="DejaVuSans-6e" d="M 3513 2113 
L 3513 0 
L 2938 0 
L 2938 2094 
Q 2938 2591 2744 2837 
Q 2550 3084 2163 3084 
Q 1697 3084 1428 2787 
Q 1159 2491 1159 1978 
L 1159 0 
L 581 0 
L 581 3500 
L 1159 3500 
L 1159 2956 
Q 1366 3272 1645 3428 
Q 1925 3584 2291 3584 
Q 2894 3584 3203 3211 
Q 3513 2838 3513 2113 
z
" transform="scale(0.015625)"/>
      </defs>
      <use xlink:href="#DejaVuSans-74"/>
      <use xlink:href="#DejaVuSans-72" x="39.208984"/>
      <use xlink:href="#DejaVuSans-61" x="80.322266"/>
      <use xlink:href="#DejaVuSans-69" x="141.601562"/>
      <use xlink:href="#DejaVuSans-6e" x="169.384766"/>
     </g>
    </g>
    <g id="line2d_30">
     <path d="M 354.445 69.248562 
L 364.445 69.248562 
L 374.445 69.248562 
" style="fill: none; stroke: #ff7f0e; stroke-width: 1.5; stroke-linecap: square"/>
    </g>
    <g id="text_18">
     <!-- val -->
     <g transform="translate(382.445 72.748562) scale(0.1 -0.1)">
      <defs>
       <path id="DejaVuSans-76" d="M 191 3500 
L 800 3500 
L 1894 563 
L 2988 3500 
L 3597 3500 
L 2284 0 
L 1503 0 
L 191 3500 
z
" transform="scale(0.015625)"/>
       <path id="DejaVuSans-6c" d="M 603 4863 
L 1178 4863 
L 1178 0 
L 603 0 
L 603 4863 
z
" transform="scale(0.015625)"/>
      </defs>
      <use xlink:href="#DejaVuSans-76"/>
      <use xlink:href="#DejaVuSans-61" x="59.179688"/>
      <use xlink:href="#DejaVuSans-6c" x="120.458984"/>
     </g>
    </g>
    <g id="line2d_31">
     <path d="M 354.445 83.926688 
L 364.445 83.926688 
L 374.445 83.926688 
" style="fill: none; stroke: #2ca02c; stroke-width: 1.5; stroke-linecap: square"/>
    </g>
    <g id="text_19">
     <!-- train -->
     <g transform="translate(382.445 87.426688) scale(0.1 -0.1)">
      <use xlink:href="#DejaVuSans-74"/>
      <use xlink:href="#DejaVuSans-72" x="39.208984"/>
      <use xlink:href="#DejaVuSans-61" x="80.322266"/>
      <use xlink:href="#DejaVuSans-69" x="141.601562"/>
      <use xlink:href="#DejaVuSans-6e" x="169.384766"/>
     </g>
    </g>
    <g id="line2d_32">
     <path d="M 354.445 98.604812 
L 364.445 98.604812 
L 374.445 98.604812 
" style="fill: none; stroke: #d62728; stroke-width: 1.5; stroke-linecap: square"/>
    </g>
    <g id="text_20">
     <!-- val -->
     <g transform="translate(382.445 102.104812) scale(0.1 -0.1)">
      <use xlink:href="#DejaVuSans-76"/>
      <use xlink:href="#DejaVuSans-61" x="59.179688"/>
      <use xlink:href="#DejaVuSans-6c" x="120.458984"/>
     </g>
    </g>
    <g id="line2d_33">
     <path d="M 354.445 113.282937 
L 364.445 113.282937 
L 374.445 113.282937 
" style="fill: none; stroke: #9467bd; stroke-width: 1.5; stroke-linecap: square"/>
    </g>
    <g id="text_21">
     <!-- train -->
     <g transform="translate(382.445 116.782937) scale(0.1 -0.1)">
      <use xlink:href="#DejaVuSans-74"/>
      <use xlink:href="#DejaVuSans-72" x="39.208984"/>
      <use xlink:href="#DejaVuSans-61" x="80.322266"/>
      <use xlink:href="#DejaVuSans-69" x="141.601562"/>
      <use xlink:href="#DejaVuSans-6e" x="169.384766"/>
     </g>
    </g>
    <g id="line2d_34">
     <path d="M 354.445 127.961062 
L 364.445 127.961062 
L 374.445 127.961062 
" style="fill: none; stroke: #8c564b; stroke-width: 1.5; stroke-linecap: square"/>
    </g>
    <g id="text_22">
     <!-- val -->
     <g transform="translate(382.445 131.461062) scale(0.1 -0.1)">
      <use xlink:href="#DejaVuSans-76"/>
      <use xlink:href="#DejaVuSans-61" x="59.179688"/>
      <use xlink:href="#DejaVuSans-6c" x="120.458984"/>
     </g>
    </g>
    <g id="line2d_35">
     <path d="M 354.445 142.639187 
L 364.445 142.639187 
L 374.445 142.639187 
" style="fill: none; stroke: #e377c2; stroke-width: 1.5; stroke-linecap: square"/>
    </g>
    <g id="text_23">
     <!-- train -->
     <g transform="translate(382.445 146.139187) scale(0.1 -0.1)">
      <use xlink:href="#DejaVuSans-74"/>
      <use xlink:href="#DejaVuSans-72" x="39.208984"/>
      <use xlink:href="#DejaVuSans-61" x="80.322266"/>
      <use xlink:href="#DejaVuSans-69" x="141.601562"/>
      <use xlink:href="#DejaVuSans-6e" x="169.384766"/>
     </g>
    </g>
    <g id="line2d_36">
     <path d="M 354.445 157.317312 
L 364.445 157.317312 
L 374.445 157.317312 
" style="fill: none; stroke: #7f7f7f; stroke-width: 1.5; stroke-linecap: square"/>
    </g>
    <g id="text_24">
     <!-- val -->
     <g transform="translate(382.445 160.817312) scale(0.1 -0.1)">
      <use xlink:href="#DejaVuSans-76"/>
      <use xlink:href="#DejaVuSans-61" x="59.179688"/>
      <use xlink:href="#DejaVuSans-6c" x="120.458984"/>
     </g>
    </g>
    <g id="line2d_37">
     <path d="M 354.445 171.995437 
L 364.445 171.995437 
L 374.445 171.995437 
" style="fill: none; stroke: #bcbd22; stroke-width: 1.5; stroke-linecap: square"/>
    </g>
    <g id="text_25">
     <!-- train -->
     <g transform="translate(382.445 175.495437) scale(0.1 -0.1)">
      <use xlink:href="#DejaVuSans-74"/>
      <use xlink:href="#DejaVuSans-72" x="39.208984"/>
      <use xlink:href="#DejaVuSans-61" x="80.322266"/>
      <use xlink:href="#DejaVuSans-69" x="141.601562"/>
      <use xlink:href="#DejaVuSans-6e" x="169.384766"/>
     </g>
    </g>
    <g id="line2d_38">
     <path d="M 354.445 186.673562 
L 364.445 186.673562 
L 374.445 186.673562 
" style="fill: none; stroke: #17becf; stroke-width: 1.5; stroke-linecap: square"/>
    </g>
    <g id="text_26">
     <!-- val -->
     <g transform="translate(382.445 190.173562) scale(0.1 -0.1)">
      <use xlink:href="#DejaVuSans-76"/>
      <use xlink:href="#DejaVuSans-61" x="59.179688"/>
      <use xlink:href="#DejaVuSans-6c" x="120.458984"/>
     </g>
    </g>
    <g id="line2d_39">
     <path d="M 354.445 201.351687 
L 364.445 201.351687 
L 374.445 201.351687 
" style="fill: none; stroke: #1f77b4; stroke-width: 1.5; stroke-linecap: square"/>
    </g>
    <g id="text_27">
     <!-- train -->
     <g transform="translate(382.445 204.851687) scale(0.1 -0.1)">
      <use xlink:href="#DejaVuSans-74"/>
      <use xlink:href="#DejaVuSans-72" x="39.208984"/>
      <use xlink:href="#DejaVuSans-61" x="80.322266"/>
      <use xlink:href="#DejaVuSans-69" x="141.601562"/>
      <use xlink:href="#DejaVuSans-6e" x="169.384766"/>
     </g>
    </g>
    <g id="line2d_40">
     <path d="M 354.445 216.029812 
L 364.445 216.029812 
L 374.445 216.029812 
" style="fill: none; stroke: #ff7f0e; stroke-width: 1.5; stroke-linecap: square"/>
    </g>
    <g id="text_28">
     <!-- val -->
     <g transform="translate(382.445 219.529812) scale(0.1 -0.1)">
      <use xlink:href="#DejaVuSans-76"/>
      <use xlink:href="#DejaVuSans-61" x="59.179688"/>
      <use xlink:href="#DejaVuSans-6c" x="120.458984"/>
     </g>
    </g>
    <g id="line2d_41">
     <path d="M 354.445 230.707937 
L 364.445 230.707937 
L 374.445 230.707937 
" style="fill: none; stroke: #2ca02c; stroke-width: 1.5; stroke-linecap: square"/>
    </g>
    <g id="text_29">
     <!-- train -->
     <g transform="translate(382.445 234.207937) scale(0.1 -0.1)">
      <use xlink:href="#DejaVuSans-74"/>
      <use xlink:href="#DejaVuSans-72" x="39.208984"/>
      <use xlink:href="#DejaVuSans-61" x="80.322266"/>
      <use xlink:href="#DejaVuSans-69" x="141.601562"/>
      <use xlink:href="#DejaVuSans-6e" x="169.384766"/>
     </g>
    </g>
    <g id="line2d_42">
     <path d="M 354.445 245.386062 
L 364.445 245.386062 
L 374.445 245.386062 
" style="fill: none; stroke: #d62728; stroke-width: 1.5; stroke-linecap: square"/>
    </g>
    <g id="text_30">
     <!-- val -->
     <g transform="translate(382.445 248.886062) scale(0.1 -0.1)">
      <use xlink:href="#DejaVuSans-76"/>
      <use xlink:href="#DejaVuSans-61" x="59.179688"/>
      <use xlink:href="#DejaVuSans-6c" x="120.458984"/>
     </g>
    </g>
   </g>
  </g>
 </g>
 <defs>
  <clipPath id="p49d30a5c63">
   <rect x="57.6" y="41.472" width="357.12" height="266.112"/>
  </clipPath>
 </defs>
</svg>
