<?xml version="1.0" encoding="utf-8" standalone="no"?>
<!DOCTYPE svg PUBLIC "-//W3C//DTD SVG 1.1//EN"
  "http://www.w3.org/Graphics/SVG/1.1/DTD/svg11.dtd">
<svg xmlns:xlink="http://www.w3.org/1999/xlink" width="460.8pt" height="345.6pt" viewBox="0 0 460.8 345.6" xmlns="http://www.w3.org/2000/svg" version="1.1">
 <metadata>
  <rdf:RDF xmlns:dc="http://purl.org/dc/elements/1.1/" xmlns:cc="http://creativecommons.org/ns#" xmlns:rdf="http://www.w3.org/1999/02/22-rdf-syntax-ns#">
   <cc:Work>
    <dc:type rdf:resource="http://purl.org/dc/dcmitype/StillImage"/>
    <dc:date>2024-07-05T15:16:03.294050</dc:date>
    <dc:format>image/svg+xml</dc:format>
    <dc:creator>
     <cc:Agent>
      <dc:title>Matplotlib v3.7.4, https://matplotlib.org/</dc:title>
     </cc:Agent>
    </dc:creator>
   </cc:Work>
  </rdf:RDF>
 </metadata>
 <defs>
  <style type="text/css">*{stroke-linejoin: round; stroke-linecap: butt}</style>
 </defs>
 <g id="figure_1">
  <g id="patch_1">
   <path d="M 0 345.6 
L 460.8 345.6 
L 460.8 0 
L 0 0 
z
" style="fill: #ffffff"/>
  </g>
  <g id="axes_1">
   <g id="patch_2">
    <path d="M 57.6 307.584 
L 414.72 307.584 
L 414.72 41.472 
L 57.6 41.472 
z
" style="fill: #ffffff"/>
   </g>
   <g id="matplotlib.axis_1">
    <g id="xtick_1">
     <g id="line2d_1">
      <defs>
       <path id="m165b4c23d1" d="M 0 0 
L 0 3.5 
" style="stroke: #000000; stroke-width: 0.8"/>
      </defs>
      <g>
       <use xlink:href="#m165b4c23d1" x="126.138182" y="307.584" style="stroke: #000000; stroke-width: 0.8"/>
      </g>
     </g>
     <g id="text_1">
      <!-- 20 -->
      <g transform="translate(119.775682 322.182437) scale(0.1 -0.1)">
       <defs>
        <path id="DejaVuSans-32" d="M 1228 531 
L 3431 531 
L 3431 0 
L 469 0 
L 469 531 
Q 828 903 1448 1529 
Q 2069 2156 2228 2338 
Q 2531 2678 2651 2914 
Q 2772 3150 2772 3378 
Q 2772 3750 2511 3984 
Q 2250 4219 1831 4219 
Q 1534 4219 1204 4116 
Q 875 4013 500 3803 
L 500 4441 
Q 881 4594 1212 4672 
Q 1544 4750 1819 4750 
Q 2544 4750 2975 4387 
Q 3406 4025 3406 3419 
Q 3406 3131 3298 2873 
Q 3191 2616 2906 2266 
Q 2828 2175 2409 1742 
Q 1991 1309 1228 531 
z
" transform="scale(0.015625)"/>
        <path id="DejaVuSans-30" d="M 2034 4250 
Q 1547 4250 1301 3770 
Q 1056 3291 1056 2328 
Q 1056 1369 1301 889 
Q 1547 409 2034 409 
Q 2525 409 2770 889 
Q 3016 1369 3016 2328 
Q 3016 3291 2770 3770 
Q 2525 4250 2034 4250 
z
M 2034 4750 
Q 2819 4750 3233 4129 
Q 3647 3509 3647 2328 
Q 3647 1150 3233 529 
Q 2819 -91 2034 -91 
Q 1250 -91 836 529 
Q 422 1150 422 2328 
Q 422 3509 836 4129 
Q 1250 4750 2034 4750 
z
" transform="scale(0.015625)"/>
       </defs>
       <use xlink:href="#DejaVuSans-32"/>
       <use xlink:href="#DejaVuSans-30" x="63.623047"/>
      </g>
     </g>
    </g>
    <g id="xtick_2">
     <g id="line2d_2">
      <g>
       <use xlink:href="#m165b4c23d1" x="198.283636" y="307.584" style="stroke: #000000; stroke-width: 0.8"/>
      </g>
     </g>
     <g id="text_2">
      <!-- 40 -->
      <g transform="translate(191.921136 322.182437) scale(0.1 -0.1)">
       <defs>
        <path id="DejaVuSans-34" d="M 2419 4116 
L 825 1625 
L 2419 1625 
L 2419 4116 
z
M 2253 4666 
L 3047 4666 
L 3047 1625 
L 3713 1625 
L 3713 1100 
L 3047 1100 
L 3047 0 
L 2419 0 
L 2419 1100 
L 313 1100 
L 313 1709 
L 2253 4666 
z
" transform="scale(0.015625)"/>
       </defs>
       <use xlink:href="#DejaVuSans-34"/>
       <use xlink:href="#DejaVuSans-30" x="63.623047"/>
      </g>
     </g>
    </g>
    <g id="xtick_3">
     <g id="line2d_3">
      <g>
       <use xlink:href="#m165b4c23d1" x="270.429091" y="307.584" style="stroke: #000000; stroke-width: 0.8"/>
      </g>
     </g>
     <g id="text_3">
      <!-- 60 -->
      <g transform="translate(264.066591 322.182437) scale(0.1 -0.1)">
       <defs>
        <path id="DejaVuSans-36" d="M 2113 2584 
Q 1688 2584 1439 2293 
Q 1191 2003 1191 1497 
Q 1191 994 1439 701 
Q 1688 409 2113 409 
Q 2538 409 2786 701 
Q 3034 994 3034 1497 
Q 3034 2003 2786 2293 
Q 2538 2584 2113 2584 
z
M 3366 4563 
L 3366 3988 
Q 3128 4100 2886 4159 
Q 2644 4219 2406 4219 
Q 1781 4219 1451 3797 
Q 1122 3375 1075 2522 
Q 1259 2794 1537 2939 
Q 1816 3084 2150 3084 
Q 2853 3084 3261 2657 
Q 3669 2231 3669 1497 
Q 3669 778 3244 343 
Q 2819 -91 2113 -91 
Q 1303 -91 875 529 
Q 447 1150 447 2328 
Q 447 3434 972 4092 
Q 1497 4750 2381 4750 
Q 2619 4750 2861 4703 
Q 3103 4656 3366 4563 
z
" transform="scale(0.015625)"/>
       </defs>
       <use xlink:href="#DejaVuSans-36"/>
       <use xlink:href="#DejaVuSans-30" x="63.623047"/>
      </g>
     </g>
    </g>
    <g id="xtick_4">
     <g id="line2d_4">
      <g>
       <use xlink:href="#m165b4c23d1" x="342.574545" y="307.584" style="stroke: #000000; stroke-width: 0.8"/>
      </g>
     </g>
     <g id="text_4">
      <!-- 80 -->
      <g transform="translate(336.212045 322.182437) scale(0.1 -0.1)">
       <defs>
        <path id="DejaVuSans-38" d="M 2034 2216 
Q 1584 2216 1326 1975 
Q 1069 1734 1069 1313 
Q 1069 891 1326 650 
Q 1584 409 2034 409 
Q 2484 409 2743 651 
Q 3003 894 3003 1313 
Q 3003 1734 2745 1975 
Q 2488 2216 2034 2216 
z
M 1403 2484 
Q 997 2584 770 2862 
Q 544 3141 544 3541 
Q 544 4100 942 4425 
Q 1341 4750 2034 4750 
Q 2731 4750 3128 4425 
Q 3525 4100 3525 3541 
Q 3525 3141 3298 2862 
Q 3072 2584 2669 2484 
Q 3125 2378 3379 2068 
Q 3634 1759 3634 1313 
Q 3634 634 3220 271 
Q 2806 -91 2034 -91 
Q 1263 -91 848 271 
Q 434 634 434 1313 
Q 434 1759 690 2068 
Q 947 2378 1403 2484 
z
M 1172 3481 
Q 1172 3119 1398 2916 
Q 1625 2713 2034 2713 
Q 2441 2713 2670 2916 
Q 2900 3119 2900 3481 
Q 2900 3844 2670 4047 
Q 2441 4250 2034 4250 
Q 1625 4250 1398 4047 
Q 1172 3844 1172 3481 
z
" transform="scale(0.015625)"/>
       </defs>
       <use xlink:href="#DejaVuSans-38"/>
       <use xlink:href="#DejaVuSans-30" x="63.623047"/>
      </g>
     </g>
    </g>
    <g id="xtick_5">
     <g id="line2d_5">
      <g>
       <use xlink:href="#m165b4c23d1" x="414.72" y="307.584" style="stroke: #000000; stroke-width: 0.8"/>
      </g>
     </g>
     <g id="text_5">
      <!-- 100 -->
      <g transform="translate(405.17625 322.182437) scale(0.1 -0.1)">
       <defs>
        <path id="DejaVuSans-31" d="M 794 531 
L 1825 531 
L 1825 4091 
L 703 3866 
L 703 4441 
L 1819 4666 
L 2450 4666 
L 2450 531 
L 3481 531 
L 3481 0 
L 794 0 
L 794 531 
z
" transform="scale(0.015625)"/>
       </defs>
       <use xlink:href="#DejaVuSans-31"/>
       <use xlink:href="#DejaVuSans-30" x="63.623047"/>
       <use xlink:href="#DejaVuSans-30" x="127.246094"/>
      </g>
     </g>
    </g>
    <g id="text_6">
     <!-- Epoch -->
     <g transform="translate(220.849063 335.860562) scale(0.1 -0.1)">
      <defs>
       <path id="DejaVuSans-45" d="M 628 4666 
L 3578 4666 
L 3578 4134 
L 1259 4134 
L 1259 2753 
L 3481 2753 
L 3481 2222 
L 1259 2222 
L 1259 531 
L 3634 531 
L 3634 0 
L 628 0 
L 628 4666 
z
" transform="scale(0.015625)"/>
       <path id="DejaVuSans-70" d="M 1159 525 
L 1159 -1331 
L 581 -1331 
L 581 3500 
L 1159 3500 
L 1159 2969 
Q 1341 3281 1617 3432 
Q 1894 3584 2278 3584 
Q 2916 3584 3314 3078 
Q 3713 2572 3713 1747 
Q 3713 922 3314 415 
Q 2916 -91 2278 -91 
Q 1894 -91 1617 61 
Q 1341 213 1159 525 
z
M 3116 1747 
Q 3116 2381 2855 2742 
Q 2594 3103 2138 3103 
Q 1681 3103 1420 2742 
Q 1159 2381 1159 1747 
Q 1159 1113 1420 752 
Q 1681 391 2138 391 
Q 2594 391 2855 752 
Q 3116 1113 3116 1747 
z
" transform="scale(0.015625)"/>
       <path id="DejaVuSans-6f" d="M 1959 3097 
Q 1497 3097 1228 2736 
Q 959 2375 959 1747 
Q 959 1119 1226 758 
Q 1494 397 1959 397 
Q 2419 397 2687 759 
Q 2956 1122 2956 1747 
Q 2956 2369 2687 2733 
Q 2419 3097 1959 3097 
z
M 1959 3584 
Q 2709 3584 3137 3096 
Q 3566 2609 3566 1747 
Q 3566 888 3137 398 
Q 2709 -91 1959 -91 
Q 1206 -91 779 398 
Q 353 888 353 1747 
Q 353 2609 779 3096 
Q 1206 3584 1959 3584 
z
" transform="scale(0.015625)"/>
       <path id="DejaVuSans-63" d="M 3122 3366 
L 3122 2828 
Q 2878 2963 2633 3030 
Q 2388 3097 2138 3097 
Q 1578 3097 1268 2742 
Q 959 2388 959 1747 
Q 959 1106 1268 751 
Q 1578 397 2138 397 
Q 2388 397 2633 464 
Q 2878 531 3122 666 
L 3122 134 
Q 2881 22 2623 -34 
Q 2366 -91 2075 -91 
Q 1284 -91 818 406 
Q 353 903 353 1747 
Q 353 2603 823 3093 
Q 1294 3584 2113 3584 
Q 2378 3584 2631 3529 
Q 2884 3475 3122 3366 
z
" transform="scale(0.015625)"/>
       <path id="DejaVuSans-68" d="M 3513 2113 
L 3513 0 
L 2938 0 
L 2938 2094 
Q 2938 2591 2744 2837 
Q 2550 3084 2163 3084 
Q 1697 3084 1428 2787 
Q 1159 2491 1159 1978 
L 1159 0 
L 581 0 
L 581 4863 
L 1159 4863 
L 1159 2956 
Q 1366 3272 1645 3428 
Q 1925 3584 2291 3584 
Q 2894 3584 3203 3211 
Q 3513 2838 3513 2113 
z
" transform="scale(0.015625)"/>
      </defs>
      <use xlink:href="#DejaVuSans-45"/>
      <use xlink:href="#DejaVuSans-70" x="63.183594"/>
      <use xlink:href="#DejaVuSans-6f" x="126.660156"/>
      <use xlink:href="#DejaVuSans-63" x="187.841797"/>
      <use xlink:href="#DejaVuSans-68" x="242.822266"/>
     </g>
    </g>
   </g>
   <g id="matplotlib.axis_2">
    <g id="ytick_1">
     <g id="line2d_6">
      <defs>
       <path id="mc381c66803" d="M 0 0 
L -3.5 0 
" style="stroke: #000000; stroke-width: 0.8"/>
      </defs>
      <g>
       <use xlink:href="#mc381c66803" x="57.6" y="273.383627" style="stroke: #000000; stroke-width: 0.8"/>
      </g>
     </g>
     <g id="text_7">
      <!-- 6.0 -->
      <g transform="translate(34.696875 277.182846) scale(0.1 -0.1)">
       <defs>
        <path id="DejaVuSans-2e" d="M 684 794 
L 1344 794 
L 1344 0 
L 684 0 
L 684 794 
z
" transform="scale(0.015625)"/>
       </defs>
       <use xlink:href="#DejaVuSans-36"/>
       <use xlink:href="#DejaVuSans-2e" x="63.623047"/>
       <use xlink:href="#DejaVuSans-30" x="95.410156"/>
      </g>
     </g>
    </g>
    <g id="ytick_2">
     <g id="line2d_7">
      <g>
       <use xlink:href="#mc381c66803" x="57.6" y="219.644366" style="stroke: #000000; stroke-width: 0.8"/>
      </g>
     </g>
     <g id="text_8">
      <!-- 6.2 -->
      <g transform="translate(34.696875 223.443584) scale(0.1 -0.1)">
       <use xlink:href="#DejaVuSans-36"/>
       <use xlink:href="#DejaVuSans-2e" x="63.623047"/>
       <use xlink:href="#DejaVuSans-32" x="95.410156"/>
      </g>
     </g>
    </g>
    <g id="ytick_3">
     <g id="line2d_8">
      <g>
       <use xlink:href="#mc381c66803" x="57.6" y="165.905104" style="stroke: #000000; stroke-width: 0.8"/>
      </g>
     </g>
     <g id="text_9">
      <!-- 6.4 -->
      <g transform="translate(34.696875 169.704323) scale(0.1 -0.1)">
       <use xlink:href="#DejaVuSans-36"/>
       <use xlink:href="#DejaVuSans-2e" x="63.623047"/>
       <use xlink:href="#DejaVuSans-34" x="95.410156"/>
      </g>
     </g>
    </g>
    <g id="ytick_4">
     <g id="line2d_9">
      <g>
       <use xlink:href="#mc381c66803" x="57.6" y="112.165843" style="stroke: #000000; stroke-width: 0.8"/>
      </g>
     </g>
     <g id="text_10">
      <!-- 6.6 -->
      <g transform="translate(34.696875 115.965061) scale(0.1 -0.1)">
       <use xlink:href="#DejaVuSans-36"/>
       <use xlink:href="#DejaVuSans-2e" x="63.623047"/>
       <use xlink:href="#DejaVuSans-36" x="95.410156"/>
      </g>
     </g>
    </g>
    <g id="ytick_5">
     <g id="line2d_10">
      <g>
       <use xlink:href="#mc381c66803" x="57.6" y="58.426581" style="stroke: #000000; stroke-width: 0.8"/>
      </g>
     </g>
     <g id="text_11">
      <!-- 6.8 -->
      <g transform="translate(34.696875 62.2258) scale(0.1 -0.1)">
       <use xlink:href="#DejaVuSans-36"/>
       <use xlink:href="#DejaVuSans-2e" x="63.623047"/>
       <use xlink:href="#DejaVuSans-38" x="95.410156"/>
      </g>
     </g>
    </g>
    <g id="text_12">
     <!-- Loss -->
     <g transform="translate(28.617188 185.495187) rotate(-90) scale(0.1 -0.1)">
      <defs>
       <path id="DejaVuSans-4c" d="M 628 4666 
L 1259 4666 
L 1259 531 
L 3531 531 
L 3531 0 
L 628 0 
L 628 4666 
z
" transform="scale(0.015625)"/>
       <path id="DejaVuSans-73" d="M 2834 3397 
L 2834 2853 
Q 2591 2978 2328 3040 
Q 2066 3103 1784 3103 
Q 1356 3103 1142 2972 
Q 928 2841 928 2578 
Q 928 2378 1081 2264 
Q 1234 2150 1697 2047 
L 1894 2003 
Q 2506 1872 2764 1633 
Q 3022 1394 3022 966 
Q 3022 478 2636 193 
Q 2250 -91 1575 -91 
Q 1294 -91 989 -36 
Q 684 19 347 128 
L 347 722 
Q 666 556 975 473 
Q 1284 391 1588 391 
Q 1994 391 2212 530 
Q 2431 669 2431 922 
Q 2431 1156 2273 1281 
Q 2116 1406 1581 1522 
L 1381 1569 
Q 847 1681 609 1914 
Q 372 2147 372 2553 
Q 372 3047 722 3315 
Q 1072 3584 1716 3584 
Q 2034 3584 2315 3537 
Q 2597 3491 2834 3397 
z
" transform="scale(0.015625)"/>
      </defs>
      <use xlink:href="#DejaVuSans-4c"/>
      <use xlink:href="#DejaVuSans-6f" x="53.962891"/>
      <use xlink:href="#DejaVuSans-73" x="115.144531"/>
      <use xlink:href="#DejaVuSans-73" x="167.244141"/>
     </g>
    </g>
   </g>
   <g id="line2d_11">
    <path d="M 57.6 53.568 
L 61.207273 117.425195 
L 64.814545 132.219258 
L 68.421818 141.563747 
L 72.029091 147.985008 
L 75.636364 152.916524 
L 79.243636 156.961552 
L 82.850909 160.226938 
L 86.458182 162.97365 
L 90.065455 165.437553 
L 93.672727 167.710605 
L 97.28 169.813945 
L 100.887273 171.384179 
L 104.494545 173.322473 
L 108.101818 174.886275 
L 111.709091 176.160233 
L 115.316364 177.559049 
L 118.923636 178.790192 
L 122.530909 179.96585 
L 126.138182 181.161285 
L 129.745455 182.096098 
L 133.352727 183.138772 
L 136.96 184.27942 
L 140.567273 185.024318 
L 144.174545 185.959406 
L 147.781818 186.694847 
L 151.389091 187.480965 
L 154.996364 188.265978 
L 158.603636 188.881237 
L 162.210909 189.656788 
L 165.818182 190.319052 
L 169.425455 191.183283 
L 173.032727 191.592953 
L 176.64 192.154339 
L 180.247273 192.979573 
L 183.854545 193.309631 
L 187.461818 194.128028 
L 191.069091 194.354316 
L 194.676364 194.924982 
L 198.283636 195.487316 
L 201.890909 196.055795 
L 205.498182 196.590769 
L 209.105455 197.107317 
L 212.712727 197.361457 
L 216.32 197.897348 
L 219.927273 198.393032 
L 223.534545 198.774469 
L 227.141818 199.08171 
L 230.749091 199.674307 
L 234.356364 199.871068 
L 237.963636 199.980437 
L 241.570909 200.420251 
L 245.178182 200.89754 
L 248.785455 201.27975 
L 252.392727 201.57968 
L 256 201.909841 
L 259.607273 202.221876 
L 263.214545 202.591567 
L 266.821818 202.84121 
L 270.429091 203.336942 
L 274.036364 203.548043 
L 277.643636 203.768496 
L 281.250909 204.219735 
L 284.858182 204.405284 
L 288.465455 204.588953 
L 292.072727 205.100427 
L 295.68 205.132689 
L 299.287273 205.460994 
L 302.894545 205.486489 
L 306.501818 206.030859 
L 310.109091 206.231329 
L 313.716364 206.368619 
L 317.323636 206.678475 
L 320.930909 206.964823 
L 324.538182 207.256014 
L 328.145455 207.419573 
L 331.752727 207.64778 
L 335.36 207.785121 
L 338.967273 207.996248 
L 342.574545 208.099103 
L 346.181818 208.467845 
L 349.789091 208.744268 
L 353.396364 208.94449 
L 357.003636 208.899834 
L 360.610909 209.264537 
L 364.218182 209.440562 
L 367.825455 209.403102 
L 371.432727 209.7956 
L 375.04 209.948165 
L 378.647273 210.206708 
" clip-path="url(#p4df86eaecb)" style="fill: none; stroke: #1f77b4; stroke-width: 1.5; stroke-linecap: square"/>
   </g>
   <g id="line2d_12">
    <path d="M 57.6 200.28107 
L 61.207273 216.828088 
L 64.814545 226.728246 
L 68.421818 233.306839 
L 72.029091 239.168531 
L 75.636364 246.165697 
L 79.243636 245.536323 
L 82.850909 247.573245 
L 86.458182 252.564796 
L 90.065455 252.040637 
L 93.672727 254.307002 
L 97.28 258.993697 
L 100.887273 256.858732 
L 104.494545 261.032919 
L 108.101818 260.530536 
L 111.709091 260.987618 
L 115.316364 262.860461 
L 118.923636 262.750634 
L 122.530909 261.069868 
L 126.138182 265.517644 
L 129.745455 264.937002 
L 133.352727 268.752515 
L 136.96 268.970977 
L 140.567273 268.243656 
L 144.174545 266.476323 
L 147.781818 269.550725 
L 151.389091 271.165672 
L 154.996364 269.761312 
L 158.603636 269.628127 
L 162.210909 272.665464 
L 165.818182 273.034275 
L 169.425455 273.100335 
L 173.032727 275.369054 
L 176.64 272.148487 
L 180.247273 274.297792 
L 183.854545 273.947567 
L 187.461818 275.259751 
L 191.069091 275.388623 
L 194.676364 273.419819 
L 198.283636 276.601885 
L 201.890909 276.24905 
L 205.498182 278.116476 
L 209.105455 277.620073 
L 212.712727 279.638649 
L 216.32 277.855932 
L 219.927273 278.899204 
L 223.534545 276.506606 
L 227.141818 277.31109 
L 230.749091 276.19346 
L 234.356364 278.798441 
L 237.963636 278.523741 
L 241.570909 279.894155 
L 245.178182 281.385851 
L 248.785455 276.760777 
L 252.392727 281.865226 
L 256 279.695687 
L 259.607273 279.719776 
L 263.214545 281.985413 
L 266.821818 282.469102 
L 270.429091 282.070303 
L 274.036364 284.683032 
L 277.643636 281.560796 
L 281.250909 280.167112 
L 284.858182 283.249513 
L 288.465455 282.315137 
L 292.072727 281.996165 
L 295.68 282.078485 
L 299.287273 281.891426 
L 302.894545 284.512122 
L 306.501818 284.724114 
L 310.109091 283.182322 
L 313.716364 284.378299 
L 317.323636 286.283713 
L 320.930909 283.426927 
L 324.538182 285.258088 
L 328.145455 285.292591 
L 331.752727 283.421276 
L 335.36 284.456967 
L 338.967273 285.40418 
L 342.574545 288.50548 
L 346.181818 285.381724 
L 349.789091 280.565407 
L 353.396364 284.501871 
L 357.003636 286.284341 
L 360.610909 285.75772 
L 364.218182 286.064326 
L 367.825455 286.791449 
L 371.432727 286.685357 
L 375.04 287.434188 
L 378.647273 286.136644 
" clip-path="url(#p4df86eaecb)" style="fill: none; stroke: #ff7f0e; stroke-width: 1.5; stroke-linecap: square"/>
   </g>
   <g id="line2d_13">
    <path d="M 57.6 54.568452 
L 61.207273 115.45302 
L 64.814545 129.641114 
L 68.421818 138.61739 
L 72.029091 144.974662 
L 75.636364 149.766249 
L 79.243636 153.478297 
L 82.850909 156.935532 
L 86.458182 159.621049 
L 90.065455 162.06318 
L 93.672727 164.330345 
L 97.28 166.46089 
L 100.887273 168.338042 
L 104.494545 169.951533 
L 108.101818 171.376605 
L 111.709091 172.869986 
L 115.316364 173.979363 
L 118.923636 175.408313 
L 122.530909 176.641106 
L 126.138182 177.533523 
L 129.745455 178.70052 
L 133.352727 179.794964 
L 136.96 180.555809 
L 140.567273 181.613371 
L 144.174545 182.283237 
L 147.781818 183.250582 
L 151.389091 184.115802 
L 154.996364 184.599321 
L 158.603636 185.459427 
L 162.210909 186.174584 
L 165.818182 186.748681 
L 169.425455 187.663112 
L 173.032727 188.209643 
L 176.64 188.761576 
L 180.247273 189.255042 
L 183.854545 189.98372 
L 187.461818 190.334026 
L 191.069091 190.874313 
L 194.676364 191.31752 
L 198.283636 192.017863 
L 201.890909 192.397238 
L 205.498182 192.731407 
L 209.105455 193.374803 
L 212.712727 193.783604 
L 216.32 194.215832 
L 219.927273 194.628313 
L 223.534545 195.109084 
L 227.141818 195.327665 
L 230.749091 195.573241 
L 234.356364 196.119563 
L 237.963636 196.507359 
L 241.570909 196.952211 
L 245.178182 197.210143 
L 248.785455 197.589407 
L 252.392727 198.099727 
L 256 198.181764 
L 259.607273 198.789616 
L 263.214545 198.731785 
L 266.821818 199.106869 
L 270.429091 199.392137 
L 274.036364 199.763783 
L 277.643636 199.805329 
L 281.250909 200.227827 
L 284.858182 200.612993 
L 288.465455 200.793222 
L 292.072727 200.891435 
L 295.68 201.221659 
L 299.287273 201.601754 
L 302.894545 201.852649 
L 306.501818 202.150094 
L 310.109091 202.192842 
L 313.716364 202.504775 
L 317.323636 202.600728 
L 320.930909 202.988275 
L 324.538182 203.296873 
L 328.145455 203.267353 
L 331.752727 203.540658 
L 335.36 203.682082 
L 338.967273 203.927809 
L 342.574545 204.164847 
L 346.181818 204.579312 
L 349.789091 204.713409 
L 353.396364 204.855297 
L 357.003636 204.969008 
L 360.610909 205.083907 
L 364.218182 205.30025 
L 367.825455 205.399944 
L 371.432727 205.603924 
L 375.04 205.756992 
L 378.647273 206.133013 
L 382.254545 206.26944 
L 385.861818 206.419398 
L 389.469091 206.646908 
L 393.076364 206.875228 
L 396.683636 206.794247 
L 400.290909 207.071993 
L 403.898182 207.180834 
L 407.505455 207.303532 
L 411.112727 207.384842 
L 414.72 207.604317 
" clip-path="url(#p4df86eaecb)" style="fill: none; stroke: #2ca02c; stroke-width: 1.5; stroke-linecap: square"/>
   </g>
   <g id="line2d_14">
    <path d="M 57.6 200.238565 
L 61.207273 213.994087 
L 64.814545 224.016239 
L 68.421818 231.796242 
L 72.029091 237.091732 
L 75.636364 239.785173 
L 79.243636 243.059458 
L 82.850909 246.093691 
L 86.458182 249.857988 
L 90.065455 251.626604 
L 93.672727 250.404258 
L 97.28 254.304679 
L 100.887273 255.676088 
L 104.494545 256.311138 
L 108.101818 256.441557 
L 111.709091 257.787218 
L 115.316364 260.537871 
L 118.923636 260.827114 
L 122.530909 261.755611 
L 126.138182 262.958916 
L 129.745455 264.609522 
L 133.352727 262.676195 
L 136.96 261.968641 
L 140.567273 267.105583 
L 144.174545 265.17443 
L 147.781818 267.099051 
L 151.389091 265.532664 
L 154.996364 268.026238 
L 158.603636 269.292808 
L 162.210909 268.10577 
L 165.818182 269.900447 
L 169.425455 271.348336 
L 173.032727 271.588442 
L 176.64 271.834552 
L 180.247273 270.247615 
L 183.854545 272.633164 
L 187.461818 272.928861 
L 191.069091 271.582102 
L 194.676364 277.523809 
L 198.283636 272.701636 
L 201.890909 274.378809 
L 205.498182 274.326172 
L 209.105455 273.944513 
L 212.712727 275.085341 
L 216.32 278.029764 
L 219.927273 276.659988 
L 223.534545 275.108554 
L 227.141818 277.73756 
L 230.749091 277.327323 
L 234.356364 276.511833 
L 237.963636 275.481259 
L 241.570909 278.797176 
L 245.178182 274.831154 
L 248.785455 279.358189 
L 252.392727 279.478521 
L 256 276.767365 
L 259.607273 275.4227 
L 263.214545 279.628668 
L 266.821818 277.08641 
L 270.429091 277.793253 
L 274.036364 279.861694 
L 277.643636 281.669019 
L 281.250909 282.05012 
L 284.858182 280.369291 
L 288.465455 281.561835 
L 292.072727 280.196134 
L 295.68 281.647937 
L 299.287273 282.901976 
L 302.894545 281.226507 
L 306.501818 282.904718 
L 310.109091 281.04128 
L 313.716364 280.263869 
L 317.323636 281.77085 
L 320.930909 282.297638 
L 324.538182 284.754713 
L 328.145455 280.275121 
L 331.752727 285.175559 
L 335.36 281.253186 
L 338.967273 281.952895 
L 342.574545 280.167365 
L 346.181818 283.133377 
L 349.789091 283.053286 
L 353.396364 284.436421 
L 357.003636 283.705443 
L 360.610909 280.257765 
L 364.218182 283.559665 
L 367.825455 285.308278 
L 371.432727 283.230031 
L 375.04 283.134834 
L 378.647273 282.801004 
L 382.254545 283.568306 
L 385.861818 283.747215 
L 389.469091 283.723478 
L 393.076364 283.662871 
L 396.683636 284.38915 
L 400.290909 285.566891 
L 403.898182 285.077261 
L 407.505455 283.026727 
L 411.112727 285.852481 
L 414.72 287.11276 
" clip-path="url(#p4df86eaecb)" style="fill: none; stroke: #d62728; stroke-width: 1.5; stroke-linecap: square"/>
   </g>
   <g id="line2d_15">
    <path d="M 57.6 68.082658 
L 61.207273 125.639942 
L 64.814545 139.682679 
L 68.421818 148.626529 
L 72.029091 155.174745 
L 75.636364 160.209573 
L 79.243636 164.291254 
L 82.850909 167.746783 
L 86.458182 170.703056 
L 90.065455 173.312717 
L 93.672727 175.507143 
L 97.28 177.459883 
L 100.887273 179.414719 
L 104.494545 181.067558 
L 108.101818 182.706947 
L 111.709091 184.057107 
L 115.316364 185.386377 
L 118.923636 186.891947 
L 122.530909 187.858688 
L 126.138182 189.165044 
L 129.745455 189.94822 
L 133.352727 190.937285 
L 136.96 191.930695 
L 140.567273 192.875272 
L 144.174545 193.912521 
L 147.781818 194.584325 
L 151.389091 195.237261 
L 154.996364 195.948009 
L 158.603636 196.895579 
L 162.210909 197.45568 
L 165.818182 198.075938 
L 169.425455 198.793363 
L 173.032727 199.383019 
L 176.64 200.04936 
L 180.247273 200.725675 
L 183.854545 201.191436 
L 187.461818 201.558035 
L 191.069091 202.385796 
L 194.676364 202.641025 
L 198.283636 203.238315 
L 201.890909 203.727141 
L 205.498182 204.079457 
L 209.105455 204.540417 
L 212.712727 205.107859 
L 216.32 205.646022 
L 219.927273 205.871794 
L 223.534545 206.349764 
L 227.141818 206.661177 
L 230.749091 206.980155 
L 234.356364 207.578584 
L 237.963636 207.76717 
L 241.570909 208.153529 
L 245.178182 208.652583 
L 248.785455 208.783393 
L 252.392727 209.201883 
L 256 209.506403 
L 259.607273 209.799434 
L 263.214545 210.16488 
L 266.821818 210.38057 
L 270.429091 210.841576 
L 274.036364 210.843045 
L 277.643636 211.297085 
L 281.250909 211.646112 
L 284.858182 211.872391 
L 288.465455 212.106055 
L 292.072727 212.350467 
L 295.68 212.562082 
L 299.287273 212.527064 
L 302.894545 212.883145 
L 306.501818 213.289878 
L 310.109091 213.419154 
L 313.716364 213.847991 
L 317.323636 213.947279 
L 320.930909 214.235761 
L 324.538182 214.509332 
L 328.145455 214.474578 
L 331.752727 214.808631 
L 335.36 215.11794 
L 338.967273 215.071451 
L 342.574545 215.383472 
L 346.181818 215.461695 
L 349.789091 215.959155 
L 353.396364 216.174762 
L 357.003636 216.160645 
L 360.610909 216.534994 
L 364.218182 216.515724 
L 367.825455 216.704603 
L 371.432727 216.696414 
L 375.04 217.133014 
L 378.647273 217.295951 
L 382.254545 217.421686 
L 385.861818 217.630798 
L 389.469091 217.765018 
L 393.076364 217.858611 
L 396.683636 217.943228 
L 400.290909 218.236194 
L 403.898182 218.400178 
L 407.505455 218.549222 
L 411.112727 218.585525 
L 414.72 218.873944 
" clip-path="url(#p4df86eaecb)" style="fill: none; stroke: #9467bd; stroke-width: 1.5; stroke-linecap: square"/>
   </g>
   <g id="line2d_16">
    <path d="M 57.6 209.503321 
L 61.207273 226.085247 
L 64.814545 235.159021 
L 68.421818 241.355867 
L 72.029091 242.527835 
L 75.636364 250.194159 
L 79.243636 252.81644 
L 82.850909 256.377997 
L 86.458182 256.798713 
L 90.065455 259.435305 
L 93.672727 262.507331 
L 97.28 262.506091 
L 100.887273 266.385732 
L 104.494545 266.575517 
L 108.101818 269.248694 
L 111.709091 270.68386 
L 115.316364 270.474205 
L 118.923636 272.096125 
L 122.530909 272.6681 
L 126.138182 273.152023 
L 129.745455 272.008006 
L 133.352727 274.304434 
L 136.96 275.432619 
L 140.567273 276.005654 
L 144.174545 278.215141 
L 147.781818 275.707748 
L 151.389091 273.901989 
L 154.996364 280.450535 
L 158.603636 276.617006 
L 162.210909 275.394964 
L 165.818182 280.440816 
L 169.425455 281.39408 
L 173.032727 278.252089 
L 176.64 281.441402 
L 180.247273 283.904143 
L 183.854545 282.573394 
L 187.461818 283.102167 
L 191.069091 282.819386 
L 194.676364 283.46662 
L 198.283636 282.802833 
L 201.890909 284.541074 
L 205.498182 285.69377 
L 209.105455 285.559958 
L 212.712727 284.713887 
L 216.32 284.304006 
L 219.927273 286.005298 
L 223.534545 283.949526 
L 227.141818 286.280595 
L 230.749091 285.960519 
L 234.356364 286.497418 
L 237.963636 283.269598 
L 241.570909 286.946752 
L 245.178182 287.748575 
L 248.785455 287.582154 
L 252.392727 288.817039 
L 256 287.204808 
L 259.607273 288.94887 
L 263.214545 288.631703 
L 266.821818 288.917683 
L 270.429091 290.701024 
L 274.036364 285.489331 
L 277.643636 289.144486 
L 281.250909 289.249921 
L 284.858182 291.193635 
L 288.465455 288.183764 
L 292.072727 291.275057 
L 295.68 288.229564 
L 299.287273 287.988221 
L 302.894545 287.43459 
L 306.501818 290.536872 
L 310.109091 290.172217 
L 313.716364 290.770828 
L 317.323636 290.634406 
L 320.930909 292.267117 
L 324.538182 291.001791 
L 328.145455 291.613631 
L 331.752727 292.251416 
L 335.36 291.50139 
L 338.967273 291.992394 
L 342.574545 289.81206 
L 346.181818 293.758112 
L 349.789091 291.933749 
L 353.396364 293.394166 
L 357.003636 294.692175 
L 360.610909 294.552427 
L 364.218182 292.782437 
L 367.825455 294.46852 
L 371.432727 293.213147 
L 375.04 292.971823 
L 378.647273 294.291283 
L 382.254545 291.219868 
L 385.861818 291.959774 
L 389.469091 294.038157 
L 393.076364 295.488 
L 396.683636 293.539107 
L 400.290909 290.025608 
L 403.898182 294.901348 
L 407.505455 291.286464 
L 411.112727 295.439869 
L 414.72 294.333841 
" clip-path="url(#p4df86eaecb)" style="fill: none; stroke: #8c564b; stroke-width: 1.5; stroke-linecap: square"/>
   </g>
   <g id="patch_3">
    <path d="M 57.6 307.584 
L 57.6 41.472 
" style="fill: none; stroke: #000000; stroke-width: 0.8; stroke-linejoin: miter; stroke-linecap: square"/>
   </g>
   <g id="patch_4">
    <path d="M 414.72 307.584 
L 414.72 41.472 
" style="fill: none; stroke: #000000; stroke-width: 0.8; stroke-linejoin: miter; stroke-linecap: square"/>
   </g>
   <g id="patch_5">
    <path d="M 57.6 307.584 
L 414.72 307.584 
" style="fill: none; stroke: #000000; stroke-width: 0.8; stroke-linejoin: miter; stroke-linecap: square"/>
   </g>
   <g id="patch_6">
    <path d="M 57.6 41.472 
L 414.72 41.472 
" style="fill: none; stroke: #000000; stroke-width: 0.8; stroke-linejoin: miter; stroke-linecap: square"/>
   </g>
   <g id="legend_1">
    <g id="patch_7">
     <path d="M 352.445 137.54075 
L 407.72 137.54075 
Q 409.72 137.54075 409.72 135.54075 
L 409.72 48.472 
Q 409.72 46.472 407.72 46.472 
L 352.445 46.472 
Q 350.445 46.472 350.445 48.472 
L 350.445 135.54075 
Q 350.445 137.54075 352.445 137.54075 
z
" style="fill: #ffffff; opacity: 0.8; stroke: #cccccc; stroke-linejoin: miter"/>
    </g>
    <g id="line2d_17">
     <path d="M 354.445 54.570438 
L 364.445 54.570438 
L 374.445 54.570438 
" style="fill: none; stroke: #1f77b4; stroke-width: 1.5; stroke-linecap: square"/>
    </g>
    <g id="text_13">
     <!-- train -->
     <g transform="translate(382.445 58.070438) scale(0.1 -0.1)">
      <defs>
       <path id="DejaVuSans-74" d="M 1172 4494 
L 1172 3500 
L 2356 3500 
L 2356 3053 
L 1172 3053 
L 1172 1153 
Q 1172 725 1289 603 
Q 1406 481 1766 481 
L 2356 481 
L 2356 0 
L 1766 0 
Q 1100 0 847 248 
Q 594 497 594 1153 
L 594 3053 
L 172 3053 
L 172 3500 
L 594 3500 
L 594 4494 
L 1172 4494 
z
" transform="scale(0.015625)"/>
       <path id="DejaVuSans-72" d="M 2631 2963 
Q 2534 3019 2420 3045 
Q 2306 3072 2169 3072 
Q 1681 3072 1420 2755 
Q 1159 2438 1159 1844 
L 1159 0 
L 581 0 
L 581 3500 
L 1159 3500 
L 1159 2956 
Q 1341 3275 1631 3429 
Q 1922 3584 2338 3584 
Q 2397 3584 2469 3576 
Q 2541 3569 2628 3553 
L 2631 2963 
z
" transform="scale(0.015625)"/>
       <path id="DejaVuSans-61" d="M 2194 1759 
Q 1497 1759 1228 1600 
Q 959 1441 959 1056 
Q 959 750 1161 570 
Q 1363 391 1709 391 
Q 2188 391 2477 730 
Q 2766 1069 2766 1631 
L 2766 1759 
L 2194 1759 
z
M 3341 1997 
L 3341 0 
L 2766 0 
L 2766 531 
Q 2569 213 2275 61 
Q 1981 -91 1556 -91 
Q 1019 -91 701 211 
Q 384 513 384 1019 
Q 384 1609 779 1909 
Q 1175 2209 1959 2209 
L 2766 2209 
L 2766 2266 
Q 2766 2663 2505 2880 
Q 2244 3097 1772 3097 
Q 1472 3097 1187 3025 
Q 903 2953 641 2809 
L 641 3341 
Q 956 3463 1253 3523 
Q 1550 3584 1831 3584 
Q 2591 3584 2966 3190 
Q 3341 2797 3341 1997 
z
" transform="scale(0.015625)"/>
       <path id="DejaVuSans-69" d="M 603 3500 
L 1178 3500 
L 1178 0 
L 603 0 
L 603 3500 
z
M 603 4863 
L 1178 4863 
L 1178 4134 
L 603 4134 
L 603 4863 
z
" transform="scale(0.015625)"/>
       <path id="DejaVuSans-6e" d="M 3513 2113 
L 3513 0 
L 2938 0 
L 2938 2094 
Q 2938 2591 2744 2837 
Q 2550 3084 2163 3084 
Q 1697 3084 1428 2787 
Q 1159 2491 1159 1978 
L 1159 0 
L 581 0 
L 581 3500 
L 1159 3500 
L 1159 2956 
Q 1366 3272 1645 3428 
Q 1925 3584 2291 3584 
Q 2894 3584 3203 3211 
Q 3513 2838 3513 2113 
z
" transform="scale(0.015625)"/>
      </defs>
      <use xlink:href="#DejaVuSans-74"/>
      <use xlink:href="#DejaVuSans-72" x="39.208984"/>
      <use xlink:href="#DejaVuSans-61" x="80.322266"/>
      <use xlink:href="#DejaVuSans-69" x="141.601562"/>
      <use xlink:href="#DejaVuSans-6e" x="169.384766"/>
     </g>
    </g>
    <g id="line2d_18">
     <path d="M 354.445 69.248563 
L 364.445 69.248563 
L 374.445 69.248563 
" style="fill: none; stroke: #ff7f0e; stroke-width: 1.5; stroke-linecap: square"/>
    </g>
    <g id="text_14">
     <!-- val -->
     <g transform="translate(382.445 72.748563) scale(0.1 -0.1)">
      <defs>
       <path id="DejaVuSans-76" d="M 191 3500 
L 800 3500 
L 1894 563 
L 2988 3500 
L 3597 3500 
L 2284 0 
L 1503 0 
L 191 3500 
z
" transform="scale(0.015625)"/>
       <path id="DejaVuSans-6c" d="M 603 4863 
L 1178 4863 
L 1178 0 
L 603 0 
L 603 4863 
z
" transform="scale(0.015625)"/>
      </defs>
      <use xlink:href="#DejaVuSans-76"/>
      <use xlink:href="#DejaVuSans-61" x="59.179688"/>
      <use xlink:href="#DejaVuSans-6c" x="120.458984"/>
     </g>
    </g>
    <g id="line2d_19">
     <path d="M 354.445 83.926688 
L 364.445 83.926688 
L 374.445 83.926688 
" style="fill: none; stroke: #2ca02c; stroke-width: 1.5; stroke-linecap: square"/>
    </g>
    <g id="text_15">
     <!-- train -->
     <g transform="translate(382.445 87.426688) scale(0.1 -0.1)">
      <use xlink:href="#DejaVuSans-74"/>
      <use xlink:href="#DejaVuSans-72" x="39.208984"/>
      <use xlink:href="#DejaVuSans-61" x="80.322266"/>
      <use xlink:href="#DejaVuSans-69" x="141.601562"/>
      <use xlink:href="#DejaVuSans-6e" x="169.384766"/>
     </g>
    </g>
    <g id="line2d_20">
     <path d="M 354.445 98.604813 
L 364.445 98.604813 
L 374.445 98.604813 
" style="fill: none; stroke: #d62728; stroke-width: 1.5; stroke-linecap: square"/>
    </g>
    <g id="text_16">
     <!-- val -->
     <g transform="translate(382.445 102.104813) scale(0.1 -0.1)">
      <use xlink:href="#DejaVuSans-76"/>
      <use xlink:href="#DejaVuSans-61" x="59.179688"/>
      <use xlink:href="#DejaVuSans-6c" x="120.458984"/>
     </g>
    </g>
    <g id="line2d_21">
     <path d="M 354.445 113.282938 
L 364.445 113.282938 
L 374.445 113.282938 
" style="fill: none; stroke: #9467bd; stroke-width: 1.5; stroke-linecap: square"/>
    </g>
    <g id="text_17">
     <!-- train -->
     <g transform="translate(382.445 116.782938) scale(0.1 -0.1)">
      <use xlink:href="#DejaVuSans-74"/>
      <use xlink:href="#DejaVuSans-72" x="39.208984"/>
      <use xlink:href="#DejaVuSans-61" x="80.322266"/>
      <use xlink:href="#DejaVuSans-69" x="141.601562"/>
      <use xlink:href="#DejaVuSans-6e" x="169.384766"/>
     </g>
    </g>
    <g id="line2d_22">
     <path d="M 354.445 127.961063 
L 364.445 127.961063 
L 374.445 127.961063 
" style="fill: none; stroke: #8c564b; stroke-width: 1.5; stroke-linecap: square"/>
    </g>
    <g id="text_18">
     <!-- val -->
     <g transform="translate(382.445 131.461063) scale(0.1 -0.1)">
      <use xlink:href="#DejaVuSans-76"/>
      <use xlink:href="#DejaVuSans-61" x="59.179688"/>
      <use xlink:href="#DejaVuSans-6c" x="120.458984"/>
     </g>
    </g>
   </g>
  </g>
 </g>
 <defs>
  <clipPath id="p4df86eaecb">
   <rect x="57.6" y="41.472" width="357.12" height="266.112"/>
  </clipPath>
 </defs>
</svg>
