<?xml version="1.0" encoding="utf-8" standalone="no"?>
<!DOCTYPE svg PUBLIC "-//W3C//DTD SVG 1.1//EN"
  "http://www.w3.org/Graphics/SVG/1.1/DTD/svg11.dtd">
<svg xmlns:xlink="http://www.w3.org/1999/xlink" width="460.8pt" height="345.6pt" viewBox="0 0 460.8 345.6" xmlns="http://www.w3.org/2000/svg" version="1.1">
 <metadata>
  <rdf:RDF xmlns:dc="http://purl.org/dc/elements/1.1/" xmlns:cc="http://creativecommons.org/ns#" xmlns:rdf="http://www.w3.org/1999/02/22-rdf-syntax-ns#">
   <cc:Work>
    <dc:type rdf:resource="http://purl.org/dc/dcmitype/StillImage"/>
    <dc:date>2024-08-02T12:30:30.770458</dc:date>
    <dc:format>image/svg+xml</dc:format>
    <dc:creator>
     <cc:Agent>
      <dc:title>Matplotlib v3.7.4, https://matplotlib.org/</dc:title>
     </cc:Agent>
    </dc:creator>
   </cc:Work>
  </rdf:RDF>
 </metadata>
 <defs>
  <style type="text/css">*{stroke-linejoin: round; stroke-linecap: butt}</style>
 </defs>
 <g id="figure_1">
  <g id="patch_1">
   <path d="M 0 345.6 
L 460.8 345.6 
L 460.8 0 
L 0 0 
z
" style="fill: #ffffff"/>
  </g>
  <g id="axes_1">
   <g id="patch_2">
    <path d="M 57.6 307.584 
L 414.72 307.584 
L 414.72 41.472 
L 57.6 41.472 
z
" style="fill: #ffffff"/>
   </g>
   <g id="matplotlib.axis_1">
    <g id="xtick_1">
     <g id="line2d_1">
      <defs>
       <path id="m6252915f76" d="M 0 0 
L 0 3.5 
" style="stroke: #000000; stroke-width: 0.8"/>
      </defs>
      <g>
       <use xlink:href="#m6252915f76" x="126.138182" y="307.584" style="stroke: #000000; stroke-width: 0.8"/>
      </g>
     </g>
     <g id="text_1">
      <!-- 20 -->
      <g transform="translate(119.775682 322.182437) scale(0.1 -0.1)">
       <defs>
        <path id="DejaVuSans-32" d="M 1228 531 
L 3431 531 
L 3431 0 
L 469 0 
L 469 531 
Q 828 903 1448 1529 
Q 2069 2156 2228 2338 
Q 2531 2678 2651 2914 
Q 2772 3150 2772 3378 
Q 2772 3750 2511 3984 
Q 2250 4219 1831 4219 
Q 1534 4219 1204 4116 
Q 875 4013 500 3803 
L 500 4441 
Q 881 4594 1212 4672 
Q 1544 4750 1819 4750 
Q 2544 4750 2975 4387 
Q 3406 4025 3406 3419 
Q 3406 3131 3298 2873 
Q 3191 2616 2906 2266 
Q 2828 2175 2409 1742 
Q 1991 1309 1228 531 
z
" transform="scale(0.015625)"/>
        <path id="DejaVuSans-30" d="M 2034 4250 
Q 1547 4250 1301 3770 
Q 1056 3291 1056 2328 
Q 1056 1369 1301 889 
Q 1547 409 2034 409 
Q 2525 409 2770 889 
Q 3016 1369 3016 2328 
Q 3016 3291 2770 3770 
Q 2525 4250 2034 4250 
z
M 2034 4750 
Q 2819 4750 3233 4129 
Q 3647 3509 3647 2328 
Q 3647 1150 3233 529 
Q 2819 -91 2034 -91 
Q 1250 -91 836 529 
Q 422 1150 422 2328 
Q 422 3509 836 4129 
Q 1250 4750 2034 4750 
z
" transform="scale(0.015625)"/>
       </defs>
       <use xlink:href="#DejaVuSans-32"/>
       <use xlink:href="#DejaVuSans-30" x="63.623047"/>
      </g>
     </g>
    </g>
    <g id="xtick_2">
     <g id="line2d_2">
      <g>
       <use xlink:href="#m6252915f76" x="198.283636" y="307.584" style="stroke: #000000; stroke-width: 0.8"/>
      </g>
     </g>
     <g id="text_2">
      <!-- 40 -->
      <g transform="translate(191.921136 322.182437) scale(0.1 -0.1)">
       <defs>
        <path id="DejaVuSans-34" d="M 2419 4116 
L 825 1625 
L 2419 1625 
L 2419 4116 
z
M 2253 4666 
L 3047 4666 
L 3047 1625 
L 3713 1625 
L 3713 1100 
L 3047 1100 
L 3047 0 
L 2419 0 
L 2419 1100 
L 313 1100 
L 313 1709 
L 2253 4666 
z
" transform="scale(0.015625)"/>
       </defs>
       <use xlink:href="#DejaVuSans-34"/>
       <use xlink:href="#DejaVuSans-30" x="63.623047"/>
      </g>
     </g>
    </g>
    <g id="xtick_3">
     <g id="line2d_3">
      <g>
       <use xlink:href="#m6252915f76" x="270.429091" y="307.584" style="stroke: #000000; stroke-width: 0.8"/>
      </g>
     </g>
     <g id="text_3">
      <!-- 60 -->
      <g transform="translate(264.066591 322.182437) scale(0.1 -0.1)">
       <defs>
        <path id="DejaVuSans-36" d="M 2113 2584 
Q 1688 2584 1439 2293 
Q 1191 2003 1191 1497 
Q 1191 994 1439 701 
Q 1688 409 2113 409 
Q 2538 409 2786 701 
Q 3034 994 3034 1497 
Q 3034 2003 2786 2293 
Q 2538 2584 2113 2584 
z
M 3366 4563 
L 3366 3988 
Q 3128 4100 2886 4159 
Q 2644 4219 2406 4219 
Q 1781 4219 1451 3797 
Q 1122 3375 1075 2522 
Q 1259 2794 1537 2939 
Q 1816 3084 2150 3084 
Q 2853 3084 3261 2657 
Q 3669 2231 3669 1497 
Q 3669 778 3244 343 
Q 2819 -91 2113 -91 
Q 1303 -91 875 529 
Q 447 1150 447 2328 
Q 447 3434 972 4092 
Q 1497 4750 2381 4750 
Q 2619 4750 2861 4703 
Q 3103 4656 3366 4563 
z
" transform="scale(0.015625)"/>
       </defs>
       <use xlink:href="#DejaVuSans-36"/>
       <use xlink:href="#DejaVuSans-30" x="63.623047"/>
      </g>
     </g>
    </g>
    <g id="xtick_4">
     <g id="line2d_4">
      <g>
       <use xlink:href="#m6252915f76" x="342.574545" y="307.584" style="stroke: #000000; stroke-width: 0.8"/>
      </g>
     </g>
     <g id="text_4">
      <!-- 80 -->
      <g transform="translate(336.212045 322.182437) scale(0.1 -0.1)">
       <defs>
        <path id="DejaVuSans-38" d="M 2034 2216 
Q 1584 2216 1326 1975 
Q 1069 1734 1069 1313 
Q 1069 891 1326 650 
Q 1584 409 2034 409 
Q 2484 409 2743 651 
Q 3003 894 3003 1313 
Q 3003 1734 2745 1975 
Q 2488 2216 2034 2216 
z
M 1403 2484 
Q 997 2584 770 2862 
Q 544 3141 544 3541 
Q 544 4100 942 4425 
Q 1341 4750 2034 4750 
Q 2731 4750 3128 4425 
Q 3525 4100 3525 3541 
Q 3525 3141 3298 2862 
Q 3072 2584 2669 2484 
Q 3125 2378 3379 2068 
Q 3634 1759 3634 1313 
Q 3634 634 3220 271 
Q 2806 -91 2034 -91 
Q 1263 -91 848 271 
Q 434 634 434 1313 
Q 434 1759 690 2068 
Q 947 2378 1403 2484 
z
M 1172 3481 
Q 1172 3119 1398 2916 
Q 1625 2713 2034 2713 
Q 2441 2713 2670 2916 
Q 2900 3119 2900 3481 
Q 2900 3844 2670 4047 
Q 2441 4250 2034 4250 
Q 1625 4250 1398 4047 
Q 1172 3844 1172 3481 
z
" transform="scale(0.015625)"/>
       </defs>
       <use xlink:href="#DejaVuSans-38"/>
       <use xlink:href="#DejaVuSans-30" x="63.623047"/>
      </g>
     </g>
    </g>
    <g id="xtick_5">
     <g id="line2d_5">
      <g>
       <use xlink:href="#m6252915f76" x="414.72" y="307.584" style="stroke: #000000; stroke-width: 0.8"/>
      </g>
     </g>
     <g id="text_5">
      <!-- 100 -->
      <g transform="translate(405.17625 322.182437) scale(0.1 -0.1)">
       <defs>
        <path id="DejaVuSans-31" d="M 794 531 
L 1825 531 
L 1825 4091 
L 703 3866 
L 703 4441 
L 1819 4666 
L 2450 4666 
L 2450 531 
L 3481 531 
L 3481 0 
L 794 0 
L 794 531 
z
" transform="scale(0.015625)"/>
       </defs>
       <use xlink:href="#DejaVuSans-31"/>
       <use xlink:href="#DejaVuSans-30" x="63.623047"/>
       <use xlink:href="#DejaVuSans-30" x="127.246094"/>
      </g>
     </g>
    </g>
    <g id="text_6">
     <!-- Epoch -->
     <g transform="translate(220.849063 335.860562) scale(0.1 -0.1)">
      <defs>
       <path id="DejaVuSans-45" d="M 628 4666 
L 3578 4666 
L 3578 4134 
L 1259 4134 
L 1259 2753 
L 3481 2753 
L 3481 2222 
L 1259 2222 
L 1259 531 
L 3634 531 
L 3634 0 
L 628 0 
L 628 4666 
z
" transform="scale(0.015625)"/>
       <path id="DejaVuSans-70" d="M 1159 525 
L 1159 -1331 
L 581 -1331 
L 581 3500 
L 1159 3500 
L 1159 2969 
Q 1341 3281 1617 3432 
Q 1894 3584 2278 3584 
Q 2916 3584 3314 3078 
Q 3713 2572 3713 1747 
Q 3713 922 3314 415 
Q 2916 -91 2278 -91 
Q 1894 -91 1617 61 
Q 1341 213 1159 525 
z
M 3116 1747 
Q 3116 2381 2855 2742 
Q 2594 3103 2138 3103 
Q 1681 3103 1420 2742 
Q 1159 2381 1159 1747 
Q 1159 1113 1420 752 
Q 1681 391 2138 391 
Q 2594 391 2855 752 
Q 3116 1113 3116 1747 
z
" transform="scale(0.015625)"/>
       <path id="DejaVuSans-6f" d="M 1959 3097 
Q 1497 3097 1228 2736 
Q 959 2375 959 1747 
Q 959 1119 1226 758 
Q 1494 397 1959 397 
Q 2419 397 2687 759 
Q 2956 1122 2956 1747 
Q 2956 2369 2687 2733 
Q 2419 3097 1959 3097 
z
M 1959 3584 
Q 2709 3584 3137 3096 
Q 3566 2609 3566 1747 
Q 3566 888 3137 398 
Q 2709 -91 1959 -91 
Q 1206 -91 779 398 
Q 353 888 353 1747 
Q 353 2609 779 3096 
Q 1206 3584 1959 3584 
z
" transform="scale(0.015625)"/>
       <path id="DejaVuSans-63" d="M 3122 3366 
L 3122 2828 
Q 2878 2963 2633 3030 
Q 2388 3097 2138 3097 
Q 1578 3097 1268 2742 
Q 959 2388 959 1747 
Q 959 1106 1268 751 
Q 1578 397 2138 397 
Q 2388 397 2633 464 
Q 2878 531 3122 666 
L 3122 134 
Q 2881 22 2623 -34 
Q 2366 -91 2075 -91 
Q 1284 -91 818 406 
Q 353 903 353 1747 
Q 353 2603 823 3093 
Q 1294 3584 2113 3584 
Q 2378 3584 2631 3529 
Q 2884 3475 3122 3366 
z
" transform="scale(0.015625)"/>
       <path id="DejaVuSans-68" d="M 3513 2113 
L 3513 0 
L 2938 0 
L 2938 2094 
Q 2938 2591 2744 2837 
Q 2550 3084 2163 3084 
Q 1697 3084 1428 2787 
Q 1159 2491 1159 1978 
L 1159 0 
L 581 0 
L 581 4863 
L 1159 4863 
L 1159 2956 
Q 1366 3272 1645 3428 
Q 1925 3584 2291 3584 
Q 2894 3584 3203 3211 
Q 3513 2838 3513 2113 
z
" transform="scale(0.015625)"/>
      </defs>
      <use xlink:href="#DejaVuSans-45"/>
      <use xlink:href="#DejaVuSans-70" x="63.183594"/>
      <use xlink:href="#DejaVuSans-6f" x="126.660156"/>
      <use xlink:href="#DejaVuSans-63" x="187.841797"/>
      <use xlink:href="#DejaVuSans-68" x="242.822266"/>
     </g>
    </g>
   </g>
   <g id="matplotlib.axis_2">
    <g id="ytick_1">
     <g id="line2d_6">
      <defs>
       <path id="m1c7e468884" d="M 0 0 
L -3.5 0 
" style="stroke: #000000; stroke-width: 0.8"/>
      </defs>
      <g>
       <use xlink:href="#m1c7e468884" x="57.6" y="266.070139" style="stroke: #000000; stroke-width: 0.8"/>
      </g>
     </g>
     <g id="text_7">
      <!-- 0.22 -->
      <g transform="translate(28.334375 269.869358) scale(0.1 -0.1)">
       <defs>
        <path id="DejaVuSans-2e" d="M 684 794 
L 1344 794 
L 1344 0 
L 684 0 
L 684 794 
z
" transform="scale(0.015625)"/>
       </defs>
       <use xlink:href="#DejaVuSans-30"/>
       <use xlink:href="#DejaVuSans-2e" x="63.623047"/>
       <use xlink:href="#DejaVuSans-32" x="95.410156"/>
       <use xlink:href="#DejaVuSans-32" x="159.033203"/>
      </g>
     </g>
    </g>
    <g id="ytick_2">
     <g id="line2d_7">
      <g>
       <use xlink:href="#m1c7e468884" x="57.6" y="223.978114" style="stroke: #000000; stroke-width: 0.8"/>
      </g>
     </g>
     <g id="text_8">
      <!-- 0.24 -->
      <g transform="translate(28.334375 227.777333) scale(0.1 -0.1)">
       <use xlink:href="#DejaVuSans-30"/>
       <use xlink:href="#DejaVuSans-2e" x="63.623047"/>
       <use xlink:href="#DejaVuSans-32" x="95.410156"/>
       <use xlink:href="#DejaVuSans-34" x="159.033203"/>
      </g>
     </g>
    </g>
    <g id="ytick_3">
     <g id="line2d_8">
      <g>
       <use xlink:href="#m1c7e468884" x="57.6" y="181.886089" style="stroke: #000000; stroke-width: 0.8"/>
      </g>
     </g>
     <g id="text_9">
      <!-- 0.26 -->
      <g transform="translate(28.334375 185.685308) scale(0.1 -0.1)">
       <use xlink:href="#DejaVuSans-30"/>
       <use xlink:href="#DejaVuSans-2e" x="63.623047"/>
       <use xlink:href="#DejaVuSans-32" x="95.410156"/>
       <use xlink:href="#DejaVuSans-36" x="159.033203"/>
      </g>
     </g>
    </g>
    <g id="ytick_4">
     <g id="line2d_9">
      <g>
       <use xlink:href="#m1c7e468884" x="57.6" y="139.794065" style="stroke: #000000; stroke-width: 0.8"/>
      </g>
     </g>
     <g id="text_10">
      <!-- 0.28 -->
      <g transform="translate(28.334375 143.593283) scale(0.1 -0.1)">
       <use xlink:href="#DejaVuSans-30"/>
       <use xlink:href="#DejaVuSans-2e" x="63.623047"/>
       <use xlink:href="#DejaVuSans-32" x="95.410156"/>
       <use xlink:href="#DejaVuSans-38" x="159.033203"/>
      </g>
     </g>
    </g>
    <g id="ytick_5">
     <g id="line2d_10">
      <g>
       <use xlink:href="#m1c7e468884" x="57.6" y="97.70204" style="stroke: #000000; stroke-width: 0.8"/>
      </g>
     </g>
     <g id="text_11">
      <!-- 0.30 -->
      <g transform="translate(28.334375 101.501259) scale(0.1 -0.1)">
       <defs>
        <path id="DejaVuSans-33" d="M 2597 2516 
Q 3050 2419 3304 2112 
Q 3559 1806 3559 1356 
Q 3559 666 3084 287 
Q 2609 -91 1734 -91 
Q 1441 -91 1130 -33 
Q 819 25 488 141 
L 488 750 
Q 750 597 1062 519 
Q 1375 441 1716 441 
Q 2309 441 2620 675 
Q 2931 909 2931 1356 
Q 2931 1769 2642 2001 
Q 2353 2234 1838 2234 
L 1294 2234 
L 1294 2753 
L 1863 2753 
Q 2328 2753 2575 2939 
Q 2822 3125 2822 3475 
Q 2822 3834 2567 4026 
Q 2313 4219 1838 4219 
Q 1578 4219 1281 4162 
Q 984 4106 628 3988 
L 628 4550 
Q 988 4650 1302 4700 
Q 1616 4750 1894 4750 
Q 2613 4750 3031 4423 
Q 3450 4097 3450 3541 
Q 3450 3153 3228 2886 
Q 3006 2619 2597 2516 
z
" transform="scale(0.015625)"/>
       </defs>
       <use xlink:href="#DejaVuSans-30"/>
       <use xlink:href="#DejaVuSans-2e" x="63.623047"/>
       <use xlink:href="#DejaVuSans-33" x="95.410156"/>
       <use xlink:href="#DejaVuSans-30" x="159.033203"/>
      </g>
     </g>
    </g>
    <g id="ytick_6">
     <g id="line2d_11">
      <g>
       <use xlink:href="#m1c7e468884" x="57.6" y="55.610015" style="stroke: #000000; stroke-width: 0.8"/>
      </g>
     </g>
     <g id="text_12">
      <!-- 0.32 -->
      <g transform="translate(28.334375 59.409234) scale(0.1 -0.1)">
       <use xlink:href="#DejaVuSans-30"/>
       <use xlink:href="#DejaVuSans-2e" x="63.623047"/>
       <use xlink:href="#DejaVuSans-33" x="95.410156"/>
       <use xlink:href="#DejaVuSans-32" x="159.033203"/>
      </g>
     </g>
    </g>
    <g id="text_13">
     <!-- Loss -->
     <g transform="translate(22.254688 185.495187) rotate(-90) scale(0.1 -0.1)">
      <defs>
       <path id="DejaVuSans-4c" d="M 628 4666 
L 1259 4666 
L 1259 531 
L 3531 531 
L 3531 0 
L 628 0 
L 628 4666 
z
" transform="scale(0.015625)"/>
       <path id="DejaVuSans-73" d="M 2834 3397 
L 2834 2853 
Q 2591 2978 2328 3040 
Q 2066 3103 1784 3103 
Q 1356 3103 1142 2972 
Q 928 2841 928 2578 
Q 928 2378 1081 2264 
Q 1234 2150 1697 2047 
L 1894 2003 
Q 2506 1872 2764 1633 
Q 3022 1394 3022 966 
Q 3022 478 2636 193 
Q 2250 -91 1575 -91 
Q 1294 -91 989 -36 
Q 684 19 347 128 
L 347 722 
Q 666 556 975 473 
Q 1284 391 1588 391 
Q 1994 391 2212 530 
Q 2431 669 2431 922 
Q 2431 1156 2273 1281 
Q 2116 1406 1581 1522 
L 1381 1569 
Q 847 1681 609 1914 
Q 372 2147 372 2553 
Q 372 3047 722 3315 
Q 1072 3584 1716 3584 
Q 2034 3584 2315 3537 
Q 2597 3491 2834 3397 
z
" transform="scale(0.015625)"/>
      </defs>
      <use xlink:href="#DejaVuSans-4c"/>
      <use xlink:href="#DejaVuSans-6f" x="53.962891"/>
      <use xlink:href="#DejaVuSans-73" x="115.144531"/>
      <use xlink:href="#DejaVuSans-73" x="167.244141"/>
     </g>
    </g>
   </g>
   <g id="line2d_12">
    <path d="M 57.6 53.568 
L 61.207273 241.093866 
L 64.814545 256.119172 
L 68.421818 260.131608 
L 72.029091 262.622146 
L 75.636364 264.693828 
L 79.243636 266.344497 
L 82.850909 267.825512 
L 86.458182 269.175805 
L 90.065455 270.354973 
L 93.672727 271.452575 
L 97.28 272.561989 
L 100.887273 273.500659 
L 104.494545 274.306782 
L 108.101818 275.183577 
L 111.709091 275.921074 
L 115.316364 276.613552 
L 118.923636 277.246878 
L 122.530909 277.938308 
L 126.138182 278.572148 
L 129.745455 279.102675 
L 133.352727 279.645462 
L 136.96 280.109666 
L 140.567273 280.665774 
L 144.174545 281.110576 
L 147.781818 281.583182 
L 151.389091 282.003616 
L 154.996364 282.456886 
L 158.603636 282.827543 
L 162.210909 283.233984 
L 165.818182 283.515994 
L 169.425455 283.93731 
L 173.032727 284.251374 
L 176.64 284.623909 
L 180.247273 284.931697 
L 183.854545 285.276685 
L 187.461818 285.586213 
L 191.069091 285.774189 
L 194.676364 285.993046 
L 198.283636 286.385163 
L 201.890909 286.626979 
L 205.498182 286.895178 
L 209.105455 287.11585 
L 212.712727 287.348798 
L 216.32 287.633966 
L 219.927273 287.880046 
L 223.534545 288.028489 
L 227.141818 288.294042 
L 230.749091 288.505977 
L 234.356364 288.637816 
L 237.963636 288.96951 
L 241.570909 289.110574 
L 245.178182 289.400341 
L 248.785455 289.497711 
L 252.392727 289.644356 
L 256 289.921153 
L 259.607273 290.039158 
L 263.214545 290.19682 
L 266.821818 290.439966 
L 270.429091 290.571543 
L 274.036364 290.769424 
L 277.643636 290.871858 
L 281.250909 291.068784 
L 284.858182 291.284037 
L 288.465455 291.341395 
L 292.072727 291.517514 
L 295.68 291.595143 
L 299.287273 291.788065 
L 302.894545 291.937968 
L 306.501818 292.07915 
L 310.109091 292.238801 
L 313.716364 292.330569 
L 317.323636 292.407241 
L 320.930909 292.537521 
L 324.538182 292.731696 
L 328.145455 292.813958 
L 331.752727 292.969231 
L 335.36 293.091243 
L 338.967273 293.221397 
L 342.574545 293.346101 
L 346.181818 293.438654 
L 349.789091 293.497269 
L 353.396364 293.633795 
L 357.003636 293.723264 
L 360.610909 293.848436 
L 364.218182 293.990952 
L 367.825455 294.041989 
L 371.432727 294.171145 
L 375.04 294.31716 
L 378.647273 294.350406 
L 382.254545 294.447773 
L 385.861818 294.489521 
L 389.469091 294.607968 
L 393.076364 294.784355 
L 396.683636 294.832795 
L 400.290909 294.932371 
L 403.898182 295.029721 
L 407.505455 295.075065 
L 411.112727 295.218755 
L 414.72 295.382699 
" clip-path="url(#p04ece462e9)" style="fill: none; stroke: #1f77b4; stroke-width: 1.5; stroke-linecap: square"/>
   </g>
   <g id="line2d_13">
    <path d="M 57.6 221.904921 
L 61.207273 256.064907 
L 64.814545 261.328974 
L 68.421818 265.303056 
L 72.029091 266.585235 
L 75.636364 268.617502 
L 79.243636 270.06604 
L 82.850909 271.070023 
L 86.458182 271.392266 
L 90.065455 273.667405 
L 93.672727 274.737728 
L 97.28 275.079739 
L 100.887273 276.304166 
L 104.494545 276.870103 
L 108.101818 277.51391 
L 111.709091 277.877895 
L 115.316364 278.764525 
L 118.923636 280.477449 
L 122.530909 279.980854 
L 126.138182 281.392656 
L 129.745455 282.043919 
L 133.352727 282.279145 
L 136.96 282.730982 
L 140.567273 282.305988 
L 144.174545 282.796048 
L 147.781818 283.431384 
L 151.389091 284.292595 
L 154.996364 284.285288 
L 158.603636 284.723509 
L 162.210909 284.938396 
L 165.818182 284.753837 
L 169.425455 285.546439 
L 173.032727 285.258112 
L 176.64 286.258774 
L 180.247273 286.241237 
L 183.854545 285.98845 
L 187.461818 286.296795 
L 191.069091 287.072647 
L 194.676364 286.740387 
L 198.283636 287.094377 
L 201.890909 287.344241 
L 205.498182 287.870245 
L 209.105455 288.565695 
L 212.712727 287.856846 
L 216.32 288.682209 
L 219.927273 287.892108 
L 223.534545 289.044158 
L 227.141818 289.997598 
L 230.749091 289.674489 
L 234.356364 288.369801 
L 237.963636 289.829174 
L 241.570909 290.201379 
L 245.178182 290.095148 
L 248.785455 290.04616 
L 252.392727 290.020898 
L 256 291.394288 
L 259.607273 290.889683 
L 263.214545 291.019673 
L 266.821818 291.257142 
L 270.429091 291.085733 
L 274.036364 290.931407 
L 277.643636 291.525193 
L 281.250909 292.098483 
L 284.858182 291.374626 
L 288.465455 291.660296 
L 292.072727 291.494361 
L 295.68 291.765974 
L 299.287273 292.495753 
L 302.894545 292.473381 
L 306.501818 293.072634 
L 310.109091 293.638422 
L 313.716364 293.218212 
L 317.323636 292.818641 
L 320.930909 293.205717 
L 324.538182 292.693167 
L 328.145455 292.671574 
L 331.752727 293.139718 
L 335.36 293.763784 
L 338.967273 293.817701 
L 342.574545 292.68441 
L 346.181818 293.629469 
L 349.789091 293.306966 
L 353.396364 293.941402 
L 357.003636 293.81718 
L 360.610909 294.373047 
L 364.218182 293.805926 
L 367.825455 293.953959 
L 371.432727 293.994675 
L 375.04 294.798283 
L 378.647273 293.896863 
L 382.254545 294.530925 
L 385.861818 293.972853 
L 389.469091 294.378772 
L 393.076364 295.388999 
L 396.683636 294.784921 
L 400.290909 295.238076 
L 403.898182 295.129557 
L 407.505455 295.488 
L 411.112727 295.370165 
L 414.72 295.017512 
" clip-path="url(#p04ece462e9)" style="fill: none; stroke: #ff7f0e; stroke-width: 1.5; stroke-linecap: square"/>
   </g>
   <g id="line2d_14">
    <path d="M 57.6 54.557453 
L 61.207273 239.720182 
L 64.814545 254.30687 
L 68.421818 258.070134 
L 72.029091 260.502366 
L 75.636364 262.316273 
L 79.243636 263.909245 
L 82.850909 265.329427 
L 86.458182 266.609434 
L 90.065455 267.759667 
L 93.672727 268.955653 
L 97.28 269.857362 
L 100.887273 270.821716 
L 104.494545 271.77495 
L 108.101818 272.542814 
L 111.709091 273.377708 
L 115.316364 274.049161 
L 118.923636 274.74433 
L 122.530909 275.40289 
L 126.138182 276.02182 
L 129.745455 276.664855 
L 133.352727 277.148245 
L 136.96 277.757911 
L 140.567273 278.213321 
L 144.174545 278.714629 
L 147.781818 279.141114 
L 151.389091 279.716522 
L 154.996364 280.053402 
L 158.603636 280.445009 
L 162.210909 280.846947 
L 165.818182 281.216903 
L 169.425455 281.672625 
L 173.032727 281.931003 
L 176.64 282.247775 
L 180.247273 282.677365 
L 183.854545 282.991112 
L 187.461818 283.353295 
L 191.069091 283.589003 
L 194.676364 283.837131 
L 198.283636 284.132683 
L 201.890909 284.348905 
L 205.498182 284.699619 
L 209.105455 284.984695 
L 212.712727 285.194531 
L 216.32 285.467499 
L 219.927273 285.718751 
L 223.534545 285.929166 
L 227.141818 286.117376 
L 230.749091 286.377323 
L 234.356364 286.619684 
L 237.963636 286.786023 
L 241.570909 286.954284 
L 245.178182 287.155565 
L 248.785455 287.287975 
L 252.392727 287.545586 
L 256 287.677654 
L 259.607273 287.849652 
L 263.214545 288.073254 
L 266.821818 288.198814 
L 270.429091 288.373741 
L 274.036364 288.586597 
L 277.643636 288.793737 
L 281.250909 288.932762 
L 284.858182 289.036452 
L 288.465455 289.237165 
L 292.072727 289.325897 
L 295.68 289.490883 
L 299.287273 289.644647 
L 302.894545 289.72292 
L 306.501818 289.873069 
L 310.109091 289.942646 
L 313.716364 290.152986 
L 317.323636 290.279394 
L 320.930909 290.40365 
L 324.538182 290.540238 
L 328.145455 290.567568 
L 331.752727 290.73205 
L 335.36 290.841999 
L 338.967273 290.982617 
L 342.574545 291.057847 
L 346.181818 291.17981 
L 349.789091 291.366714 
L 353.396364 291.398754 
L 357.003636 291.507493 
L 360.610909 291.55122 
L 364.218182 291.687778 
L 367.825455 291.846906 
L 371.432727 291.950451 
L 375.04 292.056405 
L 378.647273 292.109263 
L 382.254545 292.239533 
L 385.861818 292.294497 
L 389.469091 292.383352 
L 393.076364 292.421042 
L 396.683636 292.541954 
L 400.290909 292.556984 
L 403.898182 292.741284 
L 407.505455 292.841993 
L 411.112727 292.964189 
L 414.72 292.9777 
" clip-path="url(#p04ece462e9)" style="fill: none; stroke: #2ca02c; stroke-width: 1.5; stroke-linecap: square"/>
   </g>
   <g id="line2d_15">
    <path d="M 57.6 220.790228 
L 61.207273 255.517615 
L 64.814545 260.834034 
L 68.421818 263.608228 
L 72.029091 265.104239 
L 75.636364 266.99988 
L 79.243636 267.803837 
L 82.850909 268.8847 
L 86.458182 270.091672 
L 90.065455 270.209353 
L 93.672727 272.188559 
L 97.28 272.456095 
L 100.887273 274.383056 
L 104.494545 273.926821 
L 108.101818 275.358385 
L 111.709091 276.432241 
L 115.316364 276.416934 
L 118.923636 278.160045 
L 122.530909 276.983218 
L 126.138182 278.459873 
L 129.745455 278.92068 
L 133.352727 279.158929 
L 136.96 280.458184 
L 140.567273 280.365673 
L 144.174545 280.440293 
L 147.781818 280.82906 
L 151.389091 282.096053 
L 154.996364 281.816674 
L 158.603636 281.633138 
L 162.210909 282.835996 
L 165.818182 282.233464 
L 169.425455 283.834082 
L 173.032727 284.123925 
L 176.64 283.921917 
L 180.247273 283.961756 
L 183.854545 284.709997 
L 187.461818 284.357418 
L 191.069091 284.663065 
L 194.676364 285.821172 
L 198.283636 284.873792 
L 201.890909 285.395908 
L 205.498182 285.922737 
L 209.105455 286.633485 
L 212.712727 286.839288 
L 216.32 287.049894 
L 219.927273 286.123748 
L 223.534545 286.367957 
L 227.141818 287.635415 
L 230.749091 287.319138 
L 234.356364 288.225368 
L 237.963636 287.74639 
L 241.570909 288.113248 
L 245.178182 289.174239 
L 248.785455 288.637172 
L 252.392727 288.778996 
L 256 287.916848 
L 259.607273 289.289999 
L 263.214545 288.381607 
L 266.821818 289.056341 
L 270.429091 288.720473 
L 274.036364 289.947503 
L 277.643636 289.973178 
L 281.250909 289.656952 
L 284.858182 289.876605 
L 288.465455 290.287077 
L 292.072727 289.935117 
L 295.68 290.870254 
L 299.287273 289.424769 
L 302.894545 290.871051 
L 306.501818 290.815716 
L 310.109091 291.001225 
L 313.716364 291.070481 
L 317.323636 292.003605 
L 320.930909 290.786187 
L 324.538182 290.701563 
L 328.145455 291.472728 
L 331.752727 291.608378 
L 335.36 291.744939 
L 338.967273 290.983107 
L 342.574545 292.39437 
L 346.181818 292.063445 
L 349.789091 291.731195 
L 353.396364 291.68312 
L 357.003636 291.50331 
L 360.610909 292.377833 
L 364.218182 292.603677 
L 367.825455 291.842003 
L 371.432727 292.121997 
L 375.04 292.029035 
L 378.647273 292.258264 
L 382.254545 292.006998 
L 385.861818 292.485436 
L 389.469091 293.162995 
L 393.076364 292.809602 
L 396.683636 292.795491 
L 400.290909 292.307454 
L 403.898182 292.858572 
L 407.505455 293.816307 
L 411.112727 293.176277 
L 414.72 293.730029 
" clip-path="url(#p04ece462e9)" style="fill: none; stroke: #d62728; stroke-width: 1.5; stroke-linecap: square"/>
   </g>
   <g id="patch_3">
    <path d="M 57.6 307.584 
L 57.6 41.472 
" style="fill: none; stroke: #000000; stroke-width: 0.8; stroke-linejoin: miter; stroke-linecap: square"/>
   </g>
   <g id="patch_4">
    <path d="M 414.72 307.584 
L 414.72 41.472 
" style="fill: none; stroke: #000000; stroke-width: 0.8; stroke-linejoin: miter; stroke-linecap: square"/>
   </g>
   <g id="patch_5">
    <path d="M 57.6 307.584 
L 414.72 307.584 
" style="fill: none; stroke: #000000; stroke-width: 0.8; stroke-linejoin: miter; stroke-linecap: square"/>
   </g>
   <g id="patch_6">
    <path d="M 57.6 41.472 
L 414.72 41.472 
" style="fill: none; stroke: #000000; stroke-width: 0.8; stroke-linejoin: miter; stroke-linecap: square"/>
   </g>
   <g id="legend_1">
    <g id="patch_7">
     <path d="M 352.445 108.1845 
L 407.72 108.1845 
Q 409.72 108.1845 409.72 106.1845 
L 409.72 48.472 
Q 409.72 46.472 407.72 46.472 
L 352.445 46.472 
Q 350.445 46.472 350.445 48.472 
L 350.445 106.1845 
Q 350.445 108.1845 352.445 108.1845 
z
" style="fill: #ffffff; opacity: 0.8; stroke: #cccccc; stroke-linejoin: miter"/>
    </g>
    <g id="line2d_16">
     <path d="M 354.445 54.570438 
L 364.445 54.570438 
L 374.445 54.570438 
" style="fill: none; stroke: #1f77b4; stroke-width: 1.5; stroke-linecap: square"/>
    </g>
    <g id="text_14">
     <!-- train -->
     <g transform="translate(382.445 58.070438) scale(0.1 -0.1)">
      <defs>
       <path id="DejaVuSans-74" d="M 1172 4494 
L 1172 3500 
L 2356 3500 
L 2356 3053 
L 1172 3053 
L 1172 1153 
Q 1172 725 1289 603 
Q 1406 481 1766 481 
L 2356 481 
L 2356 0 
L 1766 0 
Q 1100 0 847 248 
Q 594 497 594 1153 
L 594 3053 
L 172 3053 
L 172 3500 
L 594 3500 
L 594 4494 
L 1172 4494 
z
" transform="scale(0.015625)"/>
       <path id="DejaVuSans-72" d="M 2631 2963 
Q 2534 3019 2420 3045 
Q 2306 3072 2169 3072 
Q 1681 3072 1420 2755 
Q 1159 2438 1159 1844 
L 1159 0 
L 581 0 
L 581 3500 
L 1159 3500 
L 1159 2956 
Q 1341 3275 1631 3429 
Q 1922 3584 2338 3584 
Q 2397 3584 2469 3576 
Q 2541 3569 2628 3553 
L 2631 2963 
z
" transform="scale(0.015625)"/>
       <path id="DejaVuSans-61" d="M 2194 1759 
Q 1497 1759 1228 1600 
Q 959 1441 959 1056 
Q 959 750 1161 570 
Q 1363 391 1709 391 
Q 2188 391 2477 730 
Q 2766 1069 2766 1631 
L 2766 1759 
L 2194 1759 
z
M 3341 1997 
L 3341 0 
L 2766 0 
L 2766 531 
Q 2569 213 2275 61 
Q 1981 -91 1556 -91 
Q 1019 -91 701 211 
Q 384 513 384 1019 
Q 384 1609 779 1909 
Q 1175 2209 1959 2209 
L 2766 2209 
L 2766 2266 
Q 2766 2663 2505 2880 
Q 2244 3097 1772 3097 
Q 1472 3097 1187 3025 
Q 903 2953 641 2809 
L 641 3341 
Q 956 3463 1253 3523 
Q 1550 3584 1831 3584 
Q 2591 3584 2966 3190 
Q 3341 2797 3341 1997 
z
" transform="scale(0.015625)"/>
       <path id="DejaVuSans-69" d="M 603 3500 
L 1178 3500 
L 1178 0 
L 603 0 
L 603 3500 
z
M 603 4863 
L 1178 4863 
L 1178 4134 
L 603 4134 
L 603 4863 
z
" transform="scale(0.015625)"/>
       <path id="DejaVuSans-6e" d="M 3513 2113 
L 3513 0 
L 2938 0 
L 2938 2094 
Q 2938 2591 2744 2837 
Q 2550 3084 2163 3084 
Q 1697 3084 1428 2787 
Q 1159 2491 1159 1978 
L 1159 0 
L 581 0 
L 581 3500 
L 1159 3500 
L 1159 2956 
Q 1366 3272 1645 3428 
Q 1925 3584 2291 3584 
Q 2894 3584 3203 3211 
Q 3513 2838 3513 2113 
z
" transform="scale(0.015625)"/>
      </defs>
      <use xlink:href="#DejaVuSans-74"/>
      <use xlink:href="#DejaVuSans-72" x="39.208984"/>
      <use xlink:href="#DejaVuSans-61" x="80.322266"/>
      <use xlink:href="#DejaVuSans-69" x="141.601562"/>
      <use xlink:href="#DejaVuSans-6e" x="169.384766"/>
     </g>
    </g>
    <g id="line2d_17">
     <path d="M 354.445 69.248563 
L 364.445 69.248563 
L 374.445 69.248563 
" style="fill: none; stroke: #ff7f0e; stroke-width: 1.5; stroke-linecap: square"/>
    </g>
    <g id="text_15">
     <!-- val -->
     <g transform="translate(382.445 72.748563) scale(0.1 -0.1)">
      <defs>
       <path id="DejaVuSans-76" d="M 191 3500 
L 800 3500 
L 1894 563 
L 2988 3500 
L 3597 3500 
L 2284 0 
L 1503 0 
L 191 3500 
z
" transform="scale(0.015625)"/>
       <path id="DejaVuSans-6c" d="M 603 4863 
L 1178 4863 
L 1178 0 
L 603 0 
L 603 4863 
z
" transform="scale(0.015625)"/>
      </defs>
      <use xlink:href="#DejaVuSans-76"/>
      <use xlink:href="#DejaVuSans-61" x="59.179688"/>
      <use xlink:href="#DejaVuSans-6c" x="120.458984"/>
     </g>
    </g>
    <g id="line2d_18">
     <path d="M 354.445 83.926688 
L 364.445 83.926688 
L 374.445 83.926688 
" style="fill: none; stroke: #2ca02c; stroke-width: 1.5; stroke-linecap: square"/>
    </g>
    <g id="text_16">
     <!-- train -->
     <g transform="translate(382.445 87.426688) scale(0.1 -0.1)">
      <use xlink:href="#DejaVuSans-74"/>
      <use xlink:href="#DejaVuSans-72" x="39.208984"/>
      <use xlink:href="#DejaVuSans-61" x="80.322266"/>
      <use xlink:href="#DejaVuSans-69" x="141.601562"/>
      <use xlink:href="#DejaVuSans-6e" x="169.384766"/>
     </g>
    </g>
    <g id="line2d_19">
     <path d="M 354.445 98.604813 
L 364.445 98.604813 
L 374.445 98.604813 
" style="fill: none; stroke: #d62728; stroke-width: 1.5; stroke-linecap: square"/>
    </g>
    <g id="text_17">
     <!-- val -->
     <g transform="translate(382.445 102.104813) scale(0.1 -0.1)">
      <use xlink:href="#DejaVuSans-76"/>
      <use xlink:href="#DejaVuSans-61" x="59.179688"/>
      <use xlink:href="#DejaVuSans-6c" x="120.458984"/>
     </g>
    </g>
   </g>
  </g>
 </g>
 <defs>
  <clipPath id="p04ece462e9">
   <rect x="57.6" y="41.472" width="357.12" height="266.112"/>
  </clipPath>
 </defs>
</svg>
