<?xml version="1.0" encoding="utf-8" standalone="no"?>
<!DOCTYPE svg PUBLIC "-//W3C//DTD SVG 1.1//EN"
  "http://www.w3.org/Graphics/SVG/1.1/DTD/svg11.dtd">
<svg xmlns:xlink="http://www.w3.org/1999/xlink" width="460.8pt" height="345.6pt" viewBox="0 0 460.8 345.6" xmlns="http://www.w3.org/2000/svg" version="1.1">
 <metadata>
  <rdf:RDF xmlns:dc="http://purl.org/dc/elements/1.1/" xmlns:cc="http://creativecommons.org/ns#" xmlns:rdf="http://www.w3.org/1999/02/22-rdf-syntax-ns#">
   <cc:Work>
    <dc:type rdf:resource="http://purl.org/dc/dcmitype/StillImage"/>
    <dc:date>2024-08-02T12:38:18.954717</dc:date>
    <dc:format>image/svg+xml</dc:format>
    <dc:creator>
     <cc:Agent>
      <dc:title>Matplotlib v3.7.4, https://matplotlib.org/</dc:title>
     </cc:Agent>
    </dc:creator>
   </cc:Work>
  </rdf:RDF>
 </metadata>
 <defs>
  <style type="text/css">*{stroke-linejoin: round; stroke-linecap: butt}</style>
 </defs>
 <g id="figure_1">
  <g id="patch_1">
   <path d="M 0 345.6 
L 460.8 345.6 
L 460.8 0 
L 0 0 
z
" style="fill: #ffffff"/>
  </g>
  <g id="axes_1">
   <g id="patch_2">
    <path d="M 57.6 307.584 
L 414.72 307.584 
L 414.72 41.472 
L 57.6 41.472 
z
" style="fill: #ffffff"/>
   </g>
   <g id="matplotlib.axis_1">
    <g id="xtick_1">
     <g id="line2d_1">
      <defs>
       <path id="md955453d73" d="M 0 0 
L 0 3.5 
" style="stroke: #000000; stroke-width: 0.8"/>
      </defs>
      <g>
       <use xlink:href="#md955453d73" x="126.138182" y="307.584" style="stroke: #000000; stroke-width: 0.8"/>
      </g>
     </g>
     <g id="text_1">
      <!-- 20 -->
      <g transform="translate(119.775682 322.182437) scale(0.1 -0.1)">
       <defs>
        <path id="DejaVuSans-32" d="M 1228 531 
L 3431 531 
L 3431 0 
L 469 0 
L 469 531 
Q 828 903 1448 1529 
Q 2069 2156 2228 2338 
Q 2531 2678 2651 2914 
Q 2772 3150 2772 3378 
Q 2772 3750 2511 3984 
Q 2250 4219 1831 4219 
Q 1534 4219 1204 4116 
Q 875 4013 500 3803 
L 500 4441 
Q 881 4594 1212 4672 
Q 1544 4750 1819 4750 
Q 2544 4750 2975 4387 
Q 3406 4025 3406 3419 
Q 3406 3131 3298 2873 
Q 3191 2616 2906 2266 
Q 2828 2175 2409 1742 
Q 1991 1309 1228 531 
z
" transform="scale(0.015625)"/>
        <path id="DejaVuSans-30" d="M 2034 4250 
Q 1547 4250 1301 3770 
Q 1056 3291 1056 2328 
Q 1056 1369 1301 889 
Q 1547 409 2034 409 
Q 2525 409 2770 889 
Q 3016 1369 3016 2328 
Q 3016 3291 2770 3770 
Q 2525 4250 2034 4250 
z
M 2034 4750 
Q 2819 4750 3233 4129 
Q 3647 3509 3647 2328 
Q 3647 1150 3233 529 
Q 2819 -91 2034 -91 
Q 1250 -91 836 529 
Q 422 1150 422 2328 
Q 422 3509 836 4129 
Q 1250 4750 2034 4750 
z
" transform="scale(0.015625)"/>
       </defs>
       <use xlink:href="#DejaVuSans-32"/>
       <use xlink:href="#DejaVuSans-30" x="63.623047"/>
      </g>
     </g>
    </g>
    <g id="xtick_2">
     <g id="line2d_2">
      <g>
       <use xlink:href="#md955453d73" x="198.283636" y="307.584" style="stroke: #000000; stroke-width: 0.8"/>
      </g>
     </g>
     <g id="text_2">
      <!-- 40 -->
      <g transform="translate(191.921136 322.182437) scale(0.1 -0.1)">
       <defs>
        <path id="DejaVuSans-34" d="M 2419 4116 
L 825 1625 
L 2419 1625 
L 2419 4116 
z
M 2253 4666 
L 3047 4666 
L 3047 1625 
L 3713 1625 
L 3713 1100 
L 3047 1100 
L 3047 0 
L 2419 0 
L 2419 1100 
L 313 1100 
L 313 1709 
L 2253 4666 
z
" transform="scale(0.015625)"/>
       </defs>
       <use xlink:href="#DejaVuSans-34"/>
       <use xlink:href="#DejaVuSans-30" x="63.623047"/>
      </g>
     </g>
    </g>
    <g id="xtick_3">
     <g id="line2d_3">
      <g>
       <use xlink:href="#md955453d73" x="270.429091" y="307.584" style="stroke: #000000; stroke-width: 0.8"/>
      </g>
     </g>
     <g id="text_3">
      <!-- 60 -->
      <g transform="translate(264.066591 322.182437) scale(0.1 -0.1)">
       <defs>
        <path id="DejaVuSans-36" d="M 2113 2584 
Q 1688 2584 1439 2293 
Q 1191 2003 1191 1497 
Q 1191 994 1439 701 
Q 1688 409 2113 409 
Q 2538 409 2786 701 
Q 3034 994 3034 1497 
Q 3034 2003 2786 2293 
Q 2538 2584 2113 2584 
z
M 3366 4563 
L 3366 3988 
Q 3128 4100 2886 4159 
Q 2644 4219 2406 4219 
Q 1781 4219 1451 3797 
Q 1122 3375 1075 2522 
Q 1259 2794 1537 2939 
Q 1816 3084 2150 3084 
Q 2853 3084 3261 2657 
Q 3669 2231 3669 1497 
Q 3669 778 3244 343 
Q 2819 -91 2113 -91 
Q 1303 -91 875 529 
Q 447 1150 447 2328 
Q 447 3434 972 4092 
Q 1497 4750 2381 4750 
Q 2619 4750 2861 4703 
Q 3103 4656 3366 4563 
z
" transform="scale(0.015625)"/>
       </defs>
       <use xlink:href="#DejaVuSans-36"/>
       <use xlink:href="#DejaVuSans-30" x="63.623047"/>
      </g>
     </g>
    </g>
    <g id="xtick_4">
     <g id="line2d_4">
      <g>
       <use xlink:href="#md955453d73" x="342.574545" y="307.584" style="stroke: #000000; stroke-width: 0.8"/>
      </g>
     </g>
     <g id="text_4">
      <!-- 80 -->
      <g transform="translate(336.212045 322.182437) scale(0.1 -0.1)">
       <defs>
        <path id="DejaVuSans-38" d="M 2034 2216 
Q 1584 2216 1326 1975 
Q 1069 1734 1069 1313 
Q 1069 891 1326 650 
Q 1584 409 2034 409 
Q 2484 409 2743 651 
Q 3003 894 3003 1313 
Q 3003 1734 2745 1975 
Q 2488 2216 2034 2216 
z
M 1403 2484 
Q 997 2584 770 2862 
Q 544 3141 544 3541 
Q 544 4100 942 4425 
Q 1341 4750 2034 4750 
Q 2731 4750 3128 4425 
Q 3525 4100 3525 3541 
Q 3525 3141 3298 2862 
Q 3072 2584 2669 2484 
Q 3125 2378 3379 2068 
Q 3634 1759 3634 1313 
Q 3634 634 3220 271 
Q 2806 -91 2034 -91 
Q 1263 -91 848 271 
Q 434 634 434 1313 
Q 434 1759 690 2068 
Q 947 2378 1403 2484 
z
M 1172 3481 
Q 1172 3119 1398 2916 
Q 1625 2713 2034 2713 
Q 2441 2713 2670 2916 
Q 2900 3119 2900 3481 
Q 2900 3844 2670 4047 
Q 2441 4250 2034 4250 
Q 1625 4250 1398 4047 
Q 1172 3844 1172 3481 
z
" transform="scale(0.015625)"/>
       </defs>
       <use xlink:href="#DejaVuSans-38"/>
       <use xlink:href="#DejaVuSans-30" x="63.623047"/>
      </g>
     </g>
    </g>
    <g id="xtick_5">
     <g id="line2d_5">
      <g>
       <use xlink:href="#md955453d73" x="414.72" y="307.584" style="stroke: #000000; stroke-width: 0.8"/>
      </g>
     </g>
     <g id="text_5">
      <!-- 100 -->
      <g transform="translate(405.17625 322.182437) scale(0.1 -0.1)">
       <defs>
        <path id="DejaVuSans-31" d="M 794 531 
L 1825 531 
L 1825 4091 
L 703 3866 
L 703 4441 
L 1819 4666 
L 2450 4666 
L 2450 531 
L 3481 531 
L 3481 0 
L 794 0 
L 794 531 
z
" transform="scale(0.015625)"/>
       </defs>
       <use xlink:href="#DejaVuSans-31"/>
       <use xlink:href="#DejaVuSans-30" x="63.623047"/>
       <use xlink:href="#DejaVuSans-30" x="127.246094"/>
      </g>
     </g>
    </g>
    <g id="text_6">
     <!-- Epoch -->
     <g transform="translate(220.849063 335.860562) scale(0.1 -0.1)">
      <defs>
       <path id="DejaVuSans-45" d="M 628 4666 
L 3578 4666 
L 3578 4134 
L 1259 4134 
L 1259 2753 
L 3481 2753 
L 3481 2222 
L 1259 2222 
L 1259 531 
L 3634 531 
L 3634 0 
L 628 0 
L 628 4666 
z
" transform="scale(0.015625)"/>
       <path id="DejaVuSans-70" d="M 1159 525 
L 1159 -1331 
L 581 -1331 
L 581 3500 
L 1159 3500 
L 1159 2969 
Q 1341 3281 1617 3432 
Q 1894 3584 2278 3584 
Q 2916 3584 3314 3078 
Q 3713 2572 3713 1747 
Q 3713 922 3314 415 
Q 2916 -91 2278 -91 
Q 1894 -91 1617 61 
Q 1341 213 1159 525 
z
M 3116 1747 
Q 3116 2381 2855 2742 
Q 2594 3103 2138 3103 
Q 1681 3103 1420 2742 
Q 1159 2381 1159 1747 
Q 1159 1113 1420 752 
Q 1681 391 2138 391 
Q 2594 391 2855 752 
Q 3116 1113 3116 1747 
z
" transform="scale(0.015625)"/>
       <path id="DejaVuSans-6f" d="M 1959 3097 
Q 1497 3097 1228 2736 
Q 959 2375 959 1747 
Q 959 1119 1226 758 
Q 1494 397 1959 397 
Q 2419 397 2687 759 
Q 2956 1122 2956 1747 
Q 2956 2369 2687 2733 
Q 2419 3097 1959 3097 
z
M 1959 3584 
Q 2709 3584 3137 3096 
Q 3566 2609 3566 1747 
Q 3566 888 3137 398 
Q 2709 -91 1959 -91 
Q 1206 -91 779 398 
Q 353 888 353 1747 
Q 353 2609 779 3096 
Q 1206 3584 1959 3584 
z
" transform="scale(0.015625)"/>
       <path id="DejaVuSans-63" d="M 3122 3366 
L 3122 2828 
Q 2878 2963 2633 3030 
Q 2388 3097 2138 3097 
Q 1578 3097 1268 2742 
Q 959 2388 959 1747 
Q 959 1106 1268 751 
Q 1578 397 2138 397 
Q 2388 397 2633 464 
Q 2878 531 3122 666 
L 3122 134 
Q 2881 22 2623 -34 
Q 2366 -91 2075 -91 
Q 1284 -91 818 406 
Q 353 903 353 1747 
Q 353 2603 823 3093 
Q 1294 3584 2113 3584 
Q 2378 3584 2631 3529 
Q 2884 3475 3122 3366 
z
" transform="scale(0.015625)"/>
       <path id="DejaVuSans-68" d="M 3513 2113 
L 3513 0 
L 2938 0 
L 2938 2094 
Q 2938 2591 2744 2837 
Q 2550 3084 2163 3084 
Q 1697 3084 1428 2787 
Q 1159 2491 1159 1978 
L 1159 0 
L 581 0 
L 581 4863 
L 1159 4863 
L 1159 2956 
Q 1366 3272 1645 3428 
Q 1925 3584 2291 3584 
Q 2894 3584 3203 3211 
Q 3513 2838 3513 2113 
z
" transform="scale(0.015625)"/>
      </defs>
      <use xlink:href="#DejaVuSans-45"/>
      <use xlink:href="#DejaVuSans-70" x="63.183594"/>
      <use xlink:href="#DejaVuSans-6f" x="126.660156"/>
      <use xlink:href="#DejaVuSans-63" x="187.841797"/>
      <use xlink:href="#DejaVuSans-68" x="242.822266"/>
     </g>
    </g>
   </g>
   <g id="matplotlib.axis_2">
    <g id="ytick_1">
     <g id="line2d_6">
      <defs>
       <path id="m417f8ca4a2" d="M 0 0 
L -3.5 0 
" style="stroke: #000000; stroke-width: 0.8"/>
      </defs>
      <g>
       <use xlink:href="#m417f8ca4a2" x="57.6" y="304.088756" style="stroke: #000000; stroke-width: 0.8"/>
      </g>
     </g>
     <g id="text_7">
      <!-- 0.20 -->
      <g transform="translate(28.334375 307.887975) scale(0.1 -0.1)">
       <defs>
        <path id="DejaVuSans-2e" d="M 684 794 
L 1344 794 
L 1344 0 
L 684 0 
L 684 794 
z
" transform="scale(0.015625)"/>
       </defs>
       <use xlink:href="#DejaVuSans-30"/>
       <use xlink:href="#DejaVuSans-2e" x="63.623047"/>
       <use xlink:href="#DejaVuSans-32" x="95.410156"/>
       <use xlink:href="#DejaVuSans-30" x="159.033203"/>
      </g>
     </g>
    </g>
    <g id="ytick_2">
     <g id="line2d_7">
      <g>
       <use xlink:href="#m417f8ca4a2" x="57.6" y="262.670187" style="stroke: #000000; stroke-width: 0.8"/>
      </g>
     </g>
     <g id="text_8">
      <!-- 0.22 -->
      <g transform="translate(28.334375 266.469406) scale(0.1 -0.1)">
       <use xlink:href="#DejaVuSans-30"/>
       <use xlink:href="#DejaVuSans-2e" x="63.623047"/>
       <use xlink:href="#DejaVuSans-32" x="95.410156"/>
       <use xlink:href="#DejaVuSans-32" x="159.033203"/>
      </g>
     </g>
    </g>
    <g id="ytick_3">
     <g id="line2d_8">
      <g>
       <use xlink:href="#m417f8ca4a2" x="57.6" y="221.251618" style="stroke: #000000; stroke-width: 0.8"/>
      </g>
     </g>
     <g id="text_9">
      <!-- 0.24 -->
      <g transform="translate(28.334375 225.050837) scale(0.1 -0.1)">
       <use xlink:href="#DejaVuSans-30"/>
       <use xlink:href="#DejaVuSans-2e" x="63.623047"/>
       <use xlink:href="#DejaVuSans-32" x="95.410156"/>
       <use xlink:href="#DejaVuSans-34" x="159.033203"/>
      </g>
     </g>
    </g>
    <g id="ytick_4">
     <g id="line2d_9">
      <g>
       <use xlink:href="#m417f8ca4a2" x="57.6" y="179.83305" style="stroke: #000000; stroke-width: 0.8"/>
      </g>
     </g>
     <g id="text_10">
      <!-- 0.26 -->
      <g transform="translate(28.334375 183.632268) scale(0.1 -0.1)">
       <use xlink:href="#DejaVuSans-30"/>
       <use xlink:href="#DejaVuSans-2e" x="63.623047"/>
       <use xlink:href="#DejaVuSans-32" x="95.410156"/>
       <use xlink:href="#DejaVuSans-36" x="159.033203"/>
      </g>
     </g>
    </g>
    <g id="ytick_5">
     <g id="line2d_10">
      <g>
       <use xlink:href="#m417f8ca4a2" x="57.6" y="138.414481" style="stroke: #000000; stroke-width: 0.8"/>
      </g>
     </g>
     <g id="text_11">
      <!-- 0.28 -->
      <g transform="translate(28.334375 142.2137) scale(0.1 -0.1)">
       <use xlink:href="#DejaVuSans-30"/>
       <use xlink:href="#DejaVuSans-2e" x="63.623047"/>
       <use xlink:href="#DejaVuSans-32" x="95.410156"/>
       <use xlink:href="#DejaVuSans-38" x="159.033203"/>
      </g>
     </g>
    </g>
    <g id="ytick_6">
     <g id="line2d_11">
      <g>
       <use xlink:href="#m417f8ca4a2" x="57.6" y="96.995912" style="stroke: #000000; stroke-width: 0.8"/>
      </g>
     </g>
     <g id="text_12">
      <!-- 0.30 -->
      <g transform="translate(28.334375 100.795131) scale(0.1 -0.1)">
       <defs>
        <path id="DejaVuSans-33" d="M 2597 2516 
Q 3050 2419 3304 2112 
Q 3559 1806 3559 1356 
Q 3559 666 3084 287 
Q 2609 -91 1734 -91 
Q 1441 -91 1130 -33 
Q 819 25 488 141 
L 488 750 
Q 750 597 1062 519 
Q 1375 441 1716 441 
Q 2309 441 2620 675 
Q 2931 909 2931 1356 
Q 2931 1769 2642 2001 
Q 2353 2234 1838 2234 
L 1294 2234 
L 1294 2753 
L 1863 2753 
Q 2328 2753 2575 2939 
Q 2822 3125 2822 3475 
Q 2822 3834 2567 4026 
Q 2313 4219 1838 4219 
Q 1578 4219 1281 4162 
Q 984 4106 628 3988 
L 628 4550 
Q 988 4650 1302 4700 
Q 1616 4750 1894 4750 
Q 2613 4750 3031 4423 
Q 3450 4097 3450 3541 
Q 3450 3153 3228 2886 
Q 3006 2619 2597 2516 
z
" transform="scale(0.015625)"/>
       </defs>
       <use xlink:href="#DejaVuSans-30"/>
       <use xlink:href="#DejaVuSans-2e" x="63.623047"/>
       <use xlink:href="#DejaVuSans-33" x="95.410156"/>
       <use xlink:href="#DejaVuSans-30" x="159.033203"/>
      </g>
     </g>
    </g>
    <g id="ytick_7">
     <g id="line2d_12">
      <g>
       <use xlink:href="#m417f8ca4a2" x="57.6" y="55.577344" style="stroke: #000000; stroke-width: 0.8"/>
      </g>
     </g>
     <g id="text_13">
      <!-- 0.32 -->
      <g transform="translate(28.334375 59.376562) scale(0.1 -0.1)">
       <use xlink:href="#DejaVuSans-30"/>
       <use xlink:href="#DejaVuSans-2e" x="63.623047"/>
       <use xlink:href="#DejaVuSans-33" x="95.410156"/>
       <use xlink:href="#DejaVuSans-32" x="159.033203"/>
      </g>
     </g>
    </g>
    <g id="text_14">
     <!-- Loss -->
     <g transform="translate(22.254688 185.495187) rotate(-90) scale(0.1 -0.1)">
      <defs>
       <path id="DejaVuSans-4c" d="M 628 4666 
L 1259 4666 
L 1259 531 
L 3531 531 
L 3531 0 
L 628 0 
L 628 4666 
z
" transform="scale(0.015625)"/>
       <path id="DejaVuSans-73" d="M 2834 3397 
L 2834 2853 
Q 2591 2978 2328 3040 
Q 2066 3103 1784 3103 
Q 1356 3103 1142 2972 
Q 928 2841 928 2578 
Q 928 2378 1081 2264 
Q 1234 2150 1697 2047 
L 1894 2003 
Q 2506 1872 2764 1633 
Q 3022 1394 3022 966 
Q 3022 478 2636 193 
Q 2250 -91 1575 -91 
Q 1294 -91 989 -36 
Q 684 19 347 128 
L 347 722 
Q 666 556 975 473 
Q 1284 391 1588 391 
Q 1994 391 2212 530 
Q 2431 669 2431 922 
Q 2431 1156 2273 1281 
Q 2116 1406 1581 1522 
L 1381 1569 
Q 847 1681 609 1914 
Q 372 2147 372 2553 
Q 372 3047 722 3315 
Q 1072 3584 1716 3584 
Q 2034 3584 2315 3537 
Q 2597 3491 2834 3397 
z
" transform="scale(0.015625)"/>
      </defs>
      <use xlink:href="#DejaVuSans-4c"/>
      <use xlink:href="#DejaVuSans-6f" x="53.962891"/>
      <use xlink:href="#DejaVuSans-73" x="115.144531"/>
      <use xlink:href="#DejaVuSans-73" x="167.244141"/>
     </g>
    </g>
   </g>
   <g id="line2d_13">
    <path d="M 57.6 53.568 
L 61.207273 238.093524 
L 64.814545 252.878432 
L 68.421818 256.82667 
L 72.029091 259.27736 
L 75.636364 261.315896 
L 79.243636 262.940155 
L 82.850909 264.397474 
L 86.458182 265.726163 
L 90.065455 266.886465 
L 93.672727 267.966506 
L 97.28 269.05817 
L 100.887273 269.981822 
L 104.494545 270.775047 
L 108.101818 271.637813 
L 111.709091 272.363511 
L 115.316364 273.04491 
L 118.923636 273.668102 
L 122.530909 274.34847 
L 126.138182 274.972168 
L 129.745455 275.494208 
L 133.352727 276.02831 
L 136.96 276.485087 
L 140.567273 277.032297 
L 144.174545 277.469983 
L 147.781818 277.935027 
L 151.389091 278.348734 
L 154.996364 278.794753 
L 158.603636 279.159479 
L 162.210909 279.559417 
L 165.818182 279.836915 
L 169.425455 280.25149 
L 173.032727 280.56053 
L 176.64 280.927104 
L 180.247273 281.229967 
L 183.854545 281.569436 
L 187.461818 281.874012 
L 191.069091 282.058979 
L 194.676364 282.274335 
L 198.283636 282.660178 
L 201.890909 282.898126 
L 205.498182 283.162033 
L 209.105455 283.379174 
L 212.712727 283.608396 
L 216.32 283.889001 
L 219.927273 284.131144 
L 223.534545 284.277212 
L 227.141818 284.538516 
L 230.749091 284.74706 
L 234.356364 284.87679 
L 237.963636 285.203177 
L 241.570909 285.341984 
L 245.178182 285.627114 
L 248.785455 285.722927 
L 252.392727 285.867225 
L 256 286.139594 
L 259.607273 286.255711 
L 263.214545 286.410851 
L 266.821818 286.650106 
L 270.429091 286.779578 
L 274.036364 286.974293 
L 277.643636 287.075088 
L 281.250909 287.268863 
L 284.858182 287.480673 
L 288.465455 287.537112 
L 292.072727 287.710413 
L 295.68 287.7868 
L 299.287273 287.976636 
L 302.894545 288.12414 
L 306.501818 288.263063 
L 310.109091 288.420161 
L 313.716364 288.51046 
L 317.323636 288.585906 
L 320.930909 288.714101 
L 324.538182 288.90517 
L 328.145455 288.986116 
L 331.752727 289.138904 
L 335.36 289.258964 
L 338.967273 289.387036 
L 342.574545 289.509744 
L 346.181818 289.600817 
L 349.789091 289.658494 
L 353.396364 289.792835 
L 357.003636 289.880872 
L 360.610909 290.004042 
L 364.218182 290.144278 
L 367.825455 290.194498 
L 371.432727 290.321588 
L 375.04 290.465266 
L 378.647273 290.497981 
L 382.254545 290.59379 
L 385.861818 290.63487 
L 389.469091 290.751422 
L 393.076364 290.924986 
L 396.683636 290.972652 
L 400.290909 291.070635 
L 403.898182 291.166427 
L 407.505455 291.211046 
L 411.112727 291.352436 
L 414.72 291.513757 
" clip-path="url(#pfb368b62ab)" style="fill: none; stroke: #1f77b4; stroke-width: 1.5; stroke-linecap: square"/>
   </g>
   <g id="line2d_14">
    <path d="M 57.6 219.211595 
L 61.207273 252.825035 
L 64.814545 258.004879 
L 68.421818 261.915377 
L 72.029091 263.177042 
L 75.636364 265.176793 
L 79.243636 266.602155 
L 82.850909 267.590075 
L 86.458182 267.907162 
L 90.065455 270.1459 
L 93.672727 271.199098 
L 97.28 271.535637 
L 100.887273 272.740473 
L 104.494545 273.297356 
L 108.101818 273.930862 
L 111.709091 274.289023 
L 115.316364 275.161468 
L 118.923636 276.846985 
L 122.530909 276.358336 
L 126.138182 277.74755 
L 129.745455 278.388392 
L 133.352727 278.619855 
L 136.96 279.064463 
L 140.567273 278.646269 
L 144.174545 279.128488 
L 147.781818 279.753659 
L 151.389091 280.601091 
L 154.996364 280.5939 
L 158.603636 281.025111 
L 162.210909 281.236559 
L 165.818182 281.054953 
L 169.425455 281.834873 
L 173.032727 281.55116 
L 176.64 282.535811 
L 180.247273 282.518555 
L 183.854545 282.269813 
L 187.461818 282.573224 
L 191.069091 283.336662 
L 194.676364 283.009719 
L 198.283636 283.358045 
L 201.890909 283.603911 
L 205.498182 284.121499 
L 209.105455 284.805823 
L 212.712727 284.108315 
L 216.32 284.920472 
L 219.927273 284.143013 
L 223.534545 285.27663 
L 227.141818 286.214816 
L 230.749091 285.896877 
L 234.356364 284.613063 
L 237.963636 286.049087 
L 241.570909 286.415336 
L 245.178182 286.310805 
L 248.785455 286.262601 
L 252.392727 286.237743 
L 256 287.589159 
L 259.607273 287.092628 
L 263.214545 287.220538 
L 266.821818 287.454208 
L 270.429091 287.285541 
L 274.036364 287.133684 
L 277.643636 287.71797 
L 281.250909 288.282087 
L 284.858182 287.569812 
L 288.465455 287.850912 
L 292.072727 287.687631 
L 295.68 287.954899 
L 299.287273 288.673002 
L 302.894545 288.650987 
L 306.501818 289.240653 
L 310.109091 289.797388 
L 313.716364 289.383901 
L 317.323636 288.990723 
L 320.930909 289.371606 
L 324.538182 288.867257 
L 328.145455 288.846009 
L 331.752727 289.306663 
L 335.36 289.920744 
L 338.967273 289.973799 
L 342.574545 288.858639 
L 346.181818 289.788578 
L 349.789091 289.471235 
L 353.396364 290.09552 
L 357.003636 289.973286 
L 360.610909 290.520259 
L 364.218182 289.962212 
L 367.825455 290.107877 
L 371.432727 290.147941 
L 375.04 290.938692 
L 378.647273 290.051694 
L 382.254545 290.675611 
L 385.861818 290.126468 
L 389.469091 290.525892 
L 393.076364 291.519956 
L 396.683636 290.925544 
L 400.290909 291.371448 
L 403.898182 291.264666 
L 407.505455 291.617374 
L 411.112727 291.501424 
L 414.72 291.154413 
" clip-path="url(#pfb368b62ab)" style="fill: none; stroke: #ff7f0e; stroke-width: 1.5; stroke-linecap: square"/>
   </g>
   <g id="line2d_15">
    <path d="M 57.6 54.541622 
L 61.207273 236.741819 
L 64.814545 251.095126 
L 68.421818 254.798179 
L 72.029091 257.191497 
L 75.636364 258.976381 
L 79.243636 260.543866 
L 82.850909 261.941326 
L 86.458182 263.200853 
L 90.065455 264.332683 
L 93.672727 265.509533 
L 97.28 266.396816 
L 100.887273 267.345741 
L 104.494545 268.283723 
L 108.101818 269.039301 
L 111.709091 269.860837 
L 115.316364 270.521548 
L 118.923636 271.205594 
L 122.530909 271.853617 
L 126.138182 272.462645 
L 129.745455 273.095392 
L 133.352727 273.571048 
L 136.96 274.170959 
L 140.567273 274.619083 
L 144.174545 275.11237 
L 147.781818 275.532032 
L 151.389091 276.098233 
L 154.996364 276.429724 
L 158.603636 276.815065 
L 162.210909 277.210571 
L 165.818182 277.574609 
L 169.425455 278.023039 
L 173.032727 278.277283 
L 176.64 278.588987 
L 180.247273 279.011704 
L 183.854545 279.32043 
L 187.461818 279.67682 
L 191.069091 279.908756 
L 194.676364 280.152913 
L 198.283636 280.443738 
L 201.890909 280.6565 
L 205.498182 281.001603 
L 209.105455 281.282117 
L 212.712727 281.488596 
L 216.32 281.757197 
L 219.927273 282.004429 
L 223.534545 282.211477 
L 227.141818 282.396676 
L 230.749091 282.652464 
L 234.356364 282.890947 
L 237.963636 283.054625 
L 241.570909 283.220193 
L 245.178182 283.418254 
L 248.785455 283.548546 
L 252.392727 283.802035 
L 256 283.93199 
L 259.607273 284.101236 
L 263.214545 284.32126 
L 266.821818 284.444811 
L 270.429091 284.61694 
L 274.036364 284.82639 
L 277.643636 285.030216 
L 281.250909 285.167016 
L 284.858182 285.269048 
L 288.465455 285.46655 
L 292.072727 285.553862 
L 295.68 285.716208 
L 299.287273 285.867512 
L 302.894545 285.944532 
L 306.501818 286.092279 
L 310.109091 286.160743 
L 313.716364 286.367718 
L 317.323636 286.492104 
L 320.930909 286.614372 
L 324.538182 286.748774 
L 328.145455 286.775667 
L 331.752727 286.937517 
L 335.36 287.045707 
L 338.967273 287.184075 
L 342.574545 287.258101 
L 346.181818 287.378112 
L 349.789091 287.562027 
L 353.396364 287.593554 
L 357.003636 287.700553 
L 360.610909 287.743581 
L 364.218182 287.877954 
L 367.825455 288.034536 
L 371.432727 288.136424 
L 375.04 288.240683 
L 378.647273 288.292695 
L 382.254545 288.420881 
L 385.861818 288.474965 
L 389.469091 288.562399 
L 393.076364 288.599486 
L 396.683636 288.718463 
L 400.290909 288.733252 
L 403.898182 288.914604 
L 407.505455 289.013702 
L 411.112727 289.133942 
L 414.72 289.147238 
" clip-path="url(#pfb368b62ab)" style="fill: none; stroke: #2ca02c; stroke-width: 1.5; stroke-linecap: square"/>
   </g>
   <g id="line2d_16">
    <path d="M 57.6 218.114737 
L 61.207273 252.286499 
L 64.814545 257.517858 
L 68.421818 260.247666 
L 72.029091 261.719741 
L 75.636364 263.585052 
L 79.243636 264.376147 
L 82.850909 265.439716 
L 86.458182 266.627377 
L 90.065455 266.743176 
L 93.672727 268.690714 
L 97.28 268.95397 
L 100.887273 270.850101 
L 104.494545 270.401165 
L 108.101818 271.809824 
L 111.709091 272.8665 
L 115.316364 272.851437 
L 118.923636 274.566659 
L 122.530909 273.408661 
L 126.138182 274.86169 
L 129.745455 275.315124 
L 133.352727 275.549561 
L 136.96 276.828029 
L 140.567273 276.736998 
L 144.174545 276.810424 
L 147.781818 277.19297 
L 151.389091 278.439692 
L 154.996364 278.164783 
L 158.603636 277.984184 
L 162.210909 279.167797 
L 165.818182 278.574905 
L 169.425455 280.149913 
L 173.032727 280.435119 
L 176.64 280.236343 
L 180.247273 280.275545 
L 183.854545 281.011814 
L 187.461818 280.664877 
L 191.069091 280.965633 
L 194.676364 282.105211 
L 198.283636 281.172989 
L 201.890909 281.686751 
L 205.498182 282.205152 
L 209.105455 282.904528 
L 212.712727 283.107038 
L 216.32 283.314274 
L 219.927273 282.402946 
L 223.534545 282.643248 
L 227.141818 283.890427 
L 230.749091 283.579211 
L 234.356364 284.47094 
L 237.963636 283.999626 
L 241.570909 284.360614 
L 245.178182 285.404631 
L 248.785455 284.876156 
L 252.392727 285.015711 
L 256 284.167357 
L 259.607273 285.518539 
L 263.214545 284.62468 
L 266.821818 285.288618 
L 270.429091 284.958124 
L 274.036364 286.165522 
L 277.643636 286.190786 
L 281.250909 285.87962 
L 284.858182 286.095759 
L 288.465455 286.499663 
L 292.072727 286.153335 
L 295.68 287.073509 
L 299.287273 285.651152 
L 302.894545 287.074294 
L 306.501818 287.019845 
L 310.109091 287.202385 
L 313.716364 287.270533 
L 317.323636 288.188728 
L 320.930909 286.990788 
L 324.538182 286.907517 
L 328.145455 287.666344 
L 331.752727 287.799824 
L 335.36 287.9342 
L 338.967273 287.184557 
L 342.574545 288.57324 
L 346.181818 288.24761 
L 349.789091 287.920676 
L 353.396364 287.87337 
L 357.003636 287.696437 
L 360.610909 288.556968 
L 364.218182 288.779199 
L 367.825455 288.029711 
L 371.432727 288.305225 
L 375.04 288.21375 
L 378.647273 288.439312 
L 382.254545 288.192066 
L 385.861818 288.662849 
L 389.469091 289.329567 
L 393.076364 288.981829 
L 396.683636 288.967943 
L 400.290909 288.487715 
L 403.898182 289.030015 
L 407.505455 289.972427 
L 411.112727 289.342637 
L 414.72 289.887529 
" clip-path="url(#pfb368b62ab)" style="fill: none; stroke: #d62728; stroke-width: 1.5; stroke-linecap: square"/>
   </g>
   <g id="line2d_17">
    <path d="M 57.6 79.558773 
L 61.207273 244.717045 
L 64.814545 256.424033 
L 68.421818 260.315646 
L 72.029091 262.686574 
L 75.636364 264.866656 
L 79.243636 266.513594 
L 82.850909 268.219706 
L 86.458182 269.535292 
L 90.065455 270.734323 
L 93.672727 271.899632 
L 97.28 272.882349 
L 100.887273 273.793668 
L 104.494545 274.645189 
L 108.101818 275.481399 
L 111.709091 276.2722 
L 115.316364 276.941628 
L 118.923636 277.555462 
L 122.530909 278.190448 
L 126.138182 278.805523 
L 129.745455 279.347789 
L 133.352727 279.927977 
L 136.96 280.396737 
L 140.567273 280.926239 
L 144.174545 281.284683 
L 147.781818 281.828835 
L 151.389091 282.154924 
L 154.996364 282.594722 
L 158.603636 282.926714 
L 162.210909 283.437518 
L 165.818182 283.744391 
L 169.425455 284.083028 
L 173.032727 284.489343 
L 176.64 284.805242 
L 180.247273 285.013852 
L 183.854545 285.36006 
L 187.461818 285.684679 
L 191.069091 285.942285 
L 194.676364 286.310524 
L 198.283636 286.42585 
L 201.890909 286.732319 
L 205.498182 287.048259 
L 209.105455 287.205046 
L 212.712727 287.517092 
L 216.32 287.745021 
L 219.927273 287.982565 
L 223.534545 288.122446 
L 227.141818 288.453877 
L 230.749091 288.586725 
L 234.356364 288.825684 
L 237.963636 289.039049 
L 241.570909 289.266718 
L 245.178182 289.376362 
L 248.785455 289.679072 
L 252.392727 289.750605 
L 256 289.941239 
L 259.607273 290.120794 
L 263.214545 290.296155 
L 266.821818 290.488433 
L 270.429091 290.648088 
L 274.036364 290.855678 
L 277.643636 290.880546 
L 281.250909 291.010781 
L 284.858182 291.276444 
L 288.465455 291.378889 
L 292.072727 291.478012 
L 295.68 291.63266 
L 299.287273 291.842279 
L 302.894545 291.952276 
L 306.501818 292.024128 
L 310.109091 292.23097 
L 313.716364 292.236315 
L 317.323636 292.393674 
L 320.930909 292.49305 
L 324.538182 292.678038 
L 328.145455 292.767888 
L 331.752727 292.832608 
L 335.36 292.978147 
L 338.967273 293.103751 
L 342.574545 293.260073 
L 346.181818 293.332563 
L 349.789091 293.434573 
L 353.396364 293.509568 
L 357.003636 293.589756 
L 360.610909 293.618851 
L 364.218182 293.871087 
L 367.825455 293.882917 
L 371.432727 294.01461 
L 375.04 294.019489 
L 378.647273 294.229489 
L 382.254545 294.328617 
L 385.861818 294.360218 
L 389.469091 294.495144 
L 393.076364 294.528953 
L 396.683636 294.699086 
L 400.290909 294.703989 
L 403.898182 294.743644 
L 407.505455 294.920882 
L 411.112727 294.960653 
L 414.72 295.080283 
" clip-path="url(#pfb368b62ab)" style="fill: none; stroke: #9467bd; stroke-width: 1.5; stroke-linecap: square"/>
   </g>
   <g id="line2d_18">
    <path d="M 57.6 230.95604 
L 61.207273 258.299603 
L 64.814545 261.791946 
L 68.421818 264.217512 
L 72.029091 267.954897 
L 75.636364 268.720175 
L 79.243636 270.065893 
L 82.850909 271.985789 
L 86.458182 272.910091 
L 90.065455 274.322711 
L 93.672727 274.501645 
L 97.28 276.0411 
L 100.887273 275.859175 
L 104.494545 277.222874 
L 108.101818 278.131404 
L 111.709091 278.86092 
L 115.316364 279.18047 
L 118.923636 279.032608 
L 122.530909 280.621872 
L 126.138182 281.61343 
L 129.745455 281.662902 
L 133.352727 280.38465 
L 136.96 282.128496 
L 140.567273 283.0622 
L 144.174545 283.225443 
L 147.781818 282.981065 
L 151.389091 283.886608 
L 154.996364 285.006554 
L 158.603636 285.296795 
L 162.210909 284.338563 
L 165.818182 285.329889 
L 169.425455 285.351001 
L 173.032727 285.205156 
L 176.64 286.947774 
L 180.247273 286.909332 
L 183.854545 286.828229 
L 187.461818 286.97439 
L 191.069091 287.92974 
L 194.676364 286.434308 
L 198.283636 287.435496 
L 201.890909 287.995782 
L 205.498182 288.22837 
L 209.105455 288.326694 
L 212.712727 288.271466 
L 216.32 289.411381 
L 219.927273 287.443477 
L 223.534545 288.897249 
L 227.141818 289.617357 
L 230.749091 289.032044 
L 234.356364 290.161876 
L 237.963636 289.547303 
L 241.570909 289.70595 
L 245.178182 290.103104 
L 248.785455 290.080349 
L 252.392727 291.23672 
L 256 290.962063 
L 259.607273 290.369044 
L 263.214545 291.004832 
L 266.821818 291.17871 
L 270.429091 291.550342 
L 274.036364 292.04851 
L 277.643636 291.65692 
L 281.250909 291.164161 
L 284.858182 291.996924 
L 288.465455 292.457582 
L 292.072727 290.37521 
L 295.68 292.286454 
L 299.287273 292.189537 
L 302.894545 291.676859 
L 306.501818 293.052017 
L 310.109091 291.734653 
L 313.716364 293.431625 
L 317.323636 292.622881 
L 320.930909 292.369316 
L 324.538182 292.321047 
L 328.145455 292.471603 
L 331.752727 292.98413 
L 335.36 293.529521 
L 338.967273 293.693752 
L 342.574545 293.61909 
L 346.181818 294.223234 
L 349.789091 292.578453 
L 353.396364 293.7103 
L 357.003636 293.204765 
L 360.610909 294.186591 
L 364.218182 293.753303 
L 367.825455 294.200648 
L 371.432727 294.189466 
L 375.04 294.6852 
L 378.647273 294.603183 
L 382.254545 294.060449 
L 385.861818 294.75124 
L 389.469091 295.378563 
L 393.076364 294.773702 
L 396.683636 295.040872 
L 400.290909 295.432005 
L 403.898182 295.085094 
L 407.505455 294.992216 
L 411.112727 295.128559 
L 414.72 295.488 
" clip-path="url(#pfb368b62ab)" style="fill: none; stroke: #8c564b; stroke-width: 1.5; stroke-linecap: square"/>
   </g>
   <g id="patch_3">
    <path d="M 57.6 307.584 
L 57.6 41.472 
" style="fill: none; stroke: #000000; stroke-width: 0.8; stroke-linejoin: miter; stroke-linecap: square"/>
   </g>
   <g id="patch_4">
    <path d="M 414.72 307.584 
L 414.72 41.472 
" style="fill: none; stroke: #000000; stroke-width: 0.8; stroke-linejoin: miter; stroke-linecap: square"/>
   </g>
   <g id="patch_5">
    <path d="M 57.6 307.584 
L 414.72 307.584 
" style="fill: none; stroke: #000000; stroke-width: 0.8; stroke-linejoin: miter; stroke-linecap: square"/>
   </g>
   <g id="patch_6">
    <path d="M 57.6 41.472 
L 414.72 41.472 
" style="fill: none; stroke: #000000; stroke-width: 0.8; stroke-linejoin: miter; stroke-linecap: square"/>
   </g>
   <g id="legend_1">
    <g id="patch_7">
     <path d="M 352.445 137.54075 
L 407.72 137.54075 
Q 409.72 137.54075 409.72 135.54075 
L 409.72 48.472 
Q 409.72 46.472 407.72 46.472 
L 352.445 46.472 
Q 350.445 46.472 350.445 48.472 
L 350.445 135.54075 
Q 350.445 137.54075 352.445 137.54075 
z
" style="fill: #ffffff; opacity: 0.8; stroke: #cccccc; stroke-linejoin: miter"/>
    </g>
    <g id="line2d_19">
     <path d="M 354.445 54.570438 
L 364.445 54.570438 
L 374.445 54.570438 
" style="fill: none; stroke: #1f77b4; stroke-width: 1.5; stroke-linecap: square"/>
    </g>
    <g id="text_15">
     <!-- train -->
     <g transform="translate(382.445 58.070438) scale(0.1 -0.1)">
      <defs>
       <path id="DejaVuSans-74" d="M 1172 4494 
L 1172 3500 
L 2356 3500 
L 2356 3053 
L 1172 3053 
L 1172 1153 
Q 1172 725 1289 603 
Q 1406 481 1766 481 
L 2356 481 
L 2356 0 
L 1766 0 
Q 1100 0 847 248 
Q 594 497 594 1153 
L 594 3053 
L 172 3053 
L 172 3500 
L 594 3500 
L 594 4494 
L 1172 4494 
z
" transform="scale(0.015625)"/>
       <path id="DejaVuSans-72" d="M 2631 2963 
Q 2534 3019 2420 3045 
Q 2306 3072 2169 3072 
Q 1681 3072 1420 2755 
Q 1159 2438 1159 1844 
L 1159 0 
L 581 0 
L 581 3500 
L 1159 3500 
L 1159 2956 
Q 1341 3275 1631 3429 
Q 1922 3584 2338 3584 
Q 2397 3584 2469 3576 
Q 2541 3569 2628 3553 
L 2631 2963 
z
" transform="scale(0.015625)"/>
       <path id="DejaVuSans-61" d="M 2194 1759 
Q 1497 1759 1228 1600 
Q 959 1441 959 1056 
Q 959 750 1161 570 
Q 1363 391 1709 391 
Q 2188 391 2477 730 
Q 2766 1069 2766 1631 
L 2766 1759 
L 2194 1759 
z
M 3341 1997 
L 3341 0 
L 2766 0 
L 2766 531 
Q 2569 213 2275 61 
Q 1981 -91 1556 -91 
Q 1019 -91 701 211 
Q 384 513 384 1019 
Q 384 1609 779 1909 
Q 1175 2209 1959 2209 
L 2766 2209 
L 2766 2266 
Q 2766 2663 2505 2880 
Q 2244 3097 1772 3097 
Q 1472 3097 1187 3025 
Q 903 2953 641 2809 
L 641 3341 
Q 956 3463 1253 3523 
Q 1550 3584 1831 3584 
Q 2591 3584 2966 3190 
Q 3341 2797 3341 1997 
z
" transform="scale(0.015625)"/>
       <path id="DejaVuSans-69" d="M 603 3500 
L 1178 3500 
L 1178 0 
L 603 0 
L 603 3500 
z
M 603 4863 
L 1178 4863 
L 1178 4134 
L 603 4134 
L 603 4863 
z
" transform="scale(0.015625)"/>
       <path id="DejaVuSans-6e" d="M 3513 2113 
L 3513 0 
L 2938 0 
L 2938 2094 
Q 2938 2591 2744 2837 
Q 2550 3084 2163 3084 
Q 1697 3084 1428 2787 
Q 1159 2491 1159 1978 
L 1159 0 
L 581 0 
L 581 3500 
L 1159 3500 
L 1159 2956 
Q 1366 3272 1645 3428 
Q 1925 3584 2291 3584 
Q 2894 3584 3203 3211 
Q 3513 2838 3513 2113 
z
" transform="scale(0.015625)"/>
      </defs>
      <use xlink:href="#DejaVuSans-74"/>
      <use xlink:href="#DejaVuSans-72" x="39.208984"/>
      <use xlink:href="#DejaVuSans-61" x="80.322266"/>
      <use xlink:href="#DejaVuSans-69" x="141.601562"/>
      <use xlink:href="#DejaVuSans-6e" x="169.384766"/>
     </g>
    </g>
    <g id="line2d_20">
     <path d="M 354.445 69.248563 
L 364.445 69.248563 
L 374.445 69.248563 
" style="fill: none; stroke: #ff7f0e; stroke-width: 1.5; stroke-linecap: square"/>
    </g>
    <g id="text_16">
     <!-- val -->
     <g transform="translate(382.445 72.748563) scale(0.1 -0.1)">
      <defs>
       <path id="DejaVuSans-76" d="M 191 3500 
L 800 3500 
L 1894 563 
L 2988 3500 
L 3597 3500 
L 2284 0 
L 1503 0 
L 191 3500 
z
" transform="scale(0.015625)"/>
       <path id="DejaVuSans-6c" d="M 603 4863 
L 1178 4863 
L 1178 0 
L 603 0 
L 603 4863 
z
" transform="scale(0.015625)"/>
      </defs>
      <use xlink:href="#DejaVuSans-76"/>
      <use xlink:href="#DejaVuSans-61" x="59.179688"/>
      <use xlink:href="#DejaVuSans-6c" x="120.458984"/>
     </g>
    </g>
    <g id="line2d_21">
     <path d="M 354.445 83.926688 
L 364.445 83.926688 
L 374.445 83.926688 
" style="fill: none; stroke: #2ca02c; stroke-width: 1.5; stroke-linecap: square"/>
    </g>
    <g id="text_17">
     <!-- train -->
     <g transform="translate(382.445 87.426688) scale(0.1 -0.1)">
      <use xlink:href="#DejaVuSans-74"/>
      <use xlink:href="#DejaVuSans-72" x="39.208984"/>
      <use xlink:href="#DejaVuSans-61" x="80.322266"/>
      <use xlink:href="#DejaVuSans-69" x="141.601562"/>
      <use xlink:href="#DejaVuSans-6e" x="169.384766"/>
     </g>
    </g>
    <g id="line2d_22">
     <path d="M 354.445 98.604813 
L 364.445 98.604813 
L 374.445 98.604813 
" style="fill: none; stroke: #d62728; stroke-width: 1.5; stroke-linecap: square"/>
    </g>
    <g id="text_18">
     <!-- val -->
     <g transform="translate(382.445 102.104813) scale(0.1 -0.1)">
      <use xlink:href="#DejaVuSans-76"/>
      <use xlink:href="#DejaVuSans-61" x="59.179688"/>
      <use xlink:href="#DejaVuSans-6c" x="120.458984"/>
     </g>
    </g>
    <g id="line2d_23">
     <path d="M 354.445 113.282938 
L 364.445 113.282938 
L 374.445 113.282938 
" style="fill: none; stroke: #9467bd; stroke-width: 1.5; stroke-linecap: square"/>
    </g>
    <g id="text_19">
     <!-- train -->
     <g transform="translate(382.445 116.782938) scale(0.1 -0.1)">
      <use xlink:href="#DejaVuSans-74"/>
      <use xlink:href="#DejaVuSans-72" x="39.208984"/>
      <use xlink:href="#DejaVuSans-61" x="80.322266"/>
      <use xlink:href="#DejaVuSans-69" x="141.601562"/>
      <use xlink:href="#DejaVuSans-6e" x="169.384766"/>
     </g>
    </g>
    <g id="line2d_24">
     <path d="M 354.445 127.961063 
L 364.445 127.961063 
L 374.445 127.961063 
" style="fill: none; stroke: #8c564b; stroke-width: 1.5; stroke-linecap: square"/>
    </g>
    <g id="text_20">
     <!-- val -->
     <g transform="translate(382.445 131.461063) scale(0.1 -0.1)">
      <use xlink:href="#DejaVuSans-76"/>
      <use xlink:href="#DejaVuSans-61" x="59.179688"/>
      <use xlink:href="#DejaVuSans-6c" x="120.458984"/>
     </g>
    </g>
   </g>
  </g>
 </g>
 <defs>
  <clipPath id="pfb368b62ab">
   <rect x="57.6" y="41.472" width="357.12" height="266.112"/>
  </clipPath>
 </defs>
</svg>
