<?xml version="1.0" encoding="utf-8" standalone="no"?>
<!DOCTYPE svg PUBLIC "-//W3C//DTD SVG 1.1//EN"
  "http://www.w3.org/Graphics/SVG/1.1/DTD/svg11.dtd">
<svg xmlns:xlink="http://www.w3.org/1999/xlink" width="460.8pt" height="345.6pt" viewBox="0 0 460.8 345.6" xmlns="http://www.w3.org/2000/svg" version="1.1">
 <metadata>
  <rdf:RDF xmlns:dc="http://purl.org/dc/elements/1.1/" xmlns:cc="http://creativecommons.org/ns#" xmlns:rdf="http://www.w3.org/1999/02/22-rdf-syntax-ns#">
   <cc:Work>
    <dc:type rdf:resource="http://purl.org/dc/dcmitype/StillImage"/>
    <dc:date>2024-08-02T14:05:00.055098</dc:date>
    <dc:format>image/svg+xml</dc:format>
    <dc:creator>
     <cc:Agent>
      <dc:title>Matplotlib v3.7.4, https://matplotlib.org/</dc:title>
     </cc:Agent>
    </dc:creator>
   </cc:Work>
  </rdf:RDF>
 </metadata>
 <defs>
  <style type="text/css">*{stroke-linejoin: round; stroke-linecap: butt}</style>
 </defs>
 <g id="figure_1">
  <g id="patch_1">
   <path d="M 0 345.6 
L 460.8 345.6 
L 460.8 0 
L 0 0 
z
" style="fill: #ffffff"/>
  </g>
  <g id="axes_1">
   <g id="patch_2">
    <path d="M 57.6 307.584 
L 414.72 307.584 
L 414.72 41.472 
L 57.6 41.472 
z
" style="fill: #ffffff"/>
   </g>
   <g id="matplotlib.axis_1">
    <g id="xtick_1">
     <g id="line2d_1">
      <defs>
       <path id="m7b16b425e4" d="M 0 0 
L 0 3.5 
" style="stroke: #000000; stroke-width: 0.8"/>
      </defs>
      <g>
       <use xlink:href="#m7b16b425e4" x="124.56" y="307.584" style="stroke: #000000; stroke-width: 0.8"/>
      </g>
     </g>
     <g id="text_1">
      <!-- 10 -->
      <g transform="translate(118.1975 322.182437) scale(0.1 -0.1)">
       <defs>
        <path id="DejaVuSans-31" d="M 794 531 
L 1825 531 
L 1825 4091 
L 703 3866 
L 703 4441 
L 1819 4666 
L 2450 4666 
L 2450 531 
L 3481 531 
L 3481 0 
L 794 0 
L 794 531 
z
" transform="scale(0.015625)"/>
        <path id="DejaVuSans-30" d="M 2034 4250 
Q 1547 4250 1301 3770 
Q 1056 3291 1056 2328 
Q 1056 1369 1301 889 
Q 1547 409 2034 409 
Q 2525 409 2770 889 
Q 3016 1369 3016 2328 
Q 3016 3291 2770 3770 
Q 2525 4250 2034 4250 
z
M 2034 4750 
Q 2819 4750 3233 4129 
Q 3647 3509 3647 2328 
Q 3647 1150 3233 529 
Q 2819 -91 2034 -91 
Q 1250 -91 836 529 
Q 422 1150 422 2328 
Q 422 3509 836 4129 
Q 1250 4750 2034 4750 
z
" transform="scale(0.015625)"/>
       </defs>
       <use xlink:href="#DejaVuSans-31"/>
       <use xlink:href="#DejaVuSans-30" x="63.623047"/>
      </g>
     </g>
    </g>
    <g id="xtick_2">
     <g id="line2d_2">
      <g>
       <use xlink:href="#m7b16b425e4" x="198.96" y="307.584" style="stroke: #000000; stroke-width: 0.8"/>
      </g>
     </g>
     <g id="text_2">
      <!-- 20 -->
      <g transform="translate(192.5975 322.182437) scale(0.1 -0.1)">
       <defs>
        <path id="DejaVuSans-32" d="M 1228 531 
L 3431 531 
L 3431 0 
L 469 0 
L 469 531 
Q 828 903 1448 1529 
Q 2069 2156 2228 2338 
Q 2531 2678 2651 2914 
Q 2772 3150 2772 3378 
Q 2772 3750 2511 3984 
Q 2250 4219 1831 4219 
Q 1534 4219 1204 4116 
Q 875 4013 500 3803 
L 500 4441 
Q 881 4594 1212 4672 
Q 1544 4750 1819 4750 
Q 2544 4750 2975 4387 
Q 3406 4025 3406 3419 
Q 3406 3131 3298 2873 
Q 3191 2616 2906 2266 
Q 2828 2175 2409 1742 
Q 1991 1309 1228 531 
z
" transform="scale(0.015625)"/>
       </defs>
       <use xlink:href="#DejaVuSans-32"/>
       <use xlink:href="#DejaVuSans-30" x="63.623047"/>
      </g>
     </g>
    </g>
    <g id="xtick_3">
     <g id="line2d_3">
      <g>
       <use xlink:href="#m7b16b425e4" x="273.36" y="307.584" style="stroke: #000000; stroke-width: 0.8"/>
      </g>
     </g>
     <g id="text_3">
      <!-- 30 -->
      <g transform="translate(266.9975 322.182437) scale(0.1 -0.1)">
       <defs>
        <path id="DejaVuSans-33" d="M 2597 2516 
Q 3050 2419 3304 2112 
Q 3559 1806 3559 1356 
Q 3559 666 3084 287 
Q 2609 -91 1734 -91 
Q 1441 -91 1130 -33 
Q 819 25 488 141 
L 488 750 
Q 750 597 1062 519 
Q 1375 441 1716 441 
Q 2309 441 2620 675 
Q 2931 909 2931 1356 
Q 2931 1769 2642 2001 
Q 2353 2234 1838 2234 
L 1294 2234 
L 1294 2753 
L 1863 2753 
Q 2328 2753 2575 2939 
Q 2822 3125 2822 3475 
Q 2822 3834 2567 4026 
Q 2313 4219 1838 4219 
Q 1578 4219 1281 4162 
Q 984 4106 628 3988 
L 628 4550 
Q 988 4650 1302 4700 
Q 1616 4750 1894 4750 
Q 2613 4750 3031 4423 
Q 3450 4097 3450 3541 
Q 3450 3153 3228 2886 
Q 3006 2619 2597 2516 
z
" transform="scale(0.015625)"/>
       </defs>
       <use xlink:href="#DejaVuSans-33"/>
       <use xlink:href="#DejaVuSans-30" x="63.623047"/>
      </g>
     </g>
    </g>
    <g id="xtick_4">
     <g id="line2d_4">
      <g>
       <use xlink:href="#m7b16b425e4" x="347.76" y="307.584" style="stroke: #000000; stroke-width: 0.8"/>
      </g>
     </g>
     <g id="text_4">
      <!-- 40 -->
      <g transform="translate(341.3975 322.182437) scale(0.1 -0.1)">
       <defs>
        <path id="DejaVuSans-34" d="M 2419 4116 
L 825 1625 
L 2419 1625 
L 2419 4116 
z
M 2253 4666 
L 3047 4666 
L 3047 1625 
L 3713 1625 
L 3713 1100 
L 3047 1100 
L 3047 0 
L 2419 0 
L 2419 1100 
L 313 1100 
L 313 1709 
L 2253 4666 
z
" transform="scale(0.015625)"/>
       </defs>
       <use xlink:href="#DejaVuSans-34"/>
       <use xlink:href="#DejaVuSans-30" x="63.623047"/>
      </g>
     </g>
    </g>
    <g id="text_5">
     <!-- Epoch -->
     <g transform="translate(220.849063 335.860562) scale(0.1 -0.1)">
      <defs>
       <path id="DejaVuSans-45" d="M 628 4666 
L 3578 4666 
L 3578 4134 
L 1259 4134 
L 1259 2753 
L 3481 2753 
L 3481 2222 
L 1259 2222 
L 1259 531 
L 3634 531 
L 3634 0 
L 628 0 
L 628 4666 
z
" transform="scale(0.015625)"/>
       <path id="DejaVuSans-70" d="M 1159 525 
L 1159 -1331 
L 581 -1331 
L 581 3500 
L 1159 3500 
L 1159 2969 
Q 1341 3281 1617 3432 
Q 1894 3584 2278 3584 
Q 2916 3584 3314 3078 
Q 3713 2572 3713 1747 
Q 3713 922 3314 415 
Q 2916 -91 2278 -91 
Q 1894 -91 1617 61 
Q 1341 213 1159 525 
z
M 3116 1747 
Q 3116 2381 2855 2742 
Q 2594 3103 2138 3103 
Q 1681 3103 1420 2742 
Q 1159 2381 1159 1747 
Q 1159 1113 1420 752 
Q 1681 391 2138 391 
Q 2594 391 2855 752 
Q 3116 1113 3116 1747 
z
" transform="scale(0.015625)"/>
       <path id="DejaVuSans-6f" d="M 1959 3097 
Q 1497 3097 1228 2736 
Q 959 2375 959 1747 
Q 959 1119 1226 758 
Q 1494 397 1959 397 
Q 2419 397 2687 759 
Q 2956 1122 2956 1747 
Q 2956 2369 2687 2733 
Q 2419 3097 1959 3097 
z
M 1959 3584 
Q 2709 3584 3137 3096 
Q 3566 2609 3566 1747 
Q 3566 888 3137 398 
Q 2709 -91 1959 -91 
Q 1206 -91 779 398 
Q 353 888 353 1747 
Q 353 2609 779 3096 
Q 1206 3584 1959 3584 
z
" transform="scale(0.015625)"/>
       <path id="DejaVuSans-63" d="M 3122 3366 
L 3122 2828 
Q 2878 2963 2633 3030 
Q 2388 3097 2138 3097 
Q 1578 3097 1268 2742 
Q 959 2388 959 1747 
Q 959 1106 1268 751 
Q 1578 397 2138 397 
Q 2388 397 2633 464 
Q 2878 531 3122 666 
L 3122 134 
Q 2881 22 2623 -34 
Q 2366 -91 2075 -91 
Q 1284 -91 818 406 
Q 353 903 353 1747 
Q 353 2603 823 3093 
Q 1294 3584 2113 3584 
Q 2378 3584 2631 3529 
Q 2884 3475 3122 3366 
z
" transform="scale(0.015625)"/>
       <path id="DejaVuSans-68" d="M 3513 2113 
L 3513 0 
L 2938 0 
L 2938 2094 
Q 2938 2591 2744 2837 
Q 2550 3084 2163 3084 
Q 1697 3084 1428 2787 
Q 1159 2491 1159 1978 
L 1159 0 
L 581 0 
L 581 4863 
L 1159 4863 
L 1159 2956 
Q 1366 3272 1645 3428 
Q 1925 3584 2291 3584 
Q 2894 3584 3203 3211 
Q 3513 2838 3513 2113 
z
" transform="scale(0.015625)"/>
      </defs>
      <use xlink:href="#DejaVuSans-45"/>
      <use xlink:href="#DejaVuSans-70" x="63.183594"/>
      <use xlink:href="#DejaVuSans-6f" x="126.660156"/>
      <use xlink:href="#DejaVuSans-63" x="187.841797"/>
      <use xlink:href="#DejaVuSans-68" x="242.822266"/>
     </g>
    </g>
   </g>
   <g id="matplotlib.axis_2">
    <g id="ytick_1">
     <g id="line2d_5">
      <defs>
       <path id="mb567708d96" d="M 0 0 
L -3.5 0 
" style="stroke: #000000; stroke-width: 0.8"/>
      </defs>
      <g>
       <use xlink:href="#mb567708d96" x="57.6" y="292.572107" style="stroke: #000000; stroke-width: 0.8"/>
      </g>
     </g>
     <g id="text_6">
      <!-- 0.100 -->
      <g transform="translate(21.971875 296.371326) scale(0.1 -0.1)">
       <defs>
        <path id="DejaVuSans-2e" d="M 684 794 
L 1344 794 
L 1344 0 
L 684 0 
L 684 794 
z
" transform="scale(0.015625)"/>
       </defs>
       <use xlink:href="#DejaVuSans-30"/>
       <use xlink:href="#DejaVuSans-2e" x="63.623047"/>
       <use xlink:href="#DejaVuSans-31" x="95.410156"/>
       <use xlink:href="#DejaVuSans-30" x="159.033203"/>
       <use xlink:href="#DejaVuSans-30" x="222.65625"/>
      </g>
     </g>
    </g>
    <g id="ytick_2">
     <g id="line2d_6">
      <g>
       <use xlink:href="#mb567708d96" x="57.6" y="257.593526" style="stroke: #000000; stroke-width: 0.8"/>
      </g>
     </g>
     <g id="text_7">
      <!-- 0.125 -->
      <g transform="translate(21.971875 261.392744) scale(0.1 -0.1)">
       <defs>
        <path id="DejaVuSans-35" d="M 691 4666 
L 3169 4666 
L 3169 4134 
L 1269 4134 
L 1269 2991 
Q 1406 3038 1543 3061 
Q 1681 3084 1819 3084 
Q 2600 3084 3056 2656 
Q 3513 2228 3513 1497 
Q 3513 744 3044 326 
Q 2575 -91 1722 -91 
Q 1428 -91 1123 -41 
Q 819 9 494 109 
L 494 744 
Q 775 591 1075 516 
Q 1375 441 1709 441 
Q 2250 441 2565 725 
Q 2881 1009 2881 1497 
Q 2881 1984 2565 2268 
Q 2250 2553 1709 2553 
Q 1456 2553 1204 2497 
Q 953 2441 691 2322 
L 691 4666 
z
" transform="scale(0.015625)"/>
       </defs>
       <use xlink:href="#DejaVuSans-30"/>
       <use xlink:href="#DejaVuSans-2e" x="63.623047"/>
       <use xlink:href="#DejaVuSans-31" x="95.410156"/>
       <use xlink:href="#DejaVuSans-32" x="159.033203"/>
       <use xlink:href="#DejaVuSans-35" x="222.65625"/>
      </g>
     </g>
    </g>
    <g id="ytick_3">
     <g id="line2d_7">
      <g>
       <use xlink:href="#mb567708d96" x="57.6" y="222.614944" style="stroke: #000000; stroke-width: 0.8"/>
      </g>
     </g>
     <g id="text_8">
      <!-- 0.150 -->
      <g transform="translate(21.971875 226.414163) scale(0.1 -0.1)">
       <use xlink:href="#DejaVuSans-30"/>
       <use xlink:href="#DejaVuSans-2e" x="63.623047"/>
       <use xlink:href="#DejaVuSans-31" x="95.410156"/>
       <use xlink:href="#DejaVuSans-35" x="159.033203"/>
       <use xlink:href="#DejaVuSans-30" x="222.65625"/>
      </g>
     </g>
    </g>
    <g id="ytick_4">
     <g id="line2d_8">
      <g>
       <use xlink:href="#mb567708d96" x="57.6" y="187.636362" style="stroke: #000000; stroke-width: 0.8"/>
      </g>
     </g>
     <g id="text_9">
      <!-- 0.175 -->
      <g transform="translate(21.971875 191.435581) scale(0.1 -0.1)">
       <defs>
        <path id="DejaVuSans-37" d="M 525 4666 
L 3525 4666 
L 3525 4397 
L 1831 0 
L 1172 0 
L 2766 4134 
L 525 4134 
L 525 4666 
z
" transform="scale(0.015625)"/>
       </defs>
       <use xlink:href="#DejaVuSans-30"/>
       <use xlink:href="#DejaVuSans-2e" x="63.623047"/>
       <use xlink:href="#DejaVuSans-31" x="95.410156"/>
       <use xlink:href="#DejaVuSans-37" x="159.033203"/>
       <use xlink:href="#DejaVuSans-35" x="222.65625"/>
      </g>
     </g>
    </g>
    <g id="ytick_5">
     <g id="line2d_9">
      <g>
       <use xlink:href="#mb567708d96" x="57.6" y="152.657781" style="stroke: #000000; stroke-width: 0.8"/>
      </g>
     </g>
     <g id="text_10">
      <!-- 0.200 -->
      <g transform="translate(21.971875 156.456999) scale(0.1 -0.1)">
       <use xlink:href="#DejaVuSans-30"/>
       <use xlink:href="#DejaVuSans-2e" x="63.623047"/>
       <use xlink:href="#DejaVuSans-32" x="95.410156"/>
       <use xlink:href="#DejaVuSans-30" x="159.033203"/>
       <use xlink:href="#DejaVuSans-30" x="222.65625"/>
      </g>
     </g>
    </g>
    <g id="ytick_6">
     <g id="line2d_10">
      <g>
       <use xlink:href="#mb567708d96" x="57.6" y="117.679199" style="stroke: #000000; stroke-width: 0.8"/>
      </g>
     </g>
     <g id="text_11">
      <!-- 0.225 -->
      <g transform="translate(21.971875 121.478418) scale(0.1 -0.1)">
       <use xlink:href="#DejaVuSans-30"/>
       <use xlink:href="#DejaVuSans-2e" x="63.623047"/>
       <use xlink:href="#DejaVuSans-32" x="95.410156"/>
       <use xlink:href="#DejaVuSans-32" x="159.033203"/>
       <use xlink:href="#DejaVuSans-35" x="222.65625"/>
      </g>
     </g>
    </g>
    <g id="ytick_7">
     <g id="line2d_11">
      <g>
       <use xlink:href="#mb567708d96" x="57.6" y="82.700617" style="stroke: #000000; stroke-width: 0.8"/>
      </g>
     </g>
     <g id="text_12">
      <!-- 0.250 -->
      <g transform="translate(21.971875 86.499836) scale(0.1 -0.1)">
       <use xlink:href="#DejaVuSans-30"/>
       <use xlink:href="#DejaVuSans-2e" x="63.623047"/>
       <use xlink:href="#DejaVuSans-32" x="95.410156"/>
       <use xlink:href="#DejaVuSans-35" x="159.033203"/>
       <use xlink:href="#DejaVuSans-30" x="222.65625"/>
      </g>
     </g>
    </g>
    <g id="ytick_8">
     <g id="line2d_12">
      <g>
       <use xlink:href="#mb567708d96" x="57.6" y="47.722035" style="stroke: #000000; stroke-width: 0.8"/>
      </g>
     </g>
     <g id="text_13">
      <!-- 0.275 -->
      <g transform="translate(21.971875 51.521254) scale(0.1 -0.1)">
       <use xlink:href="#DejaVuSans-30"/>
       <use xlink:href="#DejaVuSans-2e" x="63.623047"/>
       <use xlink:href="#DejaVuSans-32" x="95.410156"/>
       <use xlink:href="#DejaVuSans-37" x="159.033203"/>
       <use xlink:href="#DejaVuSans-35" x="222.65625"/>
      </g>
     </g>
    </g>
    <g id="text_14">
     <!-- Loss -->
     <g transform="translate(15.892188 185.495187) rotate(-90) scale(0.1 -0.1)">
      <defs>
       <path id="DejaVuSans-4c" d="M 628 4666 
L 1259 4666 
L 1259 531 
L 3531 531 
L 3531 0 
L 628 0 
L 628 4666 
z
" transform="scale(0.015625)"/>
       <path id="DejaVuSans-73" d="M 2834 3397 
L 2834 2853 
Q 2591 2978 2328 3040 
Q 2066 3103 1784 3103 
Q 1356 3103 1142 2972 
Q 928 2841 928 2578 
Q 928 2378 1081 2264 
Q 1234 2150 1697 2047 
L 1894 2003 
Q 2506 1872 2764 1633 
Q 3022 1394 3022 966 
Q 3022 478 2636 193 
Q 2250 -91 1575 -91 
Q 1294 -91 989 -36 
Q 684 19 347 128 
L 347 722 
Q 666 556 975 473 
Q 1284 391 1588 391 
Q 1994 391 2212 530 
Q 2431 669 2431 922 
Q 2431 1156 2273 1281 
Q 2116 1406 1581 1522 
L 1381 1569 
Q 847 1681 609 1914 
Q 372 2147 372 2553 
Q 372 3047 722 3315 
Q 1072 3584 1716 3584 
Q 2034 3584 2315 3537 
Q 2597 3491 2834 3397 
z
" transform="scale(0.015625)"/>
      </defs>
      <use xlink:href="#DejaVuSans-4c"/>
      <use xlink:href="#DejaVuSans-6f" x="53.962891"/>
      <use xlink:href="#DejaVuSans-73" x="115.144531"/>
      <use xlink:href="#DejaVuSans-73" x="167.244141"/>
     </g>
    </g>
   </g>
   <g id="line2d_13">
    <path d="M 57.6 53.568 
L 65.04 253.670102 
L 72.48 270.389561 
L 79.92 273.067417 
L 87.36 274.171545 
L 94.8 274.956897 
L 102.24 275.588366 
L 109.68 276.119142 
L 117.12 276.592676 
L 124.56 277.042375 
L 132 277.428894 
L 139.44 277.774277 
L 146.88 278.090985 
L 154.32 278.404336 
L 161.76 278.717286 
L 169.2 278.96406 
L 176.64 279.224115 
L 184.08 279.43966 
L 191.52 279.677216 
L 198.96 279.882226 
L 206.4 280.098301 
L 213.84 280.297972 
L 221.28 280.47448 
L 228.72 280.641705 
L 236.16 280.803213 
L 243.6 280.973937 
L 251.04 281.107526 
L 258.48 281.298076 
L 265.92 281.41804 
L 273.36 281.5564 
L 280.8 281.691409 
L 288.24 281.825678 
L 295.68 281.92408 
L 303.12 282.058382 
L 310.56 282.172365 
L 318 282.297432 
L 325.44 282.400218 
L 332.88 282.499109 
L 340.32 282.598044 
L 347.76 282.728029 
L 355.2 282.796715 
L 362.64 282.910858 
L 370.08 282.975197 
L 377.52 283.089842 
L 384.96 283.162354 
L 392.4 283.223837 
L 399.84 283.323412 
L 407.28 283.442154 
L 414.72 283.492212 
L 422.16 283.568369 
L 429.6 283.656887 
L 437.04 283.739391 
L 444.48 283.788527 
L 451.92 283.859216 
L 459.36 283.960525 
L 461.8 283.98427 
" clip-path="url(#pb2e9e2781d)" style="fill: none; stroke: #1f77b4; stroke-width: 1.5; stroke-linecap: square"/>
   </g>
   <g id="line2d_14">
    <path d="M 57.6 232.587257 
L 65.04 274.68141 
L 72.48 280.232625 
L 79.92 282.06983 
L 87.36 282.789259 
L 94.8 283.440662 
L 102.24 283.632253 
L 109.68 284.52942 
L 117.12 284.573273 
L 124.56 284.796308 
L 132 285.405899 
L 139.44 285.817518 
L 146.88 286.17192 
L 154.32 286.187827 
L 161.76 286.517216 
L 169.2 286.444063 
L 176.64 286.563808 
L 184.08 287.182624 
L 191.52 287.41857 
L 198.96 287.41737 
L 206.4 287.785422 
L 213.84 287.693762 
L 221.28 287.908956 
L 228.72 287.870609 
L 236.16 288.241823 
L 243.6 288.481626 
L 251.04 288.435259 
L 258.48 288.493279 
L 265.92 288.56706 
L 273.36 288.723957 
L 280.8 289.041458 
L 288.24 288.961107 
L 295.68 289.471459 
L 303.12 289.184264 
L 310.56 289.390495 
L 318 289.665468 
L 325.44 289.593601 
L 332.88 289.74252 
L 340.32 289.562664 
L 347.76 289.642311 
L 355.2 290.057026 
L 362.64 289.901567 
L 370.08 289.933395 
L 377.52 290.29963 
L 384.96 290.086524 
L 392.4 290.107522 
L 399.84 290.536465 
L 407.28 290.23675 
L 414.72 290.819737 
L 422.16 290.671406 
L 429.6 290.673863 
L 437.04 290.743228 
L 444.48 290.664118 
L 451.92 290.736347 
L 459.36 290.727638 
L 461.8 290.779338 
" clip-path="url(#pb2e9e2781d)" style="fill: none; stroke: #ff7f0e; stroke-width: 1.5; stroke-linecap: square"/>
   </g>
   <g id="line2d_15">
    <path d="M 57.6 54.024985 
L 65.04 253.204515 
L 72.48 269.873052 
L 79.92 272.480709 
L 87.36 273.514986 
L 94.8 274.266705 
L 102.24 274.848041 
L 109.68 275.366775 
L 117.12 275.844035 
L 124.56 276.241302 
L 132 276.66242 
L 139.44 277.001945 
L 146.88 277.321826 
L 154.32 277.634742 
L 161.76 277.939587 
L 169.2 278.169647 
L 176.64 278.445489 
L 184.08 278.694992 
L 191.52 278.935791 
L 198.96 279.127009 
L 206.4 279.342157 
L 213.84 279.543611 
L 221.28 279.726504 
L 228.72 279.914307 
L 236.16 280.094356 
L 243.6 280.240673 
L 251.04 280.404013 
L 258.48 280.550113 
L 265.92 280.709645 
L 273.36 280.854436 
L 280.8 280.979172 
L 288.24 281.105091 
L 295.68 281.216277 
L 303.12 281.346817 
L 310.56 281.463679 
L 318 281.586103 
L 325.44 281.670047 
L 332.88 281.788235 
L 340.32 281.92877 
L 347.76 281.996407 
L 355.2 282.081593 
L 362.64 282.188116 
L 370.08 282.29474 
L 377.52 282.384355 
L 384.96 282.510695 
L 392.4 282.549155 
L 399.84 282.65596 
L 407.28 282.726557 
L 414.72 282.802461 
L 422.16 282.869999 
L 429.6 282.958819 
L 437.04 283.02993 
L 444.48 283.115034 
L 451.92 283.144691 
L 459.36 283.245469 
L 461.8 283.262698 
" clip-path="url(#pb2e9e2781d)" style="fill: none; stroke: #2ca02c; stroke-width: 1.5; stroke-linecap: square"/>
   </g>
   <g id="line2d_16">
    <path d="M 57.6 231.866504 
L 65.04 274.384248 
L 72.48 279.738768 
L 79.92 281.855682 
L 87.36 281.898615 
L 94.8 282.696202 
L 102.24 283.320214 
L 109.68 283.816527 
L 117.12 283.922703 
L 124.56 284.456177 
L 132 284.724107 
L 139.44 284.95451 
L 146.88 284.991683 
L 154.32 285.547831 
L 161.76 285.759641 
L 169.2 285.875901 
L 176.64 286.513524 
L 184.08 286.15405 
L 191.52 286.54564 
L 198.96 286.778549 
L 206.4 286.903363 
L 213.84 287.1753 
L 221.28 286.978794 
L 228.72 287.6462 
L 236.16 287.555255 
L 243.6 287.611273 
L 251.04 287.67068 
L 258.48 287.887769 
L 265.92 287.881214 
L 273.36 288.208025 
L 280.8 288.323655 
L 288.24 288.360436 
L 295.68 288.490956 
L 303.12 288.523177 
L 310.56 288.683961 
L 318 288.751512 
L 325.44 288.943201 
L 332.88 288.912813 
L 340.32 289.05132 
L 347.76 288.99641 
L 355.2 289.032211 
L 362.64 289.144004 
L 370.08 289.373646 
L 377.52 289.276726 
L 384.96 289.396167 
L 392.4 289.420859 
L 399.84 289.753491 
L 407.28 289.366073 
L 414.72 289.943219 
L 422.16 289.576172 
L 429.6 289.908134 
L 437.04 290.086362 
L 444.48 290.284605 
L 451.92 289.798427 
L 459.36 290.049404 
L 461.8 290.037789 
" clip-path="url(#pb2e9e2781d)" style="fill: none; stroke: #d62728; stroke-width: 1.5; stroke-linecap: square"/>
   </g>
   <g id="line2d_17">
    <path d="M 57.6 81.549473 
L 65.04 259.58149 
L 72.48 272.099532 
L 79.92 274.446499 
L 87.36 275.550757 
L 94.8 276.368388 
L 102.24 277.04857 
L 109.68 277.625463 
L 117.12 278.108756 
L 124.56 278.567704 
L 132 278.968456 
L 139.44 279.332133 
L 146.88 279.702015 
L 154.32 279.97553 
L 161.76 280.267744 
L 169.2 280.539015 
L 176.64 280.799204 
L 184.08 281.029636 
L 191.52 281.288149 
L 198.96 281.481992 
L 206.4 281.683568 
L 213.84 281.885683 
L 221.28 282.0631 
L 228.72 282.254964 
L 236.16 282.426158 
L 243.6 282.583464 
L 251.04 282.731884 
L 258.48 282.879991 
L 265.92 283.032676 
L 273.36 283.170312 
L 280.8 283.29893 
L 288.24 283.44147 
L 295.68 283.553017 
L 303.12 283.684195 
L 310.56 283.823919 
L 318 283.896943 
L 325.44 284.027335 
L 332.88 284.128957 
L 340.32 284.253687 
L 347.76 284.326961 
L 355.2 284.469584 
L 362.64 284.525717 
L 370.08 284.628841 
L 377.52 284.703932 
L 384.96 284.824759 
L 392.4 284.889971 
L 399.84 284.984247 
L 407.28 285.034303 
L 414.72 285.146248 
L 422.16 285.220635 
L 429.6 285.286857 
L 437.04 285.369432 
L 444.48 285.449679 
L 451.92 285.511233 
L 459.36 285.562902 
L 461.8 285.596088 
" clip-path="url(#pb2e9e2781d)" style="fill: none; stroke: #9467bd; stroke-width: 1.5; stroke-linecap: square"/>
   </g>
   <g id="line2d_18">
    <path d="M 57.6 245.474574 
L 65.04 277.335107 
L 72.48 281.963031 
L 79.92 283.238714 
L 87.36 284.098642 
L 94.8 284.501213 
L 102.24 285.579249 
L 109.68 286.015566 
L 117.12 286.227078 
L 124.56 286.212667 
L 132 286.791187 
L 139.44 287.665515 
L 146.88 287.465006 
L 154.32 287.770392 
L 161.76 287.822318 
L 169.2 288.183443 
L 176.64 288.679602 
L 184.08 288.713562 
L 191.52 288.629537 
L 198.96 288.859238 
L 206.4 289.007094 
L 213.84 289.496169 
L 221.28 289.568702 
L 228.72 289.600794 
L 236.16 289.632153 
L 243.6 289.69578 
L 251.04 289.817117 
L 258.48 290.050059 
L 265.92 289.914925 
L 273.36 290.04202 
L 280.8 290.24433 
L 288.24 290.450944 
L 295.68 290.739429 
L 303.12 290.513459 
L 310.56 290.81475 
L 318 291.23619 
L 325.44 291.099371 
L 332.88 291.073862 
L 340.32 291.079197 
L 347.76 291.628353 
L 355.2 291.508454 
L 362.64 291.634594 
L 370.08 291.581775 
L 377.52 291.397274 
L 384.96 291.93763 
L 392.4 291.602463 
L 399.84 291.76851 
L 407.28 292.128223 
L 414.72 291.902662 
L 422.16 291.982438 
L 429.6 291.963622 
L 437.04 291.962217 
L 444.48 292.283468 
L 451.92 292.06633 
L 459.36 291.705713 
L 461.8 291.921866 
" clip-path="url(#pb2e9e2781d)" style="fill: none; stroke: #8c564b; stroke-width: 1.5; stroke-linecap: square"/>
   </g>
   <g id="line2d_19">
    <path d="M 57.6 83.600354 
L 65.04 260.19969 
L 72.48 272.323829 
L 79.92 274.589032 
L 87.36 275.730165 
L 94.8 276.529371 
L 102.24 277.213065 
L 109.68 277.829335 
L 117.12 278.344902 
L 124.56 278.798819 
L 132 279.231264 
L 139.44 279.623093 
L 146.88 279.933981 
L 154.32 280.262596 
L 161.76 280.592486 
L 169.2 280.831444 
L 176.64 281.142977 
L 184.08 281.394606 
L 191.52 281.610254 
L 198.96 281.839679 
L 206.4 282.036657 
L 213.84 282.230439 
L 221.28 282.420715 
L 228.72 282.628599 
L 236.16 282.781199 
L 243.6 282.940158 
L 251.04 283.109132 
L 258.48 283.254862 
L 265.92 283.379292 
L 273.36 283.526646 
L 280.8 283.657756 
L 288.24 283.791938 
L 295.68 283.935224 
L 303.12 284.033227 
L 310.56 284.195495 
L 318 284.263038 
L 325.44 284.405137 
L 332.88 284.512105 
L 340.32 284.629819 
L 347.76 284.693701 
L 355.2 284.802058 
L 362.64 284.876217 
L 370.08 284.981082 
L 377.52 285.068896 
L 384.96 285.147317 
L 392.4 285.239482 
L 399.84 285.344577 
L 407.28 285.411333 
L 414.72 285.461699 
L 422.16 285.560086 
L 429.6 285.645718 
L 437.04 285.700982 
L 444.48 285.797777 
L 451.92 285.842671 
L 459.36 285.918534 
L 461.8 285.931542 
" clip-path="url(#pb2e9e2781d)" style="fill: none; stroke: #e377c2; stroke-width: 1.5; stroke-linecap: square"/>
   </g>
   <g id="line2d_20">
    <path d="M 57.6 246.638946 
L 65.04 277.655194 
L 72.48 282.155268 
L 79.92 283.476869 
L 87.36 284.187506 
L 94.8 284.84084 
L 102.24 285.348951 
L 109.68 285.992864 
L 117.12 286.377439 
L 124.56 286.955229 
L 132 286.952838 
L 139.44 287.640991 
L 146.88 287.555105 
L 154.32 288.053543 
L 161.76 288.372198 
L 169.2 288.31153 
L 176.64 288.324148 
L 184.08 288.483943 
L 191.52 288.903142 
L 198.96 288.973745 
L 206.4 289.196271 
L 213.84 289.598856 
L 221.28 289.785406 
L 228.72 289.617013 
L 236.16 290.039872 
L 243.6 290.198662 
L 251.04 290.256512 
L 258.48 290.443301 
L 265.92 290.513029 
L 273.36 290.706548 
L 280.8 290.798767 
L 288.24 290.84369 
L 295.68 290.929575 
L 303.12 290.997792 
L 310.56 291.214911 
L 318 291.346806 
L 325.44 291.3981 
L 332.88 290.964104 
L 340.32 290.700455 
L 347.76 291.400428 
L 355.2 291.412836 
L 362.64 291.486873 
L 370.08 291.756042 
L 377.52 291.926125 
L 384.96 291.857215 
L 392.4 292.092466 
L 399.84 292.104783 
L 407.28 291.888398 
L 414.72 292.177428 
L 422.16 292.425185 
L 429.6 292.279019 
L 437.04 292.438009 
L 444.48 292.683432 
L 451.92 292.381225 
L 459.36 292.441216 
L 461.8 292.562661 
" clip-path="url(#pb2e9e2781d)" style="fill: none; stroke: #7f7f7f; stroke-width: 1.5; stroke-linecap: square"/>
   </g>
   <g id="line2d_21">
    <path d="M 57.6 272.56757 
L 65.04 281.256343 
L 72.48 283.392696 
L 79.92 284.809268 
L 87.36 285.849888 
L 94.8 286.699852 
L 102.24 287.427719 
L 109.68 288.016508 
L 117.12 288.53243 
L 124.56 289.065576 
L 132 289.51272 
L 139.44 289.819501 
L 146.88 290.189032 
L 154.32 290.42049 
L 161.76 290.748152 
L 169.2 291.02868 
L 176.64 291.188894 
L 184.08 291.454567 
L 191.52 291.738853 
L 198.96 291.948761 
L 206.4 292.09048 
L 213.84 292.301264 
L 221.28 292.415369 
L 228.72 292.713185 
L 236.16 292.826692 
L 243.6 293.014281 
L 251.04 293.130426 
L 258.48 293.323541 
L 265.92 293.48349 
L 273.36 293.595638 
L 280.8 293.686361 
L 288.24 293.809354 
L 295.68 294.029472 
L 303.12 294.073693 
L 310.56 294.190465 
L 318 294.321292 
L 325.44 294.401775 
L 332.88 294.555907 
L 340.32 294.657484 
L 347.76 294.656105 
L 355.2 294.875253 
L 362.64 294.903943 
L 370.08 295.040951 
L 377.52 295.109817 
L 384.96 295.252553 
L 392.4 295.28918 
L 399.84 295.350342 
L 407.28 295.488 
L 414.72 295.447651 
" clip-path="url(#pb2e9e2781d)" style="fill: none; stroke: #bcbd22; stroke-width: 1.5; stroke-linecap: square"/>
   </g>
   <g id="line2d_22">
    <path d="M 57.6 287.174578 
L 65.04 287.704761 
L 72.48 290.149915 
L 79.92 290.472895 
L 87.36 291.766251 
L 94.8 292.1202 
L 102.24 292.578008 
L 109.68 292.775188 
L 117.12 293.351763 
L 124.56 293.312825 
L 132 293.927393 
L 139.44 293.661407 
L 146.88 293.714769 
L 154.32 294.073335 
L 161.76 294.17014 
L 169.2 294.079989 
L 176.64 294.717168 
L 184.08 294.616074 
L 191.52 294.096549 
L 198.96 294.460036 
L 206.4 294.788997 
L 213.84 294.793625 
L 221.28 295.00953 
L 228.72 294.202008 
L 236.16 294.851378 
L 243.6 295.296871 
L 251.04 294.747719 
L 258.48 294.639566 
L 265.92 295.456717 
L 273.36 294.933138 
L 280.8 295.037022 
L 288.24 295.396166 
L 295.68 295.373253 
L 303.12 295.139638 
L 310.56 294.595329 
L 318 295.242217 
L 325.44 295.229988 
L 332.88 295.313749 
L 340.32 295.457193 
L 347.76 295.096769 
L 355.2 295.247664 
L 362.64 295.080231 
L 370.08 295.174883 
L 377.52 295.257222 
L 384.96 295.350476 
L 392.4 295.144349 
L 399.84 295.302309 
L 407.28 294.784491 
L 414.72 295.202989 
" clip-path="url(#pb2e9e2781d)" style="fill: none; stroke: #17becf; stroke-width: 1.5; stroke-linecap: square"/>
   </g>
   <g id="patch_3">
    <path d="M 57.6 307.584 
L 57.6 41.472 
" style="fill: none; stroke: #000000; stroke-width: 0.8; stroke-linejoin: miter; stroke-linecap: square"/>
   </g>
   <g id="patch_4">
    <path d="M 414.72 307.584 
L 414.72 41.472 
" style="fill: none; stroke: #000000; stroke-width: 0.8; stroke-linejoin: miter; stroke-linecap: square"/>
   </g>
   <g id="patch_5">
    <path d="M 57.6 307.584 
L 414.72 307.584 
" style="fill: none; stroke: #000000; stroke-width: 0.8; stroke-linejoin: miter; stroke-linecap: square"/>
   </g>
   <g id="patch_6">
    <path d="M 57.6 41.472 
L 414.72 41.472 
" style="fill: none; stroke: #000000; stroke-width: 0.8; stroke-linejoin: miter; stroke-linecap: square"/>
   </g>
   <g id="legend_1">
    <g id="patch_7">
     <path d="M 352.445 196.25325 
L 407.72 196.25325 
Q 409.72 196.25325 409.72 194.25325 
L 409.72 48.472 
Q 409.72 46.472 407.72 46.472 
L 352.445 46.472 
Q 350.445 46.472 350.445 48.472 
L 350.445 194.25325 
Q 350.445 196.25325 352.445 196.25325 
z
" style="fill: #ffffff; opacity: 0.8; stroke: #cccccc; stroke-linejoin: miter"/>
    </g>
    <g id="line2d_23">
     <path d="M 354.445 54.570437 
L 364.445 54.570437 
L 374.445 54.570437 
" style="fill: none; stroke: #1f77b4; stroke-width: 1.5; stroke-linecap: square"/>
    </g>
    <g id="text_15">
     <!-- train -->
     <g transform="translate(382.445 58.070437) scale(0.1 -0.1)">
      <defs>
       <path id="DejaVuSans-74" d="M 1172 4494 
L 1172 3500 
L 2356 3500 
L 2356 3053 
L 1172 3053 
L 1172 1153 
Q 1172 725 1289 603 
Q 1406 481 1766 481 
L 2356 481 
L 2356 0 
L 1766 0 
Q 1100 0 847 248 
Q 594 497 594 1153 
L 594 3053 
L 172 3053 
L 172 3500 
L 594 3500 
L 594 4494 
L 1172 4494 
z
" transform="scale(0.015625)"/>
       <path id="DejaVuSans-72" d="M 2631 2963 
Q 2534 3019 2420 3045 
Q 2306 3072 2169 3072 
Q 1681 3072 1420 2755 
Q 1159 2438 1159 1844 
L 1159 0 
L 581 0 
L 581 3500 
L 1159 3500 
L 1159 2956 
Q 1341 3275 1631 3429 
Q 1922 3584 2338 3584 
Q 2397 3584 2469 3576 
Q 2541 3569 2628 3553 
L 2631 2963 
z
" transform="scale(0.015625)"/>
       <path id="DejaVuSans-61" d="M 2194 1759 
Q 1497 1759 1228 1600 
Q 959 1441 959 1056 
Q 959 750 1161 570 
Q 1363 391 1709 391 
Q 2188 391 2477 730 
Q 2766 1069 2766 1631 
L 2766 1759 
L 2194 1759 
z
M 3341 1997 
L 3341 0 
L 2766 0 
L 2766 531 
Q 2569 213 2275 61 
Q 1981 -91 1556 -91 
Q 1019 -91 701 211 
Q 384 513 384 1019 
Q 384 1609 779 1909 
Q 1175 2209 1959 2209 
L 2766 2209 
L 2766 2266 
Q 2766 2663 2505 2880 
Q 2244 3097 1772 3097 
Q 1472 3097 1187 3025 
Q 903 2953 641 2809 
L 641 3341 
Q 956 3463 1253 3523 
Q 1550 3584 1831 3584 
Q 2591 3584 2966 3190 
Q 3341 2797 3341 1997 
z
" transform="scale(0.015625)"/>
       <path id="DejaVuSans-69" d="M 603 3500 
L 1178 3500 
L 1178 0 
L 603 0 
L 603 3500 
z
M 603 4863 
L 1178 4863 
L 1178 4134 
L 603 4134 
L 603 4863 
z
" transform="scale(0.015625)"/>
       <path id="DejaVuSans-6e" d="M 3513 2113 
L 3513 0 
L 2938 0 
L 2938 2094 
Q 2938 2591 2744 2837 
Q 2550 3084 2163 3084 
Q 1697 3084 1428 2787 
Q 1159 2491 1159 1978 
L 1159 0 
L 581 0 
L 581 3500 
L 1159 3500 
L 1159 2956 
Q 1366 3272 1645 3428 
Q 1925 3584 2291 3584 
Q 2894 3584 3203 3211 
Q 3513 2838 3513 2113 
z
" transform="scale(0.015625)"/>
      </defs>
      <use xlink:href="#DejaVuSans-74"/>
      <use xlink:href="#DejaVuSans-72" x="39.208984"/>
      <use xlink:href="#DejaVuSans-61" x="80.322266"/>
      <use xlink:href="#DejaVuSans-69" x="141.601562"/>
      <use xlink:href="#DejaVuSans-6e" x="169.384766"/>
     </g>
    </g>
    <g id="line2d_24">
     <path d="M 354.445 69.248562 
L 364.445 69.248562 
L 374.445 69.248562 
" style="fill: none; stroke: #ff7f0e; stroke-width: 1.5; stroke-linecap: square"/>
    </g>
    <g id="text_16">
     <!-- val -->
     <g transform="translate(382.445 72.748562) scale(0.1 -0.1)">
      <defs>
       <path id="DejaVuSans-76" d="M 191 3500 
L 800 3500 
L 1894 563 
L 2988 3500 
L 3597 3500 
L 2284 0 
L 1503 0 
L 191 3500 
z
" transform="scale(0.015625)"/>
       <path id="DejaVuSans-6c" d="M 603 4863 
L 1178 4863 
L 1178 0 
L 603 0 
L 603 4863 
z
" transform="scale(0.015625)"/>
      </defs>
      <use xlink:href="#DejaVuSans-76"/>
      <use xlink:href="#DejaVuSans-61" x="59.179688"/>
      <use xlink:href="#DejaVuSans-6c" x="120.458984"/>
     </g>
    </g>
    <g id="line2d_25">
     <path d="M 354.445 83.926688 
L 364.445 83.926688 
L 374.445 83.926688 
" style="fill: none; stroke: #2ca02c; stroke-width: 1.5; stroke-linecap: square"/>
    </g>
    <g id="text_17">
     <!-- train -->
     <g transform="translate(382.445 87.426688) scale(0.1 -0.1)">
      <use xlink:href="#DejaVuSans-74"/>
      <use xlink:href="#DejaVuSans-72" x="39.208984"/>
      <use xlink:href="#DejaVuSans-61" x="80.322266"/>
      <use xlink:href="#DejaVuSans-69" x="141.601562"/>
      <use xlink:href="#DejaVuSans-6e" x="169.384766"/>
     </g>
    </g>
    <g id="line2d_26">
     <path d="M 354.445 98.604812 
L 364.445 98.604812 
L 374.445 98.604812 
" style="fill: none; stroke: #d62728; stroke-width: 1.5; stroke-linecap: square"/>
    </g>
    <g id="text_18">
     <!-- val -->
     <g transform="translate(382.445 102.104812) scale(0.1 -0.1)">
      <use xlink:href="#DejaVuSans-76"/>
      <use xlink:href="#DejaVuSans-61" x="59.179688"/>
      <use xlink:href="#DejaVuSans-6c" x="120.458984"/>
     </g>
    </g>
    <g id="line2d_27">
     <path d="M 354.445 113.282938 
L 364.445 113.282938 
L 374.445 113.282938 
" style="fill: none; stroke: #9467bd; stroke-width: 1.5; stroke-linecap: square"/>
    </g>
    <g id="text_19">
     <!-- train -->
     <g transform="translate(382.445 116.782938) scale(0.1 -0.1)">
      <use xlink:href="#DejaVuSans-74"/>
      <use xlink:href="#DejaVuSans-72" x="39.208984"/>
      <use xlink:href="#DejaVuSans-61" x="80.322266"/>
      <use xlink:href="#DejaVuSans-69" x="141.601562"/>
      <use xlink:href="#DejaVuSans-6e" x="169.384766"/>
     </g>
    </g>
    <g id="line2d_28">
     <path d="M 354.445 127.961062 
L 364.445 127.961062 
L 374.445 127.961062 
" style="fill: none; stroke: #8c564b; stroke-width: 1.5; stroke-linecap: square"/>
    </g>
    <g id="text_20">
     <!-- val -->
     <g transform="translate(382.445 131.461062) scale(0.1 -0.1)">
      <use xlink:href="#DejaVuSans-76"/>
      <use xlink:href="#DejaVuSans-61" x="59.179688"/>
      <use xlink:href="#DejaVuSans-6c" x="120.458984"/>
     </g>
    </g>
    <g id="line2d_29">
     <path d="M 354.445 142.639187 
L 364.445 142.639187 
L 374.445 142.639187 
" style="fill: none; stroke: #e377c2; stroke-width: 1.5; stroke-linecap: square"/>
    </g>
    <g id="text_21">
     <!-- train -->
     <g transform="translate(382.445 146.139187) scale(0.1 -0.1)">
      <use xlink:href="#DejaVuSans-74"/>
      <use xlink:href="#DejaVuSans-72" x="39.208984"/>
      <use xlink:href="#DejaVuSans-61" x="80.322266"/>
      <use xlink:href="#DejaVuSans-69" x="141.601562"/>
      <use xlink:href="#DejaVuSans-6e" x="169.384766"/>
     </g>
    </g>
    <g id="line2d_30">
     <path d="M 354.445 157.317312 
L 364.445 157.317312 
L 374.445 157.317312 
" style="fill: none; stroke: #7f7f7f; stroke-width: 1.5; stroke-linecap: square"/>
    </g>
    <g id="text_22">
     <!-- val -->
     <g transform="translate(382.445 160.817312) scale(0.1 -0.1)">
      <use xlink:href="#DejaVuSans-76"/>
      <use xlink:href="#DejaVuSans-61" x="59.179688"/>
      <use xlink:href="#DejaVuSans-6c" x="120.458984"/>
     </g>
    </g>
    <g id="line2d_31">
     <path d="M 354.445 171.995437 
L 364.445 171.995437 
L 374.445 171.995437 
" style="fill: none; stroke: #bcbd22; stroke-width: 1.5; stroke-linecap: square"/>
    </g>
    <g id="text_23">
     <!-- train -->
     <g transform="translate(382.445 175.495437) scale(0.1 -0.1)">
      <use xlink:href="#DejaVuSans-74"/>
      <use xlink:href="#DejaVuSans-72" x="39.208984"/>
      <use xlink:href="#DejaVuSans-61" x="80.322266"/>
      <use xlink:href="#DejaVuSans-69" x="141.601562"/>
      <use xlink:href="#DejaVuSans-6e" x="169.384766"/>
     </g>
    </g>
    <g id="line2d_32">
     <path d="M 354.445 186.673562 
L 364.445 186.673562 
L 374.445 186.673562 
" style="fill: none; stroke: #17becf; stroke-width: 1.5; stroke-linecap: square"/>
    </g>
    <g id="text_24">
     <!-- val -->
     <g transform="translate(382.445 190.173562) scale(0.1 -0.1)">
      <use xlink:href="#DejaVuSans-76"/>
      <use xlink:href="#DejaVuSans-61" x="59.179688"/>
      <use xlink:href="#DejaVuSans-6c" x="120.458984"/>
     </g>
    </g>
   </g>
  </g>
 </g>
 <defs>
  <clipPath id="pb2e9e2781d">
   <rect x="57.6" y="41.472" width="357.12" height="266.112"/>
  </clipPath>
 </defs>
</svg>
