<?xml version="1.0" encoding="utf-8" standalone="no"?>
<!DOCTYPE svg PUBLIC "-//W3C//DTD SVG 1.1//EN"
  "http://www.w3.org/Graphics/SVG/1.1/DTD/svg11.dtd">
<svg xmlns:xlink="http://www.w3.org/1999/xlink" width="460.8pt" height="345.6pt" viewBox="0 0 460.8 345.6" xmlns="http://www.w3.org/2000/svg" version="1.1">
 <metadata>
  <rdf:RDF xmlns:dc="http://purl.org/dc/elements/1.1/" xmlns:cc="http://creativecommons.org/ns#" xmlns:rdf="http://www.w3.org/1999/02/22-rdf-syntax-ns#">
   <cc:Work>
    <dc:type rdf:resource="http://purl.org/dc/dcmitype/StillImage"/>
    <dc:date>2024-07-06T14:18:45.396478</dc:date>
    <dc:format>image/svg+xml</dc:format>
    <dc:creator>
     <cc:Agent>
      <dc:title>Matplotlib v3.7.4, https://matplotlib.org/</dc:title>
     </cc:Agent>
    </dc:creator>
   </cc:Work>
  </rdf:RDF>
 </metadata>
 <defs>
  <style type="text/css">*{stroke-linejoin: round; stroke-linecap: butt}</style>
 </defs>
 <g id="figure_1">
  <g id="patch_1">
   <path d="M 0 345.6 
L 460.8 345.6 
L 460.8 0 
L 0 0 
z
" style="fill: #ffffff"/>
  </g>
  <g id="axes_1">
   <g id="patch_2">
    <path d="M 57.6 307.584 
L 414.72 307.584 
L 414.72 41.472 
L 57.6 41.472 
z
" style="fill: #ffffff"/>
   </g>
   <g id="matplotlib.axis_1">
    <g id="xtick_1">
     <g id="line2d_1">
      <defs>
       <path id="m627c9b01b0" d="M 0 0 
L 0 3.5 
" style="stroke: #000000; stroke-width: 0.8"/>
      </defs>
      <g>
       <use xlink:href="#m627c9b01b0" x="90.065455" y="307.584" style="stroke: #000000; stroke-width: 0.8"/>
      </g>
     </g>
     <g id="text_1">
      <!-- 5 -->
      <g transform="translate(86.884205 322.182437) scale(0.1 -0.1)">
       <defs>
        <path id="DejaVuSans-35" d="M 691 4666 
L 3169 4666 
L 3169 4134 
L 1269 4134 
L 1269 2991 
Q 1406 3038 1543 3061 
Q 1681 3084 1819 3084 
Q 2600 3084 3056 2656 
Q 3513 2228 3513 1497 
Q 3513 744 3044 326 
Q 2575 -91 1722 -91 
Q 1428 -91 1123 -41 
Q 819 9 494 109 
L 494 744 
Q 775 591 1075 516 
Q 1375 441 1709 441 
Q 2250 441 2565 725 
Q 2881 1009 2881 1497 
Q 2881 1984 2565 2268 
Q 2250 2553 1709 2553 
Q 1456 2553 1204 2497 
Q 953 2441 691 2322 
L 691 4666 
z
" transform="scale(0.015625)"/>
       </defs>
       <use xlink:href="#DejaVuSans-35"/>
      </g>
     </g>
    </g>
    <g id="xtick_2">
     <g id="line2d_2">
      <g>
       <use xlink:href="#m627c9b01b0" x="130.647273" y="307.584" style="stroke: #000000; stroke-width: 0.8"/>
      </g>
     </g>
     <g id="text_2">
      <!-- 10 -->
      <g transform="translate(124.284773 322.182437) scale(0.1 -0.1)">
       <defs>
        <path id="DejaVuSans-31" d="M 794 531 
L 1825 531 
L 1825 4091 
L 703 3866 
L 703 4441 
L 1819 4666 
L 2450 4666 
L 2450 531 
L 3481 531 
L 3481 0 
L 794 0 
L 794 531 
z
" transform="scale(0.015625)"/>
        <path id="DejaVuSans-30" d="M 2034 4250 
Q 1547 4250 1301 3770 
Q 1056 3291 1056 2328 
Q 1056 1369 1301 889 
Q 1547 409 2034 409 
Q 2525 409 2770 889 
Q 3016 1369 3016 2328 
Q 3016 3291 2770 3770 
Q 2525 4250 2034 4250 
z
M 2034 4750 
Q 2819 4750 3233 4129 
Q 3647 3509 3647 2328 
Q 3647 1150 3233 529 
Q 2819 -91 2034 -91 
Q 1250 -91 836 529 
Q 422 1150 422 2328 
Q 422 3509 836 4129 
Q 1250 4750 2034 4750 
z
" transform="scale(0.015625)"/>
       </defs>
       <use xlink:href="#DejaVuSans-31"/>
       <use xlink:href="#DejaVuSans-30" x="63.623047"/>
      </g>
     </g>
    </g>
    <g id="xtick_3">
     <g id="line2d_3">
      <g>
       <use xlink:href="#m627c9b01b0" x="171.229091" y="307.584" style="stroke: #000000; stroke-width: 0.8"/>
      </g>
     </g>
     <g id="text_3">
      <!-- 15 -->
      <g transform="translate(164.866591 322.182437) scale(0.1 -0.1)">
       <use xlink:href="#DejaVuSans-31"/>
       <use xlink:href="#DejaVuSans-35" x="63.623047"/>
      </g>
     </g>
    </g>
    <g id="xtick_4">
     <g id="line2d_4">
      <g>
       <use xlink:href="#m627c9b01b0" x="211.810909" y="307.584" style="stroke: #000000; stroke-width: 0.8"/>
      </g>
     </g>
     <g id="text_4">
      <!-- 20 -->
      <g transform="translate(205.448409 322.182437) scale(0.1 -0.1)">
       <defs>
        <path id="DejaVuSans-32" d="M 1228 531 
L 3431 531 
L 3431 0 
L 469 0 
L 469 531 
Q 828 903 1448 1529 
Q 2069 2156 2228 2338 
Q 2531 2678 2651 2914 
Q 2772 3150 2772 3378 
Q 2772 3750 2511 3984 
Q 2250 4219 1831 4219 
Q 1534 4219 1204 4116 
Q 875 4013 500 3803 
L 500 4441 
Q 881 4594 1212 4672 
Q 1544 4750 1819 4750 
Q 2544 4750 2975 4387 
Q 3406 4025 3406 3419 
Q 3406 3131 3298 2873 
Q 3191 2616 2906 2266 
Q 2828 2175 2409 1742 
Q 1991 1309 1228 531 
z
" transform="scale(0.015625)"/>
       </defs>
       <use xlink:href="#DejaVuSans-32"/>
       <use xlink:href="#DejaVuSans-30" x="63.623047"/>
      </g>
     </g>
    </g>
    <g id="xtick_5">
     <g id="line2d_5">
      <g>
       <use xlink:href="#m627c9b01b0" x="252.392727" y="307.584" style="stroke: #000000; stroke-width: 0.8"/>
      </g>
     </g>
     <g id="text_5">
      <!-- 25 -->
      <g transform="translate(246.030227 322.182437) scale(0.1 -0.1)">
       <use xlink:href="#DejaVuSans-32"/>
       <use xlink:href="#DejaVuSans-35" x="63.623047"/>
      </g>
     </g>
    </g>
    <g id="xtick_6">
     <g id="line2d_6">
      <g>
       <use xlink:href="#m627c9b01b0" x="292.974545" y="307.584" style="stroke: #000000; stroke-width: 0.8"/>
      </g>
     </g>
     <g id="text_6">
      <!-- 30 -->
      <g transform="translate(286.612045 322.182437) scale(0.1 -0.1)">
       <defs>
        <path id="DejaVuSans-33" d="M 2597 2516 
Q 3050 2419 3304 2112 
Q 3559 1806 3559 1356 
Q 3559 666 3084 287 
Q 2609 -91 1734 -91 
Q 1441 -91 1130 -33 
Q 819 25 488 141 
L 488 750 
Q 750 597 1062 519 
Q 1375 441 1716 441 
Q 2309 441 2620 675 
Q 2931 909 2931 1356 
Q 2931 1769 2642 2001 
Q 2353 2234 1838 2234 
L 1294 2234 
L 1294 2753 
L 1863 2753 
Q 2328 2753 2575 2939 
Q 2822 3125 2822 3475 
Q 2822 3834 2567 4026 
Q 2313 4219 1838 4219 
Q 1578 4219 1281 4162 
Q 984 4106 628 3988 
L 628 4550 
Q 988 4650 1302 4700 
Q 1616 4750 1894 4750 
Q 2613 4750 3031 4423 
Q 3450 4097 3450 3541 
Q 3450 3153 3228 2886 
Q 3006 2619 2597 2516 
z
" transform="scale(0.015625)"/>
       </defs>
       <use xlink:href="#DejaVuSans-33"/>
       <use xlink:href="#DejaVuSans-30" x="63.623047"/>
      </g>
     </g>
    </g>
    <g id="xtick_7">
     <g id="line2d_7">
      <g>
       <use xlink:href="#m627c9b01b0" x="333.556364" y="307.584" style="stroke: #000000; stroke-width: 0.8"/>
      </g>
     </g>
     <g id="text_7">
      <!-- 35 -->
      <g transform="translate(327.193864 322.182437) scale(0.1 -0.1)">
       <use xlink:href="#DejaVuSans-33"/>
       <use xlink:href="#DejaVuSans-35" x="63.623047"/>
      </g>
     </g>
    </g>
    <g id="xtick_8">
     <g id="line2d_8">
      <g>
       <use xlink:href="#m627c9b01b0" x="374.138182" y="307.584" style="stroke: #000000; stroke-width: 0.8"/>
      </g>
     </g>
     <g id="text_8">
      <!-- 40 -->
      <g transform="translate(367.775682 322.182437) scale(0.1 -0.1)">
       <defs>
        <path id="DejaVuSans-34" d="M 2419 4116 
L 825 1625 
L 2419 1625 
L 2419 4116 
z
M 2253 4666 
L 3047 4666 
L 3047 1625 
L 3713 1625 
L 3713 1100 
L 3047 1100 
L 3047 0 
L 2419 0 
L 2419 1100 
L 313 1100 
L 313 1709 
L 2253 4666 
z
" transform="scale(0.015625)"/>
       </defs>
       <use xlink:href="#DejaVuSans-34"/>
       <use xlink:href="#DejaVuSans-30" x="63.623047"/>
      </g>
     </g>
    </g>
    <g id="xtick_9">
     <g id="line2d_9">
      <g>
       <use xlink:href="#m627c9b01b0" x="414.72" y="307.584" style="stroke: #000000; stroke-width: 0.8"/>
      </g>
     </g>
     <g id="text_9">
      <!-- 45 -->
      <g transform="translate(408.3575 322.182437) scale(0.1 -0.1)">
       <use xlink:href="#DejaVuSans-34"/>
       <use xlink:href="#DejaVuSans-35" x="63.623047"/>
      </g>
     </g>
    </g>
    <g id="text_10">
     <!-- Epoch -->
     <g transform="translate(220.849063 335.860562) scale(0.1 -0.1)">
      <defs>
       <path id="DejaVuSans-45" d="M 628 4666 
L 3578 4666 
L 3578 4134 
L 1259 4134 
L 1259 2753 
L 3481 2753 
L 3481 2222 
L 1259 2222 
L 1259 531 
L 3634 531 
L 3634 0 
L 628 0 
L 628 4666 
z
" transform="scale(0.015625)"/>
       <path id="DejaVuSans-70" d="M 1159 525 
L 1159 -1331 
L 581 -1331 
L 581 3500 
L 1159 3500 
L 1159 2969 
Q 1341 3281 1617 3432 
Q 1894 3584 2278 3584 
Q 2916 3584 3314 3078 
Q 3713 2572 3713 1747 
Q 3713 922 3314 415 
Q 2916 -91 2278 -91 
Q 1894 -91 1617 61 
Q 1341 213 1159 525 
z
M 3116 1747 
Q 3116 2381 2855 2742 
Q 2594 3103 2138 3103 
Q 1681 3103 1420 2742 
Q 1159 2381 1159 1747 
Q 1159 1113 1420 752 
Q 1681 391 2138 391 
Q 2594 391 2855 752 
Q 3116 1113 3116 1747 
z
" transform="scale(0.015625)"/>
       <path id="DejaVuSans-6f" d="M 1959 3097 
Q 1497 3097 1228 2736 
Q 959 2375 959 1747 
Q 959 1119 1226 758 
Q 1494 397 1959 397 
Q 2419 397 2687 759 
Q 2956 1122 2956 1747 
Q 2956 2369 2687 2733 
Q 2419 3097 1959 3097 
z
M 1959 3584 
Q 2709 3584 3137 3096 
Q 3566 2609 3566 1747 
Q 3566 888 3137 398 
Q 2709 -91 1959 -91 
Q 1206 -91 779 398 
Q 353 888 353 1747 
Q 353 2609 779 3096 
Q 1206 3584 1959 3584 
z
" transform="scale(0.015625)"/>
       <path id="DejaVuSans-63" d="M 3122 3366 
L 3122 2828 
Q 2878 2963 2633 3030 
Q 2388 3097 2138 3097 
Q 1578 3097 1268 2742 
Q 959 2388 959 1747 
Q 959 1106 1268 751 
Q 1578 397 2138 397 
Q 2388 397 2633 464 
Q 2878 531 3122 666 
L 3122 134 
Q 2881 22 2623 -34 
Q 2366 -91 2075 -91 
Q 1284 -91 818 406 
Q 353 903 353 1747 
Q 353 2603 823 3093 
Q 1294 3584 2113 3584 
Q 2378 3584 2631 3529 
Q 2884 3475 3122 3366 
z
" transform="scale(0.015625)"/>
       <path id="DejaVuSans-68" d="M 3513 2113 
L 3513 0 
L 2938 0 
L 2938 2094 
Q 2938 2591 2744 2837 
Q 2550 3084 2163 3084 
Q 1697 3084 1428 2787 
Q 1159 2491 1159 1978 
L 1159 0 
L 581 0 
L 581 4863 
L 1159 4863 
L 1159 2956 
Q 1366 3272 1645 3428 
Q 1925 3584 2291 3584 
Q 2894 3584 3203 3211 
Q 3513 2838 3513 2113 
z
" transform="scale(0.015625)"/>
      </defs>
      <use xlink:href="#DejaVuSans-45"/>
      <use xlink:href="#DejaVuSans-70" x="63.183594"/>
      <use xlink:href="#DejaVuSans-6f" x="126.660156"/>
      <use xlink:href="#DejaVuSans-63" x="187.841797"/>
      <use xlink:href="#DejaVuSans-68" x="242.822266"/>
     </g>
    </g>
   </g>
   <g id="matplotlib.axis_2">
    <g id="ytick_1">
     <g id="line2d_10">
      <defs>
       <path id="mc8ba51bab1" d="M 0 0 
L -3.5 0 
" style="stroke: #000000; stroke-width: 0.8"/>
      </defs>
      <g>
       <use xlink:href="#mc8ba51bab1" x="57.6" y="294.02816" style="stroke: #000000; stroke-width: 0.8"/>
      </g>
     </g>
     <g id="text_11">
      <!-- 5.4 -->
      <g transform="translate(34.696875 297.827379) scale(0.1 -0.1)">
       <defs>
        <path id="DejaVuSans-2e" d="M 684 794 
L 1344 794 
L 1344 0 
L 684 0 
L 684 794 
z
" transform="scale(0.015625)"/>
       </defs>
       <use xlink:href="#DejaVuSans-35"/>
       <use xlink:href="#DejaVuSans-2e" x="63.623047"/>
       <use xlink:href="#DejaVuSans-34" x="95.410156"/>
      </g>
     </g>
    </g>
    <g id="ytick_2">
     <g id="line2d_11">
      <g>
       <use xlink:href="#mc8ba51bab1" x="57.6" y="248.431604" style="stroke: #000000; stroke-width: 0.8"/>
      </g>
     </g>
     <g id="text_12">
      <!-- 5.6 -->
      <g transform="translate(34.696875 252.230823) scale(0.1 -0.1)">
       <defs>
        <path id="DejaVuSans-36" d="M 2113 2584 
Q 1688 2584 1439 2293 
Q 1191 2003 1191 1497 
Q 1191 994 1439 701 
Q 1688 409 2113 409 
Q 2538 409 2786 701 
Q 3034 994 3034 1497 
Q 3034 2003 2786 2293 
Q 2538 2584 2113 2584 
z
M 3366 4563 
L 3366 3988 
Q 3128 4100 2886 4159 
Q 2644 4219 2406 4219 
Q 1781 4219 1451 3797 
Q 1122 3375 1075 2522 
Q 1259 2794 1537 2939 
Q 1816 3084 2150 3084 
Q 2853 3084 3261 2657 
Q 3669 2231 3669 1497 
Q 3669 778 3244 343 
Q 2819 -91 2113 -91 
Q 1303 -91 875 529 
Q 447 1150 447 2328 
Q 447 3434 972 4092 
Q 1497 4750 2381 4750 
Q 2619 4750 2861 4703 
Q 3103 4656 3366 4563 
z
" transform="scale(0.015625)"/>
       </defs>
       <use xlink:href="#DejaVuSans-35"/>
       <use xlink:href="#DejaVuSans-2e" x="63.623047"/>
       <use xlink:href="#DejaVuSans-36" x="95.410156"/>
      </g>
     </g>
    </g>
    <g id="ytick_3">
     <g id="line2d_12">
      <g>
       <use xlink:href="#mc8ba51bab1" x="57.6" y="202.835048" style="stroke: #000000; stroke-width: 0.8"/>
      </g>
     </g>
     <g id="text_13">
      <!-- 5.8 -->
      <g transform="translate(34.696875 206.634267) scale(0.1 -0.1)">
       <defs>
        <path id="DejaVuSans-38" d="M 2034 2216 
Q 1584 2216 1326 1975 
Q 1069 1734 1069 1313 
Q 1069 891 1326 650 
Q 1584 409 2034 409 
Q 2484 409 2743 651 
Q 3003 894 3003 1313 
Q 3003 1734 2745 1975 
Q 2488 2216 2034 2216 
z
M 1403 2484 
Q 997 2584 770 2862 
Q 544 3141 544 3541 
Q 544 4100 942 4425 
Q 1341 4750 2034 4750 
Q 2731 4750 3128 4425 
Q 3525 4100 3525 3541 
Q 3525 3141 3298 2862 
Q 3072 2584 2669 2484 
Q 3125 2378 3379 2068 
Q 3634 1759 3634 1313 
Q 3634 634 3220 271 
Q 2806 -91 2034 -91 
Q 1263 -91 848 271 
Q 434 634 434 1313 
Q 434 1759 690 2068 
Q 947 2378 1403 2484 
z
M 1172 3481 
Q 1172 3119 1398 2916 
Q 1625 2713 2034 2713 
Q 2441 2713 2670 2916 
Q 2900 3119 2900 3481 
Q 2900 3844 2670 4047 
Q 2441 4250 2034 4250 
Q 1625 4250 1398 4047 
Q 1172 3844 1172 3481 
z
" transform="scale(0.015625)"/>
       </defs>
       <use xlink:href="#DejaVuSans-35"/>
       <use xlink:href="#DejaVuSans-2e" x="63.623047"/>
       <use xlink:href="#DejaVuSans-38" x="95.410156"/>
      </g>
     </g>
    </g>
    <g id="ytick_4">
     <g id="line2d_13">
      <g>
       <use xlink:href="#mc8ba51bab1" x="57.6" y="157.238493" style="stroke: #000000; stroke-width: 0.8"/>
      </g>
     </g>
     <g id="text_14">
      <!-- 6.0 -->
      <g transform="translate(34.696875 161.037711) scale(0.1 -0.1)">
       <use xlink:href="#DejaVuSans-36"/>
       <use xlink:href="#DejaVuSans-2e" x="63.623047"/>
       <use xlink:href="#DejaVuSans-30" x="95.410156"/>
      </g>
     </g>
    </g>
    <g id="ytick_5">
     <g id="line2d_14">
      <g>
       <use xlink:href="#mc8ba51bab1" x="57.6" y="111.641937" style="stroke: #000000; stroke-width: 0.8"/>
      </g>
     </g>
     <g id="text_15">
      <!-- 6.2 -->
      <g transform="translate(34.696875 115.441156) scale(0.1 -0.1)">
       <use xlink:href="#DejaVuSans-36"/>
       <use xlink:href="#DejaVuSans-2e" x="63.623047"/>
       <use xlink:href="#DejaVuSans-32" x="95.410156"/>
      </g>
     </g>
    </g>
    <g id="ytick_6">
     <g id="line2d_15">
      <g>
       <use xlink:href="#mc8ba51bab1" x="57.6" y="66.045381" style="stroke: #000000; stroke-width: 0.8"/>
      </g>
     </g>
     <g id="text_16">
      <!-- 6.4 -->
      <g transform="translate(34.696875 69.8446) scale(0.1 -0.1)">
       <use xlink:href="#DejaVuSans-36"/>
       <use xlink:href="#DejaVuSans-2e" x="63.623047"/>
       <use xlink:href="#DejaVuSans-34" x="95.410156"/>
      </g>
     </g>
    </g>
    <g id="text_17">
     <!-- Loss -->
     <g transform="translate(28.617188 185.495187) rotate(-90) scale(0.1 -0.1)">
      <defs>
       <path id="DejaVuSans-4c" d="M 628 4666 
L 1259 4666 
L 1259 531 
L 3531 531 
L 3531 0 
L 628 0 
L 628 4666 
z
" transform="scale(0.015625)"/>
       <path id="DejaVuSans-73" d="M 2834 3397 
L 2834 2853 
Q 2591 2978 2328 3040 
Q 2066 3103 1784 3103 
Q 1356 3103 1142 2972 
Q 928 2841 928 2578 
Q 928 2378 1081 2264 
Q 1234 2150 1697 2047 
L 1894 2003 
Q 2506 1872 2764 1633 
Q 3022 1394 3022 966 
Q 3022 478 2636 193 
Q 2250 -91 1575 -91 
Q 1294 -91 989 -36 
Q 684 19 347 128 
L 347 722 
Q 666 556 975 473 
Q 1284 391 1588 391 
Q 1994 391 2212 530 
Q 2431 669 2431 922 
Q 2431 1156 2273 1281 
Q 2116 1406 1581 1522 
L 1381 1569 
Q 847 1681 609 1914 
Q 372 2147 372 2553 
Q 372 3047 722 3315 
Q 1072 3584 1716 3584 
Q 2034 3584 2315 3537 
Q 2597 3491 2834 3397 
z
" transform="scale(0.015625)"/>
      </defs>
      <use xlink:href="#DejaVuSans-4c"/>
      <use xlink:href="#DejaVuSans-6f" x="53.962891"/>
      <use xlink:href="#DejaVuSans-73" x="115.144531"/>
      <use xlink:href="#DejaVuSans-73" x="167.244141"/>
     </g>
    </g>
   </g>
   <g id="line2d_16">
    <path d="M 57.6 219.218521 
L 65.716364 239.801794 
L 73.832727 247.237798 
L 81.949091 251.548532 
L 90.065455 255.195696 
L 98.181818 257.793856 
L 106.298182 260.320946 
L 114.414545 262.216694 
L 122.530909 264.175971 
L 130.647273 265.85724 
L 138.763636 267.188985 
L 146.88 268.596177 
L 154.996364 269.581404 
L 163.112727 271.063277 
L 171.229091 271.600322 
L 179.345455 272.930925 
L 187.461818 273.755888 
L 195.578182 274.598898 
L 203.694545 275.564737 
L 211.810909 276.270993 
L 219.927273 277.18785 
L 228.043636 278.097916 
L 236.16 278.197828 
L 244.276364 278.949463 
L 252.392727 279.673183 
L 260.509091 280.121154 
L 268.625455 280.727849 
L 276.741818 281.351137 
L 284.858182 281.598078 
L 292.974545 282.419819 
L 301.090909 283.131536 
L 309.207273 283.532665 
L 317.323636 283.694152 
L 325.44 284.094983 
L 333.556364 284.630616 
L 341.672727 285.259022 
L 349.789091 285.595012 
L 357.905455 285.902946 
L 366.021818 286.164317 
L 374.138182 286.624913 
L 382.254545 286.894652 
L 390.370909 287.266268 
L 398.487273 287.349984 
L 406.603636 287.99176 
L 414.72 288.422922 
L 422.836364 288.755259 
L 430.952727 289.004696 
L 439.069091 289.474501 
L 447.185455 289.539166 
L 455.301818 290.000101 
L 461.8 290.329918 
" clip-path="url(#p951d17d0d2)" style="fill: none; stroke: #1f77b4; stroke-width: 1.5; stroke-linecap: square"/>
   </g>
   <g id="line2d_17">
    <path d="M 57.6 241.847428 
L 65.716364 246.12028 
L 73.832727 250.960658 
L 81.949091 254.422543 
L 90.065455 255.929177 
L 98.181818 257.560156 
L 106.298182 259.063442 
L 114.414545 259.868411 
L 122.530909 260.363843 
L 130.647273 261.189628 
L 138.763636 263.848435 
L 146.88 263.308424 
L 154.996364 264.134168 
L 163.112727 265.676127 
L 171.229091 263.689179 
L 179.345455 267.157269 
L 187.461818 263.586109 
L 195.578182 264.93408 
L 203.694545 265.861004 
L 211.810909 264.664746 
L 219.927273 268.068589 
L 228.043636 263.684898 
L 236.16 267.543887 
L 244.276364 267.237296 
L 252.392727 264.861082 
L 260.509091 266.137675 
L 268.625455 268.432952 
L 276.741818 266.446829 
L 284.858182 268.425476 
L 292.974545 267.997541 
L 301.090909 268.658326 
L 309.207273 269.274823 
L 317.323636 267.636458 
L 325.44 266.453558 
L 333.556364 266.328508 
L 341.672727 267.701231 
L 349.789091 267.073299 
L 357.905455 266.837814 
L 366.021818 269.280505 
L 374.138182 269.559405 
L 382.254545 267.508947 
L 390.370909 269.357939 
L 398.487273 269.6124 
L 406.603636 267.415235 
L 414.72 267.354568 
L 422.836364 268.716486 
L 430.952727 269.28946 
L 439.069091 267.014535 
L 447.185455 268.19919 
L 455.301818 269.415247 
L 461.8 267.677849 
" clip-path="url(#p951d17d0d2)" style="fill: none; stroke: #ff7f0e; stroke-width: 1.5; stroke-linecap: square"/>
   </g>
   <g id="line2d_18">
    <path d="M 57.6 218.690862 
L 65.716364 240.282101 
L 73.832727 247.475957 
L 81.949091 252.300208 
L 90.065455 255.522582 
L 98.181818 258.590477 
L 106.298182 260.62965 
L 114.414545 262.723052 
L 122.530909 264.568862 
L 130.647273 266.11959 
L 138.763636 267.550579 
L 146.88 268.947259 
L 154.996364 269.948416 
L 163.112727 270.812363 
L 171.229091 271.966598 
L 179.345455 272.857059 
L 187.461818 273.419668 
L 195.578182 274.586833 
L 203.694545 275.397483 
L 211.810909 275.780696 
L 219.927273 276.600803 
L 228.043636 277.262678 
L 236.16 278.217535 
L 244.276364 278.514213 
L 252.392727 279.058613 
L 260.509091 279.943318 
L 268.625455 280.226698 
L 276.741818 280.980911 
L 284.858182 281.345777 
L 292.974545 281.714116 
L 301.090909 282.054334 
L 309.207273 282.444159 
L 317.323636 283.160483 
L 325.44 283.699084 
L 333.556364 284.044361 
L 341.672727 284.453835 
L 349.789091 284.747295 
L 357.905455 285.167494 
L 366.021818 285.529499 
L 374.138182 285.341917 
L 382.254545 286.322793 
L 390.370909 286.407673 
L 398.487273 286.658301 
L 406.603636 287.123539 
L 414.72 287.285529 
L 422.836364 288.054339 
L 430.952727 288.012582 
L 439.069091 288.331284 
L 447.185455 288.669063 
L 455.301818 288.966791 
L 461.8 289.312319 
" clip-path="url(#p951d17d0d2)" style="fill: none; stroke: #2ca02c; stroke-width: 1.5; stroke-linecap: square"/>
   </g>
   <g id="line2d_19">
    <path d="M 57.6 241.360157 
L 65.716364 250.255494 
L 73.832727 253.162961 
L 81.949091 257.884324 
L 90.065455 257.489368 
L 98.181818 258.75302 
L 106.298182 258.873034 
L 114.414545 260.960445 
L 122.530909 260.509483 
L 130.647273 262.311634 
L 138.763636 265.992374 
L 146.88 264.42934 
L 154.996364 264.80233 
L 163.112727 264.579529 
L 171.229091 265.05778 
L 179.345455 265.396073 
L 187.461818 266.379718 
L 195.578182 265.700245 
L 203.694545 260.371392 
L 211.810909 266.836266 
L 219.927273 267.824653 
L 228.043636 268.536833 
L 236.16 267.124865 
L 244.276364 267.143435 
L 252.392727 267.042827 
L 260.509091 266.288593 
L 268.625455 266.419057 
L 276.741818 266.686788 
L 284.858182 269.040578 
L 292.974545 268.722057 
L 301.090909 268.095916 
L 309.207273 266.499396 
L 317.323636 267.940909 
L 325.44 268.958399 
L 333.556364 268.072491 
L 341.672727 270.246995 
L 349.789091 269.416643 
L 357.905455 267.524694 
L 366.021818 269.058164 
L 374.138182 266.266042 
L 382.254545 267.060409 
L 390.370909 267.949827 
L 398.487273 268.926658 
L 406.603636 268.51026 
L 414.72 267.22352 
L 422.836364 270.358068 
L 430.952727 270.04962 
L 439.069091 268.912252 
L 447.185455 266.442527 
L 455.301818 265.086557 
L 461.8 268.448931 
" clip-path="url(#p951d17d0d2)" style="fill: none; stroke: #d62728; stroke-width: 1.5; stroke-linecap: square"/>
   </g>
   <g id="line2d_20">
    <path d="M 57.6 221.429613 
L 65.716364 243.466185 
L 73.832727 251.057347 
L 81.949091 256.08999 
L 90.065455 259.446314 
L 98.181818 262.62888 
L 106.298182 264.903912 
L 114.414545 266.965238 
L 122.530909 268.91885 
L 130.647273 270.403226 
L 138.763636 271.748981 
L 146.88 273.437659 
L 154.996364 274.664201 
L 163.112727 275.805777 
L 171.229091 276.735699 
L 179.345455 277.678753 
L 187.461818 278.50916 
L 195.578182 279.821791 
L 203.694545 280.319139 
L 211.810909 281.127242 
L 219.927273 282.209396 
L 228.043636 282.75307 
L 236.16 283.380275 
L 244.276364 284.024947 
L 252.392727 284.818416 
L 260.509091 285.334576 
L 268.625455 286.00108 
L 276.741818 286.578466 
L 284.858182 287.126415 
L 292.974545 287.717934 
L 301.090909 288.187291 
L 309.207273 288.663303 
L 317.323636 289.071788 
L 325.44 289.593324 
L 333.556364 290.229595 
L 341.672727 290.404962 
" clip-path="url(#p951d17d0d2)" style="fill: none; stroke: #9467bd; stroke-width: 1.5; stroke-linecap: square"/>
   </g>
   <g id="line2d_21">
    <path d="M 57.6 245.542646 
L 65.716364 252.273027 
L 73.832727 256.476399 
L 81.949091 260.340409 
L 90.065455 260.659377 
L 98.181818 263.720876 
L 106.298182 264.272504 
L 114.414545 264.543397 
L 122.530909 266.066844 
L 130.647273 267.877863 
L 138.763636 265.893125 
L 146.88 267.498587 
L 154.996364 268.592541 
L 163.112727 269.243839 
L 171.229091 270.21144 
L 179.345455 269.870292 
L 187.461818 270.624975 
L 195.578182 268.576516 
L 203.694545 270.113559 
L 211.810909 271.163672 
L 219.927273 271.400034 
L 228.043636 271.083923 
L 236.16 268.264908 
L 244.276364 272.246707 
L 252.392727 270.67747 
L 260.509091 272.535891 
L 268.625455 269.877422 
L 276.741818 271.488516 
L 284.858182 271.49099 
L 292.974545 267.715629 
L 301.090909 271.350826 
L 309.207273 270.233057 
L 317.323636 272.456014 
L 325.44 271.952761 
L 333.556364 271.867347 
L 341.672727 271.395078 
" clip-path="url(#p951d17d0d2)" style="fill: none; stroke: #8c564b; stroke-width: 1.5; stroke-linecap: square"/>
   </g>
   <g id="line2d_22">
    <path d="M 57.6 223.059814 
L 65.716364 244.941813 
L 73.832727 252.527784 
L 81.949091 256.871207 
L 90.065455 260.768231 
L 98.181818 263.735422 
L 106.298182 266.212635 
L 114.414545 268.257896 
L 122.530909 270.216991 
L 130.647273 271.827053 
L 138.763636 273.366438 
L 146.88 274.609947 
L 154.996364 275.914052 
L 163.112727 277.137926 
L 171.229091 278.064082 
L 179.345455 278.946098 
L 187.461818 280.359073 
L 195.578182 281.113723 
L 203.694545 281.939756 
L 211.810909 282.840762 
L 219.927273 283.464732 
L 228.043636 283.963614 
L 236.16 284.859873 
L 244.276364 285.427776 
L 252.392727 286.057633 
L 260.509091 286.706129 
L 268.625455 287.226666 
L 276.741818 287.818238 
L 284.858182 288.394445 
L 292.974545 288.759688 
L 301.090909 289.656431 
L 309.207273 290.106019 
L 317.323636 290.535737 
L 325.44 290.864367 
L 333.556364 291.829573 
L 341.672727 291.720631 
L 349.789091 292.527416 
L 357.905455 292.739188 
L 366.021818 293.187218 
L 374.138182 293.582157 
L 382.254545 293.496623 
L 390.370909 293.982601 
L 398.487273 294.15438 
L 406.603636 294.796734 
L 414.72 295.19645 
L 422.836364 295.314748 
L 430.952727 295.488 
" clip-path="url(#p951d17d0d2)" style="fill: none; stroke: #e377c2; stroke-width: 1.5; stroke-linecap: square"/>
   </g>
   <g id="line2d_23">
    <path d="M 57.6 246.256632 
L 65.716364 254.083674 
L 73.832727 256.961007 
L 81.949091 260.62952 
L 90.065455 262.369396 
L 98.181818 263.244388 
L 106.298182 265.895502 
L 114.414545 266.859798 
L 122.530909 266.890969 
L 130.647273 269.131143 
L 138.763636 266.602539 
L 146.88 268.027458 
L 154.996364 269.598038 
L 163.112727 270.95879 
L 171.229091 270.275452 
L 179.345455 270.33423 
L 187.461818 273.433621 
L 195.578182 271.221761 
L 203.694545 268.700637 
L 211.810909 273.223816 
L 219.927273 272.002297 
L 228.043636 270.869256 
L 236.16 271.036425 
L 244.276364 273.358369 
L 252.392727 272.920639 
L 260.509091 273.133444 
L 268.625455 273.637884 
L 276.741818 274.431918 
L 284.858182 273.218279 
L 292.974545 272.004598 
L 301.090909 271.362155 
L 309.207273 271.252938 
L 317.323636 273.161439 
L 325.44 272.265865 
L 333.556364 272.501347 
L 341.672727 273.599396 
L 349.789091 275.404676 
L 357.905455 274.485604 
L 366.021818 273.98269 
L 374.138182 274.521161 
L 382.254545 272.324103 
L 390.370909 272.794826 
L 398.487273 273.689317 
L 406.603636 272.058852 
L 414.72 272.85729 
L 422.836364 272.515226 
L 430.952727 271.548227 
" clip-path="url(#p951d17d0d2)" style="fill: none; stroke: #7f7f7f; stroke-width: 1.5; stroke-linecap: square"/>
   </g>
   <g id="line2d_24">
    <path d="M 57.6 53.568 
L 65.716364 82.92248 
L 73.832727 92.113273 
L 81.949091 98.364146 
L 90.065455 102.775609 
L 98.181818 106.28272 
L 106.298182 109.301196 
L 114.414545 112.007561 
L 122.530909 114.06723 
L 130.647273 116.220697 
L 138.763636 117.841161 
L 146.88 119.561619 
L 154.996364 120.742804 
L 163.112727 122.241991 
L 171.229091 123.69621 
L 179.345455 124.726298 
L 187.461818 125.677341 
L 195.578182 126.636188 
L 203.694545 127.441087 
L 211.810909 128.5118 
L 219.927273 129.400699 
L 228.043636 129.993596 
L 236.16 130.61449 
L 244.276364 131.51206 
L 252.392727 132.541776 
L 260.509091 133.065912 
L 268.625455 133.273701 
L 276.741818 134.128658 
L 284.858182 134.548808 
L 292.974545 135.398413 
L 301.090909 136.34813 
L 309.207273 136.556936 
L 317.323636 136.770633 
L 325.44 137.063565 
L 333.556364 137.593772 
L 341.672727 138.013959 
L 349.789091 138.401095 
L 357.905455 138.977943 
L 366.021818 139.563242 
L 374.138182 140.002132 
L 382.254545 139.832738 
L 390.370909 140.046013 
L 398.487273 140.973379 
L 406.603636 141.540291 
L 414.72 141.376494 
" clip-path="url(#p951d17d0d2)" style="fill: none; stroke: #bcbd22; stroke-width: 1.5; stroke-linecap: square"/>
   </g>
   <g id="line2d_25">
    <path d="M 57.6 144.35367 
L 65.716364 155.813239 
L 73.832727 160.82555 
L 81.949091 163.647714 
L 90.065455 163.772047 
L 98.181818 168.130014 
L 106.298182 169.751323 
L 114.414545 171.072205 
L 122.530909 171.055424 
L 130.647273 170.970646 
L 138.763636 171.753511 
L 146.88 171.393619 
L 154.996364 173.287384 
L 163.112727 174.866247 
L 171.229091 173.979959 
L 179.345455 175.482579 
L 187.461818 173.747708 
L 195.578182 175.51558 
L 203.694545 174.427423 
L 211.810909 178.309856 
L 219.927273 175.313101 
L 228.043636 176.610702 
L 236.16 174.979447 
L 244.276364 176.011279 
L 252.392727 179.073156 
L 260.509091 176.851236 
L 268.625455 176.420847 
L 276.741818 177.428575 
L 284.858182 176.013301 
L 292.974545 176.057343 
L 301.090909 177.066567 
L 309.207273 176.156192 
L 317.323636 176.385253 
L 325.44 175.405389 
L 333.556364 180.542918 
L 341.672727 176.992846 
L 349.789091 178.954995 
L 357.905455 177.764168 
L 366.021818 177.677654 
L 374.138182 179.91196 
L 382.254545 179.631102 
L 390.370909 177.432484 
L 398.487273 180.018712 
L 406.603636 179.885296 
L 414.72 178.530311 
" clip-path="url(#p951d17d0d2)" style="fill: none; stroke: #17becf; stroke-width: 1.5; stroke-linecap: square"/>
   </g>
   <g id="patch_3">
    <path d="M 57.6 307.584 
L 57.6 41.472 
" style="fill: none; stroke: #000000; stroke-width: 0.8; stroke-linejoin: miter; stroke-linecap: square"/>
   </g>
   <g id="patch_4">
    <path d="M 414.72 307.584 
L 414.72 41.472 
" style="fill: none; stroke: #000000; stroke-width: 0.8; stroke-linejoin: miter; stroke-linecap: square"/>
   </g>
   <g id="patch_5">
    <path d="M 57.6 307.584 
L 414.72 307.584 
" style="fill: none; stroke: #000000; stroke-width: 0.8; stroke-linejoin: miter; stroke-linecap: square"/>
   </g>
   <g id="patch_6">
    <path d="M 57.6 41.472 
L 414.72 41.472 
" style="fill: none; stroke: #000000; stroke-width: 0.8; stroke-linejoin: miter; stroke-linecap: square"/>
   </g>
   <g id="legend_1">
    <g id="patch_7">
     <path d="M 352.445 196.25325 
L 407.72 196.25325 
Q 409.72 196.25325 409.72 194.25325 
L 409.72 48.472 
Q 409.72 46.472 407.72 46.472 
L 352.445 46.472 
Q 350.445 46.472 350.445 48.472 
L 350.445 194.25325 
Q 350.445 196.25325 352.445 196.25325 
z
" style="fill: #ffffff; opacity: 0.8; stroke: #cccccc; stroke-linejoin: miter"/>
    </g>
    <g id="line2d_26">
     <path d="M 354.445 54.570437 
L 364.445 54.570437 
L 374.445 54.570437 
" style="fill: none; stroke: #1f77b4; stroke-width: 1.5; stroke-linecap: square"/>
    </g>
    <g id="text_18">
     <!-- train -->
     <g transform="translate(382.445 58.070437) scale(0.1 -0.1)">
      <defs>
       <path id="DejaVuSans-74" d="M 1172 4494 
L 1172 3500 
L 2356 3500 
L 2356 3053 
L 1172 3053 
L 1172 1153 
Q 1172 725 1289 603 
Q 1406 481 1766 481 
L 2356 481 
L 2356 0 
L 1766 0 
Q 1100 0 847 248 
Q 594 497 594 1153 
L 594 3053 
L 172 3053 
L 172 3500 
L 594 3500 
L 594 4494 
L 1172 4494 
z
" transform="scale(0.015625)"/>
       <path id="DejaVuSans-72" d="M 2631 2963 
Q 2534 3019 2420 3045 
Q 2306 3072 2169 3072 
Q 1681 3072 1420 2755 
Q 1159 2438 1159 1844 
L 1159 0 
L 581 0 
L 581 3500 
L 1159 3500 
L 1159 2956 
Q 1341 3275 1631 3429 
Q 1922 3584 2338 3584 
Q 2397 3584 2469 3576 
Q 2541 3569 2628 3553 
L 2631 2963 
z
" transform="scale(0.015625)"/>
       <path id="DejaVuSans-61" d="M 2194 1759 
Q 1497 1759 1228 1600 
Q 959 1441 959 1056 
Q 959 750 1161 570 
Q 1363 391 1709 391 
Q 2188 391 2477 730 
Q 2766 1069 2766 1631 
L 2766 1759 
L 2194 1759 
z
M 3341 1997 
L 3341 0 
L 2766 0 
L 2766 531 
Q 2569 213 2275 61 
Q 1981 -91 1556 -91 
Q 1019 -91 701 211 
Q 384 513 384 1019 
Q 384 1609 779 1909 
Q 1175 2209 1959 2209 
L 2766 2209 
L 2766 2266 
Q 2766 2663 2505 2880 
Q 2244 3097 1772 3097 
Q 1472 3097 1187 3025 
Q 903 2953 641 2809 
L 641 3341 
Q 956 3463 1253 3523 
Q 1550 3584 1831 3584 
Q 2591 3584 2966 3190 
Q 3341 2797 3341 1997 
z
" transform="scale(0.015625)"/>
       <path id="DejaVuSans-69" d="M 603 3500 
L 1178 3500 
L 1178 0 
L 603 0 
L 603 3500 
z
M 603 4863 
L 1178 4863 
L 1178 4134 
L 603 4134 
L 603 4863 
z
" transform="scale(0.015625)"/>
       <path id="DejaVuSans-6e" d="M 3513 2113 
L 3513 0 
L 2938 0 
L 2938 2094 
Q 2938 2591 2744 2837 
Q 2550 3084 2163 3084 
Q 1697 3084 1428 2787 
Q 1159 2491 1159 1978 
L 1159 0 
L 581 0 
L 581 3500 
L 1159 3500 
L 1159 2956 
Q 1366 3272 1645 3428 
Q 1925 3584 2291 3584 
Q 2894 3584 3203 3211 
Q 3513 2838 3513 2113 
z
" transform="scale(0.015625)"/>
      </defs>
      <use xlink:href="#DejaVuSans-74"/>
      <use xlink:href="#DejaVuSans-72" x="39.208984"/>
      <use xlink:href="#DejaVuSans-61" x="80.322266"/>
      <use xlink:href="#DejaVuSans-69" x="141.601562"/>
      <use xlink:href="#DejaVuSans-6e" x="169.384766"/>
     </g>
    </g>
    <g id="line2d_27">
     <path d="M 354.445 69.248562 
L 364.445 69.248562 
L 374.445 69.248562 
" style="fill: none; stroke: #ff7f0e; stroke-width: 1.5; stroke-linecap: square"/>
    </g>
    <g id="text_19">
     <!-- val -->
     <g transform="translate(382.445 72.748562) scale(0.1 -0.1)">
      <defs>
       <path id="DejaVuSans-76" d="M 191 3500 
L 800 3500 
L 1894 563 
L 2988 3500 
L 3597 3500 
L 2284 0 
L 1503 0 
L 191 3500 
z
" transform="scale(0.015625)"/>
       <path id="DejaVuSans-6c" d="M 603 4863 
L 1178 4863 
L 1178 0 
L 603 0 
L 603 4863 
z
" transform="scale(0.015625)"/>
      </defs>
      <use xlink:href="#DejaVuSans-76"/>
      <use xlink:href="#DejaVuSans-61" x="59.179688"/>
      <use xlink:href="#DejaVuSans-6c" x="120.458984"/>
     </g>
    </g>
    <g id="line2d_28">
     <path d="M 354.445 83.926688 
L 364.445 83.926688 
L 374.445 83.926688 
" style="fill: none; stroke: #2ca02c; stroke-width: 1.5; stroke-linecap: square"/>
    </g>
    <g id="text_20">
     <!-- train -->
     <g transform="translate(382.445 87.426688) scale(0.1 -0.1)">
      <use xlink:href="#DejaVuSans-74"/>
      <use xlink:href="#DejaVuSans-72" x="39.208984"/>
      <use xlink:href="#DejaVuSans-61" x="80.322266"/>
      <use xlink:href="#DejaVuSans-69" x="141.601562"/>
      <use xlink:href="#DejaVuSans-6e" x="169.384766"/>
     </g>
    </g>
    <g id="line2d_29">
     <path d="M 354.445 98.604812 
L 364.445 98.604812 
L 374.445 98.604812 
" style="fill: none; stroke: #d62728; stroke-width: 1.5; stroke-linecap: square"/>
    </g>
    <g id="text_21">
     <!-- val -->
     <g transform="translate(382.445 102.104812) scale(0.1 -0.1)">
      <use xlink:href="#DejaVuSans-76"/>
      <use xlink:href="#DejaVuSans-61" x="59.179688"/>
      <use xlink:href="#DejaVuSans-6c" x="120.458984"/>
     </g>
    </g>
    <g id="line2d_30">
     <path d="M 354.445 113.282938 
L 364.445 113.282938 
L 374.445 113.282938 
" style="fill: none; stroke: #9467bd; stroke-width: 1.5; stroke-linecap: square"/>
    </g>
    <g id="text_22">
     <!-- train -->
     <g transform="translate(382.445 116.782938) scale(0.1 -0.1)">
      <use xlink:href="#DejaVuSans-74"/>
      <use xlink:href="#DejaVuSans-72" x="39.208984"/>
      <use xlink:href="#DejaVuSans-61" x="80.322266"/>
      <use xlink:href="#DejaVuSans-69" x="141.601562"/>
      <use xlink:href="#DejaVuSans-6e" x="169.384766"/>
     </g>
    </g>
    <g id="line2d_31">
     <path d="M 354.445 127.961062 
L 364.445 127.961062 
L 374.445 127.961062 
" style="fill: none; stroke: #8c564b; stroke-width: 1.5; stroke-linecap: square"/>
    </g>
    <g id="text_23">
     <!-- val -->
     <g transform="translate(382.445 131.461062) scale(0.1 -0.1)">
      <use xlink:href="#DejaVuSans-76"/>
      <use xlink:href="#DejaVuSans-61" x="59.179688"/>
      <use xlink:href="#DejaVuSans-6c" x="120.458984"/>
     </g>
    </g>
    <g id="line2d_32">
     <path d="M 354.445 142.639187 
L 364.445 142.639187 
L 374.445 142.639187 
" style="fill: none; stroke: #e377c2; stroke-width: 1.5; stroke-linecap: square"/>
    </g>
    <g id="text_24">
     <!-- train -->
     <g transform="translate(382.445 146.139187) scale(0.1 -0.1)">
      <use xlink:href="#DejaVuSans-74"/>
      <use xlink:href="#DejaVuSans-72" x="39.208984"/>
      <use xlink:href="#DejaVuSans-61" x="80.322266"/>
      <use xlink:href="#DejaVuSans-69" x="141.601562"/>
      <use xlink:href="#DejaVuSans-6e" x="169.384766"/>
     </g>
    </g>
    <g id="line2d_33">
     <path d="M 354.445 157.317312 
L 364.445 157.317312 
L 374.445 157.317312 
" style="fill: none; stroke: #7f7f7f; stroke-width: 1.5; stroke-linecap: square"/>
    </g>
    <g id="text_25">
     <!-- val -->
     <g transform="translate(382.445 160.817312) scale(0.1 -0.1)">
      <use xlink:href="#DejaVuSans-76"/>
      <use xlink:href="#DejaVuSans-61" x="59.179688"/>
      <use xlink:href="#DejaVuSans-6c" x="120.458984"/>
     </g>
    </g>
    <g id="line2d_34">
     <path d="M 354.445 171.995437 
L 364.445 171.995437 
L 374.445 171.995437 
" style="fill: none; stroke: #bcbd22; stroke-width: 1.5; stroke-linecap: square"/>
    </g>
    <g id="text_26">
     <!-- train -->
     <g transform="translate(382.445 175.495437) scale(0.1 -0.1)">
      <use xlink:href="#DejaVuSans-74"/>
      <use xlink:href="#DejaVuSans-72" x="39.208984"/>
      <use xlink:href="#DejaVuSans-61" x="80.322266"/>
      <use xlink:href="#DejaVuSans-69" x="141.601562"/>
      <use xlink:href="#DejaVuSans-6e" x="169.384766"/>
     </g>
    </g>
    <g id="line2d_35">
     <path d="M 354.445 186.673562 
L 364.445 186.673562 
L 374.445 186.673562 
" style="fill: none; stroke: #17becf; stroke-width: 1.5; stroke-linecap: square"/>
    </g>
    <g id="text_27">
     <!-- val -->
     <g transform="translate(382.445 190.173562) scale(0.1 -0.1)">
      <use xlink:href="#DejaVuSans-76"/>
      <use xlink:href="#DejaVuSans-61" x="59.179688"/>
      <use xlink:href="#DejaVuSans-6c" x="120.458984"/>
     </g>
    </g>
   </g>
  </g>
 </g>
 <defs>
  <clipPath id="p951d17d0d2">
   <rect x="57.6" y="41.472" width="357.12" height="266.112"/>
  </clipPath>
 </defs>
</svg>
