<?xml version="1.0" encoding="utf-8" standalone="no"?>
<!DOCTYPE svg PUBLIC "-//W3C//DTD SVG 1.1//EN"
  "http://www.w3.org/Graphics/SVG/1.1/DTD/svg11.dtd">
<svg xmlns:xlink="http://www.w3.org/1999/xlink" width="460.8pt" height="345.6pt" viewBox="0 0 460.8 345.6" xmlns="http://www.w3.org/2000/svg" version="1.1">
 <metadata>
  <rdf:RDF xmlns:dc="http://purl.org/dc/elements/1.1/" xmlns:cc="http://creativecommons.org/ns#" xmlns:rdf="http://www.w3.org/1999/02/22-rdf-syntax-ns#">
   <cc:Work>
    <dc:type rdf:resource="http://purl.org/dc/dcmitype/StillImage"/>
    <dc:date>2024-08-02T13:19:56.577106</dc:date>
    <dc:format>image/svg+xml</dc:format>
    <dc:creator>
     <cc:Agent>
      <dc:title>Matplotlib v3.7.4, https://matplotlib.org/</dc:title>
     </cc:Agent>
    </dc:creator>
   </cc:Work>
  </rdf:RDF>
 </metadata>
 <defs>
  <style type="text/css">*{stroke-linejoin: round; stroke-linecap: butt}</style>
 </defs>
 <g id="figure_1">
  <g id="patch_1">
   <path d="M 0 345.6 
L 460.8 345.6 
L 460.8 0 
L 0 0 
z
" style="fill: #ffffff"/>
  </g>
  <g id="axes_1">
   <g id="patch_2">
    <path d="M 57.6 307.584 
L 414.72 307.584 
L 414.72 41.472 
L 57.6 41.472 
z
" style="fill: #ffffff"/>
   </g>
   <g id="matplotlib.axis_1">
    <g id="xtick_1">
     <g id="line2d_1">
      <defs>
       <path id="m1460804d5d" d="M 0 0 
L 0 3.5 
" style="stroke: #000000; stroke-width: 0.8"/>
      </defs>
      <g>
       <use xlink:href="#m1460804d5d" x="109.44" y="307.584" style="stroke: #000000; stroke-width: 0.8"/>
      </g>
     </g>
     <g id="text_1">
      <!-- 10 -->
      <g transform="translate(103.0775 322.182437) scale(0.1 -0.1)">
       <defs>
        <path id="DejaVuSans-31" d="M 794 531 
L 1825 531 
L 1825 4091 
L 703 3866 
L 703 4441 
L 1819 4666 
L 2450 4666 
L 2450 531 
L 3481 531 
L 3481 0 
L 794 0 
L 794 531 
z
" transform="scale(0.015625)"/>
        <path id="DejaVuSans-30" d="M 2034 4250 
Q 1547 4250 1301 3770 
Q 1056 3291 1056 2328 
Q 1056 1369 1301 889 
Q 1547 409 2034 409 
Q 2525 409 2770 889 
Q 3016 1369 3016 2328 
Q 3016 3291 2770 3770 
Q 2525 4250 2034 4250 
z
M 2034 4750 
Q 2819 4750 3233 4129 
Q 3647 3509 3647 2328 
Q 3647 1150 3233 529 
Q 2819 -91 2034 -91 
Q 1250 -91 836 529 
Q 422 1150 422 2328 
Q 422 3509 836 4129 
Q 1250 4750 2034 4750 
z
" transform="scale(0.015625)"/>
       </defs>
       <use xlink:href="#DejaVuSans-31"/>
       <use xlink:href="#DejaVuSans-30" x="63.623047"/>
      </g>
     </g>
    </g>
    <g id="xtick_2">
     <g id="line2d_2">
      <g>
       <use xlink:href="#m1460804d5d" x="167.04" y="307.584" style="stroke: #000000; stroke-width: 0.8"/>
      </g>
     </g>
     <g id="text_2">
      <!-- 20 -->
      <g transform="translate(160.6775 322.182437) scale(0.1 -0.1)">
       <defs>
        <path id="DejaVuSans-32" d="M 1228 531 
L 3431 531 
L 3431 0 
L 469 0 
L 469 531 
Q 828 903 1448 1529 
Q 2069 2156 2228 2338 
Q 2531 2678 2651 2914 
Q 2772 3150 2772 3378 
Q 2772 3750 2511 3984 
Q 2250 4219 1831 4219 
Q 1534 4219 1204 4116 
Q 875 4013 500 3803 
L 500 4441 
Q 881 4594 1212 4672 
Q 1544 4750 1819 4750 
Q 2544 4750 2975 4387 
Q 3406 4025 3406 3419 
Q 3406 3131 3298 2873 
Q 3191 2616 2906 2266 
Q 2828 2175 2409 1742 
Q 1991 1309 1228 531 
z
" transform="scale(0.015625)"/>
       </defs>
       <use xlink:href="#DejaVuSans-32"/>
       <use xlink:href="#DejaVuSans-30" x="63.623047"/>
      </g>
     </g>
    </g>
    <g id="xtick_3">
     <g id="line2d_3">
      <g>
       <use xlink:href="#m1460804d5d" x="224.64" y="307.584" style="stroke: #000000; stroke-width: 0.8"/>
      </g>
     </g>
     <g id="text_3">
      <!-- 30 -->
      <g transform="translate(218.2775 322.182437) scale(0.1 -0.1)">
       <defs>
        <path id="DejaVuSans-33" d="M 2597 2516 
Q 3050 2419 3304 2112 
Q 3559 1806 3559 1356 
Q 3559 666 3084 287 
Q 2609 -91 1734 -91 
Q 1441 -91 1130 -33 
Q 819 25 488 141 
L 488 750 
Q 750 597 1062 519 
Q 1375 441 1716 441 
Q 2309 441 2620 675 
Q 2931 909 2931 1356 
Q 2931 1769 2642 2001 
Q 2353 2234 1838 2234 
L 1294 2234 
L 1294 2753 
L 1863 2753 
Q 2328 2753 2575 2939 
Q 2822 3125 2822 3475 
Q 2822 3834 2567 4026 
Q 2313 4219 1838 4219 
Q 1578 4219 1281 4162 
Q 984 4106 628 3988 
L 628 4550 
Q 988 4650 1302 4700 
Q 1616 4750 1894 4750 
Q 2613 4750 3031 4423 
Q 3450 4097 3450 3541 
Q 3450 3153 3228 2886 
Q 3006 2619 2597 2516 
z
" transform="scale(0.015625)"/>
       </defs>
       <use xlink:href="#DejaVuSans-33"/>
       <use xlink:href="#DejaVuSans-30" x="63.623047"/>
      </g>
     </g>
    </g>
    <g id="xtick_4">
     <g id="line2d_4">
      <g>
       <use xlink:href="#m1460804d5d" x="282.24" y="307.584" style="stroke: #000000; stroke-width: 0.8"/>
      </g>
     </g>
     <g id="text_4">
      <!-- 40 -->
      <g transform="translate(275.8775 322.182437) scale(0.1 -0.1)">
       <defs>
        <path id="DejaVuSans-34" d="M 2419 4116 
L 825 1625 
L 2419 1625 
L 2419 4116 
z
M 2253 4666 
L 3047 4666 
L 3047 1625 
L 3713 1625 
L 3713 1100 
L 3047 1100 
L 3047 0 
L 2419 0 
L 2419 1100 
L 313 1100 
L 313 1709 
L 2253 4666 
z
" transform="scale(0.015625)"/>
       </defs>
       <use xlink:href="#DejaVuSans-34"/>
       <use xlink:href="#DejaVuSans-30" x="63.623047"/>
      </g>
     </g>
    </g>
    <g id="xtick_5">
     <g id="line2d_5">
      <g>
       <use xlink:href="#m1460804d5d" x="339.84" y="307.584" style="stroke: #000000; stroke-width: 0.8"/>
      </g>
     </g>
     <g id="text_5">
      <!-- 50 -->
      <g transform="translate(333.4775 322.182437) scale(0.1 -0.1)">
       <defs>
        <path id="DejaVuSans-35" d="M 691 4666 
L 3169 4666 
L 3169 4134 
L 1269 4134 
L 1269 2991 
Q 1406 3038 1543 3061 
Q 1681 3084 1819 3084 
Q 2600 3084 3056 2656 
Q 3513 2228 3513 1497 
Q 3513 744 3044 326 
Q 2575 -91 1722 -91 
Q 1428 -91 1123 -41 
Q 819 9 494 109 
L 494 744 
Q 775 591 1075 516 
Q 1375 441 1709 441 
Q 2250 441 2565 725 
Q 2881 1009 2881 1497 
Q 2881 1984 2565 2268 
Q 2250 2553 1709 2553 
Q 1456 2553 1204 2497 
Q 953 2441 691 2322 
L 691 4666 
z
" transform="scale(0.015625)"/>
       </defs>
       <use xlink:href="#DejaVuSans-35"/>
       <use xlink:href="#DejaVuSans-30" x="63.623047"/>
      </g>
     </g>
    </g>
    <g id="xtick_6">
     <g id="line2d_6">
      <g>
       <use xlink:href="#m1460804d5d" x="397.44" y="307.584" style="stroke: #000000; stroke-width: 0.8"/>
      </g>
     </g>
     <g id="text_6">
      <!-- 60 -->
      <g transform="translate(391.0775 322.182437) scale(0.1 -0.1)">
       <defs>
        <path id="DejaVuSans-36" d="M 2113 2584 
Q 1688 2584 1439 2293 
Q 1191 2003 1191 1497 
Q 1191 994 1439 701 
Q 1688 409 2113 409 
Q 2538 409 2786 701 
Q 3034 994 3034 1497 
Q 3034 2003 2786 2293 
Q 2538 2584 2113 2584 
z
M 3366 4563 
L 3366 3988 
Q 3128 4100 2886 4159 
Q 2644 4219 2406 4219 
Q 1781 4219 1451 3797 
Q 1122 3375 1075 2522 
Q 1259 2794 1537 2939 
Q 1816 3084 2150 3084 
Q 2853 3084 3261 2657 
Q 3669 2231 3669 1497 
Q 3669 778 3244 343 
Q 2819 -91 2113 -91 
Q 1303 -91 875 529 
Q 447 1150 447 2328 
Q 447 3434 972 4092 
Q 1497 4750 2381 4750 
Q 2619 4750 2861 4703 
Q 3103 4656 3366 4563 
z
" transform="scale(0.015625)"/>
       </defs>
       <use xlink:href="#DejaVuSans-36"/>
       <use xlink:href="#DejaVuSans-30" x="63.623047"/>
      </g>
     </g>
    </g>
    <g id="text_7">
     <!-- Epoch -->
     <g transform="translate(220.849063 335.860562) scale(0.1 -0.1)">
      <defs>
       <path id="DejaVuSans-45" d="M 628 4666 
L 3578 4666 
L 3578 4134 
L 1259 4134 
L 1259 2753 
L 3481 2753 
L 3481 2222 
L 1259 2222 
L 1259 531 
L 3634 531 
L 3634 0 
L 628 0 
L 628 4666 
z
" transform="scale(0.015625)"/>
       <path id="DejaVuSans-70" d="M 1159 525 
L 1159 -1331 
L 581 -1331 
L 581 3500 
L 1159 3500 
L 1159 2969 
Q 1341 3281 1617 3432 
Q 1894 3584 2278 3584 
Q 2916 3584 3314 3078 
Q 3713 2572 3713 1747 
Q 3713 922 3314 415 
Q 2916 -91 2278 -91 
Q 1894 -91 1617 61 
Q 1341 213 1159 525 
z
M 3116 1747 
Q 3116 2381 2855 2742 
Q 2594 3103 2138 3103 
Q 1681 3103 1420 2742 
Q 1159 2381 1159 1747 
Q 1159 1113 1420 752 
Q 1681 391 2138 391 
Q 2594 391 2855 752 
Q 3116 1113 3116 1747 
z
" transform="scale(0.015625)"/>
       <path id="DejaVuSans-6f" d="M 1959 3097 
Q 1497 3097 1228 2736 
Q 959 2375 959 1747 
Q 959 1119 1226 758 
Q 1494 397 1959 397 
Q 2419 397 2687 759 
Q 2956 1122 2956 1747 
Q 2956 2369 2687 2733 
Q 2419 3097 1959 3097 
z
M 1959 3584 
Q 2709 3584 3137 3096 
Q 3566 2609 3566 1747 
Q 3566 888 3137 398 
Q 2709 -91 1959 -91 
Q 1206 -91 779 398 
Q 353 888 353 1747 
Q 353 2609 779 3096 
Q 1206 3584 1959 3584 
z
" transform="scale(0.015625)"/>
       <path id="DejaVuSans-63" d="M 3122 3366 
L 3122 2828 
Q 2878 2963 2633 3030 
Q 2388 3097 2138 3097 
Q 1578 3097 1268 2742 
Q 959 2388 959 1747 
Q 959 1106 1268 751 
Q 1578 397 2138 397 
Q 2388 397 2633 464 
Q 2878 531 3122 666 
L 3122 134 
Q 2881 22 2623 -34 
Q 2366 -91 2075 -91 
Q 1284 -91 818 406 
Q 353 903 353 1747 
Q 353 2603 823 3093 
Q 1294 3584 2113 3584 
Q 2378 3584 2631 3529 
Q 2884 3475 3122 3366 
z
" transform="scale(0.015625)"/>
       <path id="DejaVuSans-68" d="M 3513 2113 
L 3513 0 
L 2938 0 
L 2938 2094 
Q 2938 2591 2744 2837 
Q 2550 3084 2163 3084 
Q 1697 3084 1428 2787 
Q 1159 2491 1159 1978 
L 1159 0 
L 581 0 
L 581 4863 
L 1159 4863 
L 1159 2956 
Q 1366 3272 1645 3428 
Q 1925 3584 2291 3584 
Q 2894 3584 3203 3211 
Q 3513 2838 3513 2113 
z
" transform="scale(0.015625)"/>
      </defs>
      <use xlink:href="#DejaVuSans-45"/>
      <use xlink:href="#DejaVuSans-70" x="63.183594"/>
      <use xlink:href="#DejaVuSans-6f" x="126.660156"/>
      <use xlink:href="#DejaVuSans-63" x="187.841797"/>
      <use xlink:href="#DejaVuSans-68" x="242.822266"/>
     </g>
    </g>
   </g>
   <g id="matplotlib.axis_2">
    <g id="ytick_1">
     <g id="line2d_7">
      <defs>
       <path id="m33fa9a8cf1" d="M 0 0 
L -3.5 0 
" style="stroke: #000000; stroke-width: 0.8"/>
      </defs>
      <g>
       <use xlink:href="#m33fa9a8cf1" x="57.6" y="272.331045" style="stroke: #000000; stroke-width: 0.8"/>
      </g>
     </g>
     <g id="text_8">
      <!-- 0.20 -->
      <g transform="translate(28.334375 276.130264) scale(0.1 -0.1)">
       <defs>
        <path id="DejaVuSans-2e" d="M 684 794 
L 1344 794 
L 1344 0 
L 684 0 
L 684 794 
z
" transform="scale(0.015625)"/>
       </defs>
       <use xlink:href="#DejaVuSans-30"/>
       <use xlink:href="#DejaVuSans-2e" x="63.623047"/>
       <use xlink:href="#DejaVuSans-32" x="95.410156"/>
       <use xlink:href="#DejaVuSans-30" x="159.033203"/>
      </g>
     </g>
    </g>
    <g id="ytick_2">
     <g id="line2d_8">
      <g>
       <use xlink:href="#m33fa9a8cf1" x="57.6" y="236.162975" style="stroke: #000000; stroke-width: 0.8"/>
      </g>
     </g>
     <g id="text_9">
      <!-- 0.22 -->
      <g transform="translate(28.334375 239.962194) scale(0.1 -0.1)">
       <use xlink:href="#DejaVuSans-30"/>
       <use xlink:href="#DejaVuSans-2e" x="63.623047"/>
       <use xlink:href="#DejaVuSans-32" x="95.410156"/>
       <use xlink:href="#DejaVuSans-32" x="159.033203"/>
      </g>
     </g>
    </g>
    <g id="ytick_3">
     <g id="line2d_9">
      <g>
       <use xlink:href="#m33fa9a8cf1" x="57.6" y="199.994905" style="stroke: #000000; stroke-width: 0.8"/>
      </g>
     </g>
     <g id="text_10">
      <!-- 0.24 -->
      <g transform="translate(28.334375 203.794124) scale(0.1 -0.1)">
       <use xlink:href="#DejaVuSans-30"/>
       <use xlink:href="#DejaVuSans-2e" x="63.623047"/>
       <use xlink:href="#DejaVuSans-32" x="95.410156"/>
       <use xlink:href="#DejaVuSans-34" x="159.033203"/>
      </g>
     </g>
    </g>
    <g id="ytick_4">
     <g id="line2d_10">
      <g>
       <use xlink:href="#m33fa9a8cf1" x="57.6" y="163.826835" style="stroke: #000000; stroke-width: 0.8"/>
      </g>
     </g>
     <g id="text_11">
      <!-- 0.26 -->
      <g transform="translate(28.334375 167.626054) scale(0.1 -0.1)">
       <use xlink:href="#DejaVuSans-30"/>
       <use xlink:href="#DejaVuSans-2e" x="63.623047"/>
       <use xlink:href="#DejaVuSans-32" x="95.410156"/>
       <use xlink:href="#DejaVuSans-36" x="159.033203"/>
      </g>
     </g>
    </g>
    <g id="ytick_5">
     <g id="line2d_11">
      <g>
       <use xlink:href="#m33fa9a8cf1" x="57.6" y="127.658765" style="stroke: #000000; stroke-width: 0.8"/>
      </g>
     </g>
     <g id="text_12">
      <!-- 0.28 -->
      <g transform="translate(28.334375 131.457984) scale(0.1 -0.1)">
       <defs>
        <path id="DejaVuSans-38" d="M 2034 2216 
Q 1584 2216 1326 1975 
Q 1069 1734 1069 1313 
Q 1069 891 1326 650 
Q 1584 409 2034 409 
Q 2484 409 2743 651 
Q 3003 894 3003 1313 
Q 3003 1734 2745 1975 
Q 2488 2216 2034 2216 
z
M 1403 2484 
Q 997 2584 770 2862 
Q 544 3141 544 3541 
Q 544 4100 942 4425 
Q 1341 4750 2034 4750 
Q 2731 4750 3128 4425 
Q 3525 4100 3525 3541 
Q 3525 3141 3298 2862 
Q 3072 2584 2669 2484 
Q 3125 2378 3379 2068 
Q 3634 1759 3634 1313 
Q 3634 634 3220 271 
Q 2806 -91 2034 -91 
Q 1263 -91 848 271 
Q 434 634 434 1313 
Q 434 1759 690 2068 
Q 947 2378 1403 2484 
z
M 1172 3481 
Q 1172 3119 1398 2916 
Q 1625 2713 2034 2713 
Q 2441 2713 2670 2916 
Q 2900 3119 2900 3481 
Q 2900 3844 2670 4047 
Q 2441 4250 2034 4250 
Q 1625 4250 1398 4047 
Q 1172 3844 1172 3481 
z
" transform="scale(0.015625)"/>
       </defs>
       <use xlink:href="#DejaVuSans-30"/>
       <use xlink:href="#DejaVuSans-2e" x="63.623047"/>
       <use xlink:href="#DejaVuSans-32" x="95.410156"/>
       <use xlink:href="#DejaVuSans-38" x="159.033203"/>
      </g>
     </g>
    </g>
    <g id="ytick_6">
     <g id="line2d_12">
      <g>
       <use xlink:href="#m33fa9a8cf1" x="57.6" y="91.490695" style="stroke: #000000; stroke-width: 0.8"/>
      </g>
     </g>
     <g id="text_13">
      <!-- 0.30 -->
      <g transform="translate(28.334375 95.289914) scale(0.1 -0.1)">
       <use xlink:href="#DejaVuSans-30"/>
       <use xlink:href="#DejaVuSans-2e" x="63.623047"/>
       <use xlink:href="#DejaVuSans-33" x="95.410156"/>
       <use xlink:href="#DejaVuSans-30" x="159.033203"/>
      </g>
     </g>
    </g>
    <g id="ytick_7">
     <g id="line2d_13">
      <g>
       <use xlink:href="#m33fa9a8cf1" x="57.6" y="55.322626" style="stroke: #000000; stroke-width: 0.8"/>
      </g>
     </g>
     <g id="text_14">
      <!-- 0.32 -->
      <g transform="translate(28.334375 59.121844) scale(0.1 -0.1)">
       <use xlink:href="#DejaVuSans-30"/>
       <use xlink:href="#DejaVuSans-2e" x="63.623047"/>
       <use xlink:href="#DejaVuSans-33" x="95.410156"/>
       <use xlink:href="#DejaVuSans-32" x="159.033203"/>
      </g>
     </g>
    </g>
    <g id="text_15">
     <!-- Loss -->
     <g transform="translate(22.254688 185.495187) rotate(-90) scale(0.1 -0.1)">
      <defs>
       <path id="DejaVuSans-4c" d="M 628 4666 
L 1259 4666 
L 1259 531 
L 3531 531 
L 3531 0 
L 628 0 
L 628 4666 
z
" transform="scale(0.015625)"/>
       <path id="DejaVuSans-73" d="M 2834 3397 
L 2834 2853 
Q 2591 2978 2328 3040 
Q 2066 3103 1784 3103 
Q 1356 3103 1142 2972 
Q 928 2841 928 2578 
Q 928 2378 1081 2264 
Q 1234 2150 1697 2047 
L 1894 2003 
Q 2506 1872 2764 1633 
Q 3022 1394 3022 966 
Q 3022 478 2636 193 
Q 2250 -91 1575 -91 
Q 1294 -91 989 -36 
Q 684 19 347 128 
L 347 722 
Q 666 556 975 473 
Q 1284 391 1588 391 
Q 1994 391 2212 530 
Q 2431 669 2431 922 
Q 2431 1156 2273 1281 
Q 2116 1406 1581 1522 
L 1381 1569 
Q 847 1681 609 1914 
Q 372 2147 372 2553 
Q 372 3047 722 3315 
Q 1072 3584 1716 3584 
Q 2034 3584 2315 3537 
Q 2597 3491 2834 3397 
z
" transform="scale(0.015625)"/>
      </defs>
      <use xlink:href="#DejaVuSans-4c"/>
      <use xlink:href="#DejaVuSans-6f" x="53.962891"/>
      <use xlink:href="#DejaVuSans-73" x="115.144531"/>
      <use xlink:href="#DejaVuSans-73" x="167.244141"/>
     </g>
    </g>
   </g>
   <g id="line2d_14">
    <path d="M 57.6 53.568 
L 63.36 214.701817 
L 69.12 227.612489 
L 74.88 231.060222 
L 80.64 233.200246 
L 86.4 234.980363 
L 92.16 236.39872 
L 97.92 237.6713 
L 103.68 238.831555 
L 109.44 239.844769 
L 115.2 240.787897 
L 120.96 241.741174 
L 126.72 242.547737 
L 132.48 243.240408 
L 138.24 243.993804 
L 144 244.627507 
L 149.76 245.222528 
L 155.52 245.76672 
L 161.28 246.36084 
L 167.04 246.905474 
L 172.8 247.361336 
L 178.56 247.827731 
L 184.32 248.226605 
L 190.08 248.704447 
L 195.84 249.086648 
L 201.6 249.492741 
L 207.36 249.854003 
L 213.12 250.243481 
L 218.88 250.561972 
L 224.64 250.911212 
L 230.4 251.153532 
L 236.16 251.515553 
L 241.92 251.785416 
L 247.68 252.105522 
L 253.44 252.369992 
L 259.2 252.666427 
L 264.96 252.932393 
L 270.72 253.093912 
L 276.48 253.281968 
L 282.24 253.618899 
L 288 253.826683 
L 293.76 254.057136 
L 299.52 254.246751 
L 305.28 254.446915 
L 311.04 254.691949 
L 316.8 254.903396 
L 322.56 255.030947 
L 328.32 255.259126 
L 334.08 255.441234 
L 339.84 255.554518 
L 345.6 255.839531 
L 351.36 255.960741 
L 357.12 256.209726 
L 362.88 256.293393 
L 368.64 256.419399 
L 374.4 256.657241 
L 380.16 256.758638 
L 385.92 256.894111 
L 391.68 257.103037 
L 397.44 257.216096 
L 403.2 257.386127 
L 408.96 257.474145 
L 414.72 257.643356 
L 420.48 257.828315 
L 426.24 257.8776 
L 432 258.028932 
L 437.76 258.095636 
L 443.52 258.261407 
L 449.28 258.390213 
L 455.04 258.511525 
L 460.8 258.648707 
L 461.8 258.662397 
" clip-path="url(#p60b41e9de9)" style="fill: none; stroke: #1f77b4; stroke-width: 1.5; stroke-linecap: square"/>
   </g>
   <g id="line2d_15">
    <path d="M 57.6 198.213489 
L 63.36 227.565861 
L 69.12 232.089073 
L 74.88 235.50385 
L 80.64 236.605578 
L 86.4 238.351827 
L 92.16 239.5965 
L 97.92 240.459184 
L 103.68 240.736076 
L 109.44 242.691016 
L 115.2 243.610703 
L 120.96 243.904581 
L 126.72 244.956684 
L 132.48 245.442972 
L 138.24 245.99617 
L 144 246.308929 
L 149.76 247.070776 
L 155.52 248.542626 
L 161.28 248.115921 
L 167.04 249.329029 
L 172.8 249.888634 
L 178.56 250.090755 
L 184.32 250.479001 
L 190.08 250.113821 
L 195.84 250.53491 
L 201.6 251.08083 
L 207.36 251.820836 
L 213.12 251.814557 
L 218.88 252.191104 
L 224.64 252.375748 
L 230.4 252.217164 
L 236.16 252.898216 
L 241.92 252.650467 
L 247.68 253.510298 
L 253.44 253.495229 
L 259.2 253.27802 
L 264.96 253.542968 
L 270.72 254.209628 
L 276.48 253.92413 
L 282.24 254.2283 
L 288 254.442998 
L 293.76 254.894974 
L 299.52 255.492547 
L 305.28 254.88346 
L 311.04 255.592663 
L 316.8 254.91376 
L 322.56 255.903672 
L 328.32 256.722927 
L 334.08 256.445292 
L 339.84 255.324223 
L 345.6 256.578207 
L 351.36 256.898028 
L 357.12 256.806748 
L 362.88 256.764655 
L 368.64 256.742948 
L 374.4 257.923049 
L 380.16 257.489461 
L 385.92 257.601157 
L 391.68 257.805205 
L 397.44 257.657919 
L 403.2 257.525313 
L 408.96 258.035531 
L 414.72 258.528137 
L 420.48 257.906155 
L 426.24 258.15162 
L 432 258.009038 
L 437.76 258.242425 
L 443.52 258.869497 
L 449.28 258.850273 
L 455.04 259.365188 
L 460.8 259.851348 
L 461.8 259.788662 
" clip-path="url(#p60b41e9de9)" style="fill: none; stroke: #ff7f0e; stroke-width: 1.5; stroke-linecap: square"/>
   </g>
   <g id="line2d_16">
    <path d="M 57.6 54.418199 
L 63.36 213.521463 
L 69.12 226.055247 
L 74.88 229.288876 
L 80.64 231.378801 
L 86.4 232.937421 
L 92.16 234.306201 
L 97.92 235.526509 
L 103.68 236.62637 
L 109.44 237.614722 
L 115.2 238.642387 
L 120.96 239.417191 
L 126.72 240.245824 
L 132.48 241.064901 
L 138.24 241.724697 
L 144 242.44209 
L 149.76 243.019044 
L 155.52 243.616376 
L 161.28 244.182251 
L 167.04 244.714074 
L 172.8 245.26661 
L 178.56 245.681969 
L 184.32 246.205831 
L 190.08 246.597147 
L 195.84 247.027903 
L 201.6 247.394365 
L 207.36 247.888791 
L 213.12 248.178259 
L 218.88 248.514752 
L 224.64 248.860122 
L 230.4 249.178011 
L 236.16 249.569595 
L 241.92 249.79161 
L 247.68 250.0638 
L 253.44 250.43293 
L 259.2 250.702521 
L 264.96 251.013731 
L 270.72 251.216266 
L 276.48 251.429473 
L 282.24 251.68343 
L 288 251.869221 
L 293.76 252.170576 
L 299.52 252.41553 
L 305.28 252.595835 
L 311.04 252.830386 
L 316.8 253.046277 
L 322.56 253.227079 
L 328.32 253.388801 
L 334.08 253.612163 
L 339.84 253.820415 
L 345.6 253.963344 
L 351.36 254.107923 
L 357.12 254.280877 
L 362.88 254.394651 
L 368.64 254.616006 
L 374.4 254.729487 
L 380.16 254.877279 
L 385.92 255.069411 
L 391.68 255.1773 
L 397.44 255.327609 
L 403.2 255.510508 
L 408.96 255.688495 
L 414.72 255.807954 
L 420.48 255.897051 
L 426.24 256.069516 
L 432 256.14576 
L 437.76 256.287526 
L 443.52 256.419649 
L 449.28 256.486907 
L 455.04 256.615924 
L 460.8 256.675709 
L 461.8 256.707087 
" clip-path="url(#p60b41e9de9)" style="fill: none; stroke: #2ca02c; stroke-width: 1.5; stroke-linecap: square"/>
   </g>
   <g id="line2d_17">
    <path d="M 57.6 197.255676 
L 63.36 227.095594 
L 69.12 231.66379 
L 74.88 234.047549 
L 80.64 235.333014 
L 86.4 236.961866 
L 92.16 237.652676 
L 97.92 238.58142 
L 103.68 239.618525 
L 109.44 239.719644 
L 115.2 241.4203 
L 120.96 241.650183 
L 126.72 243.305947 
L 132.48 242.913922 
L 138.24 244.14401 
L 144 245.066734 
L 149.76 245.053581 
L 155.52 246.551369 
L 161.28 245.540167 
L 167.04 246.809001 
L 172.8 247.204954 
L 178.56 247.409672 
L 184.32 248.526073 
L 190.08 248.446581 
L 195.84 248.5107 
L 201.6 248.844752 
L 207.36 249.933431 
L 213.12 249.693371 
L 218.88 249.535666 
L 224.64 250.569236 
L 230.4 250.051503 
L 236.16 251.426853 
L 241.92 251.675904 
L 247.68 251.502326 
L 253.44 251.536558 
L 259.2 252.179493 
L 264.96 251.876536 
L 270.72 252.139166 
L 276.48 253.134283 
L 282.24 252.320236 
L 288 252.76887 
L 293.76 253.221555 
L 299.52 253.832273 
L 305.28 254.009112 
L 311.04 254.190077 
L 316.8 253.394276 
L 322.56 253.604115 
L 328.32 254.693193 
L 334.08 254.421429 
L 339.84 255.200117 
L 345.6 254.78855 
L 351.36 255.103777 
L 357.12 256.015446 
L 362.88 255.553965 
L 368.64 255.675829 
L 374.4 254.935018 
L 380.16 256.114914 
L 385.92 255.334367 
L 391.68 255.91414 
L 397.44 255.625542 
L 403.2 256.679882 
L 408.96 256.701944 
L 414.72 256.430223 
L 420.48 256.618963 
L 426.24 256.971665 
L 432 256.66924 
L 437.76 257.472767 
L 443.52 256.230717 
L 449.28 257.473452 
L 455.04 257.425905 
L 460.8 257.585305 
L 461.8 257.595637 
" clip-path="url(#p60b41e9de9)" style="fill: none; stroke: #d62728; stroke-width: 1.5; stroke-linecap: square"/>
   </g>
   <g id="line2d_18">
    <path d="M 57.6 76.264006 
L 63.36 220.485695 
L 69.12 230.708626 
L 74.88 234.106912 
L 80.64 236.177285 
L 86.4 238.081005 
L 92.16 239.519166 
L 97.92 241.008999 
L 103.68 242.157813 
L 109.44 243.204846 
L 115.2 244.222433 
L 120.96 245.080574 
L 126.72 245.876368 
L 132.48 246.619945 
L 138.24 247.350151 
L 144 248.040705 
L 149.76 248.625271 
L 155.52 249.161292 
L 161.28 249.715782 
L 167.04 250.252886 
L 172.8 250.726411 
L 178.56 251.23305 
L 184.32 251.642387 
L 190.08 252.104766 
L 195.84 252.417772 
L 201.6 252.892943 
L 207.36 253.177695 
L 213.12 253.56174 
L 218.88 253.851648 
L 224.64 254.297698 
L 230.4 254.56567 
L 236.16 254.861379 
L 241.92 255.216186 
L 247.68 255.49204 
L 253.44 255.674205 
L 259.2 255.976526 
L 264.96 256.259994 
L 270.72 256.484944 
L 276.48 256.806503 
L 282.24 256.907209 
L 288 257.174828 
L 293.76 257.450718 
L 299.52 257.587629 
L 305.28 257.860117 
L 311.04 258.059153 
L 316.8 258.266585 
L 322.56 258.388733 
L 328.32 258.67815 
L 334.08 258.794157 
L 339.84 259.002824 
L 345.6 259.189141 
L 351.36 259.387949 
L 357.12 259.483694 
L 362.88 259.74803 
L 368.64 259.810495 
L 374.4 259.976964 
L 380.16 260.133757 
L 385.92 260.286888 
L 391.68 260.454792 
L 397.44 260.594208 
L 403.2 260.775482 
L 408.96 260.797198 
L 414.72 260.910923 
L 420.48 261.142909 
L 426.24 261.232367 
L 432 261.318924 
L 437.76 261.453969 
L 443.52 261.637015 
L 449.28 261.733068 
L 455.04 261.795811 
L 460.8 261.976433 
L 461.8 261.977243 
" clip-path="url(#p60b41e9de9)" style="fill: none; stroke: #9467bd; stroke-width: 1.5; stroke-linecap: square"/>
   </g>
   <g id="line2d_19">
    <path d="M 57.6 208.469129 
L 63.36 232.346436 
L 69.12 235.396066 
L 74.88 237.514151 
L 80.64 240.77776 
L 86.4 241.446025 
L 92.16 242.621151 
L 97.92 244.297668 
L 103.68 245.104799 
L 109.44 246.338346 
L 115.2 246.494597 
L 120.96 247.8389 
L 126.72 247.680038 
L 132.48 248.870865 
L 138.24 249.664223 
L 144 250.301261 
L 149.76 250.580303 
L 155.52 250.451185 
L 161.28 251.838982 
L 167.04 252.704844 
L 172.8 252.748045 
L 178.56 251.631832 
L 184.32 253.154617 
L 190.08 253.969958 
L 195.84 254.112507 
L 201.6 253.899109 
L 207.36 254.689859 
L 213.12 255.667833 
L 218.88 255.921281 
L 224.64 255.084521 
L 230.4 255.95018 
L 236.16 255.968615 
L 241.92 255.841259 
L 247.68 257.362971 
L 253.44 257.329401 
L 259.2 257.25858 
L 264.96 257.386212 
L 270.72 258.220455 
L 276.48 256.914595 
L 282.24 257.788866 
L 288 258.278126 
L 293.76 258.481229 
L 299.52 258.567089 
L 305.28 258.518862 
L 311.04 259.514274 
L 316.8 257.795835 
L 322.56 259.065317 
L 328.32 259.694139 
L 334.08 259.183024 
L 339.84 260.169631 
L 345.6 259.632965 
L 351.36 259.771501 
L 357.12 260.118309 
L 362.88 260.098439 
L 368.64 261.10822 
L 374.4 260.868381 
L 380.16 260.350537 
L 385.92 260.905728 
L 391.68 261.057565 
L 397.44 261.382086 
L 403.2 261.817103 
L 408.96 261.475153 
L 414.72 261.044859 
L 420.48 261.772055 
L 426.24 262.174317 
L 432 260.355922 
L 437.76 262.024883 
L 443.52 261.940252 
L 449.28 261.492565 
L 455.04 262.693398 
L 460.8 261.543032 
L 461.8 261.800298 
" clip-path="url(#p60b41e9de9)" style="fill: none; stroke: #8c564b; stroke-width: 1.5; stroke-linecap: square"/>
   </g>
   <g id="line2d_20">
    <path d="M 57.6 77.082882 
L 63.36 220.996323 
L 69.12 231.125757 
L 74.88 234.401391 
L 80.64 236.649216 
L 86.4 238.543627 
L 92.16 240.085966 
L 97.92 241.422658 
L 103.68 242.634919 
L 109.44 243.764373 
L 115.2 244.814577 
L 120.96 245.730295 
L 126.72 246.601268 
L 132.48 247.385402 
L 138.24 248.16774 
L 144 248.720063 
L 149.76 249.404309 
L 155.52 249.990894 
L 161.28 250.591067 
L 167.04 251.132709 
L 172.8 251.682942 
L 178.56 252.109107 
L 184.32 252.594716 
L 190.08 253.018204 
L 195.84 253.401966 
L 201.6 253.874345 
L 207.36 254.184512 
L 213.12 254.517648 
L 218.88 254.889268 
L 224.64 255.293302 
L 230.4 255.590702 
L 236.16 255.908559 
L 241.92 256.208576 
L 247.68 256.477549 
L 253.44 256.836366 
L 259.2 257.045154 
L 264.96 257.271727 
L 270.72 257.604024 
L 276.48 257.805793 
L 282.24 258.026895 
L 288 258.247226 
L 293.76 258.487817 
L 299.52 258.744617 
L 305.28 258.904873 
L 311.04 259.099899 
L 316.8 259.274809 
L 322.56 259.487548 
L 328.32 259.613179 
L 334.08 259.875407 
L 339.84 260.084669 
L 345.6 260.170364 
L 351.36 260.355716 
L 357.12 260.534005 
L 362.88 260.680899 
L 368.64 260.7876 
L 374.4 261.027647 
L 380.16 261.088319 
L 385.92 261.254569 
L 391.68 261.31446 
L 397.44 261.535109 
L 403.2 261.680264 
L 408.96 261.799643 
L 414.72 261.909747 
L 420.48 261.967442 
L 426.24 262.185089 
L 432 262.267372 
L 437.76 262.457362 
L 443.52 262.481307 
L 449.28 262.679985 
L 455.04 262.70981 
L 460.8 262.860699 
L 461.8 262.873217 
" clip-path="url(#p60b41e9de9)" style="fill: none; stroke: #e377c2; stroke-width: 1.5; stroke-linecap: square"/>
   </g>
   <g id="line2d_21">
    <path d="M 57.6 209.095981 
L 63.36 232.765817 
L 69.12 236.306701 
L 74.88 238.289439 
L 80.64 240.63474 
L 86.4 242.093034 
L 92.16 243.215116 
L 97.92 244.176675 
L 103.68 245.487343 
L 109.44 246.521135 
L 115.2 247.501953 
L 120.96 248.232652 
L 126.72 248.728739 
L 132.48 248.930437 
L 138.24 250.528562 
L 144 250.872904 
L 149.76 251.533482 
L 155.52 252.689649 
L 161.28 252.659809 
L 167.04 252.262973 
L 172.8 253.609606 
L 178.56 253.358048 
L 184.32 254.166884 
L 190.08 253.674008 
L 195.84 254.19182 
L 201.6 255.086614 
L 207.36 255.670677 
L 213.12 255.678792 
L 218.88 256.550164 
L 224.64 254.623364 
L 230.4 256.341231 
L 236.16 256.941087 
L 241.92 257.438858 
L 247.68 257.749732 
L 253.44 257.938154 
L 259.2 257.555434 
L 264.96 258.172577 
L 270.72 258.099032 
L 276.48 258.0149 
L 282.24 258.419356 
L 288 259.104936 
L 293.76 259.306718 
L 299.52 259.808715 
L 305.28 259.510619 
L 311.04 260.130267 
L 316.8 259.873407 
L 322.56 260.690694 
L 328.32 261.113952 
L 334.08 260.177179 
L 339.84 260.820563 
L 345.6 260.588327 
L 351.36 259.69304 
L 357.12 260.947709 
L 362.88 260.768247 
L 368.64 261.42118 
L 374.4 260.577932 
L 380.16 262.333205 
L 385.92 261.716515 
L 391.68 261.553524 
L 397.44 261.886889 
L 403.2 261.867754 
L 408.96 262.219862 
L 414.72 261.649899 
L 420.48 262.95143 
L 426.24 261.799254 
L 432 262.493361 
L 437.76 262.464769 
L 443.52 262.140481 
L 449.28 262.683234 
L 455.04 263.383741 
L 460.8 262.72044 
L 461.8 262.6846 
" clip-path="url(#p60b41e9de9)" style="fill: none; stroke: #7f7f7f; stroke-width: 1.5; stroke-linecap: square"/>
   </g>
   <g id="line2d_22">
    <path d="M 57.6 235.391882 
L 63.36 251.220813 
L 69.12 256.334278 
L 74.88 259.55957 
L 80.64 262.284006 
L 86.4 264.454545 
L 92.16 266.203073 
L 97.92 267.816676 
L 103.68 269.037782 
L 109.44 270.23132 
L 115.2 271.266233 
L 120.96 272.165084 
L 126.72 273.074915 
L 132.48 273.882776 
L 138.24 274.661501 
L 144 275.199767 
L 149.76 275.916184 
L 155.52 276.477975 
L 161.28 276.991546 
L 167.04 277.470969 
L 172.8 278.075971 
L 178.56 278.596066 
L 184.32 279.079674 
L 190.08 279.364458 
L 195.84 280.008296 
L 201.6 280.317332 
L 207.36 280.714414 
L 213.12 281.003108 
L 218.88 281.374905 
L 224.64 281.862056 
L 230.4 282.087558 
L 236.16 282.413532 
L 241.92 282.73074 
L 247.68 283.270156 
L 253.44 283.364245 
L 259.2 283.644651 
L 264.96 283.979982 
L 270.72 284.112851 
L 276.48 284.645799 
L 282.24 284.669599 
L 288 285.01128 
L 293.76 285.231693 
L 299.52 285.537462 
L 305.28 285.676957 
L 311.04 286.07232 
L 316.8 286.112653 
L 322.56 286.345922 
L 328.32 286.388368 
L 334.08 286.825603 
L 339.84 286.933217 
L 345.6 287.287539 
L 351.36 287.208066 
L 357.12 287.533028 
L 362.88 287.872963 
L 368.64 287.246316 
L 374.4 288.471224 
L 380.16 288.323142 
L 385.92 288.424213 
L 391.68 288.868154 
L 397.44 289.047704 
" clip-path="url(#p60b41e9de9)" style="fill: none; stroke: #bcbd22; stroke-width: 1.5; stroke-linecap: square"/>
   </g>
   <g id="line2d_23">
    <path d="M 57.6 249.0471 
L 63.36 255.716367 
L 69.12 255.032285 
L 74.88 258.936758 
L 80.64 258.676272 
L 86.4 261.417713 
L 92.16 262.109375 
L 97.92 263.451722 
L 103.68 265.451837 
L 109.44 263.367079 
L 115.2 265.712156 
L 120.96 265.815703 
L 126.72 266.796408 
L 132.48 267.35262 
L 138.24 266.544657 
L 144 266.834453 
L 149.76 266.983699 
L 155.52 267.347042 
L 161.28 267.474341 
L 167.04 267.753522 
L 172.8 267.97959 
L 178.56 266.387842 
L 184.32 267.117309 
L 190.08 269.08247 
L 195.84 268.729998 
L 201.6 268.401051 
L 207.36 268.52567 
L 213.12 268.254918 
L 218.88 267.983954 
L 224.64 268.445816 
L 230.4 269.914035 
L 236.16 269.45702 
L 241.92 269.549818 
L 247.68 268.34501 
L 253.44 269.364726 
L 259.2 268.832512 
L 264.96 268.833821 
L 270.72 270.117659 
L 276.48 269.972318 
L 282.24 269.775729 
L 288 269.888735 
L 293.76 269.829442 
L 299.52 270.249102 
L 305.28 269.511667 
L 311.04 269.942845 
L 316.8 270.248431 
L 322.56 270.12672 
L 328.32 270.955225 
L 334.08 270.330706 
L 339.84 271.034045 
L 345.6 269.976405 
L 351.36 270.630504 
L 357.12 269.178671 
L 362.88 270.141827 
L 368.64 270.524387 
L 374.4 269.814335 
L 380.16 269.37938 
L 385.92 269.62222 
L 391.68 270.464928 
L 397.44 269.017853 
" clip-path="url(#p60b41e9de9)" style="fill: none; stroke: #17becf; stroke-width: 1.5; stroke-linecap: square"/>
   </g>
   <g id="line2d_24">
    <path d="M 57.6 234.932418 
L 63.36 251.430136 
L 69.12 256.606587 
L 74.88 260.022036 
L 80.64 262.637123 
L 86.4 264.683773 
L 92.16 266.42372 
L 97.92 267.811087 
L 103.68 269.216901 
L 109.44 270.26858 
L 115.2 271.322857 
L 120.96 272.400478 
L 126.72 273.200414 
L 132.48 273.895703 
L 138.24 274.759468 
L 144 275.465796 
L 149.76 275.951855 
L 155.52 276.482817 
L 161.28 277.115944 
L 167.04 277.692929 
L 172.8 278.088557 
L 178.56 278.637857 
L 184.32 279.226449 
L 190.08 279.612141 
L 195.84 279.940632 
L 201.6 280.509151 
L 207.36 280.738722 
L 213.12 281.273935 
L 218.88 281.834887 
L 224.64 281.913861 
L 230.4 282.23465 
L 236.16 282.730012 
L 241.92 282.959784 
L 247.68 283.348044 
L 253.44 283.635858 
L 259.2 283.789979 
L 264.96 284.174848 
L 270.72 284.478725 
L 276.48 284.787903 
L 282.24 284.905751 
L 288 285.430905 
L 293.76 285.516415 
L 299.52 285.496579 
L 305.28 286.141514 
L 311.04 286.255621 
L 316.8 286.305323 
L 322.56 286.792258 
L 328.32 286.845361 
L 334.08 287.259295 
" clip-path="url(#p60b41e9de9)" style="fill: none; stroke: #1f77b4; stroke-width: 1.5; stroke-linecap: square"/>
   </g>
   <g id="line2d_25">
    <path d="M 57.6 246.322698 
L 63.36 253.531682 
L 69.12 256.526542 
L 74.88 257.660324 
L 80.64 259.004761 
L 86.4 261.689781 
L 92.16 261.526517 
L 97.92 263.560248 
L 103.68 262.188478 
L 109.44 263.918462 
L 115.2 265.531692 
L 120.96 265.804231 
L 126.72 265.32277 
L 132.48 264.025642 
L 138.24 266.276237 
L 144 266.545086 
L 149.76 266.221285 
L 155.52 268.211817 
L 161.28 266.045203 
L 167.04 267.879091 
L 172.8 267.962613 
L 178.56 267.184594 
L 184.32 267.998618 
L 190.08 268.467048 
L 195.84 267.379912 
L 201.6 268.375613 
L 207.36 267.537605 
L 213.12 269.062676 
L 218.88 269.114655 
L 224.64 269.037872 
L 230.4 268.990867 
L 236.16 268.262978 
L 241.92 269.11491 
L 247.68 268.36862 
L 253.44 267.543284 
L 259.2 268.969183 
L 264.96 269.11135 
L 270.72 269.897724 
L 276.48 270.718323 
L 282.24 269.419162 
L 288 267.616074 
L 293.76 268.842824 
L 299.52 268.641035 
L 305.28 269.508518 
L 311.04 269.349265 
L 316.8 270.13229 
L 322.56 269.269199 
L 328.32 268.909311 
L 334.08 268.067167 
" clip-path="url(#p60b41e9de9)" style="fill: none; stroke: #ff7f0e; stroke-width: 1.5; stroke-linecap: square"/>
   </g>
   <g id="line2d_26">
    <path d="M 57.6 237.556246 
L 63.36 254.203181 
L 69.12 259.469208 
L 74.88 262.932061 
L 80.64 265.511592 
L 86.4 267.654758 
L 92.16 269.425712 
L 97.92 270.787525 
L 103.68 272.194682 
L 109.44 273.283875 
L 115.2 274.309247 
L 120.96 275.379862 
L 126.72 276.275298 
L 132.48 277.106011 
L 138.24 277.544141 
L 144 278.389164 
L 149.76 278.94036 
L 155.52 279.653341 
L 161.28 280.187371 
L 167.04 280.994007 
L 172.8 281.405669 
L 178.56 281.927375 
L 184.32 282.432976 
L 190.08 282.918053 
L 195.84 283.274732 
L 201.6 283.746372 
L 207.36 284.152817 
L 213.12 284.674803 
L 218.88 284.927325 
L 224.64 285.279752 
L 230.4 285.573505 
L 236.16 285.917464 
L 241.92 286.485367 
L 247.68 286.709956 
L 253.44 287.062522 
L 259.2 287.356371 
L 264.96 287.668774 
L 270.72 287.884738 
L 276.48 288.117153 
L 282.24 288.51573 
L 288 288.705864 
L 293.76 288.895245 
L 299.52 289.185597 
L 305.28 289.411539 
L 311.04 289.695851 
L 316.8 290.159751 
L 322.56 290.258915 
L 328.32 290.4492 
L 334.08 290.723593 
L 339.84 290.911806 
L 345.6 291.043271 
L 351.36 291.402442 
L 357.12 291.48918 
L 362.88 291.587817 
L 368.64 292.073624 
L 374.4 292.215652 
L 380.16 292.272191 
L 385.92 292.515845 
L 391.68 292.87817 
L 397.44 292.847027 
L 403.2 293.290108 
L 408.96 293.353091 
L 414.72 293.586321 
L 420.48 293.861856 
L 426.24 293.875586 
L 432 294.080955 
L 437.76 294.415514 
L 443.52 294.624299 
L 449.28 294.824902 
L 455.04 294.773844 
L 460.8 295.235148 
L 461.8 295.272634 
" clip-path="url(#p60b41e9de9)" style="fill: none; stroke: #2ca02c; stroke-width: 1.5; stroke-linecap: square"/>
   </g>
   <g id="line2d_27">
    <path d="M 57.6 250.779471 
L 63.36 256.18224 
L 69.12 260.209522 
L 74.88 260.379021 
L 80.64 261.801925 
L 86.4 262.248284 
L 92.16 266.018631 
L 97.92 266.986998 
L 103.68 265.576544 
L 109.44 267.522753 
L 115.2 269.144168 
L 120.96 269.757492 
L 126.72 267.64381 
L 132.48 269.511225 
L 138.24 269.307319 
L 144 270.407699 
L 149.76 269.536866 
L 155.52 267.972653 
L 161.28 270.139778 
L 167.04 270.257335 
L 172.8 269.117593 
L 178.56 271.565614 
L 184.32 271.175752 
L 190.08 271.267047 
L 195.84 271.291729 
L 201.6 271.603034 
L 207.36 271.962762 
L 213.12 271.065648 
L 218.88 270.763027 
L 224.64 270.387695 
L 230.4 272.242187 
L 236.16 271.308877 
L 241.92 272.548052 
L 247.68 271.828862 
L 253.44 271.766627 
L 259.2 271.779378 
L 264.96 272.598475 
L 270.72 273.31803 
L 276.48 271.759975 
L 282.24 271.415931 
L 288 272.763394 
L 293.76 272.671341 
L 299.52 272.579378 
L 305.28 273.384058 
L 311.04 271.711894 
L 316.8 272.786768 
L 322.56 273.029338 
L 328.32 272.920712 
L 334.08 272.194202 
L 339.84 273.434543 
L 345.6 272.435144 
L 351.36 269.307503 
L 357.12 273.142171 
L 362.88 271.505519 
L 368.64 272.149835 
L 374.4 272.36849 
L 380.16 273.503901 
L 385.92 272.626575 
L 391.68 272.381047 
L 397.44 272.669783 
L 403.2 273.371887 
L 408.96 271.593911 
L 414.72 273.981967 
L 420.48 271.637133 
L 426.24 271.924193 
L 432 272.818207 
L 437.76 271.672134 
L 443.52 272.660153 
L 449.28 272.109752 
L 455.04 273.353785 
L 460.8 271.597875 
L 461.8 271.889768 
" clip-path="url(#p60b41e9de9)" style="fill: none; stroke: #d62728; stroke-width: 1.5; stroke-linecap: square"/>
   </g>
   <g id="line2d_28">
    <path d="M 57.6 237.887664 
L 63.36 254.654612 
L 69.12 259.983927 
L 74.88 263.29265 
L 80.64 265.844358 
L 86.4 267.881846 
L 92.16 269.617373 
L 97.92 271.198326 
L 103.68 272.553078 
L 109.44 273.596109 
L 115.2 274.713791 
L 120.96 275.773629 
L 126.72 276.69891 
L 132.48 277.453621 
L 138.24 278.162917 
L 144 279.029325 
L 149.76 279.633349 
L 155.52 280.447111 
L 161.28 281.008535 
L 167.04 281.617329 
L 172.8 282.212293 
L 178.56 282.712687 
L 184.32 283.351669 
L 190.08 283.740708 
L 195.84 284.230354 
L 201.6 284.754088 
L 207.36 285.217883 
L 213.12 285.570444 
L 218.88 285.972514 
L 224.64 286.36948 
L 230.4 286.815764 
L 236.16 287.176171 
L 241.92 287.396434 
L 247.68 287.826612 
L 253.44 288.142895 
L 259.2 288.424649 
L 264.96 288.816854 
L 270.72 288.992803 
L 276.48 289.397631 
L 282.24 289.676526 
L 288 290.122174 
L 293.76 290.41331 
L 299.52 290.636863 
L 305.28 290.897458 
L 311.04 291.187444 
L 316.8 291.277465 
L 322.56 291.726658 
L 328.32 292.020517 
L 334.08 292.115335 
L 339.84 292.484458 
L 345.6 292.627114 
L 351.36 292.964803 
L 357.12 293.157715 
L 362.88 293.284648 
L 368.64 293.583794 
L 374.4 293.869744 
L 380.16 294.036777 
L 385.92 294.206688 
L 391.68 294.551434 
L 397.44 294.652576 
L 403.2 294.822283 
L 408.96 294.839087 
L 414.72 295.304438 
" clip-path="url(#p60b41e9de9)" style="fill: none; stroke: #9467bd; stroke-width: 1.5; stroke-linecap: square"/>
   </g>
   <g id="line2d_29">
    <path d="M 57.6 252.191183 
L 63.36 256.734154 
L 69.12 259.830685 
L 74.88 262.807395 
L 80.64 263.958783 
L 86.4 264.029825 
L 92.16 264.134544 
L 97.92 266.92564 
L 103.68 267.209773 
L 109.44 266.907627 
L 115.2 269.099797 
L 120.96 268.291707 
L 126.72 269.194513 
L 132.48 269.945428 
L 138.24 269.526027 
L 144 269.302209 
L 149.76 270.305319 
L 155.52 269.679262 
L 161.28 271.186513 
L 167.04 271.053418 
L 172.8 271.99291 
L 178.56 270.57697 
L 184.32 272.359457 
L 190.08 269.91678 
L 195.84 271.867724 
L 201.6 272.38799 
L 207.36 272.436161 
L 213.12 271.418397 
L 218.88 271.664964 
L 224.64 272.347725 
L 230.4 272.266384 
L 236.16 272.80362 
L 241.92 272.850796 
L 247.68 271.756102 
L 253.44 273.143145 
L 259.2 272.448629 
L 264.96 272.431244 
L 270.72 272.92246 
L 276.48 272.20902 
L 282.24 272.608468 
L 288 272.205407 
L 293.76 271.9251 
L 299.52 273.101185 
L 305.28 273.471911 
L 311.04 272.372843 
L 316.8 271.957404 
L 322.56 272.32153 
L 328.32 271.719099 
L 334.08 272.856649 
L 339.84 273.749775 
L 345.6 271.947512 
L 351.36 272.346223 
L 357.12 273.810008 
L 362.88 272.186956 
L 368.64 271.837159 
L 374.4 273.435133 
L 380.16 273.031694 
L 385.92 272.961004 
L 391.68 271.767637 
L 397.44 272.906484 
L 403.2 270.766283 
L 408.96 271.067215 
L 414.72 272.176586 
" clip-path="url(#p60b41e9de9)" style="fill: none; stroke: #8c564b; stroke-width: 1.5; stroke-linecap: square"/>
   </g>
   <g id="patch_3">
    <path d="M 57.6 307.584 
L 57.6 41.472 
" style="fill: none; stroke: #000000; stroke-width: 0.8; stroke-linejoin: miter; stroke-linecap: square"/>
   </g>
   <g id="patch_4">
    <path d="M 414.72 307.584 
L 414.72 41.472 
" style="fill: none; stroke: #000000; stroke-width: 0.8; stroke-linejoin: miter; stroke-linecap: square"/>
   </g>
   <g id="patch_5">
    <path d="M 57.6 307.584 
L 414.72 307.584 
" style="fill: none; stroke: #000000; stroke-width: 0.8; stroke-linejoin: miter; stroke-linecap: square"/>
   </g>
   <g id="patch_6">
    <path d="M 57.6 41.472 
L 414.72 41.472 
" style="fill: none; stroke: #000000; stroke-width: 0.8; stroke-linejoin: miter; stroke-linecap: square"/>
   </g>
   <g id="legend_1">
    <g id="patch_7">
     <path d="M 352.445 284.322 
L 407.72 284.322 
Q 409.72 284.322 409.72 282.322 
L 409.72 48.472 
Q 409.72 46.472 407.72 46.472 
L 352.445 46.472 
Q 350.445 46.472 350.445 48.472 
L 350.445 282.322 
Q 350.445 284.322 352.445 284.322 
z
" style="fill: #ffffff; opacity: 0.8; stroke: #cccccc; stroke-linejoin: miter"/>
    </g>
    <g id="line2d_30">
     <path d="M 354.445 54.570437 
L 364.445 54.570437 
L 374.445 54.570437 
" style="fill: none; stroke: #1f77b4; stroke-width: 1.5; stroke-linecap: square"/>
    </g>
    <g id="text_16">
     <!-- train -->
     <g transform="translate(382.445 58.070437) scale(0.1 -0.1)">
      <defs>
       <path id="DejaVuSans-74" d="M 1172 4494 
L 1172 3500 
L 2356 3500 
L 2356 3053 
L 1172 3053 
L 1172 1153 
Q 1172 725 1289 603 
Q 1406 481 1766 481 
L 2356 481 
L 2356 0 
L 1766 0 
Q 1100 0 847 248 
Q 594 497 594 1153 
L 594 3053 
L 172 3053 
L 172 3500 
L 594 3500 
L 594 4494 
L 1172 4494 
z
" transform="scale(0.015625)"/>
       <path id="DejaVuSans-72" d="M 2631 2963 
Q 2534 3019 2420 3045 
Q 2306 3072 2169 3072 
Q 1681 3072 1420 2755 
Q 1159 2438 1159 1844 
L 1159 0 
L 581 0 
L 581 3500 
L 1159 3500 
L 1159 2956 
Q 1341 3275 1631 3429 
Q 1922 3584 2338 3584 
Q 2397 3584 2469 3576 
Q 2541 3569 2628 3553 
L 2631 2963 
z
" transform="scale(0.015625)"/>
       <path id="DejaVuSans-61" d="M 2194 1759 
Q 1497 1759 1228 1600 
Q 959 1441 959 1056 
Q 959 750 1161 570 
Q 1363 391 1709 391 
Q 2188 391 2477 730 
Q 2766 1069 2766 1631 
L 2766 1759 
L 2194 1759 
z
M 3341 1997 
L 3341 0 
L 2766 0 
L 2766 531 
Q 2569 213 2275 61 
Q 1981 -91 1556 -91 
Q 1019 -91 701 211 
Q 384 513 384 1019 
Q 384 1609 779 1909 
Q 1175 2209 1959 2209 
L 2766 2209 
L 2766 2266 
Q 2766 2663 2505 2880 
Q 2244 3097 1772 3097 
Q 1472 3097 1187 3025 
Q 903 2953 641 2809 
L 641 3341 
Q 956 3463 1253 3523 
Q 1550 3584 1831 3584 
Q 2591 3584 2966 3190 
Q 3341 2797 3341 1997 
z
" transform="scale(0.015625)"/>
       <path id="DejaVuSans-69" d="M 603 3500 
L 1178 3500 
L 1178 0 
L 603 0 
L 603 3500 
z
M 603 4863 
L 1178 4863 
L 1178 4134 
L 603 4134 
L 603 4863 
z
" transform="scale(0.015625)"/>
       <path id="DejaVuSans-6e" d="M 3513 2113 
L 3513 0 
L 2938 0 
L 2938 2094 
Q 2938 2591 2744 2837 
Q 2550 3084 2163 3084 
Q 1697 3084 1428 2787 
Q 1159 2491 1159 1978 
L 1159 0 
L 581 0 
L 581 3500 
L 1159 3500 
L 1159 2956 
Q 1366 3272 1645 3428 
Q 1925 3584 2291 3584 
Q 2894 3584 3203 3211 
Q 3513 2838 3513 2113 
z
" transform="scale(0.015625)"/>
      </defs>
      <use xlink:href="#DejaVuSans-74"/>
      <use xlink:href="#DejaVuSans-72" x="39.208984"/>
      <use xlink:href="#DejaVuSans-61" x="80.322266"/>
      <use xlink:href="#DejaVuSans-69" x="141.601562"/>
      <use xlink:href="#DejaVuSans-6e" x="169.384766"/>
     </g>
    </g>
    <g id="line2d_31">
     <path d="M 354.445 69.248562 
L 364.445 69.248562 
L 374.445 69.248562 
" style="fill: none; stroke: #ff7f0e; stroke-width: 1.5; stroke-linecap: square"/>
    </g>
    <g id="text_17">
     <!-- val -->
     <g transform="translate(382.445 72.748562) scale(0.1 -0.1)">
      <defs>
       <path id="DejaVuSans-76" d="M 191 3500 
L 800 3500 
L 1894 563 
L 2988 3500 
L 3597 3500 
L 2284 0 
L 1503 0 
L 191 3500 
z
" transform="scale(0.015625)"/>
       <path id="DejaVuSans-6c" d="M 603 4863 
L 1178 4863 
L 1178 0 
L 603 0 
L 603 4863 
z
" transform="scale(0.015625)"/>
      </defs>
      <use xlink:href="#DejaVuSans-76"/>
      <use xlink:href="#DejaVuSans-61" x="59.179688"/>
      <use xlink:href="#DejaVuSans-6c" x="120.458984"/>
     </g>
    </g>
    <g id="line2d_32">
     <path d="M 354.445 83.926688 
L 364.445 83.926688 
L 374.445 83.926688 
" style="fill: none; stroke: #2ca02c; stroke-width: 1.5; stroke-linecap: square"/>
    </g>
    <g id="text_18">
     <!-- train -->
     <g transform="translate(382.445 87.426688) scale(0.1 -0.1)">
      <use xlink:href="#DejaVuSans-74"/>
      <use xlink:href="#DejaVuSans-72" x="39.208984"/>
      <use xlink:href="#DejaVuSans-61" x="80.322266"/>
      <use xlink:href="#DejaVuSans-69" x="141.601562"/>
      <use xlink:href="#DejaVuSans-6e" x="169.384766"/>
     </g>
    </g>
    <g id="line2d_33">
     <path d="M 354.445 98.604812 
L 364.445 98.604812 
L 374.445 98.604812 
" style="fill: none; stroke: #d62728; stroke-width: 1.5; stroke-linecap: square"/>
    </g>
    <g id="text_19">
     <!-- val -->
     <g transform="translate(382.445 102.104812) scale(0.1 -0.1)">
      <use xlink:href="#DejaVuSans-76"/>
      <use xlink:href="#DejaVuSans-61" x="59.179688"/>
      <use xlink:href="#DejaVuSans-6c" x="120.458984"/>
     </g>
    </g>
    <g id="line2d_34">
     <path d="M 354.445 113.282937 
L 364.445 113.282937 
L 374.445 113.282937 
" style="fill: none; stroke: #9467bd; stroke-width: 1.5; stroke-linecap: square"/>
    </g>
    <g id="text_20">
     <!-- train -->
     <g transform="translate(382.445 116.782937) scale(0.1 -0.1)">
      <use xlink:href="#DejaVuSans-74"/>
      <use xlink:href="#DejaVuSans-72" x="39.208984"/>
      <use xlink:href="#DejaVuSans-61" x="80.322266"/>
      <use xlink:href="#DejaVuSans-69" x="141.601562"/>
      <use xlink:href="#DejaVuSans-6e" x="169.384766"/>
     </g>
    </g>
    <g id="line2d_35">
     <path d="M 354.445 127.961062 
L 364.445 127.961062 
L 374.445 127.961062 
" style="fill: none; stroke: #8c564b; stroke-width: 1.5; stroke-linecap: square"/>
    </g>
    <g id="text_21">
     <!-- val -->
     <g transform="translate(382.445 131.461062) scale(0.1 -0.1)">
      <use xlink:href="#DejaVuSans-76"/>
      <use xlink:href="#DejaVuSans-61" x="59.179688"/>
      <use xlink:href="#DejaVuSans-6c" x="120.458984"/>
     </g>
    </g>
    <g id="line2d_36">
     <path d="M 354.445 142.639187 
L 364.445 142.639187 
L 374.445 142.639187 
" style="fill: none; stroke: #e377c2; stroke-width: 1.5; stroke-linecap: square"/>
    </g>
    <g id="text_22">
     <!-- train -->
     <g transform="translate(382.445 146.139187) scale(0.1 -0.1)">
      <use xlink:href="#DejaVuSans-74"/>
      <use xlink:href="#DejaVuSans-72" x="39.208984"/>
      <use xlink:href="#DejaVuSans-61" x="80.322266"/>
      <use xlink:href="#DejaVuSans-69" x="141.601562"/>
      <use xlink:href="#DejaVuSans-6e" x="169.384766"/>
     </g>
    </g>
    <g id="line2d_37">
     <path d="M 354.445 157.317312 
L 364.445 157.317312 
L 374.445 157.317312 
" style="fill: none; stroke: #7f7f7f; stroke-width: 1.5; stroke-linecap: square"/>
    </g>
    <g id="text_23">
     <!-- val -->
     <g transform="translate(382.445 160.817312) scale(0.1 -0.1)">
      <use xlink:href="#DejaVuSans-76"/>
      <use xlink:href="#DejaVuSans-61" x="59.179688"/>
      <use xlink:href="#DejaVuSans-6c" x="120.458984"/>
     </g>
    </g>
    <g id="line2d_38">
     <path d="M 354.445 171.995437 
L 364.445 171.995437 
L 374.445 171.995437 
" style="fill: none; stroke: #bcbd22; stroke-width: 1.5; stroke-linecap: square"/>
    </g>
    <g id="text_24">
     <!-- train -->
     <g transform="translate(382.445 175.495437) scale(0.1 -0.1)">
      <use xlink:href="#DejaVuSans-74"/>
      <use xlink:href="#DejaVuSans-72" x="39.208984"/>
      <use xlink:href="#DejaVuSans-61" x="80.322266"/>
      <use xlink:href="#DejaVuSans-69" x="141.601562"/>
      <use xlink:href="#DejaVuSans-6e" x="169.384766"/>
     </g>
    </g>
    <g id="line2d_39">
     <path d="M 354.445 186.673562 
L 364.445 186.673562 
L 374.445 186.673562 
" style="fill: none; stroke: #17becf; stroke-width: 1.5; stroke-linecap: square"/>
    </g>
    <g id="text_25">
     <!-- val -->
     <g transform="translate(382.445 190.173562) scale(0.1 -0.1)">
      <use xlink:href="#DejaVuSans-76"/>
      <use xlink:href="#DejaVuSans-61" x="59.179688"/>
      <use xlink:href="#DejaVuSans-6c" x="120.458984"/>
     </g>
    </g>
    <g id="line2d_40">
     <path d="M 354.445 201.351687 
L 364.445 201.351687 
L 374.445 201.351687 
" style="fill: none; stroke: #1f77b4; stroke-width: 1.5; stroke-linecap: square"/>
    </g>
    <g id="text_26">
     <!-- train -->
     <g transform="translate(382.445 204.851687) scale(0.1 -0.1)">
      <use xlink:href="#DejaVuSans-74"/>
      <use xlink:href="#DejaVuSans-72" x="39.208984"/>
      <use xlink:href="#DejaVuSans-61" x="80.322266"/>
      <use xlink:href="#DejaVuSans-69" x="141.601562"/>
      <use xlink:href="#DejaVuSans-6e" x="169.384766"/>
     </g>
    </g>
    <g id="line2d_41">
     <path d="M 354.445 216.029812 
L 364.445 216.029812 
L 374.445 216.029812 
" style="fill: none; stroke: #ff7f0e; stroke-width: 1.5; stroke-linecap: square"/>
    </g>
    <g id="text_27">
     <!-- val -->
     <g transform="translate(382.445 219.529812) scale(0.1 -0.1)">
      <use xlink:href="#DejaVuSans-76"/>
      <use xlink:href="#DejaVuSans-61" x="59.179688"/>
      <use xlink:href="#DejaVuSans-6c" x="120.458984"/>
     </g>
    </g>
    <g id="line2d_42">
     <path d="M 354.445 230.707937 
L 364.445 230.707937 
L 374.445 230.707937 
" style="fill: none; stroke: #2ca02c; stroke-width: 1.5; stroke-linecap: square"/>
    </g>
    <g id="text_28">
     <!-- train -->
     <g transform="translate(382.445 234.207937) scale(0.1 -0.1)">
      <use xlink:href="#DejaVuSans-74"/>
      <use xlink:href="#DejaVuSans-72" x="39.208984"/>
      <use xlink:href="#DejaVuSans-61" x="80.322266"/>
      <use xlink:href="#DejaVuSans-69" x="141.601562"/>
      <use xlink:href="#DejaVuSans-6e" x="169.384766"/>
     </g>
    </g>
    <g id="line2d_43">
     <path d="M 354.445 245.386062 
L 364.445 245.386062 
L 374.445 245.386062 
" style="fill: none; stroke: #d62728; stroke-width: 1.5; stroke-linecap: square"/>
    </g>
    <g id="text_29">
     <!-- val -->
     <g transform="translate(382.445 248.886062) scale(0.1 -0.1)">
      <use xlink:href="#DejaVuSans-76"/>
      <use xlink:href="#DejaVuSans-61" x="59.179688"/>
      <use xlink:href="#DejaVuSans-6c" x="120.458984"/>
     </g>
    </g>
    <g id="line2d_44">
     <path d="M 354.445 260.064187 
L 364.445 260.064187 
L 374.445 260.064187 
" style="fill: none; stroke: #9467bd; stroke-width: 1.5; stroke-linecap: square"/>
    </g>
    <g id="text_30">
     <!-- train -->
     <g transform="translate(382.445 263.564187) scale(0.1 -0.1)">
      <use xlink:href="#DejaVuSans-74"/>
      <use xlink:href="#DejaVuSans-72" x="39.208984"/>
      <use xlink:href="#DejaVuSans-61" x="80.322266"/>
      <use xlink:href="#DejaVuSans-69" x="141.601562"/>
      <use xlink:href="#DejaVuSans-6e" x="169.384766"/>
     </g>
    </g>
    <g id="line2d_45">
     <path d="M 354.445 274.742312 
L 364.445 274.742312 
L 374.445 274.742312 
" style="fill: none; stroke: #8c564b; stroke-width: 1.5; stroke-linecap: square"/>
    </g>
    <g id="text_31">
     <!-- val -->
     <g transform="translate(382.445 278.242312) scale(0.1 -0.1)">
      <use xlink:href="#DejaVuSans-76"/>
      <use xlink:href="#DejaVuSans-61" x="59.179688"/>
      <use xlink:href="#DejaVuSans-6c" x="120.458984"/>
     </g>
    </g>
   </g>
  </g>
 </g>
 <defs>
  <clipPath id="p60b41e9de9">
   <rect x="57.6" y="41.472" width="357.12" height="266.112"/>
  </clipPath>
 </defs>
</svg>
