<?xml version="1.0" encoding="utf-8" standalone="no"?>
<!DOCTYPE svg PUBLIC "-//W3C//DTD SVG 1.1//EN"
  "http://www.w3.org/Graphics/SVG/1.1/DTD/svg11.dtd">
<svg xmlns:xlink="http://www.w3.org/1999/xlink" width="460.8pt" height="345.6pt" viewBox="0 0 460.8 345.6" xmlns="http://www.w3.org/2000/svg" version="1.1">
 <metadata>
  <rdf:RDF xmlns:dc="http://purl.org/dc/elements/1.1/" xmlns:cc="http://creativecommons.org/ns#" xmlns:rdf="http://www.w3.org/1999/02/22-rdf-syntax-ns#">
   <cc:Work>
    <dc:type rdf:resource="http://purl.org/dc/dcmitype/StillImage"/>
    <dc:date>2024-07-06T14:12:51.936848</dc:date>
    <dc:format>image/svg+xml</dc:format>
    <dc:creator>
     <cc:Agent>
      <dc:title>Matplotlib v3.7.4, https://matplotlib.org/</dc:title>
     </cc:Agent>
    </dc:creator>
   </cc:Work>
  </rdf:RDF>
 </metadata>
 <defs>
  <style type="text/css">*{stroke-linejoin: round; stroke-linecap: butt}</style>
 </defs>
 <g id="figure_1">
  <g id="patch_1">
   <path d="M 0 345.6 
L 460.8 345.6 
L 460.8 0 
L 0 0 
z
" style="fill: #ffffff"/>
  </g>
  <g id="axes_1">
   <g id="patch_2">
    <path d="M 57.6 307.584 
L 414.72 307.584 
L 414.72 41.472 
L 57.6 41.472 
z
" style="fill: #ffffff"/>
   </g>
   <g id="matplotlib.axis_1">
    <g id="xtick_1">
     <g id="line2d_1">
      <defs>
       <path id="m6898bd0140" d="M 0 0 
L 0 3.5 
" style="stroke: #000000; stroke-width: 0.8"/>
      </defs>
      <g>
       <use xlink:href="#m6898bd0140" x="127.471304" y="307.584" style="stroke: #000000; stroke-width: 0.8"/>
      </g>
     </g>
     <g id="text_1">
      <!-- 10 -->
      <g transform="translate(121.108804 322.182437) scale(0.1 -0.1)">
       <defs>
        <path id="DejaVuSans-31" d="M 794 531 
L 1825 531 
L 1825 4091 
L 703 3866 
L 703 4441 
L 1819 4666 
L 2450 4666 
L 2450 531 
L 3481 531 
L 3481 0 
L 794 0 
L 794 531 
z
" transform="scale(0.015625)"/>
        <path id="DejaVuSans-30" d="M 2034 4250 
Q 1547 4250 1301 3770 
Q 1056 3291 1056 2328 
Q 1056 1369 1301 889 
Q 1547 409 2034 409 
Q 2525 409 2770 889 
Q 3016 1369 3016 2328 
Q 3016 3291 2770 3770 
Q 2525 4250 2034 4250 
z
M 2034 4750 
Q 2819 4750 3233 4129 
Q 3647 3509 3647 2328 
Q 3647 1150 3233 529 
Q 2819 -91 2034 -91 
Q 1250 -91 836 529 
Q 422 1150 422 2328 
Q 422 3509 836 4129 
Q 1250 4750 2034 4750 
z
" transform="scale(0.015625)"/>
       </defs>
       <use xlink:href="#DejaVuSans-31"/>
       <use xlink:href="#DejaVuSans-30" x="63.623047"/>
      </g>
     </g>
    </g>
    <g id="xtick_2">
     <g id="line2d_2">
      <g>
       <use xlink:href="#m6898bd0140" x="205.106087" y="307.584" style="stroke: #000000; stroke-width: 0.8"/>
      </g>
     </g>
     <g id="text_2">
      <!-- 20 -->
      <g transform="translate(198.743587 322.182437) scale(0.1 -0.1)">
       <defs>
        <path id="DejaVuSans-32" d="M 1228 531 
L 3431 531 
L 3431 0 
L 469 0 
L 469 531 
Q 828 903 1448 1529 
Q 2069 2156 2228 2338 
Q 2531 2678 2651 2914 
Q 2772 3150 2772 3378 
Q 2772 3750 2511 3984 
Q 2250 4219 1831 4219 
Q 1534 4219 1204 4116 
Q 875 4013 500 3803 
L 500 4441 
Q 881 4594 1212 4672 
Q 1544 4750 1819 4750 
Q 2544 4750 2975 4387 
Q 3406 4025 3406 3419 
Q 3406 3131 3298 2873 
Q 3191 2616 2906 2266 
Q 2828 2175 2409 1742 
Q 1991 1309 1228 531 
z
" transform="scale(0.015625)"/>
       </defs>
       <use xlink:href="#DejaVuSans-32"/>
       <use xlink:href="#DejaVuSans-30" x="63.623047"/>
      </g>
     </g>
    </g>
    <g id="xtick_3">
     <g id="line2d_3">
      <g>
       <use xlink:href="#m6898bd0140" x="282.74087" y="307.584" style="stroke: #000000; stroke-width: 0.8"/>
      </g>
     </g>
     <g id="text_3">
      <!-- 30 -->
      <g transform="translate(276.37837 322.182437) scale(0.1 -0.1)">
       <defs>
        <path id="DejaVuSans-33" d="M 2597 2516 
Q 3050 2419 3304 2112 
Q 3559 1806 3559 1356 
Q 3559 666 3084 287 
Q 2609 -91 1734 -91 
Q 1441 -91 1130 -33 
Q 819 25 488 141 
L 488 750 
Q 750 597 1062 519 
Q 1375 441 1716 441 
Q 2309 441 2620 675 
Q 2931 909 2931 1356 
Q 2931 1769 2642 2001 
Q 2353 2234 1838 2234 
L 1294 2234 
L 1294 2753 
L 1863 2753 
Q 2328 2753 2575 2939 
Q 2822 3125 2822 3475 
Q 2822 3834 2567 4026 
Q 2313 4219 1838 4219 
Q 1578 4219 1281 4162 
Q 984 4106 628 3988 
L 628 4550 
Q 988 4650 1302 4700 
Q 1616 4750 1894 4750 
Q 2613 4750 3031 4423 
Q 3450 4097 3450 3541 
Q 3450 3153 3228 2886 
Q 3006 2619 2597 2516 
z
" transform="scale(0.015625)"/>
       </defs>
       <use xlink:href="#DejaVuSans-33"/>
       <use xlink:href="#DejaVuSans-30" x="63.623047"/>
      </g>
     </g>
    </g>
    <g id="xtick_4">
     <g id="line2d_4">
      <g>
       <use xlink:href="#m6898bd0140" x="360.375652" y="307.584" style="stroke: #000000; stroke-width: 0.8"/>
      </g>
     </g>
     <g id="text_4">
      <!-- 40 -->
      <g transform="translate(354.013152 322.182437) scale(0.1 -0.1)">
       <defs>
        <path id="DejaVuSans-34" d="M 2419 4116 
L 825 1625 
L 2419 1625 
L 2419 4116 
z
M 2253 4666 
L 3047 4666 
L 3047 1625 
L 3713 1625 
L 3713 1100 
L 3047 1100 
L 3047 0 
L 2419 0 
L 2419 1100 
L 313 1100 
L 313 1709 
L 2253 4666 
z
" transform="scale(0.015625)"/>
       </defs>
       <use xlink:href="#DejaVuSans-34"/>
       <use xlink:href="#DejaVuSans-30" x="63.623047"/>
      </g>
     </g>
    </g>
    <g id="text_5">
     <!-- Epoch -->
     <g transform="translate(220.849063 335.860562) scale(0.1 -0.1)">
      <defs>
       <path id="DejaVuSans-45" d="M 628 4666 
L 3578 4666 
L 3578 4134 
L 1259 4134 
L 1259 2753 
L 3481 2753 
L 3481 2222 
L 1259 2222 
L 1259 531 
L 3634 531 
L 3634 0 
L 628 0 
L 628 4666 
z
" transform="scale(0.015625)"/>
       <path id="DejaVuSans-70" d="M 1159 525 
L 1159 -1331 
L 581 -1331 
L 581 3500 
L 1159 3500 
L 1159 2969 
Q 1341 3281 1617 3432 
Q 1894 3584 2278 3584 
Q 2916 3584 3314 3078 
Q 3713 2572 3713 1747 
Q 3713 922 3314 415 
Q 2916 -91 2278 -91 
Q 1894 -91 1617 61 
Q 1341 213 1159 525 
z
M 3116 1747 
Q 3116 2381 2855 2742 
Q 2594 3103 2138 3103 
Q 1681 3103 1420 2742 
Q 1159 2381 1159 1747 
Q 1159 1113 1420 752 
Q 1681 391 2138 391 
Q 2594 391 2855 752 
Q 3116 1113 3116 1747 
z
" transform="scale(0.015625)"/>
       <path id="DejaVuSans-6f" d="M 1959 3097 
Q 1497 3097 1228 2736 
Q 959 2375 959 1747 
Q 959 1119 1226 758 
Q 1494 397 1959 397 
Q 2419 397 2687 759 
Q 2956 1122 2956 1747 
Q 2956 2369 2687 2733 
Q 2419 3097 1959 3097 
z
M 1959 3584 
Q 2709 3584 3137 3096 
Q 3566 2609 3566 1747 
Q 3566 888 3137 398 
Q 2709 -91 1959 -91 
Q 1206 -91 779 398 
Q 353 888 353 1747 
Q 353 2609 779 3096 
Q 1206 3584 1959 3584 
z
" transform="scale(0.015625)"/>
       <path id="DejaVuSans-63" d="M 3122 3366 
L 3122 2828 
Q 2878 2963 2633 3030 
Q 2388 3097 2138 3097 
Q 1578 3097 1268 2742 
Q 959 2388 959 1747 
Q 959 1106 1268 751 
Q 1578 397 2138 397 
Q 2388 397 2633 464 
Q 2878 531 3122 666 
L 3122 134 
Q 2881 22 2623 -34 
Q 2366 -91 2075 -91 
Q 1284 -91 818 406 
Q 353 903 353 1747 
Q 353 2603 823 3093 
Q 1294 3584 2113 3584 
Q 2378 3584 2631 3529 
Q 2884 3475 3122 3366 
z
" transform="scale(0.015625)"/>
       <path id="DejaVuSans-68" d="M 3513 2113 
L 3513 0 
L 2938 0 
L 2938 2094 
Q 2938 2591 2744 2837 
Q 2550 3084 2163 3084 
Q 1697 3084 1428 2787 
Q 1159 2491 1159 1978 
L 1159 0 
L 581 0 
L 581 4863 
L 1159 4863 
L 1159 2956 
Q 1366 3272 1645 3428 
Q 1925 3584 2291 3584 
Q 2894 3584 3203 3211 
Q 3513 2838 3513 2113 
z
" transform="scale(0.015625)"/>
      </defs>
      <use xlink:href="#DejaVuSans-45"/>
      <use xlink:href="#DejaVuSans-70" x="63.183594"/>
      <use xlink:href="#DejaVuSans-6f" x="126.660156"/>
      <use xlink:href="#DejaVuSans-63" x="187.841797"/>
      <use xlink:href="#DejaVuSans-68" x="242.822266"/>
     </g>
    </g>
   </g>
   <g id="matplotlib.axis_2">
    <g id="ytick_1">
     <g id="line2d_5">
      <defs>
       <path id="m7ee4c5bce5" d="M 0 0 
L -3.5 0 
" style="stroke: #000000; stroke-width: 0.8"/>
      </defs>
      <g>
       <use xlink:href="#m7ee4c5bce5" x="57.6" y="290.889332" style="stroke: #000000; stroke-width: 0.8"/>
      </g>
     </g>
     <g id="text_6">
      <!-- 5.40 -->
      <g transform="translate(28.334375 294.688551) scale(0.1 -0.1)">
       <defs>
        <path id="DejaVuSans-35" d="M 691 4666 
L 3169 4666 
L 3169 4134 
L 1269 4134 
L 1269 2991 
Q 1406 3038 1543 3061 
Q 1681 3084 1819 3084 
Q 2600 3084 3056 2656 
Q 3513 2228 3513 1497 
Q 3513 744 3044 326 
Q 2575 -91 1722 -91 
Q 1428 -91 1123 -41 
Q 819 9 494 109 
L 494 744 
Q 775 591 1075 516 
Q 1375 441 1709 441 
Q 2250 441 2565 725 
Q 2881 1009 2881 1497 
Q 2881 1984 2565 2268 
Q 2250 2553 1709 2553 
Q 1456 2553 1204 2497 
Q 953 2441 691 2322 
L 691 4666 
z
" transform="scale(0.015625)"/>
        <path id="DejaVuSans-2e" d="M 684 794 
L 1344 794 
L 1344 0 
L 684 0 
L 684 794 
z
" transform="scale(0.015625)"/>
       </defs>
       <use xlink:href="#DejaVuSans-35"/>
       <use xlink:href="#DejaVuSans-2e" x="63.623047"/>
       <use xlink:href="#DejaVuSans-34" x="95.410156"/>
       <use xlink:href="#DejaVuSans-30" x="159.033203"/>
      </g>
     </g>
    </g>
    <g id="ytick_2">
     <g id="line2d_6">
      <g>
       <use xlink:href="#m7ee4c5bce5" x="57.6" y="254.980706" style="stroke: #000000; stroke-width: 0.8"/>
      </g>
     </g>
     <g id="text_7">
      <!-- 5.45 -->
      <g transform="translate(28.334375 258.779925) scale(0.1 -0.1)">
       <use xlink:href="#DejaVuSans-35"/>
       <use xlink:href="#DejaVuSans-2e" x="63.623047"/>
       <use xlink:href="#DejaVuSans-34" x="95.410156"/>
       <use xlink:href="#DejaVuSans-35" x="159.033203"/>
      </g>
     </g>
    </g>
    <g id="ytick_3">
     <g id="line2d_7">
      <g>
       <use xlink:href="#m7ee4c5bce5" x="57.6" y="219.07208" style="stroke: #000000; stroke-width: 0.8"/>
      </g>
     </g>
     <g id="text_8">
      <!-- 5.50 -->
      <g transform="translate(28.334375 222.871299) scale(0.1 -0.1)">
       <use xlink:href="#DejaVuSans-35"/>
       <use xlink:href="#DejaVuSans-2e" x="63.623047"/>
       <use xlink:href="#DejaVuSans-35" x="95.410156"/>
       <use xlink:href="#DejaVuSans-30" x="159.033203"/>
      </g>
     </g>
    </g>
    <g id="ytick_4">
     <g id="line2d_8">
      <g>
       <use xlink:href="#m7ee4c5bce5" x="57.6" y="183.163455" style="stroke: #000000; stroke-width: 0.8"/>
      </g>
     </g>
     <g id="text_9">
      <!-- 5.55 -->
      <g transform="translate(28.334375 186.962673) scale(0.1 -0.1)">
       <use xlink:href="#DejaVuSans-35"/>
       <use xlink:href="#DejaVuSans-2e" x="63.623047"/>
       <use xlink:href="#DejaVuSans-35" x="95.410156"/>
       <use xlink:href="#DejaVuSans-35" x="159.033203"/>
      </g>
     </g>
    </g>
    <g id="ytick_5">
     <g id="line2d_9">
      <g>
       <use xlink:href="#m7ee4c5bce5" x="57.6" y="147.254829" style="stroke: #000000; stroke-width: 0.8"/>
      </g>
     </g>
     <g id="text_10">
      <!-- 5.60 -->
      <g transform="translate(28.334375 151.054048) scale(0.1 -0.1)">
       <defs>
        <path id="DejaVuSans-36" d="M 2113 2584 
Q 1688 2584 1439 2293 
Q 1191 2003 1191 1497 
Q 1191 994 1439 701 
Q 1688 409 2113 409 
Q 2538 409 2786 701 
Q 3034 994 3034 1497 
Q 3034 2003 2786 2293 
Q 2538 2584 2113 2584 
z
M 3366 4563 
L 3366 3988 
Q 3128 4100 2886 4159 
Q 2644 4219 2406 4219 
Q 1781 4219 1451 3797 
Q 1122 3375 1075 2522 
Q 1259 2794 1537 2939 
Q 1816 3084 2150 3084 
Q 2853 3084 3261 2657 
Q 3669 2231 3669 1497 
Q 3669 778 3244 343 
Q 2819 -91 2113 -91 
Q 1303 -91 875 529 
Q 447 1150 447 2328 
Q 447 3434 972 4092 
Q 1497 4750 2381 4750 
Q 2619 4750 2861 4703 
Q 3103 4656 3366 4563 
z
" transform="scale(0.015625)"/>
       </defs>
       <use xlink:href="#DejaVuSans-35"/>
       <use xlink:href="#DejaVuSans-2e" x="63.623047"/>
       <use xlink:href="#DejaVuSans-36" x="95.410156"/>
       <use xlink:href="#DejaVuSans-30" x="159.033203"/>
      </g>
     </g>
    </g>
    <g id="ytick_6">
     <g id="line2d_10">
      <g>
       <use xlink:href="#m7ee4c5bce5" x="57.6" y="111.346203" style="stroke: #000000; stroke-width: 0.8"/>
      </g>
     </g>
     <g id="text_11">
      <!-- 5.65 -->
      <g transform="translate(28.334375 115.145422) scale(0.1 -0.1)">
       <use xlink:href="#DejaVuSans-35"/>
       <use xlink:href="#DejaVuSans-2e" x="63.623047"/>
       <use xlink:href="#DejaVuSans-36" x="95.410156"/>
       <use xlink:href="#DejaVuSans-35" x="159.033203"/>
      </g>
     </g>
    </g>
    <g id="ytick_7">
     <g id="line2d_11">
      <g>
       <use xlink:href="#m7ee4c5bce5" x="57.6" y="75.437577" style="stroke: #000000; stroke-width: 0.8"/>
      </g>
     </g>
     <g id="text_12">
      <!-- 5.70 -->
      <g transform="translate(28.334375 79.236796) scale(0.1 -0.1)">
       <defs>
        <path id="DejaVuSans-37" d="M 525 4666 
L 3525 4666 
L 3525 4397 
L 1831 0 
L 1172 0 
L 2766 4134 
L 525 4134 
L 525 4666 
z
" transform="scale(0.015625)"/>
       </defs>
       <use xlink:href="#DejaVuSans-35"/>
       <use xlink:href="#DejaVuSans-2e" x="63.623047"/>
       <use xlink:href="#DejaVuSans-37" x="95.410156"/>
       <use xlink:href="#DejaVuSans-30" x="159.033203"/>
      </g>
     </g>
    </g>
    <g id="text_13">
     <!-- Loss -->
     <g transform="translate(22.254688 185.495187) rotate(-90) scale(0.1 -0.1)">
      <defs>
       <path id="DejaVuSans-4c" d="M 628 4666 
L 1259 4666 
L 1259 531 
L 3531 531 
L 3531 0 
L 628 0 
L 628 4666 
z
" transform="scale(0.015625)"/>
       <path id="DejaVuSans-73" d="M 2834 3397 
L 2834 2853 
Q 2591 2978 2328 3040 
Q 2066 3103 1784 3103 
Q 1356 3103 1142 2972 
Q 928 2841 928 2578 
Q 928 2378 1081 2264 
Q 1234 2150 1697 2047 
L 1894 2003 
Q 2506 1872 2764 1633 
Q 3022 1394 3022 966 
Q 3022 478 2636 193 
Q 2250 -91 1575 -91 
Q 1294 -91 989 -36 
Q 684 19 347 128 
L 347 722 
Q 666 556 975 473 
Q 1284 391 1588 391 
Q 1994 391 2212 530 
Q 2431 669 2431 922 
Q 2431 1156 2273 1281 
Q 2116 1406 1581 1522 
L 1381 1569 
Q 847 1681 609 1914 
Q 372 2147 372 2553 
Q 372 3047 722 3315 
Q 1072 3584 1716 3584 
Q 2034 3584 2315 3537 
Q 2597 3491 2834 3397 
z
" transform="scale(0.015625)"/>
      </defs>
      <use xlink:href="#DejaVuSans-4c"/>
      <use xlink:href="#DejaVuSans-6f" x="53.962891"/>
      <use xlink:href="#DejaVuSans-73" x="115.144531"/>
      <use xlink:href="#DejaVuSans-73" x="167.244141"/>
     </g>
    </g>
   </g>
   <g id="line2d_12">
    <path d="M 57.6 55.230188 
L 65.363478 120.069914 
L 73.126957 143.494201 
L 80.890435 157.073517 
L 88.653913 168.562513 
L 96.417391 176.747022 
L 104.18087 184.707653 
L 111.944348 190.67948 
L 119.707826 196.851433 
L 127.471304 202.147627 
L 135.234783 206.342779 
L 142.998261 210.775601 
L 150.761739 213.87918 
L 158.525217 218.547256 
L 166.288696 220.239011 
L 174.052174 224.430567 
L 181.815652 227.029297 
L 189.57913 229.684876 
L 197.342609 232.727382 
L 205.106087 234.952172 
L 212.869565 237.840378 
L 220.633043 240.707195 
L 228.396522 241.021928 
L 236.16 243.389667 
L 243.923478 245.669471 
L 251.686957 247.080631 
L 259.450435 248.991791 
L 267.213913 250.955223 
L 274.977391 251.733114 
L 282.74087 254.321696 
L 290.504348 256.563688 
L 298.267826 257.827292 
L 306.031304 258.335994 
L 313.794783 259.598659 
L 321.558261 261.285966 
L 329.321739 263.265519 
L 337.085217 264.323926 
L 344.848696 265.293955 
L 352.612174 266.117305 
L 360.375652 267.568236 
L 368.13913 268.417946 
L 375.902609 269.58858 
L 383.666087 269.852295 
L 391.429565 271.873963 
L 399.193043 273.232173 
L 406.956522 274.279074 
L 414.72 275.064832 
L 422.483478 276.544771 
L 430.246957 276.748475 
L 438.010435 278.200473 
L 445.773913 279.49816 
L 453.537391 279.617299 
L 461.30087 280.963893 
" clip-path="url(#pe306ebc997)" style="fill: none; stroke: #1f77b4; stroke-width: 1.5; stroke-linecap: square"/>
   </g>
   <g id="line2d_13">
    <path d="M 57.6 126.513901 
L 65.363478 139.973887 
L 73.126957 155.221647 
L 80.890435 166.12699 
L 88.653913 170.873065 
L 96.417391 176.01084 
L 104.18087 180.746367 
L 111.944348 183.282112 
L 119.707826 184.842783 
L 127.471304 187.444103 
L 135.234783 195.819655 
L 142.998261 194.118558 
L 150.761739 196.71975 
L 158.525217 201.577099 
L 166.288696 195.31798 
L 174.052174 206.242871 
L 181.815652 194.993299 
L 189.57913 199.239565 
L 197.342609 202.159485 
L 205.106087 198.391132 
L 212.869565 209.113635 
L 220.633043 195.304497 
L 228.396522 207.460762 
L 236.16 206.494967 
L 243.923478 199.009613 
L 251.686957 203.031032 
L 259.450435 210.261423 
L 267.213913 204.004901 
L 274.977391 210.237873 
L 282.74087 208.889826 
L 290.504348 210.971377 
L 298.267826 212.913417 
L 306.031304 207.752373 
L 313.794783 204.0261 
L 321.558261 203.632176 
L 329.321739 207.956417 
L 337.085217 205.978356 
L 344.848696 205.236551 
L 352.612174 212.931314 
L 360.375652 213.809882 
L 368.13913 207.3507 
L 375.902609 213.175239 
L 383.666087 213.976821 
L 391.429565 207.055495 
L 399.193043 206.864385 
L 406.956522 211.154588 
L 414.72 212.959523 
L 422.483478 205.793241 
L 430.246957 209.525044 
L 438.010435 213.355766 
L 445.773913 206.519869 
L 453.537391 199.859202 
L 461.30087 213.047052 
" clip-path="url(#pe306ebc997)" style="fill: none; stroke: #ff7f0e; stroke-width: 1.5; stroke-linecap: square"/>
   </g>
   <g id="line2d_14">
    <path d="M 57.6 53.568 
L 65.363478 121.582937 
L 73.126957 144.244427 
L 80.890435 159.441384 
L 88.653913 169.592242 
L 96.417391 179.256471 
L 104.18087 185.680105 
L 111.944348 192.274568 
L 119.707826 198.089085 
L 127.471304 202.974061 
L 135.234783 207.481843 
L 142.998261 211.881551 
L 150.761739 215.035313 
L 158.525217 217.756846 
L 166.288696 221.392822 
L 174.052174 224.197879 
L 181.815652 225.970163 
L 189.57913 229.646871 
L 197.342609 232.200512 
L 205.106087 233.407679 
L 212.869565 235.991114 
L 220.633043 238.076095 
L 228.396522 241.084008 
L 236.16 242.018577 
L 243.923478 243.733502 
L 251.686957 246.520426 
L 259.450435 247.413106 
L 267.213913 249.788968 
L 274.977391 250.938339 
L 282.74087 252.09865 
L 290.504348 253.170376 
L 298.267826 254.398369 
L 306.031304 256.654874 
L 313.794783 258.351531 
L 321.558261 259.439193 
L 329.321739 260.729085 
L 337.085217 261.653517 
L 344.848696 262.977193 
L 352.612174 264.117551 
L 360.375652 263.526648 
L 368.13913 266.616521 
L 375.902609 266.883904 
L 383.666087 267.673412 
L 391.429565 269.138967 
L 399.193043 269.649254 
L 406.956522 272.071094 
L 414.72 271.939556 
L 422.483478 272.943504 
L 430.246957 274.007547 
L 438.010435 274.945427 
L 445.773913 276.304928 
L 453.537391 276.467025 
L 461.30087 277.556082 
L 461.8 277.55522 
" clip-path="url(#pe306ebc997)" style="fill: none; stroke: #2ca02c; stroke-width: 1.5; stroke-linecap: square"/>
   </g>
   <g id="line2d_15">
    <path d="M 57.6 124.978939 
L 65.363478 153.000296 
L 73.126957 162.159159 
L 80.890435 177.032005 
L 88.653913 175.787848 
L 96.417391 179.768502 
L 104.18087 180.146558 
L 111.944348 186.722149 
L 119.707826 185.301565 
L 127.471304 190.978551 
L 135.234783 202.573315 
L 142.998261 197.649574 
L 150.761739 198.824536 
L 158.525217 198.122688 
L 166.288696 199.629235 
L 174.052174 200.694897 
L 181.815652 203.793494 
L 189.57913 201.653075 
L 197.342609 184.866562 
L 205.106087 205.231673 
L 212.869565 208.345208 
L 220.633043 210.588661 
L 228.396522 206.140795 
L 236.16 206.199294 
L 243.923478 205.882366 
L 251.686957 203.506441 
L 259.450435 203.917416 
L 267.213913 204.760801 
L 274.977391 212.175517 
L 282.74087 211.172137 
L 290.504348 209.199718 
L 298.267826 204.170495 
L 306.031304 208.711429 
L 313.794783 211.916643 
L 321.558261 209.125929 
L 329.321739 215.975871 
L 337.085217 213.360164 
L 344.848696 207.400302 
L 352.612174 212.230914 
L 360.375652 203.435403 
L 368.13913 205.937752 
L 375.902609 208.739522 
L 383.666087 211.816654 
L 391.429565 210.504951 
L 399.193043 206.451571 
L 406.956522 216.325765 
L 414.72 215.354118 
L 422.483478 211.771273 
L 430.246957 203.991351 
L 438.010435 199.719887 
L 445.773913 212.949353 
L 453.537391 214.88879 
L 461.30087 206.162648 
L 461.8 206.686549 
" clip-path="url(#pe306ebc997)" style="fill: none; stroke: #d62728; stroke-width: 1.5; stroke-linecap: square"/>
   </g>
   <g id="line2d_16">
    <path d="M 57.6 62.195388 
L 65.363478 131.613176 
L 73.126957 155.526227 
L 80.890435 171.379644 
L 88.653913 181.952457 
L 96.417391 191.977916 
L 104.18087 199.144533 
L 111.944348 205.637952 
L 119.707826 211.792058 
L 127.471304 216.468017 
L 135.234783 220.707302 
L 142.998261 226.026836 
L 150.761739 229.890589 
L 158.525217 233.486686 
L 166.288696 236.41605 
L 174.052174 239.386781 
L 181.815652 242.00266 
L 189.57913 246.137602 
L 197.342609 247.704306 
L 205.106087 250.249926 
L 212.869565 253.65884 
L 220.633043 255.371477 
L 228.396522 257.347244 
L 236.16 259.378037 
L 243.923478 261.877559 
L 251.686957 263.503522 
L 259.450435 265.603087 
L 267.213913 267.421922 
L 274.977391 269.148026 
L 282.74087 271.011381 
L 290.504348 272.489909 
L 298.267826 273.989402 
L 306.031304 275.276178 
L 313.794783 276.91908 
L 321.558261 278.923407 
L 329.321739 279.475832 
" clip-path="url(#pe306ebc997)" style="fill: none; stroke: #9467bd; stroke-width: 1.5; stroke-linecap: square"/>
   </g>
   <g id="line2d_17">
    <path d="M 57.6 138.154273 
L 65.363478 159.355763 
L 73.126957 172.596878 
L 80.890435 184.768962 
L 88.653913 185.77375 
L 96.417391 195.41783 
L 104.18087 197.155523 
L 111.944348 198.008868 
L 119.707826 202.807904 
L 127.471304 208.512829 
L 135.234783 202.26067 
L 142.998261 207.318065 
L 150.761739 210.764147 
L 158.525217 212.815811 
L 166.288696 215.863868 
L 174.052174 214.789211 
L 181.815652 217.166551 
L 189.57913 210.713667 
L 197.342609 215.555531 
L 205.106087 218.863512 
L 212.869565 219.608081 
L 220.633043 218.612292 
L 228.396522 209.732065 
L 236.16 222.275198 
L 243.923478 217.331919 
L 251.686957 223.186162 
L 259.450435 214.811671 
L 267.213913 219.886807 
L 274.977391 219.894603 
L 282.74087 208.001771 
L 290.504348 219.453068 
L 298.267826 215.931966 
L 306.031304 222.934539 
L 313.794783 221.349235 
L 321.558261 221.080169 
L 329.321739 219.592466 
" clip-path="url(#pe306ebc997)" style="fill: none; stroke: #8c564b; stroke-width: 1.5; stroke-linecap: square"/>
   </g>
   <g id="line2d_18">
    <path d="M 57.6 67.330713 
L 65.363478 136.261576 
L 73.126957 160.158276 
L 80.890435 173.840568 
L 88.653913 186.116651 
L 96.417391 195.463652 
L 104.18087 203.267162 
L 111.944348 209.709977 
L 119.707826 215.881356 
L 127.471304 220.953239 
L 135.234783 225.802484 
L 142.998261 229.719681 
L 150.761739 233.827766 
L 158.525217 237.683114 
L 166.288696 240.600612 
L 174.052174 243.379067 
L 181.815652 247.830105 
L 189.57913 250.20734 
L 197.342609 252.809442 
L 205.106087 255.647717 
L 212.869565 257.613295 
L 220.633043 259.18483 
L 228.396522 262.008151 
L 236.16 263.797112 
L 243.923478 265.781238 
L 251.686957 267.824075 
L 259.450435 269.463828 
L 267.213913 271.32735 
L 274.977391 273.142471 
L 282.74087 274.293026 
L 290.504348 277.117874 
L 298.267826 278.534129 
L 306.031304 279.887791 
L 313.794783 280.923014 
L 321.558261 283.963524 
L 329.321739 283.620346 
L 337.085217 286.161814 
L 344.848696 286.82892 
L 352.612174 288.240267 
L 360.375652 289.48437 
L 368.13913 289.214929 
L 375.902609 290.745816 
L 383.666087 291.28694 
L 391.429565 293.310429 
L 399.193043 294.569582 
L 406.956522 294.942235 
L 414.72 295.488 
" clip-path="url(#pe306ebc997)" style="fill: none; stroke: #e377c2; stroke-width: 1.5; stroke-linecap: square"/>
   </g>
   <g id="line2d_19">
    <path d="M 57.6 140.40341 
L 65.363478 165.059513 
L 73.126957 174.123451 
L 80.890435 185.679697 
L 88.653913 191.160509 
L 96.417391 193.916836 
L 104.18087 202.268158 
L 111.944348 205.305802 
L 119.707826 205.403994 
L 127.471304 212.460805 
L 135.234783 204.495408 
L 142.998261 208.984068 
L 150.761739 213.93158 
L 158.525217 218.218108 
L 166.288696 216.065515 
L 174.052174 216.25067 
L 181.815652 226.014116 
L 189.57913 219.046498 
L 197.342609 211.10466 
L 205.106087 225.353208 
L 212.869565 221.505278 
L 220.633043 217.936066 
L 228.396522 218.462669 
L 236.16 225.777065 
L 243.923478 224.398163 
L 251.686957 225.068523 
L 259.450435 226.657571 
L 267.213913 229.158871 
L 274.977391 225.335764 
L 282.74087 221.512525 
L 290.504348 219.488756 
L 298.267826 219.144709 
L 306.031304 225.156713 
L 313.794783 222.335548 
L 321.558261 223.077346 
L 329.321739 226.536327 
L 337.085217 232.223173 
L 344.848696 229.327989 
L 352.612174 227.743749 
L 360.375652 229.439995 
L 368.13913 222.519006 
L 375.902609 224.001837 
L 383.666087 226.819591 
L 391.429565 221.683433 
L 399.193043 224.198607 
L 406.956522 223.121064 
L 414.72 220.074906 
" clip-path="url(#pe306ebc997)" style="fill: none; stroke: #7f7f7f; stroke-width: 1.5; stroke-linecap: square"/>
   </g>
   <g id="patch_3">
    <path d="M 57.6 307.584 
L 57.6 41.472 
" style="fill: none; stroke: #000000; stroke-width: 0.8; stroke-linejoin: miter; stroke-linecap: square"/>
   </g>
   <g id="patch_4">
    <path d="M 414.72 307.584 
L 414.72 41.472 
" style="fill: none; stroke: #000000; stroke-width: 0.8; stroke-linejoin: miter; stroke-linecap: square"/>
   </g>
   <g id="patch_5">
    <path d="M 57.6 307.584 
L 414.72 307.584 
" style="fill: none; stroke: #000000; stroke-width: 0.8; stroke-linejoin: miter; stroke-linecap: square"/>
   </g>
   <g id="patch_6">
    <path d="M 57.6 41.472 
L 414.72 41.472 
" style="fill: none; stroke: #000000; stroke-width: 0.8; stroke-linejoin: miter; stroke-linecap: square"/>
   </g>
   <g id="legend_1">
    <g id="patch_7">
     <path d="M 352.445 166.897 
L 407.72 166.897 
Q 409.72 166.897 409.72 164.897 
L 409.72 48.472 
Q 409.72 46.472 407.72 46.472 
L 352.445 46.472 
Q 350.445 46.472 350.445 48.472 
L 350.445 164.897 
Q 350.445 166.897 352.445 166.897 
z
" style="fill: #ffffff; opacity: 0.8; stroke: #cccccc; stroke-linejoin: miter"/>
    </g>
    <g id="line2d_20">
     <path d="M 354.445 54.570438 
L 364.445 54.570438 
L 374.445 54.570438 
" style="fill: none; stroke: #1f77b4; stroke-width: 1.5; stroke-linecap: square"/>
    </g>
    <g id="text_14">
     <!-- train -->
     <g transform="translate(382.445 58.070438) scale(0.1 -0.1)">
      <defs>
       <path id="DejaVuSans-74" d="M 1172 4494 
L 1172 3500 
L 2356 3500 
L 2356 3053 
L 1172 3053 
L 1172 1153 
Q 1172 725 1289 603 
Q 1406 481 1766 481 
L 2356 481 
L 2356 0 
L 1766 0 
Q 1100 0 847 248 
Q 594 497 594 1153 
L 594 3053 
L 172 3053 
L 172 3500 
L 594 3500 
L 594 4494 
L 1172 4494 
z
" transform="scale(0.015625)"/>
       <path id="DejaVuSans-72" d="M 2631 2963 
Q 2534 3019 2420 3045 
Q 2306 3072 2169 3072 
Q 1681 3072 1420 2755 
Q 1159 2438 1159 1844 
L 1159 0 
L 581 0 
L 581 3500 
L 1159 3500 
L 1159 2956 
Q 1341 3275 1631 3429 
Q 1922 3584 2338 3584 
Q 2397 3584 2469 3576 
Q 2541 3569 2628 3553 
L 2631 2963 
z
" transform="scale(0.015625)"/>
       <path id="DejaVuSans-61" d="M 2194 1759 
Q 1497 1759 1228 1600 
Q 959 1441 959 1056 
Q 959 750 1161 570 
Q 1363 391 1709 391 
Q 2188 391 2477 730 
Q 2766 1069 2766 1631 
L 2766 1759 
L 2194 1759 
z
M 3341 1997 
L 3341 0 
L 2766 0 
L 2766 531 
Q 2569 213 2275 61 
Q 1981 -91 1556 -91 
Q 1019 -91 701 211 
Q 384 513 384 1019 
Q 384 1609 779 1909 
Q 1175 2209 1959 2209 
L 2766 2209 
L 2766 2266 
Q 2766 2663 2505 2880 
Q 2244 3097 1772 3097 
Q 1472 3097 1187 3025 
Q 903 2953 641 2809 
L 641 3341 
Q 956 3463 1253 3523 
Q 1550 3584 1831 3584 
Q 2591 3584 2966 3190 
Q 3341 2797 3341 1997 
z
" transform="scale(0.015625)"/>
       <path id="DejaVuSans-69" d="M 603 3500 
L 1178 3500 
L 1178 0 
L 603 0 
L 603 3500 
z
M 603 4863 
L 1178 4863 
L 1178 4134 
L 603 4134 
L 603 4863 
z
" transform="scale(0.015625)"/>
       <path id="DejaVuSans-6e" d="M 3513 2113 
L 3513 0 
L 2938 0 
L 2938 2094 
Q 2938 2591 2744 2837 
Q 2550 3084 2163 3084 
Q 1697 3084 1428 2787 
Q 1159 2491 1159 1978 
L 1159 0 
L 581 0 
L 581 3500 
L 1159 3500 
L 1159 2956 
Q 1366 3272 1645 3428 
Q 1925 3584 2291 3584 
Q 2894 3584 3203 3211 
Q 3513 2838 3513 2113 
z
" transform="scale(0.015625)"/>
      </defs>
      <use xlink:href="#DejaVuSans-74"/>
      <use xlink:href="#DejaVuSans-72" x="39.208984"/>
      <use xlink:href="#DejaVuSans-61" x="80.322266"/>
      <use xlink:href="#DejaVuSans-69" x="141.601562"/>
      <use xlink:href="#DejaVuSans-6e" x="169.384766"/>
     </g>
    </g>
    <g id="line2d_21">
     <path d="M 354.445 69.248563 
L 364.445 69.248563 
L 374.445 69.248563 
" style="fill: none; stroke: #ff7f0e; stroke-width: 1.5; stroke-linecap: square"/>
    </g>
    <g id="text_15">
     <!-- val -->
     <g transform="translate(382.445 72.748563) scale(0.1 -0.1)">
      <defs>
       <path id="DejaVuSans-76" d="M 191 3500 
L 800 3500 
L 1894 563 
L 2988 3500 
L 3597 3500 
L 2284 0 
L 1503 0 
L 191 3500 
z
" transform="scale(0.015625)"/>
       <path id="DejaVuSans-6c" d="M 603 4863 
L 1178 4863 
L 1178 0 
L 603 0 
L 603 4863 
z
" transform="scale(0.015625)"/>
      </defs>
      <use xlink:href="#DejaVuSans-76"/>
      <use xlink:href="#DejaVuSans-61" x="59.179688"/>
      <use xlink:href="#DejaVuSans-6c" x="120.458984"/>
     </g>
    </g>
    <g id="line2d_22">
     <path d="M 354.445 83.926688 
L 364.445 83.926688 
L 374.445 83.926688 
" style="fill: none; stroke: #2ca02c; stroke-width: 1.5; stroke-linecap: square"/>
    </g>
    <g id="text_16">
     <!-- train -->
     <g transform="translate(382.445 87.426688) scale(0.1 -0.1)">
      <use xlink:href="#DejaVuSans-74"/>
      <use xlink:href="#DejaVuSans-72" x="39.208984"/>
      <use xlink:href="#DejaVuSans-61" x="80.322266"/>
      <use xlink:href="#DejaVuSans-69" x="141.601562"/>
      <use xlink:href="#DejaVuSans-6e" x="169.384766"/>
     </g>
    </g>
    <g id="line2d_23">
     <path d="M 354.445 98.604813 
L 364.445 98.604813 
L 374.445 98.604813 
" style="fill: none; stroke: #d62728; stroke-width: 1.5; stroke-linecap: square"/>
    </g>
    <g id="text_17">
     <!-- val -->
     <g transform="translate(382.445 102.104813) scale(0.1 -0.1)">
      <use xlink:href="#DejaVuSans-76"/>
      <use xlink:href="#DejaVuSans-61" x="59.179688"/>
      <use xlink:href="#DejaVuSans-6c" x="120.458984"/>
     </g>
    </g>
    <g id="line2d_24">
     <path d="M 354.445 113.282938 
L 364.445 113.282938 
L 374.445 113.282938 
" style="fill: none; stroke: #9467bd; stroke-width: 1.5; stroke-linecap: square"/>
    </g>
    <g id="text_18">
     <!-- train -->
     <g transform="translate(382.445 116.782938) scale(0.1 -0.1)">
      <use xlink:href="#DejaVuSans-74"/>
      <use xlink:href="#DejaVuSans-72" x="39.208984"/>
      <use xlink:href="#DejaVuSans-61" x="80.322266"/>
      <use xlink:href="#DejaVuSans-69" x="141.601562"/>
      <use xlink:href="#DejaVuSans-6e" x="169.384766"/>
     </g>
    </g>
    <g id="line2d_25">
     <path d="M 354.445 127.961063 
L 364.445 127.961063 
L 374.445 127.961063 
" style="fill: none; stroke: #8c564b; stroke-width: 1.5; stroke-linecap: square"/>
    </g>
    <g id="text_19">
     <!-- val -->
     <g transform="translate(382.445 131.461063) scale(0.1 -0.1)">
      <use xlink:href="#DejaVuSans-76"/>
      <use xlink:href="#DejaVuSans-61" x="59.179688"/>
      <use xlink:href="#DejaVuSans-6c" x="120.458984"/>
     </g>
    </g>
    <g id="line2d_26">
     <path d="M 354.445 142.639188 
L 364.445 142.639188 
L 374.445 142.639188 
" style="fill: none; stroke: #e377c2; stroke-width: 1.5; stroke-linecap: square"/>
    </g>
    <g id="text_20">
     <!-- train -->
     <g transform="translate(382.445 146.139188) scale(0.1 -0.1)">
      <use xlink:href="#DejaVuSans-74"/>
      <use xlink:href="#DejaVuSans-72" x="39.208984"/>
      <use xlink:href="#DejaVuSans-61" x="80.322266"/>
      <use xlink:href="#DejaVuSans-69" x="141.601562"/>
      <use xlink:href="#DejaVuSans-6e" x="169.384766"/>
     </g>
    </g>
    <g id="line2d_27">
     <path d="M 354.445 157.317313 
L 364.445 157.317313 
L 374.445 157.317313 
" style="fill: none; stroke: #7f7f7f; stroke-width: 1.5; stroke-linecap: square"/>
    </g>
    <g id="text_21">
     <!-- val -->
     <g transform="translate(382.445 160.817313) scale(0.1 -0.1)">
      <use xlink:href="#DejaVuSans-76"/>
      <use xlink:href="#DejaVuSans-61" x="59.179688"/>
      <use xlink:href="#DejaVuSans-6c" x="120.458984"/>
     </g>
    </g>
   </g>
  </g>
 </g>
 <defs>
  <clipPath id="pe306ebc997">
   <rect x="57.6" y="41.472" width="357.12" height="266.112"/>
  </clipPath>
 </defs>
</svg>
