<?xml version="1.0" encoding="utf-8" standalone="no"?>
<!DOCTYPE svg PUBLIC "-//W3C//DTD SVG 1.1//EN"
  "http://www.w3.org/Graphics/SVG/1.1/DTD/svg11.dtd">
<svg xmlns:xlink="http://www.w3.org/1999/xlink" width="460.8pt" height="345.6pt" viewBox="0 0 460.8 345.6" xmlns="http://www.w3.org/2000/svg" version="1.1">
 <metadata>
  <rdf:RDF xmlns:dc="http://purl.org/dc/elements/1.1/" xmlns:cc="http://creativecommons.org/ns#" xmlns:rdf="http://www.w3.org/1999/02/22-rdf-syntax-ns#">
   <cc:Work>
    <dc:type rdf:resource="http://purl.org/dc/dcmitype/StillImage"/>
    <dc:date>2024-08-02T12:46:13.960303</dc:date>
    <dc:format>image/svg+xml</dc:format>
    <dc:creator>
     <cc:Agent>
      <dc:title>Matplotlib v3.7.4, https://matplotlib.org/</dc:title>
     </cc:Agent>
    </dc:creator>
   </cc:Work>
  </rdf:RDF>
 </metadata>
 <defs>
  <style type="text/css">*{stroke-linejoin: round; stroke-linecap: butt}</style>
 </defs>
 <g id="figure_1">
  <g id="patch_1">
   <path d="M 0 345.6 
L 460.8 345.6 
L 460.8 0 
L 0 0 
z
" style="fill: #ffffff"/>
  </g>
  <g id="axes_1">
   <g id="patch_2">
    <path d="M 57.6 307.584 
L 414.72 307.584 
L 414.72 41.472 
L 57.6 41.472 
z
" style="fill: #ffffff"/>
   </g>
   <g id="matplotlib.axis_1">
    <g id="xtick_1">
     <g id="line2d_1">
      <defs>
       <path id="ma539042faf" d="M 0 0 
L 0 3.5 
" style="stroke: #000000; stroke-width: 0.8"/>
      </defs>
      <g>
       <use xlink:href="#ma539042faf" x="126.138182" y="307.584" style="stroke: #000000; stroke-width: 0.8"/>
      </g>
     </g>
     <g id="text_1">
      <!-- 20 -->
      <g transform="translate(119.775682 322.182437) scale(0.1 -0.1)">
       <defs>
        <path id="DejaVuSans-32" d="M 1228 531 
L 3431 531 
L 3431 0 
L 469 0 
L 469 531 
Q 828 903 1448 1529 
Q 2069 2156 2228 2338 
Q 2531 2678 2651 2914 
Q 2772 3150 2772 3378 
Q 2772 3750 2511 3984 
Q 2250 4219 1831 4219 
Q 1534 4219 1204 4116 
Q 875 4013 500 3803 
L 500 4441 
Q 881 4594 1212 4672 
Q 1544 4750 1819 4750 
Q 2544 4750 2975 4387 
Q 3406 4025 3406 3419 
Q 3406 3131 3298 2873 
Q 3191 2616 2906 2266 
Q 2828 2175 2409 1742 
Q 1991 1309 1228 531 
z
" transform="scale(0.015625)"/>
        <path id="DejaVuSans-30" d="M 2034 4250 
Q 1547 4250 1301 3770 
Q 1056 3291 1056 2328 
Q 1056 1369 1301 889 
Q 1547 409 2034 409 
Q 2525 409 2770 889 
Q 3016 1369 3016 2328 
Q 3016 3291 2770 3770 
Q 2525 4250 2034 4250 
z
M 2034 4750 
Q 2819 4750 3233 4129 
Q 3647 3509 3647 2328 
Q 3647 1150 3233 529 
Q 2819 -91 2034 -91 
Q 1250 -91 836 529 
Q 422 1150 422 2328 
Q 422 3509 836 4129 
Q 1250 4750 2034 4750 
z
" transform="scale(0.015625)"/>
       </defs>
       <use xlink:href="#DejaVuSans-32"/>
       <use xlink:href="#DejaVuSans-30" x="63.623047"/>
      </g>
     </g>
    </g>
    <g id="xtick_2">
     <g id="line2d_2">
      <g>
       <use xlink:href="#ma539042faf" x="198.283636" y="307.584" style="stroke: #000000; stroke-width: 0.8"/>
      </g>
     </g>
     <g id="text_2">
      <!-- 40 -->
      <g transform="translate(191.921136 322.182437) scale(0.1 -0.1)">
       <defs>
        <path id="DejaVuSans-34" d="M 2419 4116 
L 825 1625 
L 2419 1625 
L 2419 4116 
z
M 2253 4666 
L 3047 4666 
L 3047 1625 
L 3713 1625 
L 3713 1100 
L 3047 1100 
L 3047 0 
L 2419 0 
L 2419 1100 
L 313 1100 
L 313 1709 
L 2253 4666 
z
" transform="scale(0.015625)"/>
       </defs>
       <use xlink:href="#DejaVuSans-34"/>
       <use xlink:href="#DejaVuSans-30" x="63.623047"/>
      </g>
     </g>
    </g>
    <g id="xtick_3">
     <g id="line2d_3">
      <g>
       <use xlink:href="#ma539042faf" x="270.429091" y="307.584" style="stroke: #000000; stroke-width: 0.8"/>
      </g>
     </g>
     <g id="text_3">
      <!-- 60 -->
      <g transform="translate(264.066591 322.182437) scale(0.1 -0.1)">
       <defs>
        <path id="DejaVuSans-36" d="M 2113 2584 
Q 1688 2584 1439 2293 
Q 1191 2003 1191 1497 
Q 1191 994 1439 701 
Q 1688 409 2113 409 
Q 2538 409 2786 701 
Q 3034 994 3034 1497 
Q 3034 2003 2786 2293 
Q 2538 2584 2113 2584 
z
M 3366 4563 
L 3366 3988 
Q 3128 4100 2886 4159 
Q 2644 4219 2406 4219 
Q 1781 4219 1451 3797 
Q 1122 3375 1075 2522 
Q 1259 2794 1537 2939 
Q 1816 3084 2150 3084 
Q 2853 3084 3261 2657 
Q 3669 2231 3669 1497 
Q 3669 778 3244 343 
Q 2819 -91 2113 -91 
Q 1303 -91 875 529 
Q 447 1150 447 2328 
Q 447 3434 972 4092 
Q 1497 4750 2381 4750 
Q 2619 4750 2861 4703 
Q 3103 4656 3366 4563 
z
" transform="scale(0.015625)"/>
       </defs>
       <use xlink:href="#DejaVuSans-36"/>
       <use xlink:href="#DejaVuSans-30" x="63.623047"/>
      </g>
     </g>
    </g>
    <g id="xtick_4">
     <g id="line2d_4">
      <g>
       <use xlink:href="#ma539042faf" x="342.574545" y="307.584" style="stroke: #000000; stroke-width: 0.8"/>
      </g>
     </g>
     <g id="text_4">
      <!-- 80 -->
      <g transform="translate(336.212045 322.182437) scale(0.1 -0.1)">
       <defs>
        <path id="DejaVuSans-38" d="M 2034 2216 
Q 1584 2216 1326 1975 
Q 1069 1734 1069 1313 
Q 1069 891 1326 650 
Q 1584 409 2034 409 
Q 2484 409 2743 651 
Q 3003 894 3003 1313 
Q 3003 1734 2745 1975 
Q 2488 2216 2034 2216 
z
M 1403 2484 
Q 997 2584 770 2862 
Q 544 3141 544 3541 
Q 544 4100 942 4425 
Q 1341 4750 2034 4750 
Q 2731 4750 3128 4425 
Q 3525 4100 3525 3541 
Q 3525 3141 3298 2862 
Q 3072 2584 2669 2484 
Q 3125 2378 3379 2068 
Q 3634 1759 3634 1313 
Q 3634 634 3220 271 
Q 2806 -91 2034 -91 
Q 1263 -91 848 271 
Q 434 634 434 1313 
Q 434 1759 690 2068 
Q 947 2378 1403 2484 
z
M 1172 3481 
Q 1172 3119 1398 2916 
Q 1625 2713 2034 2713 
Q 2441 2713 2670 2916 
Q 2900 3119 2900 3481 
Q 2900 3844 2670 4047 
Q 2441 4250 2034 4250 
Q 1625 4250 1398 4047 
Q 1172 3844 1172 3481 
z
" transform="scale(0.015625)"/>
       </defs>
       <use xlink:href="#DejaVuSans-38"/>
       <use xlink:href="#DejaVuSans-30" x="63.623047"/>
      </g>
     </g>
    </g>
    <g id="xtick_5">
     <g id="line2d_5">
      <g>
       <use xlink:href="#ma539042faf" x="414.72" y="307.584" style="stroke: #000000; stroke-width: 0.8"/>
      </g>
     </g>
     <g id="text_5">
      <!-- 100 -->
      <g transform="translate(405.17625 322.182437) scale(0.1 -0.1)">
       <defs>
        <path id="DejaVuSans-31" d="M 794 531 
L 1825 531 
L 1825 4091 
L 703 3866 
L 703 4441 
L 1819 4666 
L 2450 4666 
L 2450 531 
L 3481 531 
L 3481 0 
L 794 0 
L 794 531 
z
" transform="scale(0.015625)"/>
       </defs>
       <use xlink:href="#DejaVuSans-31"/>
       <use xlink:href="#DejaVuSans-30" x="63.623047"/>
       <use xlink:href="#DejaVuSans-30" x="127.246094"/>
      </g>
     </g>
    </g>
    <g id="text_6">
     <!-- Epoch -->
     <g transform="translate(220.849063 335.860562) scale(0.1 -0.1)">
      <defs>
       <path id="DejaVuSans-45" d="M 628 4666 
L 3578 4666 
L 3578 4134 
L 1259 4134 
L 1259 2753 
L 3481 2753 
L 3481 2222 
L 1259 2222 
L 1259 531 
L 3634 531 
L 3634 0 
L 628 0 
L 628 4666 
z
" transform="scale(0.015625)"/>
       <path id="DejaVuSans-70" d="M 1159 525 
L 1159 -1331 
L 581 -1331 
L 581 3500 
L 1159 3500 
L 1159 2969 
Q 1341 3281 1617 3432 
Q 1894 3584 2278 3584 
Q 2916 3584 3314 3078 
Q 3713 2572 3713 1747 
Q 3713 922 3314 415 
Q 2916 -91 2278 -91 
Q 1894 -91 1617 61 
Q 1341 213 1159 525 
z
M 3116 1747 
Q 3116 2381 2855 2742 
Q 2594 3103 2138 3103 
Q 1681 3103 1420 2742 
Q 1159 2381 1159 1747 
Q 1159 1113 1420 752 
Q 1681 391 2138 391 
Q 2594 391 2855 752 
Q 3116 1113 3116 1747 
z
" transform="scale(0.015625)"/>
       <path id="DejaVuSans-6f" d="M 1959 3097 
Q 1497 3097 1228 2736 
Q 959 2375 959 1747 
Q 959 1119 1226 758 
Q 1494 397 1959 397 
Q 2419 397 2687 759 
Q 2956 1122 2956 1747 
Q 2956 2369 2687 2733 
Q 2419 3097 1959 3097 
z
M 1959 3584 
Q 2709 3584 3137 3096 
Q 3566 2609 3566 1747 
Q 3566 888 3137 398 
Q 2709 -91 1959 -91 
Q 1206 -91 779 398 
Q 353 888 353 1747 
Q 353 2609 779 3096 
Q 1206 3584 1959 3584 
z
" transform="scale(0.015625)"/>
       <path id="DejaVuSans-63" d="M 3122 3366 
L 3122 2828 
Q 2878 2963 2633 3030 
Q 2388 3097 2138 3097 
Q 1578 3097 1268 2742 
Q 959 2388 959 1747 
Q 959 1106 1268 751 
Q 1578 397 2138 397 
Q 2388 397 2633 464 
Q 2878 531 3122 666 
L 3122 134 
Q 2881 22 2623 -34 
Q 2366 -91 2075 -91 
Q 1284 -91 818 406 
Q 353 903 353 1747 
Q 353 2603 823 3093 
Q 1294 3584 2113 3584 
Q 2378 3584 2631 3529 
Q 2884 3475 3122 3366 
z
" transform="scale(0.015625)"/>
       <path id="DejaVuSans-68" d="M 3513 2113 
L 3513 0 
L 2938 0 
L 2938 2094 
Q 2938 2591 2744 2837 
Q 2550 3084 2163 3084 
Q 1697 3084 1428 2787 
Q 1159 2491 1159 1978 
L 1159 0 
L 581 0 
L 581 4863 
L 1159 4863 
L 1159 2956 
Q 1366 3272 1645 3428 
Q 1925 3584 2291 3584 
Q 2894 3584 3203 3211 
Q 3513 2838 3513 2113 
z
" transform="scale(0.015625)"/>
      </defs>
      <use xlink:href="#DejaVuSans-45"/>
      <use xlink:href="#DejaVuSans-70" x="63.183594"/>
      <use xlink:href="#DejaVuSans-6f" x="126.660156"/>
      <use xlink:href="#DejaVuSans-63" x="187.841797"/>
      <use xlink:href="#DejaVuSans-68" x="242.822266"/>
     </g>
    </g>
   </g>
   <g id="matplotlib.axis_2">
    <g id="ytick_1">
     <g id="line2d_6">
      <defs>
       <path id="m103a464b2c" d="M 0 0 
L -3.5 0 
" style="stroke: #000000; stroke-width: 0.8"/>
      </defs>
      <g>
       <use xlink:href="#m103a464b2c" x="57.6" y="303.425718" style="stroke: #000000; stroke-width: 0.8"/>
      </g>
     </g>
     <g id="text_7">
      <!-- 0.20 -->
      <g transform="translate(28.334375 307.224937) scale(0.1 -0.1)">
       <defs>
        <path id="DejaVuSans-2e" d="M 684 794 
L 1344 794 
L 1344 0 
L 684 0 
L 684 794 
z
" transform="scale(0.015625)"/>
       </defs>
       <use xlink:href="#DejaVuSans-30"/>
       <use xlink:href="#DejaVuSans-2e" x="63.623047"/>
       <use xlink:href="#DejaVuSans-32" x="95.410156"/>
       <use xlink:href="#DejaVuSans-30" x="159.033203"/>
      </g>
     </g>
    </g>
    <g id="ytick_2">
     <g id="line2d_7">
      <g>
       <use xlink:href="#m103a464b2c" x="57.6" y="262.116769" style="stroke: #000000; stroke-width: 0.8"/>
      </g>
     </g>
     <g id="text_8">
      <!-- 0.22 -->
      <g transform="translate(28.334375 265.915988) scale(0.1 -0.1)">
       <use xlink:href="#DejaVuSans-30"/>
       <use xlink:href="#DejaVuSans-2e" x="63.623047"/>
       <use xlink:href="#DejaVuSans-32" x="95.410156"/>
       <use xlink:href="#DejaVuSans-32" x="159.033203"/>
      </g>
     </g>
    </g>
    <g id="ytick_3">
     <g id="line2d_8">
      <g>
       <use xlink:href="#m103a464b2c" x="57.6" y="220.80782" style="stroke: #000000; stroke-width: 0.8"/>
      </g>
     </g>
     <g id="text_9">
      <!-- 0.24 -->
      <g transform="translate(28.334375 224.607039) scale(0.1 -0.1)">
       <use xlink:href="#DejaVuSans-30"/>
       <use xlink:href="#DejaVuSans-2e" x="63.623047"/>
       <use xlink:href="#DejaVuSans-32" x="95.410156"/>
       <use xlink:href="#DejaVuSans-34" x="159.033203"/>
      </g>
     </g>
    </g>
    <g id="ytick_4">
     <g id="line2d_9">
      <g>
       <use xlink:href="#m103a464b2c" x="57.6" y="179.498872" style="stroke: #000000; stroke-width: 0.8"/>
      </g>
     </g>
     <g id="text_10">
      <!-- 0.26 -->
      <g transform="translate(28.334375 183.29809) scale(0.1 -0.1)">
       <use xlink:href="#DejaVuSans-30"/>
       <use xlink:href="#DejaVuSans-2e" x="63.623047"/>
       <use xlink:href="#DejaVuSans-32" x="95.410156"/>
       <use xlink:href="#DejaVuSans-36" x="159.033203"/>
      </g>
     </g>
    </g>
    <g id="ytick_5">
     <g id="line2d_10">
      <g>
       <use xlink:href="#m103a464b2c" x="57.6" y="138.189923" style="stroke: #000000; stroke-width: 0.8"/>
      </g>
     </g>
     <g id="text_11">
      <!-- 0.28 -->
      <g transform="translate(28.334375 141.989142) scale(0.1 -0.1)">
       <use xlink:href="#DejaVuSans-30"/>
       <use xlink:href="#DejaVuSans-2e" x="63.623047"/>
       <use xlink:href="#DejaVuSans-32" x="95.410156"/>
       <use xlink:href="#DejaVuSans-38" x="159.033203"/>
      </g>
     </g>
    </g>
    <g id="ytick_6">
     <g id="line2d_11">
      <g>
       <use xlink:href="#m103a464b2c" x="57.6" y="96.880974" style="stroke: #000000; stroke-width: 0.8"/>
      </g>
     </g>
     <g id="text_12">
      <!-- 0.30 -->
      <g transform="translate(28.334375 100.680193) scale(0.1 -0.1)">
       <defs>
        <path id="DejaVuSans-33" d="M 2597 2516 
Q 3050 2419 3304 2112 
Q 3559 1806 3559 1356 
Q 3559 666 3084 287 
Q 2609 -91 1734 -91 
Q 1441 -91 1130 -33 
Q 819 25 488 141 
L 488 750 
Q 750 597 1062 519 
Q 1375 441 1716 441 
Q 2309 441 2620 675 
Q 2931 909 2931 1356 
Q 2931 1769 2642 2001 
Q 2353 2234 1838 2234 
L 1294 2234 
L 1294 2753 
L 1863 2753 
Q 2328 2753 2575 2939 
Q 2822 3125 2822 3475 
Q 2822 3834 2567 4026 
Q 2313 4219 1838 4219 
Q 1578 4219 1281 4162 
Q 984 4106 628 3988 
L 628 4550 
Q 988 4650 1302 4700 
Q 1616 4750 1894 4750 
Q 2613 4750 3031 4423 
Q 3450 4097 3450 3541 
Q 3450 3153 3228 2886 
Q 3006 2619 2597 2516 
z
" transform="scale(0.015625)"/>
       </defs>
       <use xlink:href="#DejaVuSans-30"/>
       <use xlink:href="#DejaVuSans-2e" x="63.623047"/>
       <use xlink:href="#DejaVuSans-33" x="95.410156"/>
       <use xlink:href="#DejaVuSans-30" x="159.033203"/>
      </g>
     </g>
    </g>
    <g id="ytick_7">
     <g id="line2d_12">
      <g>
       <use xlink:href="#m103a464b2c" x="57.6" y="55.572026" style="stroke: #000000; stroke-width: 0.8"/>
      </g>
     </g>
     <g id="text_13">
      <!-- 0.32 -->
      <g transform="translate(28.334375 59.371244) scale(0.1 -0.1)">
       <use xlink:href="#DejaVuSans-30"/>
       <use xlink:href="#DejaVuSans-2e" x="63.623047"/>
       <use xlink:href="#DejaVuSans-33" x="95.410156"/>
       <use xlink:href="#DejaVuSans-32" x="159.033203"/>
      </g>
     </g>
    </g>
    <g id="text_14">
     <!-- Loss -->
     <g transform="translate(22.254688 185.495187) rotate(-90) scale(0.1 -0.1)">
      <defs>
       <path id="DejaVuSans-4c" d="M 628 4666 
L 1259 4666 
L 1259 531 
L 3531 531 
L 3531 0 
L 628 0 
L 628 4666 
z
" transform="scale(0.015625)"/>
       <path id="DejaVuSans-73" d="M 2834 3397 
L 2834 2853 
Q 2591 2978 2328 3040 
Q 2066 3103 1784 3103 
Q 1356 3103 1142 2972 
Q 928 2841 928 2578 
Q 928 2378 1081 2264 
Q 1234 2150 1697 2047 
L 1894 2003 
Q 2506 1872 2764 1633 
Q 3022 1394 3022 966 
Q 3022 478 2636 193 
Q 2250 -91 1575 -91 
Q 1294 -91 989 -36 
Q 684 19 347 128 
L 347 722 
Q 666 556 975 473 
Q 1284 391 1588 391 
Q 1994 391 2212 530 
Q 2431 669 2431 922 
Q 2431 1156 2273 1281 
Q 2116 1406 1581 1522 
L 1381 1569 
Q 847 1681 609 1914 
Q 372 2147 372 2553 
Q 372 3047 722 3315 
Q 1072 3584 1716 3584 
Q 2034 3584 2315 3537 
Q 2597 3491 2834 3397 
z
" transform="scale(0.015625)"/>
      </defs>
      <use xlink:href="#DejaVuSans-4c"/>
      <use xlink:href="#DejaVuSans-6f" x="53.962891"/>
      <use xlink:href="#DejaVuSans-73" x="115.144531"/>
      <use xlink:href="#DejaVuSans-73" x="167.244141"/>
     </g>
    </g>
   </g>
   <g id="line2d_13">
    <path d="M 57.6 53.568 
L 61.207273 237.605152 
L 64.814545 252.350929 
L 68.421818 256.288718 
L 72.029091 258.732922 
L 75.636364 260.766062 
L 79.243636 262.386023 
L 82.850909 263.839485 
L 86.458182 265.164657 
L 90.065455 266.321888 
L 93.672727 267.39907 
L 97.28 268.487845 
L 100.887273 269.409052 
L 104.494545 270.200179 
L 108.101818 271.060661 
L 111.709091 271.784438 
L 115.316364 272.464034 
L 118.923636 273.085577 
L 122.530909 273.764144 
L 126.138182 274.386191 
L 129.745455 274.906849 
L 133.352727 275.439537 
L 136.96 275.895106 
L 140.567273 276.440868 
L 144.174545 276.877395 
L 147.781818 277.341209 
L 151.389091 277.753821 
L 154.996364 278.198659 
L 158.603636 278.56242 
L 162.210909 278.9613 
L 165.818182 279.238063 
L 169.425455 279.651541 
L 173.032727 279.959762 
L 176.64 280.325367 
L 180.247273 280.627428 
L 183.854545 280.965998 
L 187.461818 281.269768 
L 191.069091 281.454246 
L 194.676364 281.669032 
L 198.283636 282.053854 
L 201.890909 282.291171 
L 205.498182 282.55438 
L 209.105455 282.770947 
L 212.712727 282.999562 
L 216.32 283.279425 
L 219.927273 283.520927 
L 223.534545 283.666608 
L 227.141818 283.92722 
L 230.749091 284.135212 
L 234.356364 284.264599 
L 237.963636 284.590123 
L 241.570909 284.728562 
L 245.178182 285.012938 
L 248.785455 285.108496 
L 252.392727 285.252413 
L 256 285.524061 
L 259.607273 285.639871 
L 263.214545 285.7946 
L 266.821818 286.033222 
L 270.429091 286.162352 
L 274.036364 286.356551 
L 277.643636 286.457079 
L 281.250909 286.650341 
L 284.858182 286.86159 
L 288.465455 286.91788 
L 292.072727 287.090723 
L 295.68 287.166908 
L 299.287273 287.356241 
L 302.894545 287.503355 
L 306.501818 287.64191 
L 310.109091 287.798592 
L 313.716364 287.888652 
L 317.323636 287.963898 
L 320.930909 288.091754 
L 324.538182 288.282317 
L 328.145455 288.363049 
L 331.752727 288.515433 
L 335.36 288.635175 
L 338.967273 288.762908 
L 342.574545 288.885291 
L 346.181818 288.976123 
L 349.789091 289.033648 
L 353.396364 289.167634 
L 357.003636 289.255437 
L 360.610909 289.378281 
L 364.218182 289.518146 
L 367.825455 289.568233 
L 371.432727 289.694987 
L 375.04 289.838285 
L 378.647273 289.870913 
L 382.254545 289.966468 
L 385.861818 290.00744 
L 389.469091 290.123683 
L 393.076364 290.296788 
L 396.683636 290.344327 
L 400.290909 290.442051 
L 403.898182 290.537589 
L 407.505455 290.58209 
L 411.112727 290.723107 
L 414.72 290.884 
" clip-path="url(#p56ab18a9bd)" style="fill: none; stroke: #1f77b4; stroke-width: 1.5; stroke-linecap: square"/>
   </g>
   <g id="line2d_14">
    <path d="M 57.6 218.773196 
L 61.207273 252.297673 
L 64.814545 257.463808 
L 68.421818 261.363957 
L 72.029091 262.622282 
L 75.636364 264.616741 
L 79.243636 266.038331 
L 82.850909 267.023636 
L 86.458182 267.339884 
L 90.065455 269.572696 
L 93.672727 270.623107 
L 97.28 270.958756 
L 100.887273 272.160403 
L 104.494545 272.715811 
L 108.101818 273.347641 
L 111.709091 273.704854 
L 115.316364 274.57499 
L 118.923636 276.256046 
L 122.530909 275.76869 
L 126.138182 277.154227 
L 129.745455 277.793374 
L 133.352727 278.024224 
L 136.96 278.467655 
L 140.567273 278.050568 
L 144.174545 278.531511 
L 147.781818 279.155027 
L 151.389091 280.000216 
L 154.996364 279.993045 
L 158.603636 280.423114 
L 162.210909 280.634003 
L 165.818182 280.452877 
L 169.425455 281.230733 
L 173.032727 280.94777 
L 176.64 281.929816 
L 180.247273 281.912605 
L 183.854545 281.664522 
L 187.461818 281.96713 
L 191.069091 282.728548 
L 194.676364 282.40247 
L 198.283636 282.749874 
L 201.890909 282.995089 
L 205.498182 283.511307 
L 209.105455 284.193819 
L 212.712727 283.498158 
L 216.32 284.308166 
L 219.927273 283.532764 
L 223.534545 284.663381 
L 227.141818 285.599083 
L 230.749091 285.281986 
L 234.356364 284.00157 
L 237.963636 285.433793 
L 241.570909 285.799073 
L 245.178182 285.694819 
L 248.785455 285.646743 
L 252.392727 285.62195 
L 256 286.96979 
L 259.607273 286.474572 
L 263.214545 286.602144 
L 266.821818 286.835196 
L 270.429091 286.666975 
L 274.036364 286.51552 
L 277.643636 287.098259 
L 281.250909 287.660884 
L 284.858182 286.950494 
L 288.465455 287.230849 
L 292.072727 287.068001 
L 295.68 287.334561 
L 299.287273 288.050764 
L 302.894545 288.028807 
L 306.501818 288.616912 
L 310.109091 289.172174 
L 313.716364 288.759782 
L 317.323636 288.367644 
L 320.930909 288.747519 
L 324.538182 288.244504 
L 328.145455 288.223313 
L 331.752727 288.682748 
L 335.36 289.295204 
L 338.967273 289.348118 
L 342.574545 288.23591 
L 346.181818 289.163388 
L 349.789091 288.846885 
L 353.396364 289.469517 
L 357.003636 289.347607 
L 360.610909 289.893132 
L 364.218182 289.336562 
L 367.825455 289.481841 
L 371.432727 289.5218 
L 375.04 290.310457 
L 378.647273 289.425807 
L 382.254545 290.048073 
L 385.861818 289.500383 
L 389.469091 289.89875 
L 393.076364 290.890183 
L 396.683636 290.297344 
L 400.290909 290.742068 
L 403.898182 290.635568 
L 407.505455 290.987343 
L 411.112727 290.8717 
L 414.72 290.525607 
" clip-path="url(#p56ab18a9bd)" style="fill: none; stroke: #ff7f0e; stroke-width: 1.5; stroke-linecap: square"/>
   </g>
   <g id="line2d_15">
    <path d="M 57.6 54.539045 
L 61.207273 236.257024 
L 64.814545 250.572343 
L 68.421818 254.265595 
L 72.029091 256.652579 
L 75.636364 258.432739 
L 79.243636 259.996076 
L 82.850909 261.389837 
L 86.458182 262.646031 
L 90.065455 263.774865 
L 93.672727 264.948601 
L 97.28 265.833535 
L 100.887273 266.779948 
L 104.494545 267.715448 
L 108.101818 268.469027 
L 111.709091 269.288388 
L 115.316364 269.94735 
L 118.923636 270.629586 
L 122.530909 271.275894 
L 126.138182 271.88331 
L 129.745455 272.514382 
L 133.352727 272.988779 
L 136.96 273.587103 
L 140.567273 274.03404 
L 144.174545 274.526022 
L 147.781818 274.944573 
L 151.389091 275.509275 
L 154.996364 275.839889 
L 158.603636 276.224211 
L 162.210909 276.61867 
L 165.818182 276.981744 
L 169.425455 277.428987 
L 173.032727 277.682559 
L 176.64 277.993438 
L 180.247273 278.415036 
L 183.854545 278.722945 
L 187.461818 279.078391 
L 191.069091 279.309714 
L 194.676364 279.553225 
L 198.283636 279.843279 
L 201.890909 280.055479 
L 205.498182 280.399668 
L 209.105455 280.67944 
L 212.712727 280.885373 
L 216.32 281.153263 
L 219.927273 281.39984 
L 223.534545 281.606341 
L 227.141818 281.791049 
L 230.749091 282.04616 
L 234.356364 282.284012 
L 237.963636 282.447257 
L 241.570909 282.612387 
L 245.178182 282.809924 
L 248.785455 282.93987 
L 252.392727 283.192688 
L 256 283.322299 
L 259.607273 283.491098 
L 263.214545 283.71054 
L 266.821818 283.833764 
L 270.429091 284.005437 
L 274.036364 284.214333 
L 277.643636 284.417619 
L 281.250909 284.554057 
L 284.858182 284.655819 
L 288.465455 284.852798 
L 292.072727 284.939879 
L 295.68 285.101796 
L 299.287273 285.252699 
L 302.894545 285.329516 
L 306.501818 285.476871 
L 310.109091 285.545154 
L 313.716364 285.751581 
L 317.323636 285.875638 
L 320.930909 285.997582 
L 324.538182 286.131629 
L 328.145455 286.15845 
L 331.752727 286.319872 
L 335.36 286.427775 
L 338.967273 286.565778 
L 342.574545 286.639608 
L 346.181818 286.759301 
L 349.789091 286.942729 
L 353.396364 286.974173 
L 357.003636 287.080889 
L 360.610909 287.123803 
L 364.218182 287.25782 
L 367.825455 287.413988 
L 371.432727 287.515606 
L 375.04 287.619589 
L 378.647273 287.671464 
L 382.254545 287.79931 
L 385.861818 287.853251 
L 389.469091 287.940454 
L 393.076364 287.977442 
L 396.683636 288.096105 
L 400.290909 288.110855 
L 403.898182 288.291727 
L 407.505455 288.390562 
L 411.112727 288.510484 
L 414.72 288.523745 
" clip-path="url(#p56ab18a9bd)" style="fill: none; stroke: #2ca02c; stroke-width: 1.5; stroke-linecap: square"/>
   </g>
   <g id="line2d_16">
    <path d="M 57.6 217.679241 
L 61.207273 251.760563 
L 64.814545 256.978076 
L 68.421818 259.700659 
L 72.029091 261.168838 
L 75.636364 263.029213 
L 79.243636 263.818214 
L 82.850909 264.878968 
L 86.458182 266.063486 
L 90.065455 266.178978 
L 93.672727 268.121362 
L 97.28 268.383921 
L 100.887273 270.275033 
L 104.494545 269.827286 
L 108.101818 271.232217 
L 111.709091 272.286096 
L 115.316364 272.271073 
L 118.923636 273.981755 
L 122.530909 272.826822 
L 126.138182 274.276006 
L 129.745455 274.728239 
L 133.352727 274.962056 
L 136.96 276.23714 
L 140.567273 276.14635 
L 144.174545 276.219582 
L 147.781818 276.601116 
L 151.389091 277.844538 
L 154.996364 277.570357 
L 158.603636 277.390235 
L 162.210909 278.570716 
L 165.818182 277.979392 
L 169.425455 279.550233 
L 173.032727 279.834684 
L 176.64 279.636434 
L 180.247273 279.675532 
L 183.854545 280.409852 
L 187.461818 280.063834 
L 191.069091 280.363793 
L 194.676364 281.500355 
L 198.283636 280.5706 
L 201.890909 281.083003 
L 205.498182 281.600032 
L 209.105455 282.297557 
L 212.712727 282.499531 
L 216.32 282.706218 
L 219.927273 281.797303 
L 223.534545 282.036969 
L 227.141818 283.280846 
L 230.749091 282.970454 
L 234.356364 283.859824 
L 237.963636 283.389757 
L 241.570909 283.74979 
L 245.178182 284.791043 
L 248.785455 284.263967 
L 252.392727 284.403152 
L 256 283.557044 
L 259.607273 284.904649 
L 263.214545 284.013156 
L 266.821818 284.675337 
L 270.429091 284.345718 
L 274.036364 285.549921 
L 277.643636 285.575118 
L 281.250909 285.264775 
L 284.858182 285.480342 
L 288.465455 285.883177 
L 292.072727 285.537765 
L 295.68 286.455505 
L 299.287273 285.036911 
L 302.894545 286.456288 
L 306.501818 286.401982 
L 310.109091 286.584039 
L 313.716364 286.652007 
L 317.323636 287.567771 
L 320.930909 286.373002 
L 324.538182 286.289952 
L 328.145455 287.04677 
L 331.752727 287.179896 
L 335.36 287.313918 
L 338.967273 286.566259 
L 342.574545 287.951266 
L 346.181818 287.626498 
L 349.789091 287.300429 
L 353.396364 287.253248 
L 357.003636 287.076784 
L 360.610909 287.935037 
L 364.218182 288.15668 
L 367.825455 287.409175 
L 371.432727 287.68396 
L 375.04 287.592728 
L 378.647273 287.817692 
L 382.254545 287.571101 
L 385.861818 288.040638 
L 389.469091 288.705591 
L 393.076364 288.358773 
L 396.683636 288.344925 
L 400.290909 287.865967 
L 403.898182 288.406832 
L 407.505455 289.34675 
L 411.112727 288.718627 
L 414.72 289.262077 
" clip-path="url(#p56ab18a9bd)" style="fill: none; stroke: #d62728; stroke-width: 1.5; stroke-linecap: square"/>
   </g>
   <g id="line2d_17">
    <path d="M 57.6 79.489985 
L 61.207273 244.211143 
L 64.814545 255.887146 
L 68.421818 259.76846 
L 72.029091 262.133113 
L 75.636364 264.307424 
L 79.243636 265.950004 
L 82.850909 267.6516 
L 86.458182 268.963705 
L 90.065455 270.159562 
L 93.672727 271.321787 
L 97.28 272.301903 
L 100.887273 273.21081 
L 104.494545 274.060078 
L 108.101818 274.894075 
L 111.709091 275.682783 
L 115.316364 276.350438 
L 118.923636 276.962648 
L 122.530909 277.595953 
L 126.138182 278.2094 
L 129.745455 278.750232 
L 133.352727 279.328884 
L 136.96 279.796403 
L 140.567273 280.324504 
L 144.174545 280.681999 
L 147.781818 281.224711 
L 151.389091 281.549937 
L 154.996364 281.98857 
L 158.603636 282.319685 
L 162.210909 282.829136 
L 165.818182 283.135197 
L 169.425455 283.472938 
L 173.032727 283.878177 
L 176.64 284.19324 
L 180.247273 284.401298 
L 183.854545 284.74659 
L 187.461818 285.07035 
L 191.069091 285.327274 
L 194.676364 285.694539 
L 198.283636 285.80956 
L 201.890909 286.115217 
L 205.498182 286.430321 
L 209.105455 286.586693 
L 212.712727 286.897913 
L 216.32 287.125239 
L 219.927273 287.362155 
L 223.534545 287.501665 
L 227.141818 287.832219 
L 230.749091 287.964716 
L 234.356364 288.203042 
L 237.963636 288.415842 
L 241.570909 288.642909 
L 245.178182 288.752262 
L 248.785455 289.054171 
L 252.392727 289.125515 
L 256 289.315645 
L 259.607273 289.494724 
L 263.214545 289.669621 
L 266.821818 289.861391 
L 270.429091 290.020623 
L 274.036364 290.227663 
L 277.643636 290.252466 
L 281.250909 290.382355 
L 284.858182 290.647316 
L 288.465455 290.749489 
L 292.072727 290.84835 
L 295.68 291.002589 
L 299.287273 291.211653 
L 302.894545 291.321359 
L 306.501818 291.39302 
L 310.109091 291.599315 
L 313.716364 291.604646 
L 317.323636 291.761589 
L 320.930909 291.860701 
L 324.538182 292.0452 
L 328.145455 292.134812 
L 331.752727 292.199361 
L 335.36 292.344514 
L 338.967273 292.469787 
L 342.574545 292.625695 
L 346.181818 292.697993 
L 349.789091 292.799733 
L 353.396364 292.874529 
L 357.003636 292.954505 
L 360.610909 292.983523 
L 364.218182 293.235091 
L 367.825455 293.24689 
L 371.432727 293.378235 
L 375.04 293.3831 
L 378.647273 293.592545 
L 382.254545 293.691411 
L 385.861818 293.722928 
L 389.469091 293.857496 
L 393.076364 293.891217 
L 396.683636 294.060899 
L 400.290909 294.065789 
L 403.898182 294.105339 
L 407.505455 294.282108 
L 411.112727 294.321774 
L 414.72 294.441088 
" clip-path="url(#p56ab18a9bd)" style="fill: none; stroke: #9467bd; stroke-width: 1.5; stroke-linecap: square"/>
   </g>
   <g id="line2d_18">
    <path d="M 57.6 230.486558 
L 61.207273 257.757752 
L 64.814545 261.240853 
L 68.421818 263.659999 
L 72.029091 267.387492 
L 75.636364 268.150745 
L 79.243636 269.492901 
L 82.850909 271.407716 
L 86.458182 272.329572 
L 90.065455 273.738453 
L 93.672727 273.916914 
L 97.28 275.452294 
L 100.887273 275.270851 
L 104.494545 276.630941 
L 108.101818 277.537066 
L 111.709091 278.264651 
L 115.316364 278.583355 
L 118.923636 278.435885 
L 122.530909 280.020942 
L 126.138182 281.009876 
L 129.745455 281.059217 
L 133.352727 279.784348 
L 136.96 281.523579 
L 140.567273 282.454811 
L 144.174545 282.617622 
L 147.781818 282.373892 
L 151.389091 283.277038 
L 154.996364 284.39402 
L 158.603636 284.683493 
L 162.210909 283.727797 
L 165.818182 284.716499 
L 169.425455 284.737555 
L 173.032727 284.592096 
L 176.64 286.330102 
L 180.247273 286.291761 
L 183.854545 286.210874 
L 187.461818 286.356647 
L 191.069091 287.309469 
L 194.676364 285.817995 
L 198.283636 286.816533 
L 201.890909 287.375336 
L 205.498182 287.607309 
L 209.105455 287.705373 
L 212.712727 287.650291 
L 216.32 288.787189 
L 219.927273 286.824493 
L 223.534545 288.274418 
L 227.141818 288.992619 
L 230.749091 288.408856 
L 234.356364 289.535698 
L 237.963636 288.922751 
L 241.570909 289.080978 
L 245.178182 289.477081 
L 248.785455 289.454387 
L 252.392727 290.607696 
L 256 290.333767 
L 259.607273 289.742317 
L 263.214545 290.376422 
L 266.821818 290.549841 
L 270.429091 290.920489 
L 274.036364 291.417338 
L 277.643636 291.026785 
L 281.250909 290.53533 
L 284.858182 291.365888 
L 288.465455 291.825327 
L 292.072727 289.748467 
L 295.68 291.654652 
L 299.287273 291.557992 
L 302.894545 291.046671 
L 306.501818 292.418189 
L 310.109091 291.104311 
L 313.716364 292.796793 
L 317.323636 291.990189 
L 320.930909 291.737295 
L 324.538182 291.689154 
L 328.145455 291.839312 
L 331.752727 292.350482 
L 335.36 292.894429 
L 338.967273 293.058225 
L 342.574545 292.983761 
L 346.181818 293.586306 
L 349.789091 291.945878 
L 353.396364 293.07473 
L 357.003636 292.570533 
L 360.610909 293.54976 
L 364.218182 293.117619 
L 367.825455 293.56378 
L 371.432727 293.552628 
L 375.04 294.04705 
L 378.647273 293.96525 
L 382.254545 293.423953 
L 385.861818 294.112915 
L 389.469091 294.738577 
L 393.076364 294.135317 
L 396.683636 294.40178 
L 400.290909 294.791879 
L 403.898182 294.445885 
L 407.505455 294.353253 
L 411.112727 294.489236 
L 414.72 294.847725 
" clip-path="url(#p56ab18a9bd)" style="fill: none; stroke: #8c564b; stroke-width: 1.5; stroke-linecap: square"/>
   </g>
   <g id="line2d_19">
    <path d="M 57.6 80.425254 
L 61.207273 244.79435 
L 64.814545 256.363568 
L 68.421818 260.104796 
L 72.029091 262.672123 
L 75.636364 264.835803 
L 79.243636 266.597368 
L 82.850909 268.124056 
L 86.458182 269.508626 
L 90.065455 270.798619 
L 93.672727 271.998098 
L 97.28 273.043975 
L 100.887273 274.038747 
L 104.494545 274.934336 
L 108.101818 275.827874 
L 111.709091 276.458703 
L 115.316364 277.240207 
L 118.923636 277.910169 
L 122.530909 278.59565 
L 126.138182 279.21428 
L 129.745455 279.842723 
L 133.352727 280.329462 
L 136.96 280.884094 
L 140.567273 281.367776 
L 144.174545 281.806086 
L 147.781818 282.345609 
L 151.389091 282.699862 
L 154.996364 283.080349 
L 158.603636 283.50479 
L 162.210909 283.966254 
L 165.818182 284.305925 
L 169.425455 284.668963 
L 173.032727 285.011623 
L 176.64 285.318828 
L 180.247273 285.728647 
L 183.854545 285.967111 
L 187.461818 286.225889 
L 191.069091 286.605418 
L 194.676364 286.835866 
L 198.283636 287.088396 
L 201.890909 287.340045 
L 205.498182 287.614833 
L 209.105455 287.908134 
L 212.712727 288.091168 
L 216.32 288.313915 
L 219.927273 288.513686 
L 223.534545 288.756664 
L 227.141818 288.900152 
L 230.749091 289.199652 
L 234.356364 289.438659 
L 237.963636 289.536534 
L 241.570909 289.748232 
L 245.178182 289.951864 
L 248.785455 290.119637 
L 252.392727 290.241503 
L 256 290.51567 
L 259.607273 290.584966 
L 263.214545 290.774847 
L 266.821818 290.84325 
L 270.429091 291.095262 
L 274.036364 291.26105 
L 277.643636 291.397397 
L 281.250909 291.523151 
L 284.858182 291.589047 
L 288.465455 291.837629 
L 292.072727 291.931608 
L 295.68 292.148603 
L 299.287273 292.175951 
L 302.894545 292.40287 
L 306.501818 292.436933 
L 310.109091 292.609269 
L 313.716364 292.691626 
L 317.323636 292.831935 
L 320.930909 293.018169 
L 324.538182 293.074167 
L 328.145455 293.2178 
L 331.752727 293.225643 
L 335.36 293.442681 
L 338.967273 293.39883 
L 342.574545 293.595597 
L 346.181818 293.588931 
L 349.789091 293.712536 
L 353.396364 293.859158 
L 357.003636 293.876128 
L 360.610909 293.979559 
L 364.218182 294.155674 
L 367.825455 294.192923 
L 371.432727 294.388182 
L 375.04 294.428543 
L 378.647273 294.437721 
L 382.254545 294.574599 
L 385.861818 294.610178 
L 389.469091 294.780798 
L 393.076364 294.809305 
L 396.683636 294.887256 
L 400.290909 294.970449 
L 403.898182 295.042721 
L 407.505455 295.046165 
L 411.112727 295.230425 
L 414.72 295.207768 
" clip-path="url(#p56ab18a9bd)" style="fill: none; stroke: #e377c2; stroke-width: 1.5; stroke-linecap: square"/>
   </g>
   <g id="line2d_20">
    <path d="M 57.6 231.202511 
L 61.207273 258.236743 
L 64.814545 262.280923 
L 68.421818 264.545485 
L 72.029091 267.224144 
L 75.636364 268.889719 
L 79.243636 270.171292 
L 82.850909 271.269524 
L 86.458182 272.766489 
L 90.065455 273.947223 
L 93.672727 275.067453 
L 97.28 275.902013 
L 100.887273 276.468613 
L 104.494545 276.69898 
L 108.101818 278.52426 
L 111.709091 278.917547 
L 115.316364 279.672019 
L 118.923636 280.992522 
L 122.530909 280.95844 
L 126.138182 280.505198 
L 129.745455 282.04324 
L 133.352727 281.755925 
L 136.96 282.679729 
L 140.567273 282.116795 
L 144.174545 282.708209 
L 147.781818 283.730187 
L 151.389091 284.397269 
L 154.996364 284.406536 
L 158.603636 285.401764 
L 162.210909 283.201092 
L 165.818182 285.163134 
L 169.425455 285.848253 
L 173.032727 286.416776 
L 176.64 286.771837 
L 180.247273 286.987042 
L 183.854545 286.549923 
L 187.461818 287.254785 
L 191.069091 287.170787 
L 194.676364 287.074696 
L 198.283636 287.53664 
L 201.890909 288.319669 
L 205.498182 288.550131 
L 209.105455 289.123481 
L 212.712727 288.783014 
L 216.32 289.490738 
L 219.927273 289.197368 
L 223.534545 290.130824 
L 227.141818 290.614243 
L 230.749091 289.544318 
L 234.356364 290.279152 
L 237.963636 290.013906 
L 241.570909 288.991365 
L 245.178182 290.42437 
L 248.785455 290.2194 
L 252.392727 290.96514 
L 256 290.002034 
L 259.607273 292.006799 
L 263.214545 291.302453 
L 266.821818 291.116295 
L 270.429091 291.497044 
L 274.036364 291.475189 
L 277.643636 291.877345 
L 281.250909 291.226369 
L 284.858182 292.712897 
L 288.465455 291.396953 
L 292.072727 292.189719 
L 295.68 292.157063 
L 299.287273 291.786682 
L 302.894545 292.406581 
L 306.501818 293.206657 
L 310.109091 292.449075 
L 313.716364 292.213295 
L 317.323636 293.682278 
L 320.930909 292.963891 
L 324.538182 293.035508 
L 328.145455 293.003967 
L 331.752727 292.800252 
L 335.36 293.413346 
L 338.967273 293.375629 
L 342.574545 292.759624 
L 346.181818 292.745126 
L 349.789091 293.756133 
L 353.396364 294.078701 
L 357.003636 294.062005 
L 360.610909 293.420369 
L 364.218182 293.615867 
L 367.825455 293.845021 
L 371.432727 294.26036 
L 375.04 293.54404 
L 378.647273 294.123035 
L 382.254545 293.197269 
L 385.861818 294.016423 
L 389.469091 294.487685 
L 393.076364 294.42321 
L 396.683636 294.610937 
L 400.290909 294.750927 
L 403.898182 294.781492 
L 407.505455 294.755388 
L 411.112727 294.88575 
L 414.72 295.488 
" clip-path="url(#p56ab18a9bd)" style="fill: none; stroke: #7f7f7f; stroke-width: 1.5; stroke-linecap: square"/>
   </g>
   <g id="patch_3">
    <path d="M 57.6 307.584 
L 57.6 41.472 
" style="fill: none; stroke: #000000; stroke-width: 0.8; stroke-linejoin: miter; stroke-linecap: square"/>
   </g>
   <g id="patch_4">
    <path d="M 414.72 307.584 
L 414.72 41.472 
" style="fill: none; stroke: #000000; stroke-width: 0.8; stroke-linejoin: miter; stroke-linecap: square"/>
   </g>
   <g id="patch_5">
    <path d="M 57.6 307.584 
L 414.72 307.584 
" style="fill: none; stroke: #000000; stroke-width: 0.8; stroke-linejoin: miter; stroke-linecap: square"/>
   </g>
   <g id="patch_6">
    <path d="M 57.6 41.472 
L 414.72 41.472 
" style="fill: none; stroke: #000000; stroke-width: 0.8; stroke-linejoin: miter; stroke-linecap: square"/>
   </g>
   <g id="legend_1">
    <g id="patch_7">
     <path d="M 352.445 166.897 
L 407.72 166.897 
Q 409.72 166.897 409.72 164.897 
L 409.72 48.472 
Q 409.72 46.472 407.72 46.472 
L 352.445 46.472 
Q 350.445 46.472 350.445 48.472 
L 350.445 164.897 
Q 350.445 166.897 352.445 166.897 
z
" style="fill: #ffffff; opacity: 0.8; stroke: #cccccc; stroke-linejoin: miter"/>
    </g>
    <g id="line2d_21">
     <path d="M 354.445 54.570438 
L 364.445 54.570438 
L 374.445 54.570438 
" style="fill: none; stroke: #1f77b4; stroke-width: 1.5; stroke-linecap: square"/>
    </g>
    <g id="text_15">
     <!-- train -->
     <g transform="translate(382.445 58.070438) scale(0.1 -0.1)">
      <defs>
       <path id="DejaVuSans-74" d="M 1172 4494 
L 1172 3500 
L 2356 3500 
L 2356 3053 
L 1172 3053 
L 1172 1153 
Q 1172 725 1289 603 
Q 1406 481 1766 481 
L 2356 481 
L 2356 0 
L 1766 0 
Q 1100 0 847 248 
Q 594 497 594 1153 
L 594 3053 
L 172 3053 
L 172 3500 
L 594 3500 
L 594 4494 
L 1172 4494 
z
" transform="scale(0.015625)"/>
       <path id="DejaVuSans-72" d="M 2631 2963 
Q 2534 3019 2420 3045 
Q 2306 3072 2169 3072 
Q 1681 3072 1420 2755 
Q 1159 2438 1159 1844 
L 1159 0 
L 581 0 
L 581 3500 
L 1159 3500 
L 1159 2956 
Q 1341 3275 1631 3429 
Q 1922 3584 2338 3584 
Q 2397 3584 2469 3576 
Q 2541 3569 2628 3553 
L 2631 2963 
z
" transform="scale(0.015625)"/>
       <path id="DejaVuSans-61" d="M 2194 1759 
Q 1497 1759 1228 1600 
Q 959 1441 959 1056 
Q 959 750 1161 570 
Q 1363 391 1709 391 
Q 2188 391 2477 730 
Q 2766 1069 2766 1631 
L 2766 1759 
L 2194 1759 
z
M 3341 1997 
L 3341 0 
L 2766 0 
L 2766 531 
Q 2569 213 2275 61 
Q 1981 -91 1556 -91 
Q 1019 -91 701 211 
Q 384 513 384 1019 
Q 384 1609 779 1909 
Q 1175 2209 1959 2209 
L 2766 2209 
L 2766 2266 
Q 2766 2663 2505 2880 
Q 2244 3097 1772 3097 
Q 1472 3097 1187 3025 
Q 903 2953 641 2809 
L 641 3341 
Q 956 3463 1253 3523 
Q 1550 3584 1831 3584 
Q 2591 3584 2966 3190 
Q 3341 2797 3341 1997 
z
" transform="scale(0.015625)"/>
       <path id="DejaVuSans-69" d="M 603 3500 
L 1178 3500 
L 1178 0 
L 603 0 
L 603 3500 
z
M 603 4863 
L 1178 4863 
L 1178 4134 
L 603 4134 
L 603 4863 
z
" transform="scale(0.015625)"/>
       <path id="DejaVuSans-6e" d="M 3513 2113 
L 3513 0 
L 2938 0 
L 2938 2094 
Q 2938 2591 2744 2837 
Q 2550 3084 2163 3084 
Q 1697 3084 1428 2787 
Q 1159 2491 1159 1978 
L 1159 0 
L 581 0 
L 581 3500 
L 1159 3500 
L 1159 2956 
Q 1366 3272 1645 3428 
Q 1925 3584 2291 3584 
Q 2894 3584 3203 3211 
Q 3513 2838 3513 2113 
z
" transform="scale(0.015625)"/>
      </defs>
      <use xlink:href="#DejaVuSans-74"/>
      <use xlink:href="#DejaVuSans-72" x="39.208984"/>
      <use xlink:href="#DejaVuSans-61" x="80.322266"/>
      <use xlink:href="#DejaVuSans-69" x="141.601562"/>
      <use xlink:href="#DejaVuSans-6e" x="169.384766"/>
     </g>
    </g>
    <g id="line2d_22">
     <path d="M 354.445 69.248563 
L 364.445 69.248563 
L 374.445 69.248563 
" style="fill: none; stroke: #ff7f0e; stroke-width: 1.5; stroke-linecap: square"/>
    </g>
    <g id="text_16">
     <!-- val -->
     <g transform="translate(382.445 72.748563) scale(0.1 -0.1)">
      <defs>
       <path id="DejaVuSans-76" d="M 191 3500 
L 800 3500 
L 1894 563 
L 2988 3500 
L 3597 3500 
L 2284 0 
L 1503 0 
L 191 3500 
z
" transform="scale(0.015625)"/>
       <path id="DejaVuSans-6c" d="M 603 4863 
L 1178 4863 
L 1178 0 
L 603 0 
L 603 4863 
z
" transform="scale(0.015625)"/>
      </defs>
      <use xlink:href="#DejaVuSans-76"/>
      <use xlink:href="#DejaVuSans-61" x="59.179688"/>
      <use xlink:href="#DejaVuSans-6c" x="120.458984"/>
     </g>
    </g>
    <g id="line2d_23">
     <path d="M 354.445 83.926688 
L 364.445 83.926688 
L 374.445 83.926688 
" style="fill: none; stroke: #2ca02c; stroke-width: 1.5; stroke-linecap: square"/>
    </g>
    <g id="text_17">
     <!-- train -->
     <g transform="translate(382.445 87.426688) scale(0.1 -0.1)">
      <use xlink:href="#DejaVuSans-74"/>
      <use xlink:href="#DejaVuSans-72" x="39.208984"/>
      <use xlink:href="#DejaVuSans-61" x="80.322266"/>
      <use xlink:href="#DejaVuSans-69" x="141.601562"/>
      <use xlink:href="#DejaVuSans-6e" x="169.384766"/>
     </g>
    </g>
    <g id="line2d_24">
     <path d="M 354.445 98.604813 
L 364.445 98.604813 
L 374.445 98.604813 
" style="fill: none; stroke: #d62728; stroke-width: 1.5; stroke-linecap: square"/>
    </g>
    <g id="text_18">
     <!-- val -->
     <g transform="translate(382.445 102.104813) scale(0.1 -0.1)">
      <use xlink:href="#DejaVuSans-76"/>
      <use xlink:href="#DejaVuSans-61" x="59.179688"/>
      <use xlink:href="#DejaVuSans-6c" x="120.458984"/>
     </g>
    </g>
    <g id="line2d_25">
     <path d="M 354.445 113.282938 
L 364.445 113.282938 
L 374.445 113.282938 
" style="fill: none; stroke: #9467bd; stroke-width: 1.5; stroke-linecap: square"/>
    </g>
    <g id="text_19">
     <!-- train -->
     <g transform="translate(382.445 116.782938) scale(0.1 -0.1)">
      <use xlink:href="#DejaVuSans-74"/>
      <use xlink:href="#DejaVuSans-72" x="39.208984"/>
      <use xlink:href="#DejaVuSans-61" x="80.322266"/>
      <use xlink:href="#DejaVuSans-69" x="141.601562"/>
      <use xlink:href="#DejaVuSans-6e" x="169.384766"/>
     </g>
    </g>
    <g id="line2d_26">
     <path d="M 354.445 127.961063 
L 364.445 127.961063 
L 374.445 127.961063 
" style="fill: none; stroke: #8c564b; stroke-width: 1.5; stroke-linecap: square"/>
    </g>
    <g id="text_20">
     <!-- val -->
     <g transform="translate(382.445 131.461063) scale(0.1 -0.1)">
      <use xlink:href="#DejaVuSans-76"/>
      <use xlink:href="#DejaVuSans-61" x="59.179688"/>
      <use xlink:href="#DejaVuSans-6c" x="120.458984"/>
     </g>
    </g>
    <g id="line2d_27">
     <path d="M 354.445 142.639188 
L 364.445 142.639188 
L 374.445 142.639188 
" style="fill: none; stroke: #e377c2; stroke-width: 1.5; stroke-linecap: square"/>
    </g>
    <g id="text_21">
     <!-- train -->
     <g transform="translate(382.445 146.139188) scale(0.1 -0.1)">
      <use xlink:href="#DejaVuSans-74"/>
      <use xlink:href="#DejaVuSans-72" x="39.208984"/>
      <use xlink:href="#DejaVuSans-61" x="80.322266"/>
      <use xlink:href="#DejaVuSans-69" x="141.601562"/>
      <use xlink:href="#DejaVuSans-6e" x="169.384766"/>
     </g>
    </g>
    <g id="line2d_28">
     <path d="M 354.445 157.317313 
L 364.445 157.317313 
L 374.445 157.317313 
" style="fill: none; stroke: #7f7f7f; stroke-width: 1.5; stroke-linecap: square"/>
    </g>
    <g id="text_22">
     <!-- val -->
     <g transform="translate(382.445 160.817313) scale(0.1 -0.1)">
      <use xlink:href="#DejaVuSans-76"/>
      <use xlink:href="#DejaVuSans-61" x="59.179688"/>
      <use xlink:href="#DejaVuSans-6c" x="120.458984"/>
     </g>
    </g>
   </g>
  </g>
 </g>
 <defs>
  <clipPath id="p56ab18a9bd">
   <rect x="57.6" y="41.472" width="357.12" height="266.112"/>
  </clipPath>
 </defs>
</svg>
