<?xml version="1.0" encoding="utf-8" standalone="no"?>
<!DOCTYPE svg PUBLIC "-//W3C//DTD SVG 1.1//EN"
  "http://www.w3.org/Graphics/SVG/1.1/DTD/svg11.dtd">
<svg xmlns:xlink="http://www.w3.org/1999/xlink" width="460.8pt" height="345.6pt" viewBox="0 0 460.8 345.6" xmlns="http://www.w3.org/2000/svg" version="1.1">
 <metadata>
  <rdf:RDF xmlns:dc="http://purl.org/dc/elements/1.1/" xmlns:cc="http://creativecommons.org/ns#" xmlns:rdf="http://www.w3.org/1999/02/22-rdf-syntax-ns#">
   <cc:Work>
    <dc:type rdf:resource="http://purl.org/dc/dcmitype/StillImage"/>
    <dc:date>2024-07-05T15:22:34.800410</dc:date>
    <dc:format>image/svg+xml</dc:format>
    <dc:creator>
     <cc:Agent>
      <dc:title>Matplotlib v3.7.4, https://matplotlib.org/</dc:title>
     </cc:Agent>
    </dc:creator>
   </cc:Work>
  </rdf:RDF>
 </metadata>
 <defs>
  <style type="text/css">*{stroke-linejoin: round; stroke-linecap: butt}</style>
 </defs>
 <g id="figure_1">
  <g id="patch_1">
   <path d="M 0 345.6 
L 460.8 345.6 
L 460.8 0 
L 0 0 
z
" style="fill: #ffffff"/>
  </g>
  <g id="axes_1">
   <g id="patch_2">
    <path d="M 57.6 307.584 
L 414.72 307.584 
L 414.72 41.472 
L 57.6 41.472 
z
" style="fill: #ffffff"/>
   </g>
   <g id="matplotlib.axis_1">
    <g id="xtick_1">
     <g id="line2d_1">
      <defs>
       <path id="m339aebf3b9" d="M 0 0 
L 0 3.5 
" style="stroke: #000000; stroke-width: 0.8"/>
      </defs>
      <g>
       <use xlink:href="#m339aebf3b9" x="132.163516" y="307.584" style="stroke: #000000; stroke-width: 0.8"/>
      </g>
     </g>
     <g id="text_1">
      <!-- 20 -->
      <g transform="translate(125.801016 322.182437) scale(0.1 -0.1)">
       <defs>
        <path id="DejaVuSans-32" d="M 1228 531 
L 3431 531 
L 3431 0 
L 469 0 
L 469 531 
Q 828 903 1448 1529 
Q 2069 2156 2228 2338 
Q 2531 2678 2651 2914 
Q 2772 3150 2772 3378 
Q 2772 3750 2511 3984 
Q 2250 4219 1831 4219 
Q 1534 4219 1204 4116 
Q 875 4013 500 3803 
L 500 4441 
Q 881 4594 1212 4672 
Q 1544 4750 1819 4750 
Q 2544 4750 2975 4387 
Q 3406 4025 3406 3419 
Q 3406 3131 3298 2873 
Q 3191 2616 2906 2266 
Q 2828 2175 2409 1742 
Q 1991 1309 1228 531 
z
" transform="scale(0.015625)"/>
        <path id="DejaVuSans-30" d="M 2034 4250 
Q 1547 4250 1301 3770 
Q 1056 3291 1056 2328 
Q 1056 1369 1301 889 
Q 1547 409 2034 409 
Q 2525 409 2770 889 
Q 3016 1369 3016 2328 
Q 3016 3291 2770 3770 
Q 2525 4250 2034 4250 
z
M 2034 4750 
Q 2819 4750 3233 4129 
Q 3647 3509 3647 2328 
Q 3647 1150 3233 529 
Q 2819 -91 2034 -91 
Q 1250 -91 836 529 
Q 422 1150 422 2328 
Q 422 3509 836 4129 
Q 1250 4750 2034 4750 
z
" transform="scale(0.015625)"/>
       </defs>
       <use xlink:href="#DejaVuSans-32"/>
       <use xlink:href="#DejaVuSans-30" x="63.623047"/>
      </g>
     </g>
    </g>
    <g id="xtick_2">
     <g id="line2d_2">
      <g>
       <use xlink:href="#m339aebf3b9" x="210.651429" y="307.584" style="stroke: #000000; stroke-width: 0.8"/>
      </g>
     </g>
     <g id="text_2">
      <!-- 40 -->
      <g transform="translate(204.288929 322.182437) scale(0.1 -0.1)">
       <defs>
        <path id="DejaVuSans-34" d="M 2419 4116 
L 825 1625 
L 2419 1625 
L 2419 4116 
z
M 2253 4666 
L 3047 4666 
L 3047 1625 
L 3713 1625 
L 3713 1100 
L 3047 1100 
L 3047 0 
L 2419 0 
L 2419 1100 
L 313 1100 
L 313 1709 
L 2253 4666 
z
" transform="scale(0.015625)"/>
       </defs>
       <use xlink:href="#DejaVuSans-34"/>
       <use xlink:href="#DejaVuSans-30" x="63.623047"/>
      </g>
     </g>
    </g>
    <g id="xtick_3">
     <g id="line2d_3">
      <g>
       <use xlink:href="#m339aebf3b9" x="289.139341" y="307.584" style="stroke: #000000; stroke-width: 0.8"/>
      </g>
     </g>
     <g id="text_3">
      <!-- 60 -->
      <g transform="translate(282.776841 322.182437) scale(0.1 -0.1)">
       <defs>
        <path id="DejaVuSans-36" d="M 2113 2584 
Q 1688 2584 1439 2293 
Q 1191 2003 1191 1497 
Q 1191 994 1439 701 
Q 1688 409 2113 409 
Q 2538 409 2786 701 
Q 3034 994 3034 1497 
Q 3034 2003 2786 2293 
Q 2538 2584 2113 2584 
z
M 3366 4563 
L 3366 3988 
Q 3128 4100 2886 4159 
Q 2644 4219 2406 4219 
Q 1781 4219 1451 3797 
Q 1122 3375 1075 2522 
Q 1259 2794 1537 2939 
Q 1816 3084 2150 3084 
Q 2853 3084 3261 2657 
Q 3669 2231 3669 1497 
Q 3669 778 3244 343 
Q 2819 -91 2113 -91 
Q 1303 -91 875 529 
Q 447 1150 447 2328 
Q 447 3434 972 4092 
Q 1497 4750 2381 4750 
Q 2619 4750 2861 4703 
Q 3103 4656 3366 4563 
z
" transform="scale(0.015625)"/>
       </defs>
       <use xlink:href="#DejaVuSans-36"/>
       <use xlink:href="#DejaVuSans-30" x="63.623047"/>
      </g>
     </g>
    </g>
    <g id="xtick_4">
     <g id="line2d_4">
      <g>
       <use xlink:href="#m339aebf3b9" x="367.627253" y="307.584" style="stroke: #000000; stroke-width: 0.8"/>
      </g>
     </g>
     <g id="text_4">
      <!-- 80 -->
      <g transform="translate(361.264753 322.182437) scale(0.1 -0.1)">
       <defs>
        <path id="DejaVuSans-38" d="M 2034 2216 
Q 1584 2216 1326 1975 
Q 1069 1734 1069 1313 
Q 1069 891 1326 650 
Q 1584 409 2034 409 
Q 2484 409 2743 651 
Q 3003 894 3003 1313 
Q 3003 1734 2745 1975 
Q 2488 2216 2034 2216 
z
M 1403 2484 
Q 997 2584 770 2862 
Q 544 3141 544 3541 
Q 544 4100 942 4425 
Q 1341 4750 2034 4750 
Q 2731 4750 3128 4425 
Q 3525 4100 3525 3541 
Q 3525 3141 3298 2862 
Q 3072 2584 2669 2484 
Q 3125 2378 3379 2068 
Q 3634 1759 3634 1313 
Q 3634 634 3220 271 
Q 2806 -91 2034 -91 
Q 1263 -91 848 271 
Q 434 634 434 1313 
Q 434 1759 690 2068 
Q 947 2378 1403 2484 
z
M 1172 3481 
Q 1172 3119 1398 2916 
Q 1625 2713 2034 2713 
Q 2441 2713 2670 2916 
Q 2900 3119 2900 3481 
Q 2900 3844 2670 4047 
Q 2441 4250 2034 4250 
Q 1625 4250 1398 4047 
Q 1172 3844 1172 3481 
z
" transform="scale(0.015625)"/>
       </defs>
       <use xlink:href="#DejaVuSans-38"/>
       <use xlink:href="#DejaVuSans-30" x="63.623047"/>
      </g>
     </g>
    </g>
    <g id="text_5">
     <!-- Epoch -->
     <g transform="translate(220.849063 335.860562) scale(0.1 -0.1)">
      <defs>
       <path id="DejaVuSans-45" d="M 628 4666 
L 3578 4666 
L 3578 4134 
L 1259 4134 
L 1259 2753 
L 3481 2753 
L 3481 2222 
L 1259 2222 
L 1259 531 
L 3634 531 
L 3634 0 
L 628 0 
L 628 4666 
z
" transform="scale(0.015625)"/>
       <path id="DejaVuSans-70" d="M 1159 525 
L 1159 -1331 
L 581 -1331 
L 581 3500 
L 1159 3500 
L 1159 2969 
Q 1341 3281 1617 3432 
Q 1894 3584 2278 3584 
Q 2916 3584 3314 3078 
Q 3713 2572 3713 1747 
Q 3713 922 3314 415 
Q 2916 -91 2278 -91 
Q 1894 -91 1617 61 
Q 1341 213 1159 525 
z
M 3116 1747 
Q 3116 2381 2855 2742 
Q 2594 3103 2138 3103 
Q 1681 3103 1420 2742 
Q 1159 2381 1159 1747 
Q 1159 1113 1420 752 
Q 1681 391 2138 391 
Q 2594 391 2855 752 
Q 3116 1113 3116 1747 
z
" transform="scale(0.015625)"/>
       <path id="DejaVuSans-6f" d="M 1959 3097 
Q 1497 3097 1228 2736 
Q 959 2375 959 1747 
Q 959 1119 1226 758 
Q 1494 397 1959 397 
Q 2419 397 2687 759 
Q 2956 1122 2956 1747 
Q 2956 2369 2687 2733 
Q 2419 3097 1959 3097 
z
M 1959 3584 
Q 2709 3584 3137 3096 
Q 3566 2609 3566 1747 
Q 3566 888 3137 398 
Q 2709 -91 1959 -91 
Q 1206 -91 779 398 
Q 353 888 353 1747 
Q 353 2609 779 3096 
Q 1206 3584 1959 3584 
z
" transform="scale(0.015625)"/>
       <path id="DejaVuSans-63" d="M 3122 3366 
L 3122 2828 
Q 2878 2963 2633 3030 
Q 2388 3097 2138 3097 
Q 1578 3097 1268 2742 
Q 959 2388 959 1747 
Q 959 1106 1268 751 
Q 1578 397 2138 397 
Q 2388 397 2633 464 
Q 2878 531 3122 666 
L 3122 134 
Q 2881 22 2623 -34 
Q 2366 -91 2075 -91 
Q 1284 -91 818 406 
Q 353 903 353 1747 
Q 353 2603 823 3093 
Q 1294 3584 2113 3584 
Q 2378 3584 2631 3529 
Q 2884 3475 3122 3366 
z
" transform="scale(0.015625)"/>
       <path id="DejaVuSans-68" d="M 3513 2113 
L 3513 0 
L 2938 0 
L 2938 2094 
Q 2938 2591 2744 2837 
Q 2550 3084 2163 3084 
Q 1697 3084 1428 2787 
Q 1159 2491 1159 1978 
L 1159 0 
L 581 0 
L 581 4863 
L 1159 4863 
L 1159 2956 
Q 1366 3272 1645 3428 
Q 1925 3584 2291 3584 
Q 2894 3584 3203 3211 
Q 3513 2838 3513 2113 
z
" transform="scale(0.015625)"/>
      </defs>
      <use xlink:href="#DejaVuSans-45"/>
      <use xlink:href="#DejaVuSans-70" x="63.183594"/>
      <use xlink:href="#DejaVuSans-6f" x="126.660156"/>
      <use xlink:href="#DejaVuSans-63" x="187.841797"/>
      <use xlink:href="#DejaVuSans-68" x="242.822266"/>
     </g>
    </g>
   </g>
   <g id="matplotlib.axis_2">
    <g id="ytick_1">
     <g id="line2d_5">
      <defs>
       <path id="mb0c430138a" d="M 0 0 
L -3.5 0 
" style="stroke: #000000; stroke-width: 0.8"/>
      </defs>
      <g>
       <use xlink:href="#mb0c430138a" x="57.6" y="273.383627" style="stroke: #000000; stroke-width: 0.8"/>
      </g>
     </g>
     <g id="text_6">
      <!-- 6.0 -->
      <g transform="translate(34.696875 277.182846) scale(0.1 -0.1)">
       <defs>
        <path id="DejaVuSans-2e" d="M 684 794 
L 1344 794 
L 1344 0 
L 684 0 
L 684 794 
z
" transform="scale(0.015625)"/>
       </defs>
       <use xlink:href="#DejaVuSans-36"/>
       <use xlink:href="#DejaVuSans-2e" x="63.623047"/>
       <use xlink:href="#DejaVuSans-30" x="95.410156"/>
      </g>
     </g>
    </g>
    <g id="ytick_2">
     <g id="line2d_6">
      <g>
       <use xlink:href="#mb0c430138a" x="57.6" y="219.644366" style="stroke: #000000; stroke-width: 0.8"/>
      </g>
     </g>
     <g id="text_7">
      <!-- 6.2 -->
      <g transform="translate(34.696875 223.443584) scale(0.1 -0.1)">
       <use xlink:href="#DejaVuSans-36"/>
       <use xlink:href="#DejaVuSans-2e" x="63.623047"/>
       <use xlink:href="#DejaVuSans-32" x="95.410156"/>
      </g>
     </g>
    </g>
    <g id="ytick_3">
     <g id="line2d_7">
      <g>
       <use xlink:href="#mb0c430138a" x="57.6" y="165.905104" style="stroke: #000000; stroke-width: 0.8"/>
      </g>
     </g>
     <g id="text_8">
      <!-- 6.4 -->
      <g transform="translate(34.696875 169.704323) scale(0.1 -0.1)">
       <use xlink:href="#DejaVuSans-36"/>
       <use xlink:href="#DejaVuSans-2e" x="63.623047"/>
       <use xlink:href="#DejaVuSans-34" x="95.410156"/>
      </g>
     </g>
    </g>
    <g id="ytick_4">
     <g id="line2d_8">
      <g>
       <use xlink:href="#mb0c430138a" x="57.6" y="112.165843" style="stroke: #000000; stroke-width: 0.8"/>
      </g>
     </g>
     <g id="text_9">
      <!-- 6.6 -->
      <g transform="translate(34.696875 115.965061) scale(0.1 -0.1)">
       <use xlink:href="#DejaVuSans-36"/>
       <use xlink:href="#DejaVuSans-2e" x="63.623047"/>
       <use xlink:href="#DejaVuSans-36" x="95.410156"/>
      </g>
     </g>
    </g>
    <g id="ytick_5">
     <g id="line2d_9">
      <g>
       <use xlink:href="#mb0c430138a" x="57.6" y="58.426581" style="stroke: #000000; stroke-width: 0.8"/>
      </g>
     </g>
     <g id="text_10">
      <!-- 6.8 -->
      <g transform="translate(34.696875 62.2258) scale(0.1 -0.1)">
       <use xlink:href="#DejaVuSans-36"/>
       <use xlink:href="#DejaVuSans-2e" x="63.623047"/>
       <use xlink:href="#DejaVuSans-38" x="95.410156"/>
      </g>
     </g>
    </g>
    <g id="text_11">
     <!-- Loss -->
     <g transform="translate(28.617188 185.495187) rotate(-90) scale(0.1 -0.1)">
      <defs>
       <path id="DejaVuSans-4c" d="M 628 4666 
L 1259 4666 
L 1259 531 
L 3531 531 
L 3531 0 
L 628 0 
L 628 4666 
z
" transform="scale(0.015625)"/>
       <path id="DejaVuSans-73" d="M 2834 3397 
L 2834 2853 
Q 2591 2978 2328 3040 
Q 2066 3103 1784 3103 
Q 1356 3103 1142 2972 
Q 928 2841 928 2578 
Q 928 2378 1081 2264 
Q 1234 2150 1697 2047 
L 1894 2003 
Q 2506 1872 2764 1633 
Q 3022 1394 3022 966 
Q 3022 478 2636 193 
Q 2250 -91 1575 -91 
Q 1294 -91 989 -36 
Q 684 19 347 128 
L 347 722 
Q 666 556 975 473 
Q 1284 391 1588 391 
Q 1994 391 2212 530 
Q 2431 669 2431 922 
Q 2431 1156 2273 1281 
Q 2116 1406 1581 1522 
L 1381 1569 
Q 847 1681 609 1914 
Q 372 2147 372 2553 
Q 372 3047 722 3315 
Q 1072 3584 1716 3584 
Q 2034 3584 2315 3537 
Q 2597 3491 2834 3397 
z
" transform="scale(0.015625)"/>
      </defs>
      <use xlink:href="#DejaVuSans-4c"/>
      <use xlink:href="#DejaVuSans-6f" x="53.962891"/>
      <use xlink:href="#DejaVuSans-73" x="115.144531"/>
      <use xlink:href="#DejaVuSans-73" x="167.244141"/>
     </g>
    </g>
   </g>
   <g id="line2d_10">
    <path d="M 57.6 53.568 
L 61.524396 117.425195 
L 65.448791 132.219258 
L 69.373187 141.563747 
L 73.297582 147.985008 
L 77.221978 152.916524 
L 81.146374 156.961552 
L 85.070769 160.226938 
L 88.995165 162.97365 
L 92.91956 165.437553 
L 96.843956 167.710605 
L 100.768352 169.813945 
L 104.692747 171.384179 
L 108.617143 173.322473 
L 112.541538 174.886275 
L 116.465934 176.160233 
L 120.39033 177.559049 
L 124.314725 178.790192 
L 128.239121 179.96585 
L 132.163516 181.161285 
L 136.087912 182.096098 
L 140.012308 183.138772 
L 143.936703 184.27942 
L 147.861099 185.024318 
L 151.785495 185.959406 
L 155.70989 186.694847 
L 159.634286 187.480965 
L 163.558681 188.265978 
L 167.483077 188.881237 
L 171.407473 189.656788 
L 175.331868 190.319052 
L 179.256264 191.183283 
L 183.180659 191.592953 
L 187.105055 192.154339 
L 191.029451 192.979573 
L 194.953846 193.309631 
L 198.878242 194.128028 
L 202.802637 194.354316 
L 206.727033 194.924982 
L 210.651429 195.487316 
L 214.575824 196.055795 
L 218.50022 196.590769 
L 222.424615 197.107317 
L 226.349011 197.361457 
L 230.273407 197.897348 
L 234.197802 198.393032 
L 238.122198 198.774469 
L 242.046593 199.08171 
L 245.970989 199.674307 
L 249.895385 199.871068 
L 253.81978 199.980437 
L 257.744176 200.420251 
L 261.668571 200.89754 
L 265.592967 201.27975 
L 269.517363 201.57968 
L 273.441758 201.909841 
L 277.366154 202.221876 
L 281.290549 202.591567 
L 285.214945 202.84121 
L 289.139341 203.336942 
L 293.063736 203.548043 
L 296.988132 203.768496 
L 300.912527 204.219735 
L 304.836923 204.405284 
L 308.761319 204.588953 
L 312.685714 205.100427 
L 316.61011 205.132689 
L 320.534505 205.460994 
L 324.458901 205.486489 
L 328.383297 206.030859 
L 332.307692 206.231329 
L 336.232088 206.368619 
L 340.156484 206.678475 
L 344.080879 206.964823 
L 348.005275 207.256014 
L 351.92967 207.419573 
L 355.854066 207.64778 
L 359.778462 207.785121 
L 363.702857 207.996248 
L 367.627253 208.099103 
L 371.551648 208.467845 
L 375.476044 208.744268 
L 379.40044 208.94449 
L 383.324835 208.899834 
L 387.249231 209.264537 
L 391.173626 209.440562 
L 395.098022 209.403102 
L 399.022418 209.7956 
L 402.946813 209.948165 
L 406.871209 210.206708 
" clip-path="url(#p0aec93b934)" style="fill: none; stroke: #1f77b4; stroke-width: 1.5; stroke-linecap: square"/>
   </g>
   <g id="line2d_11">
    <path d="M 57.6 200.28107 
L 61.524396 216.828088 
L 65.448791 226.728246 
L 69.373187 233.306839 
L 73.297582 239.168531 
L 77.221978 246.165697 
L 81.146374 245.536323 
L 85.070769 247.573245 
L 88.995165 252.564796 
L 92.91956 252.040637 
L 96.843956 254.307002 
L 100.768352 258.993697 
L 104.692747 256.858732 
L 108.617143 261.032919 
L 112.541538 260.530536 
L 116.465934 260.987618 
L 120.39033 262.860461 
L 124.314725 262.750634 
L 128.239121 261.069868 
L 132.163516 265.517644 
L 136.087912 264.937002 
L 140.012308 268.752515 
L 143.936703 268.970977 
L 147.861099 268.243656 
L 151.785495 266.476323 
L 155.70989 269.550725 
L 159.634286 271.165672 
L 163.558681 269.761312 
L 167.483077 269.628127 
L 171.407473 272.665464 
L 175.331868 273.034275 
L 179.256264 273.100335 
L 183.180659 275.369054 
L 187.105055 272.148487 
L 191.029451 274.297792 
L 194.953846 273.947567 
L 198.878242 275.259751 
L 202.802637 275.388623 
L 206.727033 273.419819 
L 210.651429 276.601885 
L 214.575824 276.24905 
L 218.50022 278.116476 
L 222.424615 277.620073 
L 226.349011 279.638649 
L 230.273407 277.855932 
L 234.197802 278.899204 
L 238.122198 276.506606 
L 242.046593 277.31109 
L 245.970989 276.19346 
L 249.895385 278.798441 
L 253.81978 278.523741 
L 257.744176 279.894155 
L 261.668571 281.385851 
L 265.592967 276.760777 
L 269.517363 281.865226 
L 273.441758 279.695687 
L 277.366154 279.719776 
L 281.290549 281.985413 
L 285.214945 282.469102 
L 289.139341 282.070303 
L 293.063736 284.683032 
L 296.988132 281.560796 
L 300.912527 280.167112 
L 304.836923 283.249513 
L 308.761319 282.315137 
L 312.685714 281.996165 
L 316.61011 282.078485 
L 320.534505 281.891426 
L 324.458901 284.512122 
L 328.383297 284.724114 
L 332.307692 283.182322 
L 336.232088 284.378299 
L 340.156484 286.283713 
L 344.080879 283.426927 
L 348.005275 285.258088 
L 351.92967 285.292591 
L 355.854066 283.421276 
L 359.778462 284.456967 
L 363.702857 285.40418 
L 367.627253 288.50548 
L 371.551648 285.381724 
L 375.476044 280.565407 
L 379.40044 284.501871 
L 383.324835 286.284341 
L 387.249231 285.75772 
L 391.173626 286.064326 
L 395.098022 286.791449 
L 399.022418 286.685357 
L 402.946813 287.434188 
L 406.871209 286.136644 
" clip-path="url(#p0aec93b934)" style="fill: none; stroke: #ff7f0e; stroke-width: 1.5; stroke-linecap: square"/>
   </g>
   <g id="line2d_12">
    <path d="M 57.6 54.568452 
L 61.524396 115.45302 
L 65.448791 129.641114 
L 69.373187 138.61739 
L 73.297582 144.974662 
L 77.221978 149.766249 
L 81.146374 153.478297 
L 85.070769 156.935532 
L 88.995165 159.621049 
L 92.91956 162.06318 
L 96.843956 164.330345 
L 100.768352 166.46089 
L 104.692747 168.338042 
L 108.617143 169.951533 
L 112.541538 171.376605 
L 116.465934 172.869986 
L 120.39033 173.979363 
L 124.314725 175.408313 
L 128.239121 176.641106 
L 132.163516 177.533523 
L 136.087912 178.70052 
L 140.012308 179.794964 
L 143.936703 180.555809 
L 147.861099 181.613371 
L 151.785495 182.283237 
L 155.70989 183.250582 
L 159.634286 184.115802 
L 163.558681 184.599321 
L 167.483077 185.459427 
L 171.407473 186.174584 
L 175.331868 186.748681 
L 179.256264 187.663112 
L 183.180659 188.209643 
L 187.105055 188.761576 
L 191.029451 189.255042 
L 194.953846 189.98372 
L 198.878242 190.334026 
L 202.802637 190.874313 
L 206.727033 191.31752 
L 210.651429 192.017863 
L 214.575824 192.397238 
L 218.50022 192.731407 
L 222.424615 193.374803 
L 226.349011 193.783604 
L 230.273407 194.215832 
L 234.197802 194.628313 
L 238.122198 195.109084 
L 242.046593 195.327665 
L 245.970989 195.573241 
L 249.895385 196.119563 
L 253.81978 196.507359 
L 257.744176 196.952211 
L 261.668571 197.210143 
L 265.592967 197.589407 
L 269.517363 198.099727 
L 273.441758 198.181764 
L 277.366154 198.789616 
L 281.290549 198.731785 
L 285.214945 199.106869 
L 289.139341 199.392137 
L 293.063736 199.763783 
L 296.988132 199.805329 
L 300.912527 200.227827 
L 304.836923 200.612993 
L 308.761319 200.793222 
L 312.685714 200.891435 
L 316.61011 201.221659 
L 320.534505 201.601754 
L 324.458901 201.852649 
L 328.383297 202.150094 
L 332.307692 202.192842 
L 336.232088 202.504775 
L 340.156484 202.600728 
L 344.080879 202.988275 
L 348.005275 203.296873 
L 351.92967 203.267353 
L 355.854066 203.540658 
L 359.778462 203.682082 
L 363.702857 203.927809 
L 367.627253 204.164847 
L 371.551648 204.579312 
L 375.476044 204.713409 
L 379.40044 204.855297 
L 383.324835 204.969008 
L 387.249231 205.083907 
L 391.173626 205.30025 
L 395.098022 205.399944 
L 399.022418 205.603924 
L 402.946813 205.756992 
L 406.871209 206.133013 
L 410.795604 206.26944 
L 414.72 206.419398 
L 418.644396 206.646908 
L 422.568791 206.875228 
L 426.493187 206.794247 
L 430.417582 207.071993 
L 434.341978 207.180834 
L 438.266374 207.303532 
L 442.190769 207.384842 
L 446.115165 207.604317 
" clip-path="url(#p0aec93b934)" style="fill: none; stroke: #2ca02c; stroke-width: 1.5; stroke-linecap: square"/>
   </g>
   <g id="line2d_13">
    <path d="M 57.6 200.238565 
L 61.524396 213.994087 
L 65.448791 224.016239 
L 69.373187 231.796242 
L 73.297582 237.091732 
L 77.221978 239.785173 
L 81.146374 243.059458 
L 85.070769 246.093691 
L 88.995165 249.857988 
L 92.91956 251.626604 
L 96.843956 250.404258 
L 100.768352 254.304679 
L 104.692747 255.676088 
L 108.617143 256.311138 
L 112.541538 256.441557 
L 116.465934 257.787218 
L 120.39033 260.537871 
L 124.314725 260.827114 
L 128.239121 261.755611 
L 132.163516 262.958916 
L 136.087912 264.609522 
L 140.012308 262.676195 
L 143.936703 261.968641 
L 147.861099 267.105583 
L 151.785495 265.17443 
L 155.70989 267.099051 
L 159.634286 265.532664 
L 163.558681 268.026238 
L 167.483077 269.292808 
L 171.407473 268.10577 
L 175.331868 269.900447 
L 179.256264 271.348336 
L 183.180659 271.588442 
L 187.105055 271.834552 
L 191.029451 270.247615 
L 194.953846 272.633164 
L 198.878242 272.928861 
L 202.802637 271.582102 
L 206.727033 277.523809 
L 210.651429 272.701636 
L 214.575824 274.378809 
L 218.50022 274.326172 
L 222.424615 273.944513 
L 226.349011 275.085341 
L 230.273407 278.029764 
L 234.197802 276.659988 
L 238.122198 275.108554 
L 242.046593 277.73756 
L 245.970989 277.327323 
L 249.895385 276.511833 
L 253.81978 275.481259 
L 257.744176 278.797176 
L 261.668571 274.831154 
L 265.592967 279.358189 
L 269.517363 279.478521 
L 273.441758 276.767365 
L 277.366154 275.4227 
L 281.290549 279.628668 
L 285.214945 277.08641 
L 289.139341 277.793253 
L 293.063736 279.861694 
L 296.988132 281.669019 
L 300.912527 282.05012 
L 304.836923 280.369291 
L 308.761319 281.561835 
L 312.685714 280.196134 
L 316.61011 281.647937 
L 320.534505 282.901976 
L 324.458901 281.226507 
L 328.383297 282.904718 
L 332.307692 281.04128 
L 336.232088 280.263869 
L 340.156484 281.77085 
L 344.080879 282.297638 
L 348.005275 284.754713 
L 351.92967 280.275121 
L 355.854066 285.175559 
L 359.778462 281.253186 
L 363.702857 281.952895 
L 367.627253 280.167365 
L 371.551648 283.133377 
L 375.476044 283.053286 
L 379.40044 284.436421 
L 383.324835 283.705443 
L 387.249231 280.257765 
L 391.173626 283.559665 
L 395.098022 285.308278 
L 399.022418 283.230031 
L 402.946813 283.134834 
L 406.871209 282.801004 
L 410.795604 283.568306 
L 414.72 283.747215 
L 418.644396 283.723478 
L 422.568791 283.662871 
L 426.493187 284.38915 
L 430.417582 285.566891 
L 434.341978 285.077261 
L 438.266374 283.026727 
L 442.190769 285.852481 
L 446.115165 287.11276 
" clip-path="url(#p0aec93b934)" style="fill: none; stroke: #d62728; stroke-width: 1.5; stroke-linecap: square"/>
   </g>
   <g id="line2d_14">
    <path d="M 57.6 68.082658 
L 61.524396 125.639942 
L 65.448791 139.682679 
L 69.373187 148.626529 
L 73.297582 155.174745 
L 77.221978 160.209573 
L 81.146374 164.291254 
L 85.070769 167.746783 
L 88.995165 170.703056 
L 92.91956 173.312717 
L 96.843956 175.507143 
L 100.768352 177.459883 
L 104.692747 179.414719 
L 108.617143 181.067558 
L 112.541538 182.706947 
L 116.465934 184.057107 
L 120.39033 185.386377 
L 124.314725 186.891947 
L 128.239121 187.858688 
L 132.163516 189.165044 
L 136.087912 189.94822 
L 140.012308 190.937285 
L 143.936703 191.930695 
L 147.861099 192.875272 
L 151.785495 193.912521 
L 155.70989 194.584325 
L 159.634286 195.237261 
L 163.558681 195.948009 
L 167.483077 196.895579 
L 171.407473 197.45568 
L 175.331868 198.075938 
L 179.256264 198.793363 
L 183.180659 199.383019 
L 187.105055 200.04936 
L 191.029451 200.725675 
L 194.953846 201.191436 
L 198.878242 201.558035 
L 202.802637 202.385796 
L 206.727033 202.641025 
L 210.651429 203.238315 
L 214.575824 203.727141 
L 218.50022 204.079457 
L 222.424615 204.540417 
L 226.349011 205.107859 
L 230.273407 205.646022 
L 234.197802 205.871794 
L 238.122198 206.349764 
L 242.046593 206.661177 
L 245.970989 206.980155 
L 249.895385 207.578584 
L 253.81978 207.76717 
L 257.744176 208.153529 
L 261.668571 208.652583 
L 265.592967 208.783393 
L 269.517363 209.201883 
L 273.441758 209.506403 
L 277.366154 209.799434 
L 281.290549 210.16488 
L 285.214945 210.38057 
L 289.139341 210.841576 
L 293.063736 210.843045 
L 296.988132 211.297085 
L 300.912527 211.646112 
L 304.836923 211.872391 
L 308.761319 212.106055 
L 312.685714 212.350467 
L 316.61011 212.562082 
L 320.534505 212.527064 
L 324.458901 212.883145 
L 328.383297 213.289878 
L 332.307692 213.419154 
L 336.232088 213.847991 
L 340.156484 213.947279 
L 344.080879 214.235761 
L 348.005275 214.509332 
L 351.92967 214.474578 
L 355.854066 214.808631 
L 359.778462 215.11794 
L 363.702857 215.071451 
L 367.627253 215.383472 
L 371.551648 215.461695 
L 375.476044 215.959155 
L 379.40044 216.174762 
L 383.324835 216.160645 
L 387.249231 216.534994 
L 391.173626 216.515724 
L 395.098022 216.704603 
L 399.022418 216.696414 
L 402.946813 217.133014 
L 406.871209 217.295951 
L 410.795604 217.421686 
L 414.72 217.630798 
L 418.644396 217.765018 
L 422.568791 217.858611 
L 426.493187 217.943228 
L 430.417582 218.236194 
L 434.341978 218.400178 
L 438.266374 218.549222 
L 442.190769 218.585525 
L 446.115165 218.873944 
" clip-path="url(#p0aec93b934)" style="fill: none; stroke: #9467bd; stroke-width: 1.5; stroke-linecap: square"/>
   </g>
   <g id="line2d_15">
    <path d="M 57.6 209.503321 
L 61.524396 226.085247 
L 65.448791 235.159021 
L 69.373187 241.355867 
L 73.297582 242.527835 
L 77.221978 250.194159 
L 81.146374 252.81644 
L 85.070769 256.377997 
L 88.995165 256.798713 
L 92.91956 259.435305 
L 96.843956 262.507331 
L 100.768352 262.506091 
L 104.692747 266.385732 
L 108.617143 266.575517 
L 112.541538 269.248694 
L 116.465934 270.68386 
L 120.39033 270.474205 
L 124.314725 272.096125 
L 128.239121 272.6681 
L 132.163516 273.152023 
L 136.087912 272.008006 
L 140.012308 274.304434 
L 143.936703 275.432619 
L 147.861099 276.005654 
L 151.785495 278.215141 
L 155.70989 275.707748 
L 159.634286 273.901989 
L 163.558681 280.450535 
L 167.483077 276.617006 
L 171.407473 275.394964 
L 175.331868 280.440816 
L 179.256264 281.39408 
L 183.180659 278.252089 
L 187.105055 281.441402 
L 191.029451 283.904143 
L 194.953846 282.573394 
L 198.878242 283.102167 
L 202.802637 282.819386 
L 206.727033 283.46662 
L 210.651429 282.802833 
L 214.575824 284.541074 
L 218.50022 285.69377 
L 222.424615 285.559958 
L 226.349011 284.713887 
L 230.273407 284.304006 
L 234.197802 286.005298 
L 238.122198 283.949526 
L 242.046593 286.280595 
L 245.970989 285.960519 
L 249.895385 286.497418 
L 253.81978 283.269598 
L 257.744176 286.946752 
L 261.668571 287.748575 
L 265.592967 287.582154 
L 269.517363 288.817039 
L 273.441758 287.204808 
L 277.366154 288.94887 
L 281.290549 288.631703 
L 285.214945 288.917683 
L 289.139341 290.701024 
L 293.063736 285.489331 
L 296.988132 289.144486 
L 300.912527 289.249921 
L 304.836923 291.193635 
L 308.761319 288.183764 
L 312.685714 291.275057 
L 316.61011 288.229564 
L 320.534505 287.988221 
L 324.458901 287.43459 
L 328.383297 290.536872 
L 332.307692 290.172217 
L 336.232088 290.770828 
L 340.156484 290.634406 
L 344.080879 292.267117 
L 348.005275 291.001791 
L 351.92967 291.613631 
L 355.854066 292.251416 
L 359.778462 291.50139 
L 363.702857 291.992394 
L 367.627253 289.81206 
L 371.551648 293.758112 
L 375.476044 291.933749 
L 379.40044 293.394166 
L 383.324835 294.692175 
L 387.249231 294.552427 
L 391.173626 292.782437 
L 395.098022 294.46852 
L 399.022418 293.213147 
L 402.946813 292.971823 
L 406.871209 294.291283 
L 410.795604 291.219868 
L 414.72 291.959774 
L 418.644396 294.038157 
L 422.568791 295.488 
L 426.493187 293.539107 
L 430.417582 290.025608 
L 434.341978 294.901348 
L 438.266374 291.286464 
L 442.190769 295.439869 
L 446.115165 294.333841 
" clip-path="url(#p0aec93b934)" style="fill: none; stroke: #8c564b; stroke-width: 1.5; stroke-linecap: square"/>
   </g>
   <g id="line2d_16">
    <path d="M 57.6 69.190953 
L 61.524396 127.253283 
L 65.448791 141.016892 
L 69.373187 150.219507 
L 73.297582 156.812296 
L 77.221978 161.943724 
L 81.146374 166.258986 
L 85.070769 169.841295 
L 88.995165 172.944595 
L 92.91956 175.44565 
L 96.843956 177.523879 
L 100.768352 179.789475 
L 104.692747 181.663555 
L 108.617143 183.259377 
L 112.541538 184.919128 
L 116.465934 186.131658 
L 120.39033 187.598363 
L 124.314725 188.940668 
L 128.239121 190.211893 
L 132.163516 191.311021 
L 136.087912 192.394022 
L 140.012308 193.007577 
L 143.936703 194.302992 
L 147.861099 195.073508 
L 151.785495 195.86209 
L 155.70989 196.892598 
L 159.634286 197.409483 
L 163.558681 198.338679 
L 167.483077 198.985673 
L 171.407473 199.697324 
L 175.331868 200.344601 
L 179.256264 201.11226 
L 183.180659 201.673342 
L 187.105055 202.176921 
L 191.029451 202.624152 
L 194.953846 203.037111 
L 198.878242 203.746053 
L 202.802637 204.074348 
L 206.727033 204.683336 
L 210.651429 204.92253 
L 214.575824 205.629241 
L 218.50022 206.139275 
L 222.424615 206.568663 
L 226.349011 206.852632 
L 230.273407 207.288194 
L 234.197802 207.690985 
L 238.122198 208.10765 
L 242.046593 208.421135 
L 245.970989 208.955448 
L 249.895385 209.390828 
L 253.81978 209.722887 
L 257.744176 209.774571 
L 261.668571 210.280815 
L 265.592967 210.49456 
L 269.517363 210.937339 
L 273.441758 211.059766 
L 277.366154 211.590976 
L 281.290549 211.712259 
L 285.214945 211.99026 
L 289.139341 212.21933 
L 293.063736 212.484086 
L 296.988132 212.673854 
L 300.912527 213.078928 
L 304.836923 213.396492 
L 308.761319 213.728199 
L 312.685714 213.716342 
L 316.61011 214.045952 
L 320.534505 214.193737 
L 324.458901 214.482635 
L 328.383297 214.770649 
L 332.307692 214.967657 
L 336.232088 215.266915 
L 340.156484 215.310131 
L 344.080879 215.615682 
L 348.005275 216.057284 
L 351.92967 215.912589 
L 355.854066 216.132315 
L 359.778462 216.21257 
L 363.702857 216.578013 
L 367.627253 216.72874 
L 371.551648 216.883889 
L 375.476044 216.999516 
L 379.40044 217.402655 
L 383.324835 217.414394 
L 387.249231 217.481663 
L 391.173626 217.923686 
L 395.098022 217.89669 
L 399.022418 218.068608 
L 402.946813 218.232885 
L 406.871209 218.350241 
L 410.795604 218.690173 
L 414.72 218.562562 
" clip-path="url(#p0aec93b934)" style="fill: none; stroke: #e377c2; stroke-width: 1.5; stroke-linecap: square"/>
   </g>
   <g id="line2d_17">
    <path d="M 57.6 213.999026 
L 61.524396 229.009841 
L 65.448791 235.790256 
L 69.373187 243.421771 
L 73.297582 245.848955 
L 77.221978 252.724607 
L 81.146374 254.361247 
L 85.070769 255.933284 
L 88.995165 260.389938 
L 92.91956 261.342904 
L 96.843956 262.525988 
L 100.768352 266.381302 
L 104.692747 263.365853 
L 108.617143 268.658119 
L 112.541538 268.635856 
L 116.465934 271.400658 
L 120.39033 271.438198 
L 124.314725 270.468197 
L 128.239121 271.220968 
L 132.163516 275.340225 
L 136.087912 274.662289 
L 140.012308 275.749877 
L 143.936703 277.172441 
L 147.861099 275.158867 
L 151.785495 280.311578 
L 155.70989 279.671966 
L 159.634286 280.022524 
L 163.558681 278.820459 
L 167.483077 280.423304 
L 171.407473 282.225188 
L 175.331868 280.539812 
L 179.256264 278.340902 
L 183.180659 281.291567 
L 187.105055 282.323047 
L 191.029451 284.712932 
L 194.953846 283.7839 
L 198.878242 283.307986 
L 202.802637 281.274033 
L 206.727033 280.796896 
L 210.651429 285.231996 
L 214.575824 284.629534 
L 218.50022 286.675095 
L 222.424615 286.123649 
L 226.349011 286.589713 
L 230.273407 284.596586 
L 234.197802 287.615018 
L 238.122198 286.447397 
L 242.046593 288.020016 
L 245.970989 287.673471 
L 249.895385 286.187195 
L 253.81978 287.076688 
L 257.744176 288.28651 
L 261.668571 285.762278 
L 265.592967 286.988645 
L 269.517363 286.707612 
L 273.441758 287.975066 
L 277.366154 290.25985 
L 281.290549 290.565965 
L 285.214945 288.25255 
L 289.139341 288.748299 
L 293.063736 289.835879 
L 296.988132 290.630484 
L 300.912527 291.332613 
L 304.836923 292.765274 
L 308.761319 288.454402 
L 312.685714 290.668425 
L 316.61011 289.995205 
L 320.534505 291.770865 
L 324.458901 290.289671 
L 328.383297 292.18967 
L 332.307692 289.372622 
L 336.232088 293.782225 
L 340.156484 294.597851 
L 344.080879 292.089608 
L 348.005275 292.214072 
L 351.92967 291.37911 
L 355.854066 290.016772 
L 359.778462 291.18681 
L 363.702857 292.632021 
L 367.627253 293.64221 
L 371.551648 291.723237 
L 375.476044 294.747724 
L 379.40044 290.999964 
L 383.324835 291.205968 
L 387.249231 292.217142 
L 391.173626 292.615625 
L 395.098022 291.38423 
L 399.022418 294.24172 
L 402.946813 293.322702 
L 406.871209 291.872804 
L 410.795604 292.37717 
L 414.72 293.949669 
" clip-path="url(#p0aec93b934)" style="fill: none; stroke: #7f7f7f; stroke-width: 1.5; stroke-linecap: square"/>
   </g>
   <g id="patch_3">
    <path d="M 57.6 307.584 
L 57.6 41.472 
" style="fill: none; stroke: #000000; stroke-width: 0.8; stroke-linejoin: miter; stroke-linecap: square"/>
   </g>
   <g id="patch_4">
    <path d="M 414.72 307.584 
L 414.72 41.472 
" style="fill: none; stroke: #000000; stroke-width: 0.8; stroke-linejoin: miter; stroke-linecap: square"/>
   </g>
   <g id="patch_5">
    <path d="M 57.6 307.584 
L 414.72 307.584 
" style="fill: none; stroke: #000000; stroke-width: 0.8; stroke-linejoin: miter; stroke-linecap: square"/>
   </g>
   <g id="patch_6">
    <path d="M 57.6 41.472 
L 414.72 41.472 
" style="fill: none; stroke: #000000; stroke-width: 0.8; stroke-linejoin: miter; stroke-linecap: square"/>
   </g>
   <g id="legend_1">
    <g id="patch_7">
     <path d="M 352.445 166.897 
L 407.72 166.897 
Q 409.72 166.897 409.72 164.897 
L 409.72 48.472 
Q 409.72 46.472 407.72 46.472 
L 352.445 46.472 
Q 350.445 46.472 350.445 48.472 
L 350.445 164.897 
Q 350.445 166.897 352.445 166.897 
z
" style="fill: #ffffff; opacity: 0.8; stroke: #cccccc; stroke-linejoin: miter"/>
    </g>
    <g id="line2d_18">
     <path d="M 354.445 54.570438 
L 364.445 54.570438 
L 374.445 54.570438 
" style="fill: none; stroke: #1f77b4; stroke-width: 1.5; stroke-linecap: square"/>
    </g>
    <g id="text_12">
     <!-- train -->
     <g transform="translate(382.445 58.070438) scale(0.1 -0.1)">
      <defs>
       <path id="DejaVuSans-74" d="M 1172 4494 
L 1172 3500 
L 2356 3500 
L 2356 3053 
L 1172 3053 
L 1172 1153 
Q 1172 725 1289 603 
Q 1406 481 1766 481 
L 2356 481 
L 2356 0 
L 1766 0 
Q 1100 0 847 248 
Q 594 497 594 1153 
L 594 3053 
L 172 3053 
L 172 3500 
L 594 3500 
L 594 4494 
L 1172 4494 
z
" transform="scale(0.015625)"/>
       <path id="DejaVuSans-72" d="M 2631 2963 
Q 2534 3019 2420 3045 
Q 2306 3072 2169 3072 
Q 1681 3072 1420 2755 
Q 1159 2438 1159 1844 
L 1159 0 
L 581 0 
L 581 3500 
L 1159 3500 
L 1159 2956 
Q 1341 3275 1631 3429 
Q 1922 3584 2338 3584 
Q 2397 3584 2469 3576 
Q 2541 3569 2628 3553 
L 2631 2963 
z
" transform="scale(0.015625)"/>
       <path id="DejaVuSans-61" d="M 2194 1759 
Q 1497 1759 1228 1600 
Q 959 1441 959 1056 
Q 959 750 1161 570 
Q 1363 391 1709 391 
Q 2188 391 2477 730 
Q 2766 1069 2766 1631 
L 2766 1759 
L 2194 1759 
z
M 3341 1997 
L 3341 0 
L 2766 0 
L 2766 531 
Q 2569 213 2275 61 
Q 1981 -91 1556 -91 
Q 1019 -91 701 211 
Q 384 513 384 1019 
Q 384 1609 779 1909 
Q 1175 2209 1959 2209 
L 2766 2209 
L 2766 2266 
Q 2766 2663 2505 2880 
Q 2244 3097 1772 3097 
Q 1472 3097 1187 3025 
Q 903 2953 641 2809 
L 641 3341 
Q 956 3463 1253 3523 
Q 1550 3584 1831 3584 
Q 2591 3584 2966 3190 
Q 3341 2797 3341 1997 
z
" transform="scale(0.015625)"/>
       <path id="DejaVuSans-69" d="M 603 3500 
L 1178 3500 
L 1178 0 
L 603 0 
L 603 3500 
z
M 603 4863 
L 1178 4863 
L 1178 4134 
L 603 4134 
L 603 4863 
z
" transform="scale(0.015625)"/>
       <path id="DejaVuSans-6e" d="M 3513 2113 
L 3513 0 
L 2938 0 
L 2938 2094 
Q 2938 2591 2744 2837 
Q 2550 3084 2163 3084 
Q 1697 3084 1428 2787 
Q 1159 2491 1159 1978 
L 1159 0 
L 581 0 
L 581 3500 
L 1159 3500 
L 1159 2956 
Q 1366 3272 1645 3428 
Q 1925 3584 2291 3584 
Q 2894 3584 3203 3211 
Q 3513 2838 3513 2113 
z
" transform="scale(0.015625)"/>
      </defs>
      <use xlink:href="#DejaVuSans-74"/>
      <use xlink:href="#DejaVuSans-72" x="39.208984"/>
      <use xlink:href="#DejaVuSans-61" x="80.322266"/>
      <use xlink:href="#DejaVuSans-69" x="141.601562"/>
      <use xlink:href="#DejaVuSans-6e" x="169.384766"/>
     </g>
    </g>
    <g id="line2d_19">
     <path d="M 354.445 69.248563 
L 364.445 69.248563 
L 374.445 69.248563 
" style="fill: none; stroke: #ff7f0e; stroke-width: 1.5; stroke-linecap: square"/>
    </g>
    <g id="text_13">
     <!-- val -->
     <g transform="translate(382.445 72.748563) scale(0.1 -0.1)">
      <defs>
       <path id="DejaVuSans-76" d="M 191 3500 
L 800 3500 
L 1894 563 
L 2988 3500 
L 3597 3500 
L 2284 0 
L 1503 0 
L 191 3500 
z
" transform="scale(0.015625)"/>
       <path id="DejaVuSans-6c" d="M 603 4863 
L 1178 4863 
L 1178 0 
L 603 0 
L 603 4863 
z
" transform="scale(0.015625)"/>
      </defs>
      <use xlink:href="#DejaVuSans-76"/>
      <use xlink:href="#DejaVuSans-61" x="59.179688"/>
      <use xlink:href="#DejaVuSans-6c" x="120.458984"/>
     </g>
    </g>
    <g id="line2d_20">
     <path d="M 354.445 83.926688 
L 364.445 83.926688 
L 374.445 83.926688 
" style="fill: none; stroke: #2ca02c; stroke-width: 1.5; stroke-linecap: square"/>
    </g>
    <g id="text_14">
     <!-- train -->
     <g transform="translate(382.445 87.426688) scale(0.1 -0.1)">
      <use xlink:href="#DejaVuSans-74"/>
      <use xlink:href="#DejaVuSans-72" x="39.208984"/>
      <use xlink:href="#DejaVuSans-61" x="80.322266"/>
      <use xlink:href="#DejaVuSans-69" x="141.601562"/>
      <use xlink:href="#DejaVuSans-6e" x="169.384766"/>
     </g>
    </g>
    <g id="line2d_21">
     <path d="M 354.445 98.604813 
L 364.445 98.604813 
L 374.445 98.604813 
" style="fill: none; stroke: #d62728; stroke-width: 1.5; stroke-linecap: square"/>
    </g>
    <g id="text_15">
     <!-- val -->
     <g transform="translate(382.445 102.104813) scale(0.1 -0.1)">
      <use xlink:href="#DejaVuSans-76"/>
      <use xlink:href="#DejaVuSans-61" x="59.179688"/>
      <use xlink:href="#DejaVuSans-6c" x="120.458984"/>
     </g>
    </g>
    <g id="line2d_22">
     <path d="M 354.445 113.282938 
L 364.445 113.282938 
L 374.445 113.282938 
" style="fill: none; stroke: #9467bd; stroke-width: 1.5; stroke-linecap: square"/>
    </g>
    <g id="text_16">
     <!-- train -->
     <g transform="translate(382.445 116.782938) scale(0.1 -0.1)">
      <use xlink:href="#DejaVuSans-74"/>
      <use xlink:href="#DejaVuSans-72" x="39.208984"/>
      <use xlink:href="#DejaVuSans-61" x="80.322266"/>
      <use xlink:href="#DejaVuSans-69" x="141.601562"/>
      <use xlink:href="#DejaVuSans-6e" x="169.384766"/>
     </g>
    </g>
    <g id="line2d_23">
     <path d="M 354.445 127.961063 
L 364.445 127.961063 
L 374.445 127.961063 
" style="fill: none; stroke: #8c564b; stroke-width: 1.5; stroke-linecap: square"/>
    </g>
    <g id="text_17">
     <!-- val -->
     <g transform="translate(382.445 131.461063) scale(0.1 -0.1)">
      <use xlink:href="#DejaVuSans-76"/>
      <use xlink:href="#DejaVuSans-61" x="59.179688"/>
      <use xlink:href="#DejaVuSans-6c" x="120.458984"/>
     </g>
    </g>
    <g id="line2d_24">
     <path d="M 354.445 142.639188 
L 364.445 142.639188 
L 374.445 142.639188 
" style="fill: none; stroke: #e377c2; stroke-width: 1.5; stroke-linecap: square"/>
    </g>
    <g id="text_18">
     <!-- train -->
     <g transform="translate(382.445 146.139188) scale(0.1 -0.1)">
      <use xlink:href="#DejaVuSans-74"/>
      <use xlink:href="#DejaVuSans-72" x="39.208984"/>
      <use xlink:href="#DejaVuSans-61" x="80.322266"/>
      <use xlink:href="#DejaVuSans-69" x="141.601562"/>
      <use xlink:href="#DejaVuSans-6e" x="169.384766"/>
     </g>
    </g>
    <g id="line2d_25">
     <path d="M 354.445 157.317313 
L 364.445 157.317313 
L 374.445 157.317313 
" style="fill: none; stroke: #7f7f7f; stroke-width: 1.5; stroke-linecap: square"/>
    </g>
    <g id="text_19">
     <!-- val -->
     <g transform="translate(382.445 160.817313) scale(0.1 -0.1)">
      <use xlink:href="#DejaVuSans-76"/>
      <use xlink:href="#DejaVuSans-61" x="59.179688"/>
      <use xlink:href="#DejaVuSans-6c" x="120.458984"/>
     </g>
    </g>
   </g>
  </g>
 </g>
 <defs>
  <clipPath id="p0aec93b934">
   <rect x="57.6" y="41.472" width="357.12" height="266.112"/>
  </clipPath>
 </defs>
</svg>
