<?xml version="1.0" encoding="utf-8" standalone="no"?>
<!DOCTYPE svg PUBLIC "-//W3C//DTD SVG 1.1//EN"
  "http://www.w3.org/Graphics/SVG/1.1/DTD/svg11.dtd">
<svg xmlns:xlink="http://www.w3.org/1999/xlink" width="460.8pt" height="345.6pt" viewBox="0 0 460.8 345.6" xmlns="http://www.w3.org/2000/svg" version="1.1">
 <metadata>
  <rdf:RDF xmlns:dc="http://purl.org/dc/elements/1.1/" xmlns:cc="http://creativecommons.org/ns#" xmlns:rdf="http://www.w3.org/1999/02/22-rdf-syntax-ns#">
   <cc:Work>
    <dc:type rdf:resource="http://purl.org/dc/dcmitype/StillImage"/>
    <dc:date>2024-08-02T13:57:57.662522</dc:date>
    <dc:format>image/svg+xml</dc:format>
    <dc:creator>
     <cc:Agent>
      <dc:title>Matplotlib v3.7.4, https://matplotlib.org/</dc:title>
     </cc:Agent>
    </dc:creator>
   </cc:Work>
  </rdf:RDF>
 </metadata>
 <defs>
  <style type="text/css">*{stroke-linejoin: round; stroke-linecap: butt}</style>
 </defs>
 <g id="figure_1">
  <g id="patch_1">
   <path d="M 0 345.6 
L 460.8 345.6 
L 460.8 0 
L 0 0 
z
" style="fill: #ffffff"/>
  </g>
  <g id="axes_1">
   <g id="patch_2">
    <path d="M 57.6 307.584 
L 414.72 307.584 
L 414.72 41.472 
L 57.6 41.472 
z
" style="fill: #ffffff"/>
   </g>
   <g id="matplotlib.axis_1">
    <g id="xtick_1">
     <g id="line2d_1">
      <defs>
       <path id="m0eb6aaafde" d="M 0 0 
L 0 3.5 
" style="stroke: #000000; stroke-width: 0.8"/>
      </defs>
      <g>
       <use xlink:href="#m0eb6aaafde" x="126.138182" y="307.584" style="stroke: #000000; stroke-width: 0.8"/>
      </g>
     </g>
     <g id="text_1">
      <!-- 20 -->
      <g transform="translate(119.775682 322.182437) scale(0.1 -0.1)">
       <defs>
        <path id="DejaVuSans-32" d="M 1228 531 
L 3431 531 
L 3431 0 
L 469 0 
L 469 531 
Q 828 903 1448 1529 
Q 2069 2156 2228 2338 
Q 2531 2678 2651 2914 
Q 2772 3150 2772 3378 
Q 2772 3750 2511 3984 
Q 2250 4219 1831 4219 
Q 1534 4219 1204 4116 
Q 875 4013 500 3803 
L 500 4441 
Q 881 4594 1212 4672 
Q 1544 4750 1819 4750 
Q 2544 4750 2975 4387 
Q 3406 4025 3406 3419 
Q 3406 3131 3298 2873 
Q 3191 2616 2906 2266 
Q 2828 2175 2409 1742 
Q 1991 1309 1228 531 
z
" transform="scale(0.015625)"/>
        <path id="DejaVuSans-30" d="M 2034 4250 
Q 1547 4250 1301 3770 
Q 1056 3291 1056 2328 
Q 1056 1369 1301 889 
Q 1547 409 2034 409 
Q 2525 409 2770 889 
Q 3016 1369 3016 2328 
Q 3016 3291 2770 3770 
Q 2525 4250 2034 4250 
z
M 2034 4750 
Q 2819 4750 3233 4129 
Q 3647 3509 3647 2328 
Q 3647 1150 3233 529 
Q 2819 -91 2034 -91 
Q 1250 -91 836 529 
Q 422 1150 422 2328 
Q 422 3509 836 4129 
Q 1250 4750 2034 4750 
z
" transform="scale(0.015625)"/>
       </defs>
       <use xlink:href="#DejaVuSans-32"/>
       <use xlink:href="#DejaVuSans-30" x="63.623047"/>
      </g>
     </g>
    </g>
    <g id="xtick_2">
     <g id="line2d_2">
      <g>
       <use xlink:href="#m0eb6aaafde" x="198.283636" y="307.584" style="stroke: #000000; stroke-width: 0.8"/>
      </g>
     </g>
     <g id="text_2">
      <!-- 40 -->
      <g transform="translate(191.921136 322.182437) scale(0.1 -0.1)">
       <defs>
        <path id="DejaVuSans-34" d="M 2419 4116 
L 825 1625 
L 2419 1625 
L 2419 4116 
z
M 2253 4666 
L 3047 4666 
L 3047 1625 
L 3713 1625 
L 3713 1100 
L 3047 1100 
L 3047 0 
L 2419 0 
L 2419 1100 
L 313 1100 
L 313 1709 
L 2253 4666 
z
" transform="scale(0.015625)"/>
       </defs>
       <use xlink:href="#DejaVuSans-34"/>
       <use xlink:href="#DejaVuSans-30" x="63.623047"/>
      </g>
     </g>
    </g>
    <g id="xtick_3">
     <g id="line2d_3">
      <g>
       <use xlink:href="#m0eb6aaafde" x="270.429091" y="307.584" style="stroke: #000000; stroke-width: 0.8"/>
      </g>
     </g>
     <g id="text_3">
      <!-- 60 -->
      <g transform="translate(264.066591 322.182437) scale(0.1 -0.1)">
       <defs>
        <path id="DejaVuSans-36" d="M 2113 2584 
Q 1688 2584 1439 2293 
Q 1191 2003 1191 1497 
Q 1191 994 1439 701 
Q 1688 409 2113 409 
Q 2538 409 2786 701 
Q 3034 994 3034 1497 
Q 3034 2003 2786 2293 
Q 2538 2584 2113 2584 
z
M 3366 4563 
L 3366 3988 
Q 3128 4100 2886 4159 
Q 2644 4219 2406 4219 
Q 1781 4219 1451 3797 
Q 1122 3375 1075 2522 
Q 1259 2794 1537 2939 
Q 1816 3084 2150 3084 
Q 2853 3084 3261 2657 
Q 3669 2231 3669 1497 
Q 3669 778 3244 343 
Q 2819 -91 2113 -91 
Q 1303 -91 875 529 
Q 447 1150 447 2328 
Q 447 3434 972 4092 
Q 1497 4750 2381 4750 
Q 2619 4750 2861 4703 
Q 3103 4656 3366 4563 
z
" transform="scale(0.015625)"/>
       </defs>
       <use xlink:href="#DejaVuSans-36"/>
       <use xlink:href="#DejaVuSans-30" x="63.623047"/>
      </g>
     </g>
    </g>
    <g id="xtick_4">
     <g id="line2d_4">
      <g>
       <use xlink:href="#m0eb6aaafde" x="342.574545" y="307.584" style="stroke: #000000; stroke-width: 0.8"/>
      </g>
     </g>
     <g id="text_4">
      <!-- 80 -->
      <g transform="translate(336.212045 322.182437) scale(0.1 -0.1)">
       <defs>
        <path id="DejaVuSans-38" d="M 2034 2216 
Q 1584 2216 1326 1975 
Q 1069 1734 1069 1313 
Q 1069 891 1326 650 
Q 1584 409 2034 409 
Q 2484 409 2743 651 
Q 3003 894 3003 1313 
Q 3003 1734 2745 1975 
Q 2488 2216 2034 2216 
z
M 1403 2484 
Q 997 2584 770 2862 
Q 544 3141 544 3541 
Q 544 4100 942 4425 
Q 1341 4750 2034 4750 
Q 2731 4750 3128 4425 
Q 3525 4100 3525 3541 
Q 3525 3141 3298 2862 
Q 3072 2584 2669 2484 
Q 3125 2378 3379 2068 
Q 3634 1759 3634 1313 
Q 3634 634 3220 271 
Q 2806 -91 2034 -91 
Q 1263 -91 848 271 
Q 434 634 434 1313 
Q 434 1759 690 2068 
Q 947 2378 1403 2484 
z
M 1172 3481 
Q 1172 3119 1398 2916 
Q 1625 2713 2034 2713 
Q 2441 2713 2670 2916 
Q 2900 3119 2900 3481 
Q 2900 3844 2670 4047 
Q 2441 4250 2034 4250 
Q 1625 4250 1398 4047 
Q 1172 3844 1172 3481 
z
" transform="scale(0.015625)"/>
       </defs>
       <use xlink:href="#DejaVuSans-38"/>
       <use xlink:href="#DejaVuSans-30" x="63.623047"/>
      </g>
     </g>
    </g>
    <g id="xtick_5">
     <g id="line2d_5">
      <g>
       <use xlink:href="#m0eb6aaafde" x="414.72" y="307.584" style="stroke: #000000; stroke-width: 0.8"/>
      </g>
     </g>
     <g id="text_5">
      <!-- 100 -->
      <g transform="translate(405.17625 322.182437) scale(0.1 -0.1)">
       <defs>
        <path id="DejaVuSans-31" d="M 794 531 
L 1825 531 
L 1825 4091 
L 703 3866 
L 703 4441 
L 1819 4666 
L 2450 4666 
L 2450 531 
L 3481 531 
L 3481 0 
L 794 0 
L 794 531 
z
" transform="scale(0.015625)"/>
       </defs>
       <use xlink:href="#DejaVuSans-31"/>
       <use xlink:href="#DejaVuSans-30" x="63.623047"/>
       <use xlink:href="#DejaVuSans-30" x="127.246094"/>
      </g>
     </g>
    </g>
    <g id="text_6">
     <!-- Epoch -->
     <g transform="translate(220.849063 335.860562) scale(0.1 -0.1)">
      <defs>
       <path id="DejaVuSans-45" d="M 628 4666 
L 3578 4666 
L 3578 4134 
L 1259 4134 
L 1259 2753 
L 3481 2753 
L 3481 2222 
L 1259 2222 
L 1259 531 
L 3634 531 
L 3634 0 
L 628 0 
L 628 4666 
z
" transform="scale(0.015625)"/>
       <path id="DejaVuSans-70" d="M 1159 525 
L 1159 -1331 
L 581 -1331 
L 581 3500 
L 1159 3500 
L 1159 2969 
Q 1341 3281 1617 3432 
Q 1894 3584 2278 3584 
Q 2916 3584 3314 3078 
Q 3713 2572 3713 1747 
Q 3713 922 3314 415 
Q 2916 -91 2278 -91 
Q 1894 -91 1617 61 
Q 1341 213 1159 525 
z
M 3116 1747 
Q 3116 2381 2855 2742 
Q 2594 3103 2138 3103 
Q 1681 3103 1420 2742 
Q 1159 2381 1159 1747 
Q 1159 1113 1420 752 
Q 1681 391 2138 391 
Q 2594 391 2855 752 
Q 3116 1113 3116 1747 
z
" transform="scale(0.015625)"/>
       <path id="DejaVuSans-6f" d="M 1959 3097 
Q 1497 3097 1228 2736 
Q 959 2375 959 1747 
Q 959 1119 1226 758 
Q 1494 397 1959 397 
Q 2419 397 2687 759 
Q 2956 1122 2956 1747 
Q 2956 2369 2687 2733 
Q 2419 3097 1959 3097 
z
M 1959 3584 
Q 2709 3584 3137 3096 
Q 3566 2609 3566 1747 
Q 3566 888 3137 398 
Q 2709 -91 1959 -91 
Q 1206 -91 779 398 
Q 353 888 353 1747 
Q 353 2609 779 3096 
Q 1206 3584 1959 3584 
z
" transform="scale(0.015625)"/>
       <path id="DejaVuSans-63" d="M 3122 3366 
L 3122 2828 
Q 2878 2963 2633 3030 
Q 2388 3097 2138 3097 
Q 1578 3097 1268 2742 
Q 959 2388 959 1747 
Q 959 1106 1268 751 
Q 1578 397 2138 397 
Q 2388 397 2633 464 
Q 2878 531 3122 666 
L 3122 134 
Q 2881 22 2623 -34 
Q 2366 -91 2075 -91 
Q 1284 -91 818 406 
Q 353 903 353 1747 
Q 353 2603 823 3093 
Q 1294 3584 2113 3584 
Q 2378 3584 2631 3529 
Q 2884 3475 3122 3366 
z
" transform="scale(0.015625)"/>
       <path id="DejaVuSans-68" d="M 3513 2113 
L 3513 0 
L 2938 0 
L 2938 2094 
Q 2938 2591 2744 2837 
Q 2550 3084 2163 3084 
Q 1697 3084 1428 2787 
Q 1159 2491 1159 1978 
L 1159 0 
L 581 0 
L 581 4863 
L 1159 4863 
L 1159 2956 
Q 1366 3272 1645 3428 
Q 1925 3584 2291 3584 
Q 2894 3584 3203 3211 
Q 3513 2838 3513 2113 
z
" transform="scale(0.015625)"/>
      </defs>
      <use xlink:href="#DejaVuSans-45"/>
      <use xlink:href="#DejaVuSans-70" x="63.183594"/>
      <use xlink:href="#DejaVuSans-6f" x="126.660156"/>
      <use xlink:href="#DejaVuSans-63" x="187.841797"/>
      <use xlink:href="#DejaVuSans-68" x="242.822266"/>
     </g>
    </g>
   </g>
   <g id="matplotlib.axis_2">
    <g id="ytick_1">
     <g id="line2d_6">
      <defs>
       <path id="me0ed340f1f" d="M 0 0 
L -3.5 0 
" style="stroke: #000000; stroke-width: 0.8"/>
      </defs>
      <g>
       <use xlink:href="#me0ed340f1f" x="57.6" y="294.027875" style="stroke: #000000; stroke-width: 0.8"/>
      </g>
     </g>
     <g id="text_7">
      <!-- 0.100 -->
      <g transform="translate(21.971875 297.827093) scale(0.1 -0.1)">
       <defs>
        <path id="DejaVuSans-2e" d="M 684 794 
L 1344 794 
L 1344 0 
L 684 0 
L 684 794 
z
" transform="scale(0.015625)"/>
       </defs>
       <use xlink:href="#DejaVuSans-30"/>
       <use xlink:href="#DejaVuSans-2e" x="63.623047"/>
       <use xlink:href="#DejaVuSans-31" x="95.410156"/>
       <use xlink:href="#DejaVuSans-30" x="159.033203"/>
       <use xlink:href="#DejaVuSans-30" x="222.65625"/>
      </g>
     </g>
    </g>
    <g id="ytick_2">
     <g id="line2d_7">
      <g>
       <use xlink:href="#me0ed340f1f" x="57.6" y="258.836239" style="stroke: #000000; stroke-width: 0.8"/>
      </g>
     </g>
     <g id="text_8">
      <!-- 0.125 -->
      <g transform="translate(21.971875 262.635458) scale(0.1 -0.1)">
       <defs>
        <path id="DejaVuSans-35" d="M 691 4666 
L 3169 4666 
L 3169 4134 
L 1269 4134 
L 1269 2991 
Q 1406 3038 1543 3061 
Q 1681 3084 1819 3084 
Q 2600 3084 3056 2656 
Q 3513 2228 3513 1497 
Q 3513 744 3044 326 
Q 2575 -91 1722 -91 
Q 1428 -91 1123 -41 
Q 819 9 494 109 
L 494 744 
Q 775 591 1075 516 
Q 1375 441 1709 441 
Q 2250 441 2565 725 
Q 2881 1009 2881 1497 
Q 2881 1984 2565 2268 
Q 2250 2553 1709 2553 
Q 1456 2553 1204 2497 
Q 953 2441 691 2322 
L 691 4666 
z
" transform="scale(0.015625)"/>
       </defs>
       <use xlink:href="#DejaVuSans-30"/>
       <use xlink:href="#DejaVuSans-2e" x="63.623047"/>
       <use xlink:href="#DejaVuSans-31" x="95.410156"/>
       <use xlink:href="#DejaVuSans-32" x="159.033203"/>
       <use xlink:href="#DejaVuSans-35" x="222.65625"/>
      </g>
     </g>
    </g>
    <g id="ytick_3">
     <g id="line2d_8">
      <g>
       <use xlink:href="#me0ed340f1f" x="57.6" y="223.644604" style="stroke: #000000; stroke-width: 0.8"/>
      </g>
     </g>
     <g id="text_9">
      <!-- 0.150 -->
      <g transform="translate(21.971875 227.443823) scale(0.1 -0.1)">
       <use xlink:href="#DejaVuSans-30"/>
       <use xlink:href="#DejaVuSans-2e" x="63.623047"/>
       <use xlink:href="#DejaVuSans-31" x="95.410156"/>
       <use xlink:href="#DejaVuSans-35" x="159.033203"/>
       <use xlink:href="#DejaVuSans-30" x="222.65625"/>
      </g>
     </g>
    </g>
    <g id="ytick_4">
     <g id="line2d_9">
      <g>
       <use xlink:href="#me0ed340f1f" x="57.6" y="188.452969" style="stroke: #000000; stroke-width: 0.8"/>
      </g>
     </g>
     <g id="text_10">
      <!-- 0.175 -->
      <g transform="translate(21.971875 192.252188) scale(0.1 -0.1)">
       <defs>
        <path id="DejaVuSans-37" d="M 525 4666 
L 3525 4666 
L 3525 4397 
L 1831 0 
L 1172 0 
L 2766 4134 
L 525 4134 
L 525 4666 
z
" transform="scale(0.015625)"/>
       </defs>
       <use xlink:href="#DejaVuSans-30"/>
       <use xlink:href="#DejaVuSans-2e" x="63.623047"/>
       <use xlink:href="#DejaVuSans-31" x="95.410156"/>
       <use xlink:href="#DejaVuSans-37" x="159.033203"/>
       <use xlink:href="#DejaVuSans-35" x="222.65625"/>
      </g>
     </g>
    </g>
    <g id="ytick_5">
     <g id="line2d_10">
      <g>
       <use xlink:href="#me0ed340f1f" x="57.6" y="153.261334" style="stroke: #000000; stroke-width: 0.8"/>
      </g>
     </g>
     <g id="text_11">
      <!-- 0.200 -->
      <g transform="translate(21.971875 157.060552) scale(0.1 -0.1)">
       <use xlink:href="#DejaVuSans-30"/>
       <use xlink:href="#DejaVuSans-2e" x="63.623047"/>
       <use xlink:href="#DejaVuSans-32" x="95.410156"/>
       <use xlink:href="#DejaVuSans-30" x="159.033203"/>
       <use xlink:href="#DejaVuSans-30" x="222.65625"/>
      </g>
     </g>
    </g>
    <g id="ytick_6">
     <g id="line2d_11">
      <g>
       <use xlink:href="#me0ed340f1f" x="57.6" y="118.069698" style="stroke: #000000; stroke-width: 0.8"/>
      </g>
     </g>
     <g id="text_12">
      <!-- 0.225 -->
      <g transform="translate(21.971875 121.868917) scale(0.1 -0.1)">
       <use xlink:href="#DejaVuSans-30"/>
       <use xlink:href="#DejaVuSans-2e" x="63.623047"/>
       <use xlink:href="#DejaVuSans-32" x="95.410156"/>
       <use xlink:href="#DejaVuSans-32" x="159.033203"/>
       <use xlink:href="#DejaVuSans-35" x="222.65625"/>
      </g>
     </g>
    </g>
    <g id="ytick_7">
     <g id="line2d_12">
      <g>
       <use xlink:href="#me0ed340f1f" x="57.6" y="82.878063" style="stroke: #000000; stroke-width: 0.8"/>
      </g>
     </g>
     <g id="text_13">
      <!-- 0.250 -->
      <g transform="translate(21.971875 86.677282) scale(0.1 -0.1)">
       <use xlink:href="#DejaVuSans-30"/>
       <use xlink:href="#DejaVuSans-2e" x="63.623047"/>
       <use xlink:href="#DejaVuSans-32" x="95.410156"/>
       <use xlink:href="#DejaVuSans-35" x="159.033203"/>
       <use xlink:href="#DejaVuSans-30" x="222.65625"/>
      </g>
     </g>
    </g>
    <g id="ytick_8">
     <g id="line2d_13">
      <g>
       <use xlink:href="#me0ed340f1f" x="57.6" y="47.686428" style="stroke: #000000; stroke-width: 0.8"/>
      </g>
     </g>
     <g id="text_14">
      <!-- 0.275 -->
      <g transform="translate(21.971875 51.485647) scale(0.1 -0.1)">
       <use xlink:href="#DejaVuSans-30"/>
       <use xlink:href="#DejaVuSans-2e" x="63.623047"/>
       <use xlink:href="#DejaVuSans-32" x="95.410156"/>
       <use xlink:href="#DejaVuSans-37" x="159.033203"/>
       <use xlink:href="#DejaVuSans-35" x="222.65625"/>
      </g>
     </g>
    </g>
    <g id="text_15">
     <!-- Loss -->
     <g transform="translate(15.892188 185.495187) rotate(-90) scale(0.1 -0.1)">
      <defs>
       <path id="DejaVuSans-4c" d="M 628 4666 
L 1259 4666 
L 1259 531 
L 3531 531 
L 3531 0 
L 628 0 
L 628 4666 
z
" transform="scale(0.015625)"/>
       <path id="DejaVuSans-73" d="M 2834 3397 
L 2834 2853 
Q 2591 2978 2328 3040 
Q 2066 3103 1784 3103 
Q 1356 3103 1142 2972 
Q 928 2841 928 2578 
Q 928 2378 1081 2264 
Q 1234 2150 1697 2047 
L 1894 2003 
Q 2506 1872 2764 1633 
Q 3022 1394 3022 966 
Q 3022 478 2636 193 
Q 2250 -91 1575 -91 
Q 1294 -91 989 -36 
Q 684 19 347 128 
L 347 722 
Q 666 556 975 473 
Q 1284 391 1588 391 
Q 1994 391 2212 530 
Q 2431 669 2431 922 
Q 2431 1156 2273 1281 
Q 2116 1406 1581 1522 
L 1381 1569 
Q 847 1681 609 1914 
Q 372 2147 372 2553 
Q 372 3047 722 3315 
Q 1072 3584 1716 3584 
Q 2034 3584 2315 3537 
Q 2597 3491 2834 3397 
z
" transform="scale(0.015625)"/>
      </defs>
      <use xlink:href="#DejaVuSans-4c"/>
      <use xlink:href="#DejaVuSans-6f" x="53.962891"/>
      <use xlink:href="#DejaVuSans-73" x="115.144531"/>
      <use xlink:href="#DejaVuSans-73" x="167.244141"/>
     </g>
    </g>
   </g>
   <g id="line2d_14">
    <path d="M 57.6 53.568 
L 61.207273 254.888918 
L 64.814545 271.710215 
L 68.421818 274.404382 
L 72.029091 275.515235 
L 75.636364 276.30537 
L 79.243636 276.940686 
L 82.850909 277.474694 
L 86.458182 277.951113 
L 90.065455 278.403551 
L 93.672727 278.792424 
L 97.28 279.139912 
L 100.887273 279.458548 
L 104.494545 279.773808 
L 108.101818 280.088664 
L 111.709091 280.336941 
L 115.316364 280.59858 
L 118.923636 280.815438 
L 122.530909 281.05444 
L 126.138182 281.260699 
L 129.745455 281.478091 
L 133.352727 281.678977 
L 136.96 281.856561 
L 140.567273 282.024804 
L 144.174545 282.187296 
L 147.781818 282.35906 
L 151.389091 282.493463 
L 154.996364 282.685173 
L 158.603636 282.805868 
L 162.210909 282.945071 
L 165.818182 283.080903 
L 169.425455 283.215989 
L 173.032727 283.31499 
L 176.64 283.45011 
L 180.247273 283.564788 
L 183.854545 283.690616 
L 187.461818 283.794029 
L 191.069091 283.893521 
L 194.676364 283.99306 
L 198.283636 284.123836 
L 201.890909 284.192941 
L 205.498182 284.307779 
L 209.105455 284.372509 
L 212.712727 284.487853 
L 216.32 284.560807 
L 219.927273 284.622664 
L 223.534545 284.722846 
L 227.141818 284.842311 
L 230.749091 284.892674 
L 234.356364 284.969295 
L 237.963636 285.058352 
L 241.570909 285.141358 
L 245.178182 285.190793 
L 248.785455 285.261913 
L 252.392727 285.363839 
L 256 285.436682 
L 259.607273 285.500906 
L 263.214545 285.539484 
L 266.821818 285.61086 
L 270.429091 285.667974 
L 274.036364 285.735582 
L 277.643636 285.787993 
L 281.250909 285.867449 
L 284.858182 285.881097 
L 288.465455 285.963889 
L 292.072727 286.04522 
L 295.68 286.077759 
L 299.287273 286.128763 
L 302.894545 286.186755 
L 306.501818 286.223639 
L 310.109091 286.313377 
L 313.716364 286.356758 
L 317.323636 286.40296 
L 320.930909 286.435003 
L 324.538182 286.507714 
L 328.145455 286.539395 
L 331.752727 286.590699 
L 335.36 286.661628 
L 338.967273 286.637378 
L 342.574545 286.736636 
L 346.181818 286.753251 
L 349.789091 286.823533 
L 353.396364 286.843079 
L 357.003636 286.883204 
L 360.610909 286.947513 
L 364.218182 286.973757 
L 367.825455 286.993453 
L 371.432727 287.061252 
L 375.04 287.080979 
L 378.647273 287.10527 
L 382.254545 287.18645 
L 385.861818 287.189271 
L 389.469091 287.218914 
L 393.076364 287.281142 
L 396.683636 287.315457 
L 400.290909 287.345935 
L 403.898182 287.369539 
L 407.505455 287.408969 
L 411.112727 287.450164 
L 414.72 287.49038 
" clip-path="url(#p6bc17f2de2)" style="fill: none; stroke: #1f77b4; stroke-width: 1.5; stroke-linecap: square"/>
   </g>
   <g id="line2d_15">
    <path d="M 57.6 233.677658 
L 61.207273 276.028205 
L 64.814545 281.613233 
L 68.421818 283.461628 
L 72.029091 284.185439 
L 75.636364 284.84081 
L 79.243636 285.033568 
L 82.850909 285.936199 
L 86.458182 285.98032 
L 90.065455 286.204713 
L 93.672727 286.818017 
L 97.28 287.232144 
L 100.887273 287.588704 
L 104.494545 287.604707 
L 108.101818 287.936103 
L 111.709091 287.862505 
L 115.316364 287.982979 
L 118.923636 288.605564 
L 122.530909 288.842947 
L 126.138182 288.84174 
L 129.745455 289.212033 
L 133.352727 289.119815 
L 136.96 289.336321 
L 140.567273 289.297739 
L 144.174545 289.671215 
L 147.781818 289.912478 
L 151.389091 289.865829 
L 154.996364 289.924202 
L 158.603636 289.998432 
L 162.210909 290.156286 
L 165.818182 290.47572 
L 169.425455 290.39488 
L 173.032727 290.90834 
L 176.64 290.619396 
L 180.247273 290.826883 
L 183.854545 291.103531 
L 187.461818 291.031226 
L 191.069091 291.181053 
L 194.676364 291.000101 
L 198.283636 291.080232 
L 201.890909 291.497474 
L 205.498182 291.341068 
L 209.105455 291.37309 
L 212.712727 291.741555 
L 216.32 291.527152 
L 219.927273 291.548278 
L 223.534545 291.979833 
L 227.141818 291.678293 
L 230.749091 292.264831 
L 234.356364 292.115596 
L 237.963636 292.118068 
L 241.570909 292.187856 
L 245.178182 292.108264 
L 248.785455 292.180933 
L 252.392727 292.172171 
L 256 292.330774 
L 259.607273 292.553694 
L 263.214545 292.464169 
L 266.821818 292.285946 
L 270.429091 292.415206 
L 274.036364 292.816583 
L 277.643636 292.572883 
L 281.250909 292.799744 
L 284.858182 292.70108 
L 288.465455 292.630733 
L 292.072727 292.757095 
L 295.68 292.609402 
L 299.287273 292.962267 
L 302.894545 293.020829 
L 306.501818 292.868376 
L 310.109091 292.863484 
L 313.716364 293.055568 
L 317.323636 292.812305 
L 320.930909 293.300745 
L 324.538182 293.096451 
L 328.145455 292.979776 
L 331.752727 293.228041 
L 335.36 293.214498 
L 338.967273 293.07437 
L 342.574545 292.912169 
L 346.181818 292.898051 
L 349.789091 293.38187 
L 353.396364 293.451018 
L 357.003636 293.612891 
L 360.610909 293.288363 
L 364.218182 293.451201 
L 367.825455 293.05484 
L 371.432727 293.381802 
L 375.04 293.497045 
L 378.647273 293.772959 
L 382.254545 293.52057 
L 385.861818 293.874061 
L 389.469091 293.557376 
L 393.076364 293.875884 
L 396.683636 293.813457 
L 400.290909 293.823507 
L 403.898182 293.879442 
L 407.505455 293.771512 
L 411.112727 294.047155 
L 414.72 293.766466 
" clip-path="url(#p6bc17f2de2)" style="fill: none; stroke: #ff7f0e; stroke-width: 1.5; stroke-linecap: square"/>
   </g>
   <g id="line2d_16">
    <path d="M 57.6 54.027768 
L 61.207273 254.420495 
L 64.814545 271.19056 
L 68.421818 273.8141 
L 72.029091 274.854677 
L 75.636364 275.610975 
L 79.243636 276.195852 
L 82.850909 276.717745 
L 86.458182 277.197912 
L 90.065455 277.597599 
L 93.672727 278.021282 
L 97.28 278.362874 
L 100.887273 278.684704 
L 104.494545 278.999526 
L 108.101818 279.306228 
L 111.709091 279.537689 
L 115.316364 279.815211 
L 118.923636 280.066234 
L 122.530909 280.3085 
L 126.138182 280.500883 
L 129.745455 280.717341 
L 133.352727 280.920022 
L 136.96 281.104029 
L 140.567273 281.292976 
L 144.174545 281.474122 
L 147.781818 281.62133 
L 151.389091 281.785665 
L 154.996364 281.932655 
L 158.603636 282.093159 
L 162.210909 282.238832 
L 165.818182 282.364327 
L 169.425455 282.491012 
L 173.032727 282.602877 
L 176.64 282.734212 
L 180.247273 282.851786 
L 183.854545 282.974955 
L 187.461818 283.05941 
L 191.069091 283.178318 
L 194.676364 283.319709 
L 198.283636 283.387758 
L 201.890909 283.473463 
L 205.498182 283.580635 
L 209.105455 283.687908 
L 212.712727 283.778069 
L 216.32 283.905178 
L 219.927273 283.943873 
L 223.534545 284.051328 
L 227.141818 284.122356 
L 230.749091 284.198722 
L 234.356364 284.266671 
L 237.963636 284.356032 
L 241.570909 284.427576 
L 245.178182 284.513198 
L 248.785455 284.543036 
L 252.392727 284.644428 
L 256 284.697282 
L 259.607273 284.762785 
L 263.214545 284.843167 
L 266.821818 284.902719 
L 270.429091 284.971107 
L 274.036364 285.034853 
L 277.643636 285.086526 
L 281.250909 285.145603 
L 284.858182 285.214263 
L 288.465455 285.24796 
L 292.072727 285.331449 
L 295.68 285.37657 
L 299.287273 285.41817 
L 302.894545 285.478609 
L 306.501818 285.526784 
L 310.109091 285.577084 
L 313.716364 285.624254 
L 317.323636 285.681504 
L 320.930909 285.705889 
L 324.538182 285.775263 
L 328.145455 285.81747 
L 331.752727 285.857108 
L 335.36 285.909112 
L 338.967273 285.918365 
L 342.574545 286.034542 
L 346.181818 286.027488 
L 349.789091 286.073929 
L 353.396364 286.110651 
L 357.003636 286.168007 
L 360.610909 286.212123 
L 364.218182 286.25317 
L 367.825455 286.279889 
L 371.432727 286.295962 
" clip-path="url(#p6bc17f2de2)" style="fill: none; stroke: #2ca02c; stroke-width: 1.5; stroke-linecap: square"/>
   </g>
   <g id="line2d_17">
    <path d="M 57.6 232.952516 
L 61.207273 275.729234 
L 64.814545 281.116368 
L 68.421818 283.246175 
L 72.029091 283.28937 
L 75.636364 284.091816 
L 79.243636 284.719628 
L 82.850909 285.218964 
L 86.458182 285.325787 
L 90.065455 285.862511 
L 93.672727 286.132073 
L 97.28 286.363879 
L 100.887273 286.401278 
L 104.494545 286.960814 
L 108.101818 287.173914 
L 111.709091 287.290881 
L 115.316364 287.932388 
L 118.923636 287.570725 
L 122.530909 287.9647 
L 126.138182 288.199028 
L 129.745455 288.324602 
L 133.352727 288.598195 
L 136.96 288.400493 
L 140.567273 289.071964 
L 144.174545 288.980465 
L 147.781818 289.036824 
L 151.389091 289.096593 
L 154.996364 289.315004 
L 158.603636 289.308409 
L 162.210909 289.63721 
L 165.818182 289.753545 
L 169.425455 289.79055 
L 173.032727 289.921865 
L 176.64 289.954282 
L 180.247273 290.116046 
L 183.854545 290.184008 
L 187.461818 290.376864 
L 191.069091 290.346291 
L 194.676364 290.485642 
L 198.283636 290.430398 
L 201.890909 290.466417 
L 205.498182 290.578891 
L 209.105455 290.809932 
L 212.712727 290.712421 
L 216.32 290.832589 
L 219.927273 290.857432 
L 223.534545 291.19209 
L 227.141818 290.802312 
L 230.749091 291.382974 
L 234.356364 291.013691 
L 237.963636 291.347675 
L 241.570909 291.526988 
L 245.178182 291.726439 
L 248.785455 291.2373 
L 252.392727 291.489806 
L 256 291.454174 
L 259.607273 291.82111 
L 263.214545 291.652293 
L 266.821818 291.985927 
L 270.429091 291.654204 
L 274.036364 291.800727 
L 277.643636 292.149695 
L 281.250909 292.173686 
L 284.858182 292.164698 
L 288.465455 292.070616 
L 292.072727 292.014978 
L 295.68 292.242641 
L 299.287273 292.060822 
L 302.894545 291.96881 
L 306.501818 292.073821 
L 310.109091 292.04853 
L 313.716364 292.516006 
L 317.323636 292.400643 
L 320.930909 292.729687 
L 324.538182 292.486284 
L 328.145455 292.32682 
L 331.752727 292.382383 
L 335.36 292.965347 
L 338.967273 292.699677 
L 342.574545 292.82627 
L 346.181818 292.712944 
L 349.789091 292.948654 
L 353.396364 292.765589 
L 357.003636 292.82504 
L 360.610909 292.852721 
L 364.218182 292.930534 
L 367.825455 292.423356 
L 371.432727 292.464113 
" clip-path="url(#p6bc17f2de2)" style="fill: none; stroke: #d62728; stroke-width: 1.5; stroke-linecap: square"/>
   </g>
   <g id="line2d_18">
    <path d="M 57.6 81.719908 
L 61.207273 260.836312 
L 64.814545 273.430601 
L 68.421818 275.791863 
L 72.029091 276.902847 
L 75.636364 277.725459 
L 79.243636 278.409784 
L 82.850909 278.990191 
L 86.458182 279.476428 
L 90.065455 279.938171 
L 93.672727 280.341363 
L 97.28 280.707256 
L 100.887273 281.079391 
L 104.494545 281.354572 
L 108.101818 281.648566 
L 111.709091 281.921489 
L 115.316364 282.183263 
L 118.923636 282.415098 
L 122.530909 282.675186 
L 126.138182 282.87021 
L 129.745455 283.073014 
L 133.352727 283.27636 
L 136.96 283.454857 
L 140.567273 283.64789 
L 144.174545 283.820126 
L 147.781818 283.978391 
L 151.389091 284.127714 
L 154.996364 284.276724 
L 158.603636 284.430339 
L 162.210909 284.568813 
L 165.818182 284.698215 
L 169.425455 284.841623 
L 173.032727 284.953849 
L 176.64 285.085826 
L 180.247273 285.226401 
L 183.854545 285.29987 
L 187.461818 285.431056 
L 191.069091 285.533297 
L 194.676364 285.658787 
L 198.283636 285.732507 
L 201.890909 285.875999 
L 205.498182 285.932473 
L 209.105455 286.036226 
L 212.712727 286.111775 
L 216.32 286.233338 
L 219.927273 286.298947 
L 223.534545 286.393797 
L 227.141818 286.444157 
L 230.749091 286.556784 
L 234.356364 286.631624 
L 237.963636 286.69825 
L 241.570909 286.781328 
L 245.178182 286.862064 
L 248.785455 286.923993 
L 252.392727 286.975977 
L 256 287.077783 
L 259.607273 287.132896 
L 263.214545 287.194808 
L 266.821818 287.253205 
L 270.429091 287.302782 
L 274.036364 287.3696 
L 277.643636 287.442791 
L 281.250909 287.487043 
L 284.858182 287.556627 
L 288.465455 287.620225 
L 292.072727 287.682394 
L 295.68 287.694747 
L 299.287273 287.776206 
L 302.894545 287.852863 
L 306.501818 287.876981 
L 310.109091 287.94429 
L 313.716364 287.98869 
L 317.323636 288.04826 
L 320.930909 288.073421 
L 324.538182 288.132771 
L 328.145455 288.185837 
L 331.752727 288.227455 
L 335.36 288.26313 
L 338.967273 288.298714 
L 342.574545 288.37148 
L 346.181818 288.384343 
L 349.789091 288.434921 
L 353.396364 288.487233 
L 357.003636 288.50472 
L 360.610909 288.579194 
L 364.218182 288.588013 
L 367.825455 288.615335 
L 371.432727 288.682261 
L 375.04 288.703684 
L 378.647273 288.761414 
L 382.254545 288.757771 
L 385.861818 288.823671 
L 389.469091 288.849378 
L 393.076364 288.904829 
L 396.683636 288.902036 
L 400.290909 288.955145 
L 403.898182 289.00425 
L 407.505455 289.033872 
L 411.112727 289.058396 
L 414.72 289.101108 
" clip-path="url(#p6bc17f2de2)" style="fill: none; stroke: #9467bd; stroke-width: 1.5; stroke-linecap: square"/>
   </g>
   <g id="line2d_19">
    <path d="M 57.6 246.643472 
L 61.207273 278.698066 
L 64.814545 283.354178 
L 68.421818 284.637631 
L 72.029091 285.502797 
L 75.636364 285.907821 
L 79.243636 286.992423 
L 82.850909 287.431397 
L 86.458182 287.644198 
L 90.065455 287.629699 
L 93.672727 288.211743 
L 97.28 289.091397 
L 100.887273 288.889666 
L 104.494545 289.196912 
L 108.101818 289.249154 
L 111.709091 289.612479 
L 115.316364 290.111661 
L 118.923636 290.145827 
L 122.530909 290.06129 
L 126.138182 290.292391 
L 129.745455 290.441147 
L 133.352727 290.933201 
L 136.96 291.006175 
L 140.567273 291.038463 
L 144.174545 291.070013 
L 147.781818 291.134028 
L 151.389091 291.256103 
L 154.996364 291.490464 
L 158.603636 291.354507 
L 162.210909 291.482377 
L 165.818182 291.685919 
L 169.425455 291.893791 
L 173.032727 292.184033 
L 176.64 291.956687 
L 180.247273 292.259814 
L 183.854545 292.683821 
L 187.461818 292.546168 
L 191.069091 292.520504 
L 194.676364 292.52587 
L 198.283636 293.078372 
L 201.890909 292.957743 
L 205.498182 293.08465 
L 209.105455 293.03151 
L 212.712727 292.845886 
L 216.32 293.389532 
L 219.927273 293.052324 
L 223.534545 293.219383 
L 227.141818 293.581286 
L 230.749091 293.354351 
L 234.356364 293.434614 
L 237.963636 293.415683 
L 241.570909 293.41427 
L 245.178182 293.737477 
L 248.785455 293.519016 
L 252.392727 293.156203 
L 256 293.819306 
L 259.607273 293.78187 
L 263.214545 294.124936 
L 266.821818 294.054525 
L 270.429091 293.719337 
L 274.036364 294.188941 
L 277.643636 294.105855 
L 281.250909 294.053382 
L 284.858182 294.311091 
L 288.465455 294.089727 
L 292.072727 294.11533 
L 295.68 294.289745 
L 299.287273 294.300478 
L 302.894545 293.76953 
L 306.501818 294.5402 
L 310.109091 294.511875 
L 313.716364 294.346942 
L 317.323636 294.263892 
L 320.930909 294.456352 
L 324.538182 294.628089 
L 328.145455 294.436831 
L 331.752727 294.195394 
L 335.36 294.825009 
L 338.967273 294.646263 
L 342.574545 294.741802 
L 346.181818 295.081995 
L 349.789091 295.172102 
L 353.396364 294.550979 
L 357.003636 295.11395 
L 360.610909 294.703596 
L 364.218182 295.020511 
L 367.825455 294.971861 
L 371.432727 295.20349 
L 375.04 295.014675 
L 378.647273 295.153043 
L 382.254545 295.080372 
L 385.861818 295.418519 
L 389.469091 295.001877 
L 393.076364 294.902573 
L 396.683636 295.204899 
L 400.290909 295.441847 
L 403.898182 295.224463 
L 407.505455 295.488 
L 411.112727 295.079662 
L 414.72 295.162561 
" clip-path="url(#p6bc17f2de2)" style="fill: none; stroke: #8c564b; stroke-width: 1.5; stroke-linecap: square"/>
   </g>
   <g id="line2d_20">
    <path d="M 57.6 83.783281 
L 61.207273 261.458278 
L 64.814545 273.656265 
L 68.421818 275.935265 
L 72.029091 277.083349 
L 75.636364 277.887423 
L 79.243636 278.57528 
L 82.850909 279.195304 
L 86.458182 279.714012 
L 90.065455 280.170693 
L 93.672727 280.605773 
L 97.28 280.999988 
L 100.887273 281.31277 
L 104.494545 281.643387 
L 108.101818 281.975286 
L 111.709091 282.215699 
L 115.316364 282.52913 
L 118.923636 282.782291 
L 122.530909 282.999252 
L 126.138182 283.230075 
L 129.745455 283.428253 
L 133.352727 283.623216 
L 136.96 283.81465 
L 140.567273 284.023801 
L 144.174545 284.17733 
L 147.781818 284.337257 
L 151.389091 284.507261 
L 154.996364 284.653878 
L 158.603636 284.779066 
L 162.210909 284.927317 
L 165.818182 285.059226 
L 169.425455 285.194225 
L 173.032727 285.338385 
L 176.64 285.436984 
L 180.247273 285.60024 
L 183.854545 285.668195 
L 187.461818 285.81116 
L 191.069091 285.918779 
L 194.676364 286.03721 
L 198.283636 286.101481 
L 201.890909 286.210498 
L 205.498182 286.285108 
L 209.105455 286.390613 
L 212.712727 286.478961 
L 216.32 286.55786 
L 219.927273 286.650587 
L 223.534545 286.756322 
L 227.141818 286.823484 
L 230.749091 286.874157 
L 234.356364 286.973144 
L 237.963636 287.059297 
L 241.570909 287.114897 
L 245.178182 287.212282 
L 248.785455 287.257449 
L 252.392727 287.333775 
L 256 287.37368 
L 259.607273 287.460406 
L 263.214545 287.537175 
L 266.821818 287.577669 
L 270.429091 287.641774 
L 274.036364 287.719679 
L 277.643636 287.763207 
L 281.250909 287.807836 
L 284.858182 287.868778 
L 288.465455 287.912555 
L 292.072727 288.007892 
L 295.68 288.040289 
L 299.287273 288.108368 
L 302.894545 288.123639 
L 306.501818 288.193984 
L 310.109091 288.255107 
L 313.716364 288.291534 
L 317.323636 288.34341 
L 320.930909 288.38016 
L 324.538182 288.432225 
L 328.145455 288.480198 
L 331.752727 288.498604 
L 335.36 288.540846 
L 338.967273 288.60459 
L 342.574545 288.632388 
L 346.181818 288.691758 
L 349.789091 288.716132 
L 353.396364 288.760981 
L 357.003636 288.805276 
L 360.610909 288.841708 
L 364.218182 288.868056 
L 367.825455 288.90591 
L 371.432727 288.942449 
L 375.04 288.980284 
L 378.647273 289.013323 
L 382.254545 289.041973 
L 385.861818 289.088084 
L 389.469091 289.098192 
L 393.076364 289.166822 
L 396.683636 289.180973 
L 400.290909 289.21665 
L 403.898182 289.274855 
L 407.505455 289.272385 
L 411.112727 289.330016 
L 414.72 289.34254 
" clip-path="url(#p6bc17f2de2)" style="fill: none; stroke: #e377c2; stroke-width: 1.5; stroke-linecap: square"/>
   </g>
   <g id="line2d_21">
    <path d="M 57.6 247.814935 
L 61.207273 279.020103 
L 64.814545 283.547587 
L 68.421818 284.877237 
L 72.029091 285.592203 
L 75.636364 286.249516 
L 79.243636 286.760722 
L 82.850909 287.408557 
L 86.458182 287.795475 
L 90.065455 288.376784 
L 93.672727 288.374378 
L 97.28 289.066723 
L 100.887273 288.980313 
L 104.494545 289.481788 
L 108.101818 289.802384 
L 111.709091 289.741346 
L 115.316364 289.754041 
L 118.923636 289.91481 
L 122.530909 290.336561 
L 126.138182 290.407595 
L 129.745455 290.631476 
L 133.352727 291.036514 
L 136.96 291.2242 
L 140.567273 291.054781 
L 144.174545 291.480216 
L 147.781818 291.639973 
L 151.389091 291.698175 
L 154.996364 291.886101 
L 158.603636 291.956254 
L 162.210909 292.150952 
L 165.818182 292.243732 
L 169.425455 292.28893 
L 173.032727 292.375338 
L 176.64 292.44397 
L 180.247273 292.662412 
L 183.854545 292.79511 
L 187.461818 292.846717 
L 191.069091 292.410077 
L 194.676364 292.144822 
L 198.283636 292.849059 
L 201.890909 292.861543 
L 205.498182 292.93603 
L 209.105455 293.206838 
L 212.712727 293.377958 
L 216.32 293.308627 
L 219.927273 293.545312 
L 223.534545 293.557704 
L 227.141818 293.340001 
L 230.749091 293.630791 
L 234.356364 293.880058 
L 237.963636 293.733001 
L 241.570909 293.892959 
L 245.178182 294.139877 
L 248.785455 293.83583 
L 252.392727 293.896185 
L 256 294.268749 
L 259.607273 294.286555 
L 263.214545 293.855457 
L 266.821818 293.846431 
L 270.429091 294.495775 
L 274.036364 294.335812 
L 277.643636 294.272383 
L 281.250909 294.318875 
L 284.858182 294.576187 
L 288.465455 294.13886 
L 292.072727 294.513174 
L 295.68 294.616075 
L 299.287273 294.273846 
L 302.894545 294.315589 
L 306.501818 294.724304 
L 310.109091 294.671885 
L 313.716364 294.715021 
L 317.323636 294.695984 
L 320.930909 294.839627 
L 324.538182 294.297719 
L 328.145455 295.026151 
L 331.752727 294.752928 
L 335.36 294.987255 
L 338.967273 294.940926 
L 342.574545 294.74951 
L 346.181818 294.499128 
L 349.789091 295.035551 
L 353.396364 295.041414 
L 357.003636 294.781079 
L 360.610909 295.190174 
L 364.218182 294.518266 
L 367.825455 295.250027 
L 371.432727 295.029433 
L 375.04 294.973574 
L 378.647273 294.988371 
L 382.254545 295.400159 
L 385.861818 295.020984 
L 389.469091 295.064805 
L 393.076364 295.291948 
L 396.683636 295.286396 
L 400.290909 295.278529 
L 403.898182 294.995995 
L 407.505455 295.396897 
L 411.112727 295.32221 
L 414.72 295.366508 
" clip-path="url(#p6bc17f2de2)" style="fill: none; stroke: #7f7f7f; stroke-width: 1.5; stroke-linecap: square"/>
   </g>
   <g id="patch_3">
    <path d="M 57.6 307.584 
L 57.6 41.472 
" style="fill: none; stroke: #000000; stroke-width: 0.8; stroke-linejoin: miter; stroke-linecap: square"/>
   </g>
   <g id="patch_4">
    <path d="M 414.72 307.584 
L 414.72 41.472 
" style="fill: none; stroke: #000000; stroke-width: 0.8; stroke-linejoin: miter; stroke-linecap: square"/>
   </g>
   <g id="patch_5">
    <path d="M 57.6 307.584 
L 414.72 307.584 
" style="fill: none; stroke: #000000; stroke-width: 0.8; stroke-linejoin: miter; stroke-linecap: square"/>
   </g>
   <g id="patch_6">
    <path d="M 57.6 41.472 
L 414.72 41.472 
" style="fill: none; stroke: #000000; stroke-width: 0.8; stroke-linejoin: miter; stroke-linecap: square"/>
   </g>
   <g id="legend_1">
    <g id="patch_7">
     <path d="M 352.445 166.897 
L 407.72 166.897 
Q 409.72 166.897 409.72 164.897 
L 409.72 48.472 
Q 409.72 46.472 407.72 46.472 
L 352.445 46.472 
Q 350.445 46.472 350.445 48.472 
L 350.445 164.897 
Q 350.445 166.897 352.445 166.897 
z
" style="fill: #ffffff; opacity: 0.8; stroke: #cccccc; stroke-linejoin: miter"/>
    </g>
    <g id="line2d_22">
     <path d="M 354.445 54.570438 
L 364.445 54.570438 
L 374.445 54.570438 
" style="fill: none; stroke: #1f77b4; stroke-width: 1.5; stroke-linecap: square"/>
    </g>
    <g id="text_16">
     <!-- train -->
     <g transform="translate(382.445 58.070438) scale(0.1 -0.1)">
      <defs>
       <path id="DejaVuSans-74" d="M 1172 4494 
L 1172 3500 
L 2356 3500 
L 2356 3053 
L 1172 3053 
L 1172 1153 
Q 1172 725 1289 603 
Q 1406 481 1766 481 
L 2356 481 
L 2356 0 
L 1766 0 
Q 1100 0 847 248 
Q 594 497 594 1153 
L 594 3053 
L 172 3053 
L 172 3500 
L 594 3500 
L 594 4494 
L 1172 4494 
z
" transform="scale(0.015625)"/>
       <path id="DejaVuSans-72" d="M 2631 2963 
Q 2534 3019 2420 3045 
Q 2306 3072 2169 3072 
Q 1681 3072 1420 2755 
Q 1159 2438 1159 1844 
L 1159 0 
L 581 0 
L 581 3500 
L 1159 3500 
L 1159 2956 
Q 1341 3275 1631 3429 
Q 1922 3584 2338 3584 
Q 2397 3584 2469 3576 
Q 2541 3569 2628 3553 
L 2631 2963 
z
" transform="scale(0.015625)"/>
       <path id="DejaVuSans-61" d="M 2194 1759 
Q 1497 1759 1228 1600 
Q 959 1441 959 1056 
Q 959 750 1161 570 
Q 1363 391 1709 391 
Q 2188 391 2477 730 
Q 2766 1069 2766 1631 
L 2766 1759 
L 2194 1759 
z
M 3341 1997 
L 3341 0 
L 2766 0 
L 2766 531 
Q 2569 213 2275 61 
Q 1981 -91 1556 -91 
Q 1019 -91 701 211 
Q 384 513 384 1019 
Q 384 1609 779 1909 
Q 1175 2209 1959 2209 
L 2766 2209 
L 2766 2266 
Q 2766 2663 2505 2880 
Q 2244 3097 1772 3097 
Q 1472 3097 1187 3025 
Q 903 2953 641 2809 
L 641 3341 
Q 956 3463 1253 3523 
Q 1550 3584 1831 3584 
Q 2591 3584 2966 3190 
Q 3341 2797 3341 1997 
z
" transform="scale(0.015625)"/>
       <path id="DejaVuSans-69" d="M 603 3500 
L 1178 3500 
L 1178 0 
L 603 0 
L 603 3500 
z
M 603 4863 
L 1178 4863 
L 1178 4134 
L 603 4134 
L 603 4863 
z
" transform="scale(0.015625)"/>
       <path id="DejaVuSans-6e" d="M 3513 2113 
L 3513 0 
L 2938 0 
L 2938 2094 
Q 2938 2591 2744 2837 
Q 2550 3084 2163 3084 
Q 1697 3084 1428 2787 
Q 1159 2491 1159 1978 
L 1159 0 
L 581 0 
L 581 3500 
L 1159 3500 
L 1159 2956 
Q 1366 3272 1645 3428 
Q 1925 3584 2291 3584 
Q 2894 3584 3203 3211 
Q 3513 2838 3513 2113 
z
" transform="scale(0.015625)"/>
      </defs>
      <use xlink:href="#DejaVuSans-74"/>
      <use xlink:href="#DejaVuSans-72" x="39.208984"/>
      <use xlink:href="#DejaVuSans-61" x="80.322266"/>
      <use xlink:href="#DejaVuSans-69" x="141.601562"/>
      <use xlink:href="#DejaVuSans-6e" x="169.384766"/>
     </g>
    </g>
    <g id="line2d_23">
     <path d="M 354.445 69.248563 
L 364.445 69.248563 
L 374.445 69.248563 
" style="fill: none; stroke: #ff7f0e; stroke-width: 1.5; stroke-linecap: square"/>
    </g>
    <g id="text_17">
     <!-- val -->
     <g transform="translate(382.445 72.748563) scale(0.1 -0.1)">
      <defs>
       <path id="DejaVuSans-76" d="M 191 3500 
L 800 3500 
L 1894 563 
L 2988 3500 
L 3597 3500 
L 2284 0 
L 1503 0 
L 191 3500 
z
" transform="scale(0.015625)"/>
       <path id="DejaVuSans-6c" d="M 603 4863 
L 1178 4863 
L 1178 0 
L 603 0 
L 603 4863 
z
" transform="scale(0.015625)"/>
      </defs>
      <use xlink:href="#DejaVuSans-76"/>
      <use xlink:href="#DejaVuSans-61" x="59.179688"/>
      <use xlink:href="#DejaVuSans-6c" x="120.458984"/>
     </g>
    </g>
    <g id="line2d_24">
     <path d="M 354.445 83.926688 
L 364.445 83.926688 
L 374.445 83.926688 
" style="fill: none; stroke: #2ca02c; stroke-width: 1.5; stroke-linecap: square"/>
    </g>
    <g id="text_18">
     <!-- train -->
     <g transform="translate(382.445 87.426688) scale(0.1 -0.1)">
      <use xlink:href="#DejaVuSans-74"/>
      <use xlink:href="#DejaVuSans-72" x="39.208984"/>
      <use xlink:href="#DejaVuSans-61" x="80.322266"/>
      <use xlink:href="#DejaVuSans-69" x="141.601562"/>
      <use xlink:href="#DejaVuSans-6e" x="169.384766"/>
     </g>
    </g>
    <g id="line2d_25">
     <path d="M 354.445 98.604813 
L 364.445 98.604813 
L 374.445 98.604813 
" style="fill: none; stroke: #d62728; stroke-width: 1.5; stroke-linecap: square"/>
    </g>
    <g id="text_19">
     <!-- val -->
     <g transform="translate(382.445 102.104813) scale(0.1 -0.1)">
      <use xlink:href="#DejaVuSans-76"/>
      <use xlink:href="#DejaVuSans-61" x="59.179688"/>
      <use xlink:href="#DejaVuSans-6c" x="120.458984"/>
     </g>
    </g>
    <g id="line2d_26">
     <path d="M 354.445 113.282938 
L 364.445 113.282938 
L 374.445 113.282938 
" style="fill: none; stroke: #9467bd; stroke-width: 1.5; stroke-linecap: square"/>
    </g>
    <g id="text_20">
     <!-- train -->
     <g transform="translate(382.445 116.782938) scale(0.1 -0.1)">
      <use xlink:href="#DejaVuSans-74"/>
      <use xlink:href="#DejaVuSans-72" x="39.208984"/>
      <use xlink:href="#DejaVuSans-61" x="80.322266"/>
      <use xlink:href="#DejaVuSans-69" x="141.601562"/>
      <use xlink:href="#DejaVuSans-6e" x="169.384766"/>
     </g>
    </g>
    <g id="line2d_27">
     <path d="M 354.445 127.961063 
L 364.445 127.961063 
L 374.445 127.961063 
" style="fill: none; stroke: #8c564b; stroke-width: 1.5; stroke-linecap: square"/>
    </g>
    <g id="text_21">
     <!-- val -->
     <g transform="translate(382.445 131.461063) scale(0.1 -0.1)">
      <use xlink:href="#DejaVuSans-76"/>
      <use xlink:href="#DejaVuSans-61" x="59.179688"/>
      <use xlink:href="#DejaVuSans-6c" x="120.458984"/>
     </g>
    </g>
    <g id="line2d_28">
     <path d="M 354.445 142.639188 
L 364.445 142.639188 
L 374.445 142.639188 
" style="fill: none; stroke: #e377c2; stroke-width: 1.5; stroke-linecap: square"/>
    </g>
    <g id="text_22">
     <!-- train -->
     <g transform="translate(382.445 146.139188) scale(0.1 -0.1)">
      <use xlink:href="#DejaVuSans-74"/>
      <use xlink:href="#DejaVuSans-72" x="39.208984"/>
      <use xlink:href="#DejaVuSans-61" x="80.322266"/>
      <use xlink:href="#DejaVuSans-69" x="141.601562"/>
      <use xlink:href="#DejaVuSans-6e" x="169.384766"/>
     </g>
    </g>
    <g id="line2d_29">
     <path d="M 354.445 157.317313 
L 364.445 157.317313 
L 374.445 157.317313 
" style="fill: none; stroke: #7f7f7f; stroke-width: 1.5; stroke-linecap: square"/>
    </g>
    <g id="text_23">
     <!-- val -->
     <g transform="translate(382.445 160.817313) scale(0.1 -0.1)">
      <use xlink:href="#DejaVuSans-76"/>
      <use xlink:href="#DejaVuSans-61" x="59.179688"/>
      <use xlink:href="#DejaVuSans-6c" x="120.458984"/>
     </g>
    </g>
   </g>
  </g>
 </g>
 <defs>
  <clipPath id="p6bc17f2de2">
   <rect x="57.6" y="41.472" width="357.12" height="266.112"/>
  </clipPath>
 </defs>
</svg>
