<?xml version="1.0" encoding="utf-8" standalone="no"?>
<!DOCTYPE svg PUBLIC "-//W3C//DTD SVG 1.1//EN"
  "http://www.w3.org/Graphics/SVG/1.1/DTD/svg11.dtd">
<svg xmlns:xlink="http://www.w3.org/1999/xlink" width="460.8pt" height="345.6pt" viewBox="0 0 460.8 345.6" xmlns="http://www.w3.org/2000/svg" version="1.1">
 <metadata>
  <rdf:RDF xmlns:dc="http://purl.org/dc/elements/1.1/" xmlns:cc="http://creativecommons.org/ns#" xmlns:rdf="http://www.w3.org/1999/02/22-rdf-syntax-ns#">
   <cc:Work>
    <dc:type rdf:resource="http://purl.org/dc/dcmitype/StillImage"/>
    <dc:date>2024-07-05T15:08:42.426918</dc:date>
    <dc:format>image/svg+xml</dc:format>
    <dc:creator>
     <cc:Agent>
      <dc:title>Matplotlib v3.7.4, https://matplotlib.org/</dc:title>
     </cc:Agent>
    </dc:creator>
   </cc:Work>
  </rdf:RDF>
 </metadata>
 <defs>
  <style type="text/css">*{stroke-linejoin: round; stroke-linecap: butt}</style>
 </defs>
 <g id="figure_1">
  <g id="patch_1">
   <path d="M 0 345.6 
L 460.8 345.6 
L 460.8 0 
L 0 0 
z
" style="fill: #ffffff"/>
  </g>
  <g id="axes_1">
   <g id="patch_2">
    <path d="M 57.6 307.584 
L 414.72 307.584 
L 414.72 41.472 
L 57.6 41.472 
z
" style="fill: #ffffff"/>
   </g>
   <g id="matplotlib.axis_1">
    <g id="xtick_1">
     <g id="line2d_1">
      <defs>
       <path id="mca2fce55e1" d="M 0 0 
L 0 3.5 
" style="stroke: #000000; stroke-width: 0.8"/>
      </defs>
      <g>
       <use xlink:href="#mca2fce55e1" x="126.138182" y="307.584" style="stroke: #000000; stroke-width: 0.8"/>
      </g>
     </g>
     <g id="text_1">
      <!-- 20 -->
      <g transform="translate(119.775682 322.182437) scale(0.1 -0.1)">
       <defs>
        <path id="DejaVuSans-32" d="M 1228 531 
L 3431 531 
L 3431 0 
L 469 0 
L 469 531 
Q 828 903 1448 1529 
Q 2069 2156 2228 2338 
Q 2531 2678 2651 2914 
Q 2772 3150 2772 3378 
Q 2772 3750 2511 3984 
Q 2250 4219 1831 4219 
Q 1534 4219 1204 4116 
Q 875 4013 500 3803 
L 500 4441 
Q 881 4594 1212 4672 
Q 1544 4750 1819 4750 
Q 2544 4750 2975 4387 
Q 3406 4025 3406 3419 
Q 3406 3131 3298 2873 
Q 3191 2616 2906 2266 
Q 2828 2175 2409 1742 
Q 1991 1309 1228 531 
z
" transform="scale(0.015625)"/>
        <path id="DejaVuSans-30" d="M 2034 4250 
Q 1547 4250 1301 3770 
Q 1056 3291 1056 2328 
Q 1056 1369 1301 889 
Q 1547 409 2034 409 
Q 2525 409 2770 889 
Q 3016 1369 3016 2328 
Q 3016 3291 2770 3770 
Q 2525 4250 2034 4250 
z
M 2034 4750 
Q 2819 4750 3233 4129 
Q 3647 3509 3647 2328 
Q 3647 1150 3233 529 
Q 2819 -91 2034 -91 
Q 1250 -91 836 529 
Q 422 1150 422 2328 
Q 422 3509 836 4129 
Q 1250 4750 2034 4750 
z
" transform="scale(0.015625)"/>
       </defs>
       <use xlink:href="#DejaVuSans-32"/>
       <use xlink:href="#DejaVuSans-30" x="63.623047"/>
      </g>
     </g>
    </g>
    <g id="xtick_2">
     <g id="line2d_2">
      <g>
       <use xlink:href="#mca2fce55e1" x="198.283636" y="307.584" style="stroke: #000000; stroke-width: 0.8"/>
      </g>
     </g>
     <g id="text_2">
      <!-- 40 -->
      <g transform="translate(191.921136 322.182437) scale(0.1 -0.1)">
       <defs>
        <path id="DejaVuSans-34" d="M 2419 4116 
L 825 1625 
L 2419 1625 
L 2419 4116 
z
M 2253 4666 
L 3047 4666 
L 3047 1625 
L 3713 1625 
L 3713 1100 
L 3047 1100 
L 3047 0 
L 2419 0 
L 2419 1100 
L 313 1100 
L 313 1709 
L 2253 4666 
z
" transform="scale(0.015625)"/>
       </defs>
       <use xlink:href="#DejaVuSans-34"/>
       <use xlink:href="#DejaVuSans-30" x="63.623047"/>
      </g>
     </g>
    </g>
    <g id="xtick_3">
     <g id="line2d_3">
      <g>
       <use xlink:href="#mca2fce55e1" x="270.429091" y="307.584" style="stroke: #000000; stroke-width: 0.8"/>
      </g>
     </g>
     <g id="text_3">
      <!-- 60 -->
      <g transform="translate(264.066591 322.182437) scale(0.1 -0.1)">
       <defs>
        <path id="DejaVuSans-36" d="M 2113 2584 
Q 1688 2584 1439 2293 
Q 1191 2003 1191 1497 
Q 1191 994 1439 701 
Q 1688 409 2113 409 
Q 2538 409 2786 701 
Q 3034 994 3034 1497 
Q 3034 2003 2786 2293 
Q 2538 2584 2113 2584 
z
M 3366 4563 
L 3366 3988 
Q 3128 4100 2886 4159 
Q 2644 4219 2406 4219 
Q 1781 4219 1451 3797 
Q 1122 3375 1075 2522 
Q 1259 2794 1537 2939 
Q 1816 3084 2150 3084 
Q 2853 3084 3261 2657 
Q 3669 2231 3669 1497 
Q 3669 778 3244 343 
Q 2819 -91 2113 -91 
Q 1303 -91 875 529 
Q 447 1150 447 2328 
Q 447 3434 972 4092 
Q 1497 4750 2381 4750 
Q 2619 4750 2861 4703 
Q 3103 4656 3366 4563 
z
" transform="scale(0.015625)"/>
       </defs>
       <use xlink:href="#DejaVuSans-36"/>
       <use xlink:href="#DejaVuSans-30" x="63.623047"/>
      </g>
     </g>
    </g>
    <g id="xtick_4">
     <g id="line2d_4">
      <g>
       <use xlink:href="#mca2fce55e1" x="342.574545" y="307.584" style="stroke: #000000; stroke-width: 0.8"/>
      </g>
     </g>
     <g id="text_4">
      <!-- 80 -->
      <g transform="translate(336.212045 322.182437) scale(0.1 -0.1)">
       <defs>
        <path id="DejaVuSans-38" d="M 2034 2216 
Q 1584 2216 1326 1975 
Q 1069 1734 1069 1313 
Q 1069 891 1326 650 
Q 1584 409 2034 409 
Q 2484 409 2743 651 
Q 3003 894 3003 1313 
Q 3003 1734 2745 1975 
Q 2488 2216 2034 2216 
z
M 1403 2484 
Q 997 2584 770 2862 
Q 544 3141 544 3541 
Q 544 4100 942 4425 
Q 1341 4750 2034 4750 
Q 2731 4750 3128 4425 
Q 3525 4100 3525 3541 
Q 3525 3141 3298 2862 
Q 3072 2584 2669 2484 
Q 3125 2378 3379 2068 
Q 3634 1759 3634 1313 
Q 3634 634 3220 271 
Q 2806 -91 2034 -91 
Q 1263 -91 848 271 
Q 434 634 434 1313 
Q 434 1759 690 2068 
Q 947 2378 1403 2484 
z
M 1172 3481 
Q 1172 3119 1398 2916 
Q 1625 2713 2034 2713 
Q 2441 2713 2670 2916 
Q 2900 3119 2900 3481 
Q 2900 3844 2670 4047 
Q 2441 4250 2034 4250 
Q 1625 4250 1398 4047 
Q 1172 3844 1172 3481 
z
" transform="scale(0.015625)"/>
       </defs>
       <use xlink:href="#DejaVuSans-38"/>
       <use xlink:href="#DejaVuSans-30" x="63.623047"/>
      </g>
     </g>
    </g>
    <g id="xtick_5">
     <g id="line2d_5">
      <g>
       <use xlink:href="#mca2fce55e1" x="414.72" y="307.584" style="stroke: #000000; stroke-width: 0.8"/>
      </g>
     </g>
     <g id="text_5">
      <!-- 100 -->
      <g transform="translate(405.17625 322.182437) scale(0.1 -0.1)">
       <defs>
        <path id="DejaVuSans-31" d="M 794 531 
L 1825 531 
L 1825 4091 
L 703 3866 
L 703 4441 
L 1819 4666 
L 2450 4666 
L 2450 531 
L 3481 531 
L 3481 0 
L 794 0 
L 794 531 
z
" transform="scale(0.015625)"/>
       </defs>
       <use xlink:href="#DejaVuSans-31"/>
       <use xlink:href="#DejaVuSans-30" x="63.623047"/>
       <use xlink:href="#DejaVuSans-30" x="127.246094"/>
      </g>
     </g>
    </g>
    <g id="text_6">
     <!-- Epoch -->
     <g transform="translate(220.849063 335.860562) scale(0.1 -0.1)">
      <defs>
       <path id="DejaVuSans-45" d="M 628 4666 
L 3578 4666 
L 3578 4134 
L 1259 4134 
L 1259 2753 
L 3481 2753 
L 3481 2222 
L 1259 2222 
L 1259 531 
L 3634 531 
L 3634 0 
L 628 0 
L 628 4666 
z
" transform="scale(0.015625)"/>
       <path id="DejaVuSans-70" d="M 1159 525 
L 1159 -1331 
L 581 -1331 
L 581 3500 
L 1159 3500 
L 1159 2969 
Q 1341 3281 1617 3432 
Q 1894 3584 2278 3584 
Q 2916 3584 3314 3078 
Q 3713 2572 3713 1747 
Q 3713 922 3314 415 
Q 2916 -91 2278 -91 
Q 1894 -91 1617 61 
Q 1341 213 1159 525 
z
M 3116 1747 
Q 3116 2381 2855 2742 
Q 2594 3103 2138 3103 
Q 1681 3103 1420 2742 
Q 1159 2381 1159 1747 
Q 1159 1113 1420 752 
Q 1681 391 2138 391 
Q 2594 391 2855 752 
Q 3116 1113 3116 1747 
z
" transform="scale(0.015625)"/>
       <path id="DejaVuSans-6f" d="M 1959 3097 
Q 1497 3097 1228 2736 
Q 959 2375 959 1747 
Q 959 1119 1226 758 
Q 1494 397 1959 397 
Q 2419 397 2687 759 
Q 2956 1122 2956 1747 
Q 2956 2369 2687 2733 
Q 2419 3097 1959 3097 
z
M 1959 3584 
Q 2709 3584 3137 3096 
Q 3566 2609 3566 1747 
Q 3566 888 3137 398 
Q 2709 -91 1959 -91 
Q 1206 -91 779 398 
Q 353 888 353 1747 
Q 353 2609 779 3096 
Q 1206 3584 1959 3584 
z
" transform="scale(0.015625)"/>
       <path id="DejaVuSans-63" d="M 3122 3366 
L 3122 2828 
Q 2878 2963 2633 3030 
Q 2388 3097 2138 3097 
Q 1578 3097 1268 2742 
Q 959 2388 959 1747 
Q 959 1106 1268 751 
Q 1578 397 2138 397 
Q 2388 397 2633 464 
Q 2878 531 3122 666 
L 3122 134 
Q 2881 22 2623 -34 
Q 2366 -91 2075 -91 
Q 1284 -91 818 406 
Q 353 903 353 1747 
Q 353 2603 823 3093 
Q 1294 3584 2113 3584 
Q 2378 3584 2631 3529 
Q 2884 3475 3122 3366 
z
" transform="scale(0.015625)"/>
       <path id="DejaVuSans-68" d="M 3513 2113 
L 3513 0 
L 2938 0 
L 2938 2094 
Q 2938 2591 2744 2837 
Q 2550 3084 2163 3084 
Q 1697 3084 1428 2787 
Q 1159 2491 1159 1978 
L 1159 0 
L 581 0 
L 581 4863 
L 1159 4863 
L 1159 2956 
Q 1366 3272 1645 3428 
Q 1925 3584 2291 3584 
Q 2894 3584 3203 3211 
Q 3513 2838 3513 2113 
z
" transform="scale(0.015625)"/>
      </defs>
      <use xlink:href="#DejaVuSans-45"/>
      <use xlink:href="#DejaVuSans-70" x="63.183594"/>
      <use xlink:href="#DejaVuSans-6f" x="126.660156"/>
      <use xlink:href="#DejaVuSans-63" x="187.841797"/>
      <use xlink:href="#DejaVuSans-68" x="242.822266"/>
     </g>
    </g>
   </g>
   <g id="matplotlib.axis_2">
    <g id="ytick_1">
     <g id="line2d_6">
      <defs>
       <path id="mb679c52808" d="M 0 0 
L -3.5 0 
" style="stroke: #000000; stroke-width: 0.8"/>
      </defs>
      <g>
       <use xlink:href="#mb679c52808" x="57.6" y="279.916714" style="stroke: #000000; stroke-width: 0.8"/>
      </g>
     </g>
     <g id="text_7">
      <!-- 6.0 -->
      <g transform="translate(34.696875 283.715933) scale(0.1 -0.1)">
       <defs>
        <path id="DejaVuSans-2e" d="M 684 794 
L 1344 794 
L 1344 0 
L 684 0 
L 684 794 
z
" transform="scale(0.015625)"/>
       </defs>
       <use xlink:href="#DejaVuSans-36"/>
       <use xlink:href="#DejaVuSans-2e" x="63.623047"/>
       <use xlink:href="#DejaVuSans-30" x="95.410156"/>
      </g>
     </g>
    </g>
    <g id="ytick_2">
     <g id="line2d_7">
      <g>
       <use xlink:href="#mb679c52808" x="57.6" y="224.580281" style="stroke: #000000; stroke-width: 0.8"/>
      </g>
     </g>
     <g id="text_8">
      <!-- 6.2 -->
      <g transform="translate(34.696875 228.3795) scale(0.1 -0.1)">
       <use xlink:href="#DejaVuSans-36"/>
       <use xlink:href="#DejaVuSans-2e" x="63.623047"/>
       <use xlink:href="#DejaVuSans-32" x="95.410156"/>
      </g>
     </g>
    </g>
    <g id="ytick_3">
     <g id="line2d_8">
      <g>
       <use xlink:href="#mb679c52808" x="57.6" y="169.243848" style="stroke: #000000; stroke-width: 0.8"/>
      </g>
     </g>
     <g id="text_9">
      <!-- 6.4 -->
      <g transform="translate(34.696875 173.043067) scale(0.1 -0.1)">
       <use xlink:href="#DejaVuSans-36"/>
       <use xlink:href="#DejaVuSans-2e" x="63.623047"/>
       <use xlink:href="#DejaVuSans-34" x="95.410156"/>
      </g>
     </g>
    </g>
    <g id="ytick_4">
     <g id="line2d_9">
      <g>
       <use xlink:href="#mb679c52808" x="57.6" y="113.907415" style="stroke: #000000; stroke-width: 0.8"/>
      </g>
     </g>
     <g id="text_10">
      <!-- 6.6 -->
      <g transform="translate(34.696875 117.706634) scale(0.1 -0.1)">
       <use xlink:href="#DejaVuSans-36"/>
       <use xlink:href="#DejaVuSans-2e" x="63.623047"/>
       <use xlink:href="#DejaVuSans-36" x="95.410156"/>
      </g>
     </g>
    </g>
    <g id="ytick_5">
     <g id="line2d_10">
      <g>
       <use xlink:href="#mb679c52808" x="57.6" y="58.570982" style="stroke: #000000; stroke-width: 0.8"/>
      </g>
     </g>
     <g id="text_11">
      <!-- 6.8 -->
      <g transform="translate(34.696875 62.370201) scale(0.1 -0.1)">
       <use xlink:href="#DejaVuSans-36"/>
       <use xlink:href="#DejaVuSans-2e" x="63.623047"/>
       <use xlink:href="#DejaVuSans-38" x="95.410156"/>
      </g>
     </g>
    </g>
    <g id="text_12">
     <!-- Loss -->
     <g transform="translate(28.617188 185.495187) rotate(-90) scale(0.1 -0.1)">
      <defs>
       <path id="DejaVuSans-4c" d="M 628 4666 
L 1259 4666 
L 1259 531 
L 3531 531 
L 3531 0 
L 628 0 
L 628 4666 
z
" transform="scale(0.015625)"/>
       <path id="DejaVuSans-73" d="M 2834 3397 
L 2834 2853 
Q 2591 2978 2328 3040 
Q 2066 3103 1784 3103 
Q 1356 3103 1142 2972 
Q 928 2841 928 2578 
Q 928 2378 1081 2264 
Q 1234 2150 1697 2047 
L 1894 2003 
Q 2506 1872 2764 1633 
Q 3022 1394 3022 966 
Q 3022 478 2636 193 
Q 2250 -91 1575 -91 
Q 1294 -91 989 -36 
Q 684 19 347 128 
L 347 722 
Q 666 556 975 473 
Q 1284 391 1588 391 
Q 1994 391 2212 530 
Q 2431 669 2431 922 
Q 2431 1156 2273 1281 
Q 2116 1406 1581 1522 
L 1381 1569 
Q 847 1681 609 1914 
Q 372 2147 372 2553 
Q 372 3047 722 3315 
Q 1072 3584 1716 3584 
Q 2034 3584 2315 3537 
Q 2597 3491 2834 3397 
z
" transform="scale(0.015625)"/>
      </defs>
      <use xlink:href="#DejaVuSans-4c"/>
      <use xlink:href="#DejaVuSans-6f" x="53.962891"/>
      <use xlink:href="#DejaVuSans-73" x="115.144531"/>
      <use xlink:href="#DejaVuSans-73" x="167.244141"/>
     </g>
    </g>
   </g>
   <g id="line2d_11">
    <path d="M 57.6 53.568 
L 61.207273 119.323079 
L 64.814545 134.556833 
L 68.421818 144.179047 
L 72.029091 150.791153 
L 75.636364 155.869237 
L 79.243636 160.034486 
L 82.850909 163.396923 
L 86.458182 166.225269 
L 90.065455 168.762401 
L 93.672727 171.103009 
L 97.28 173.268862 
L 100.887273 174.885765 
L 104.494545 176.881666 
L 108.101818 178.491946 
L 111.709091 179.803767 
L 115.316364 181.244157 
L 118.923636 182.511891 
L 122.530909 183.72249 
L 126.138182 184.953454 
L 129.745455 185.916051 
L 133.352727 186.989713 
L 136.96 188.164263 
L 140.567273 188.9313 
L 144.174545 189.894179 
L 147.781818 190.651478 
L 151.389091 191.46096 
L 154.996364 192.269304 
L 158.603636 192.902849 
L 162.210909 193.70145 
L 165.818182 194.383397 
L 169.425455 195.273313 
L 173.032727 195.695159 
L 176.64 196.27323 
L 180.247273 197.12299 
L 183.854545 197.462858 
L 187.461818 198.305578 
L 191.069091 198.538592 
L 194.676364 199.126219 
L 198.283636 199.705266 
L 201.890909 200.290641 
L 205.498182 200.841514 
L 209.105455 201.373414 
L 212.712727 201.635108 
L 216.32 202.186926 
L 219.927273 202.697342 
L 223.534545 203.090116 
L 227.141818 203.406488 
L 230.749091 204.016697 
L 234.356364 204.219307 
L 237.963636 204.331925 
L 241.570909 204.784811 
L 245.178182 205.276285 
L 248.785455 205.669855 
L 252.392727 205.978699 
L 256 206.318673 
L 259.607273 206.639982 
L 263.214545 207.020661 
L 266.821818 207.277723 
L 270.429091 207.788188 
L 274.036364 208.005564 
L 277.643636 208.232569 
L 281.250909 208.697218 
L 284.858182 208.888283 
L 288.465455 209.07741 
L 292.072727 209.604086 
L 295.68 209.637306 
L 299.287273 209.975369 
L 302.894545 210.001621 
L 306.501818 210.562171 
L 310.109091 210.768598 
L 313.716364 210.909969 
L 317.323636 211.229034 
L 320.930909 211.523892 
L 324.538182 211.823738 
L 328.145455 211.992158 
L 331.752727 212.227148 
L 335.36 212.368571 
L 338.967273 212.585972 
L 342.574545 212.691885 
L 346.181818 213.071586 
L 349.789091 213.356224 
L 353.396364 213.562397 
L 357.003636 213.516413 
L 360.610909 213.891956 
L 364.218182 214.073213 
L 367.825455 214.03464 
L 371.432727 214.438803 
L 375.04 214.595902 
L 378.647273 214.862129 
" clip-path="url(#pa47d1ed554)" style="fill: none; stroke: #1f77b4; stroke-width: 1.5; stroke-linecap: square"/>
   </g>
   <g id="line2d_12">
    <path d="M 57.6 204.641494 
L 61.207273 221.680302 
L 64.814545 231.8747 
L 68.421818 238.648814 
L 72.029091 244.68472 
L 75.636364 251.889847 
L 79.243636 251.241767 
L 82.850909 253.339228 
L 86.458182 258.479131 
L 90.065455 257.939394 
L 93.672727 260.273118 
L 97.28 265.099104 
L 100.887273 262.900687 
L 104.494545 267.198934 
L 108.101818 266.68162 
L 111.709091 267.152286 
L 115.316364 269.080792 
L 118.923636 268.9677 
L 122.530909 267.236981 
L 126.138182 271.816948 
L 129.745455 271.219048 
L 133.352727 275.147962 
L 136.96 275.372917 
L 140.567273 274.623979 
L 144.174545 272.80412 
L 147.781818 275.969895 
L 151.389091 277.63284 
L 154.996364 276.186741 
L 158.603636 276.049598 
L 162.210909 279.177207 
L 165.818182 279.556979 
L 169.425455 279.625002 
L 173.032727 281.96115 
L 176.64 278.644864 
L 180.247273 280.858049 
L 183.854545 280.497415 
L 187.461818 281.848598 
L 191.069091 281.9813 
L 194.676364 279.953981 
L 198.283636 283.230621 
L 201.890909 282.867299 
L 205.498182 284.790227 
L 209.105455 284.27907 
L 212.712727 286.35764 
L 216.32 284.52194 
L 219.927273 285.596218 
L 223.534545 283.132511 
L 227.141818 283.960904 
L 230.749091 282.810058 
L 234.356364 285.49246 
L 237.963636 285.209596 
L 241.570909 286.62074 
L 245.178182 288.15677 
L 248.785455 283.394236 
L 252.392727 288.650393 
L 256 286.416373 
L 259.607273 286.441178 
L 263.214545 288.774152 
L 266.821818 289.272216 
L 270.429091 288.861565 
L 274.036364 291.551946 
L 277.643636 288.336915 
L 281.250909 286.901809 
L 284.858182 290.075822 
L 288.465455 289.113676 
L 292.072727 288.785223 
L 295.68 288.86999 
L 299.287273 288.677372 
L 302.894545 291.375957 
L 306.501818 291.594248 
L 310.109091 290.006634 
L 313.716364 291.238157 
L 317.323636 293.200201 
L 320.930909 290.258508 
L 324.538182 292.144093 
L 328.145455 292.179622 
L 331.752727 290.252689 
L 335.36 291.319162 
L 338.967273 292.294527 
L 342.574545 295.488 
L 346.181818 292.271404 
L 349.789091 287.311942 
L 353.396364 291.365401 
L 357.003636 293.200847 
L 360.610909 292.658575 
L 364.218182 292.974293 
L 367.825455 293.723027 
L 371.432727 293.613781 
L 375.04 294.384868 
L 378.647273 293.04876 
" clip-path="url(#pa47d1ed554)" style="fill: none; stroke: #ff7f0e; stroke-width: 1.5; stroke-linecap: square"/>
   </g>
   <g id="line2d_13">
    <path d="M 57.6 54.598186 
L 61.207273 117.292289 
L 64.814545 131.902064 
L 68.421818 141.145123 
L 72.029091 147.691338 
L 75.636364 152.625334 
L 79.243636 156.447707 
L 82.850909 160.007693 
L 86.458182 162.773026 
L 90.065455 165.287739 
L 93.672727 167.622285 
L 97.28 169.816152 
L 100.887273 171.749095 
L 104.494545 173.41054 
L 108.101818 174.877966 
L 111.709091 176.415731 
L 115.316364 177.55808 
L 118.923636 179.029499 
L 122.530909 180.298932 
L 126.138182 181.217872 
L 129.745455 182.419553 
L 133.352727 183.546525 
L 136.96 184.329983 
L 140.567273 185.418977 
L 144.174545 186.108751 
L 147.781818 187.104847 
L 151.389091 187.995782 
L 154.996364 188.493671 
L 158.603636 189.37934 
L 162.210909 190.115752 
L 165.818182 190.706912 
L 169.425455 191.64852 
L 173.032727 192.211295 
L 176.64 192.779632 
L 180.247273 193.287764 
L 183.854545 194.038098 
L 187.461818 194.398816 
L 191.069091 194.955161 
L 194.676364 195.41154 
L 198.283636 196.132698 
L 201.890909 196.523348 
L 205.498182 196.867449 
L 209.105455 197.529967 
L 212.712727 197.950918 
L 216.32 198.395992 
L 219.927273 198.820733 
L 223.534545 199.315793 
L 227.141818 199.54087 
L 230.749091 199.793745 
L 234.356364 200.356304 
L 237.963636 200.755625 
L 241.570909 201.213698 
L 245.178182 201.479296 
L 248.785455 201.869833 
L 252.392727 202.39532 
L 256 202.479795 
L 259.607273 203.105713 
L 263.214545 203.046163 
L 266.821818 203.432395 
L 270.429091 203.72614 
L 274.036364 204.108832 
L 277.643636 204.151613 
L 281.250909 204.586668 
L 284.858182 204.983281 
L 288.465455 205.168867 
L 292.072727 205.269999 
L 295.68 205.610038 
L 299.287273 206.001429 
L 302.894545 206.259781 
L 306.501818 206.566066 
L 310.109091 206.610085 
L 313.716364 206.931289 
L 317.323636 207.030094 
L 320.930909 207.429159 
L 324.538182 207.746929 
L 328.145455 207.716531 
L 331.752727 207.997959 
L 335.36 208.143586 
L 338.967273 208.396616 
L 342.574545 208.6407 
L 346.181818 209.067482 
L 349.789091 209.205565 
L 353.396364 209.35167 
L 357.003636 209.46876 
L 360.610909 209.587075 
L 364.218182 209.809848 
L 367.825455 209.912505 
L 371.432727 210.122547 
L 375.04 210.280164 
L 378.647273 210.667361 
L 382.254545 210.807843 
L 385.861818 210.962258 
L 389.469091 211.196529 
L 393.076364 211.431635 
L 396.683636 211.348248 
L 400.290909 211.634248 
L 403.898182 211.746323 
L 407.505455 211.872669 
L 411.112727 211.956395 
L 414.72 212.182393 
" clip-path="url(#pa47d1ed554)" style="fill: none; stroke: #2ca02c; stroke-width: 1.5; stroke-linecap: square"/>
   </g>
   <g id="line2d_14">
    <path d="M 57.6 204.597726 
L 61.207273 218.762071 
L 64.814545 229.08209 
L 68.421818 237.093321 
L 72.029091 242.546197 
L 75.636364 245.319689 
L 79.243636 248.691287 
L 82.850909 251.815701 
L 86.458182 255.691875 
L 90.065455 257.513056 
L 93.672727 256.254381 
L 97.28 260.270725 
L 100.887273 261.682894 
L 104.494545 262.336818 
L 108.101818 262.471113 
L 111.709091 263.856768 
L 115.316364 266.689173 
L 118.923636 266.987012 
L 122.530909 267.943104 
L 126.138182 269.182172 
L 129.745455 270.881836 
L 133.352727 268.89105 
L 136.96 268.162466 
L 140.567273 273.452082 
L 144.174545 271.463534 
L 147.781818 273.445355 
L 151.389091 271.832414 
L 154.996364 274.4001 
L 158.603636 275.704312 
L 162.210909 274.481996 
L 165.818182 276.330012 
L 169.425455 277.820932 
L 173.032727 278.068175 
L 176.64 278.3216 
L 180.247273 276.687498 
L 183.854545 279.143946 
L 187.461818 279.448432 
L 191.069091 278.061646 
L 194.676364 284.179945 
L 198.283636 279.214453 
L 201.890909 280.941474 
L 205.498182 280.887272 
L 209.105455 280.49427 
L 212.712727 281.669004 
L 216.32 284.700938 
L 219.927273 283.290451 
L 223.534545 281.692908 
L 227.141818 284.400049 
L 230.749091 283.97762 
L 234.356364 283.137893 
L 237.963636 282.076689 
L 241.570909 285.491158 
L 245.178182 281.407263 
L 248.785455 286.068845 
L 252.392727 286.192753 
L 256 283.401019 
L 259.607273 282.01639 
L 263.214545 286.347363 
L 266.821818 283.729547 
L 270.429091 284.457397 
L 274.036364 286.587314 
L 277.643636 288.448354 
L 281.250909 288.840781 
L 284.858182 287.109997 
L 288.465455 288.337985 
L 292.072727 286.931694 
L 295.68 288.426645 
L 299.287273 289.717955 
L 302.894545 287.99269 
L 306.501818 289.720779 
L 310.109091 287.801958 
L 313.716364 287.001442 
L 317.323636 288.553212 
L 320.930909 289.095656 
L 324.538182 291.625757 
L 328.145455 287.013029 
L 331.752727 292.059112 
L 335.36 288.020162 
L 338.967273 288.740667 
L 342.574545 286.90207 
L 346.181818 289.956234 
L 349.789091 289.873763 
L 353.396364 291.298005 
L 357.003636 290.545303 
L 360.610909 286.995157 
L 364.218182 290.395191 
L 367.825455 292.195775 
L 371.432727 290.055761 
L 375.04 289.957735 
L 378.647273 289.613983 
L 382.254545 290.40409 
L 385.861818 290.588316 
L 389.469091 290.563873 
L 393.076364 290.501465 
L 396.683636 291.249329 
L 400.290909 292.462074 
L 403.898182 291.957892 
L 407.505455 289.846414 
L 411.112727 292.756152 
L 414.72 294.053887 
" clip-path="url(#pa47d1ed554)" style="fill: none; stroke: #d62728; stroke-width: 1.5; stroke-linecap: square"/>
   </g>
   <g id="patch_3">
    <path d="M 57.6 307.584 
L 57.6 41.472 
" style="fill: none; stroke: #000000; stroke-width: 0.8; stroke-linejoin: miter; stroke-linecap: square"/>
   </g>
   <g id="patch_4">
    <path d="M 414.72 307.584 
L 414.72 41.472 
" style="fill: none; stroke: #000000; stroke-width: 0.8; stroke-linejoin: miter; stroke-linecap: square"/>
   </g>
   <g id="patch_5">
    <path d="M 57.6 307.584 
L 414.72 307.584 
" style="fill: none; stroke: #000000; stroke-width: 0.8; stroke-linejoin: miter; stroke-linecap: square"/>
   </g>
   <g id="patch_6">
    <path d="M 57.6 41.472 
L 414.72 41.472 
" style="fill: none; stroke: #000000; stroke-width: 0.8; stroke-linejoin: miter; stroke-linecap: square"/>
   </g>
   <g id="legend_1">
    <g id="patch_7">
     <path d="M 352.445 108.1845 
L 407.72 108.1845 
Q 409.72 108.1845 409.72 106.1845 
L 409.72 48.472 
Q 409.72 46.472 407.72 46.472 
L 352.445 46.472 
Q 350.445 46.472 350.445 48.472 
L 350.445 106.1845 
Q 350.445 108.1845 352.445 108.1845 
z
" style="fill: #ffffff; opacity: 0.8; stroke: #cccccc; stroke-linejoin: miter"/>
    </g>
    <g id="line2d_15">
     <path d="M 354.445 54.570438 
L 364.445 54.570438 
L 374.445 54.570438 
" style="fill: none; stroke: #1f77b4; stroke-width: 1.5; stroke-linecap: square"/>
    </g>
    <g id="text_13">
     <!-- train -->
     <g transform="translate(382.445 58.070438) scale(0.1 -0.1)">
      <defs>
       <path id="DejaVuSans-74" d="M 1172 4494 
L 1172 3500 
L 2356 3500 
L 2356 3053 
L 1172 3053 
L 1172 1153 
Q 1172 725 1289 603 
Q 1406 481 1766 481 
L 2356 481 
L 2356 0 
L 1766 0 
Q 1100 0 847 248 
Q 594 497 594 1153 
L 594 3053 
L 172 3053 
L 172 3500 
L 594 3500 
L 594 4494 
L 1172 4494 
z
" transform="scale(0.015625)"/>
       <path id="DejaVuSans-72" d="M 2631 2963 
Q 2534 3019 2420 3045 
Q 2306 3072 2169 3072 
Q 1681 3072 1420 2755 
Q 1159 2438 1159 1844 
L 1159 0 
L 581 0 
L 581 3500 
L 1159 3500 
L 1159 2956 
Q 1341 3275 1631 3429 
Q 1922 3584 2338 3584 
Q 2397 3584 2469 3576 
Q 2541 3569 2628 3553 
L 2631 2963 
z
" transform="scale(0.015625)"/>
       <path id="DejaVuSans-61" d="M 2194 1759 
Q 1497 1759 1228 1600 
Q 959 1441 959 1056 
Q 959 750 1161 570 
Q 1363 391 1709 391 
Q 2188 391 2477 730 
Q 2766 1069 2766 1631 
L 2766 1759 
L 2194 1759 
z
M 3341 1997 
L 3341 0 
L 2766 0 
L 2766 531 
Q 2569 213 2275 61 
Q 1981 -91 1556 -91 
Q 1019 -91 701 211 
Q 384 513 384 1019 
Q 384 1609 779 1909 
Q 1175 2209 1959 2209 
L 2766 2209 
L 2766 2266 
Q 2766 2663 2505 2880 
Q 2244 3097 1772 3097 
Q 1472 3097 1187 3025 
Q 903 2953 641 2809 
L 641 3341 
Q 956 3463 1253 3523 
Q 1550 3584 1831 3584 
Q 2591 3584 2966 3190 
Q 3341 2797 3341 1997 
z
" transform="scale(0.015625)"/>
       <path id="DejaVuSans-69" d="M 603 3500 
L 1178 3500 
L 1178 0 
L 603 0 
L 603 3500 
z
M 603 4863 
L 1178 4863 
L 1178 4134 
L 603 4134 
L 603 4863 
z
" transform="scale(0.015625)"/>
       <path id="DejaVuSans-6e" d="M 3513 2113 
L 3513 0 
L 2938 0 
L 2938 2094 
Q 2938 2591 2744 2837 
Q 2550 3084 2163 3084 
Q 1697 3084 1428 2787 
Q 1159 2491 1159 1978 
L 1159 0 
L 581 0 
L 581 3500 
L 1159 3500 
L 1159 2956 
Q 1366 3272 1645 3428 
Q 1925 3584 2291 3584 
Q 2894 3584 3203 3211 
Q 3513 2838 3513 2113 
z
" transform="scale(0.015625)"/>
      </defs>
      <use xlink:href="#DejaVuSans-74"/>
      <use xlink:href="#DejaVuSans-72" x="39.208984"/>
      <use xlink:href="#DejaVuSans-61" x="80.322266"/>
      <use xlink:href="#DejaVuSans-69" x="141.601562"/>
      <use xlink:href="#DejaVuSans-6e" x="169.384766"/>
     </g>
    </g>
    <g id="line2d_16">
     <path d="M 354.445 69.248563 
L 364.445 69.248563 
L 374.445 69.248563 
" style="fill: none; stroke: #ff7f0e; stroke-width: 1.5; stroke-linecap: square"/>
    </g>
    <g id="text_14">
     <!-- val -->
     <g transform="translate(382.445 72.748563) scale(0.1 -0.1)">
      <defs>
       <path id="DejaVuSans-76" d="M 191 3500 
L 800 3500 
L 1894 563 
L 2988 3500 
L 3597 3500 
L 2284 0 
L 1503 0 
L 191 3500 
z
" transform="scale(0.015625)"/>
       <path id="DejaVuSans-6c" d="M 603 4863 
L 1178 4863 
L 1178 0 
L 603 0 
L 603 4863 
z
" transform="scale(0.015625)"/>
      </defs>
      <use xlink:href="#DejaVuSans-76"/>
      <use xlink:href="#DejaVuSans-61" x="59.179688"/>
      <use xlink:href="#DejaVuSans-6c" x="120.458984"/>
     </g>
    </g>
    <g id="line2d_17">
     <path d="M 354.445 83.926688 
L 364.445 83.926688 
L 374.445 83.926688 
" style="fill: none; stroke: #2ca02c; stroke-width: 1.5; stroke-linecap: square"/>
    </g>
    <g id="text_15">
     <!-- train -->
     <g transform="translate(382.445 87.426688) scale(0.1 -0.1)">
      <use xlink:href="#DejaVuSans-74"/>
      <use xlink:href="#DejaVuSans-72" x="39.208984"/>
      <use xlink:href="#DejaVuSans-61" x="80.322266"/>
      <use xlink:href="#DejaVuSans-69" x="141.601562"/>
      <use xlink:href="#DejaVuSans-6e" x="169.384766"/>
     </g>
    </g>
    <g id="line2d_18">
     <path d="M 354.445 98.604813 
L 364.445 98.604813 
L 374.445 98.604813 
" style="fill: none; stroke: #d62728; stroke-width: 1.5; stroke-linecap: square"/>
    </g>
    <g id="text_16">
     <!-- val -->
     <g transform="translate(382.445 102.104813) scale(0.1 -0.1)">
      <use xlink:href="#DejaVuSans-76"/>
      <use xlink:href="#DejaVuSans-61" x="59.179688"/>
      <use xlink:href="#DejaVuSans-6c" x="120.458984"/>
     </g>
    </g>
   </g>
  </g>
 </g>
 <defs>
  <clipPath id="pa47d1ed554">
   <rect x="57.6" y="41.472" width="357.12" height="266.112"/>
  </clipPath>
 </defs>
</svg>
