<?xml version="1.0" encoding="utf-8" standalone="no"?>
<!DOCTYPE svg PUBLIC "-//W3C//DTD SVG 1.1//EN"
  "http://www.w3.org/Graphics/SVG/1.1/DTD/svg11.dtd">
<svg xmlns:xlink="http://www.w3.org/1999/xlink" width="460.8pt" height="345.6pt" viewBox="0 0 460.8 345.6" xmlns="http://www.w3.org/2000/svg" version="1.1">
 <metadata>
  <rdf:RDF xmlns:dc="http://purl.org/dc/elements/1.1/" xmlns:cc="http://creativecommons.org/ns#" xmlns:rdf="http://www.w3.org/1999/02/22-rdf-syntax-ns#">
   <cc:Work>
    <dc:type rdf:resource="http://purl.org/dc/dcmitype/StillImage"/>
    <dc:date>2024-08-02T12:54:42.173569</dc:date>
    <dc:format>image/svg+xml</dc:format>
    <dc:creator>
     <cc:Agent>
      <dc:title>Matplotlib v3.7.4, https://matplotlib.org/</dc:title>
     </cc:Agent>
    </dc:creator>
   </cc:Work>
  </rdf:RDF>
 </metadata>
 <defs>
  <style type="text/css">*{stroke-linejoin: round; stroke-linecap: butt}</style>
 </defs>
 <g id="figure_1">
  <g id="patch_1">
   <path d="M 0 345.6 
L 460.8 345.6 
L 460.8 0 
L 0 0 
z
" style="fill: #ffffff"/>
  </g>
  <g id="axes_1">
   <g id="patch_2">
    <path d="M 57.6 307.584 
L 414.72 307.584 
L 414.72 41.472 
L 57.6 41.472 
z
" style="fill: #ffffff"/>
   </g>
   <g id="matplotlib.axis_1">
    <g id="xtick_1">
     <g id="line2d_1">
      <defs>
       <path id="mde36aa93df" d="M 0 0 
L 0 3.5 
" style="stroke: #000000; stroke-width: 0.8"/>
      </defs>
      <g>
       <use xlink:href="#mde36aa93df" x="112.075932" y="307.584" style="stroke: #000000; stroke-width: 0.8"/>
      </g>
     </g>
     <g id="text_1">
      <!-- 10 -->
      <g transform="translate(105.713432 322.182437) scale(0.1 -0.1)">
       <defs>
        <path id="DejaVuSans-31" d="M 794 531 
L 1825 531 
L 1825 4091 
L 703 3866 
L 703 4441 
L 1819 4666 
L 2450 4666 
L 2450 531 
L 3481 531 
L 3481 0 
L 794 0 
L 794 531 
z
" transform="scale(0.015625)"/>
        <path id="DejaVuSans-30" d="M 2034 4250 
Q 1547 4250 1301 3770 
Q 1056 3291 1056 2328 
Q 1056 1369 1301 889 
Q 1547 409 2034 409 
Q 2525 409 2770 889 
Q 3016 1369 3016 2328 
Q 3016 3291 2770 3770 
Q 2525 4250 2034 4250 
z
M 2034 4750 
Q 2819 4750 3233 4129 
Q 3647 3509 3647 2328 
Q 3647 1150 3233 529 
Q 2819 -91 2034 -91 
Q 1250 -91 836 529 
Q 422 1150 422 2328 
Q 422 3509 836 4129 
Q 1250 4750 2034 4750 
z
" transform="scale(0.015625)"/>
       </defs>
       <use xlink:href="#DejaVuSans-31"/>
       <use xlink:href="#DejaVuSans-30" x="63.623047"/>
      </g>
     </g>
    </g>
    <g id="xtick_2">
     <g id="line2d_2">
      <g>
       <use xlink:href="#mde36aa93df" x="172.604746" y="307.584" style="stroke: #000000; stroke-width: 0.8"/>
      </g>
     </g>
     <g id="text_2">
      <!-- 20 -->
      <g transform="translate(166.242246 322.182437) scale(0.1 -0.1)">
       <defs>
        <path id="DejaVuSans-32" d="M 1228 531 
L 3431 531 
L 3431 0 
L 469 0 
L 469 531 
Q 828 903 1448 1529 
Q 2069 2156 2228 2338 
Q 2531 2678 2651 2914 
Q 2772 3150 2772 3378 
Q 2772 3750 2511 3984 
Q 2250 4219 1831 4219 
Q 1534 4219 1204 4116 
Q 875 4013 500 3803 
L 500 4441 
Q 881 4594 1212 4672 
Q 1544 4750 1819 4750 
Q 2544 4750 2975 4387 
Q 3406 4025 3406 3419 
Q 3406 3131 3298 2873 
Q 3191 2616 2906 2266 
Q 2828 2175 2409 1742 
Q 1991 1309 1228 531 
z
" transform="scale(0.015625)"/>
       </defs>
       <use xlink:href="#DejaVuSans-32"/>
       <use xlink:href="#DejaVuSans-30" x="63.623047"/>
      </g>
     </g>
    </g>
    <g id="xtick_3">
     <g id="line2d_3">
      <g>
       <use xlink:href="#mde36aa93df" x="233.133559" y="307.584" style="stroke: #000000; stroke-width: 0.8"/>
      </g>
     </g>
     <g id="text_3">
      <!-- 30 -->
      <g transform="translate(226.771059 322.182437) scale(0.1 -0.1)">
       <defs>
        <path id="DejaVuSans-33" d="M 2597 2516 
Q 3050 2419 3304 2112 
Q 3559 1806 3559 1356 
Q 3559 666 3084 287 
Q 2609 -91 1734 -91 
Q 1441 -91 1130 -33 
Q 819 25 488 141 
L 488 750 
Q 750 597 1062 519 
Q 1375 441 1716 441 
Q 2309 441 2620 675 
Q 2931 909 2931 1356 
Q 2931 1769 2642 2001 
Q 2353 2234 1838 2234 
L 1294 2234 
L 1294 2753 
L 1863 2753 
Q 2328 2753 2575 2939 
Q 2822 3125 2822 3475 
Q 2822 3834 2567 4026 
Q 2313 4219 1838 4219 
Q 1578 4219 1281 4162 
Q 984 4106 628 3988 
L 628 4550 
Q 988 4650 1302 4700 
Q 1616 4750 1894 4750 
Q 2613 4750 3031 4423 
Q 3450 4097 3450 3541 
Q 3450 3153 3228 2886 
Q 3006 2619 2597 2516 
z
" transform="scale(0.015625)"/>
       </defs>
       <use xlink:href="#DejaVuSans-33"/>
       <use xlink:href="#DejaVuSans-30" x="63.623047"/>
      </g>
     </g>
    </g>
    <g id="xtick_4">
     <g id="line2d_4">
      <g>
       <use xlink:href="#mde36aa93df" x="293.662373" y="307.584" style="stroke: #000000; stroke-width: 0.8"/>
      </g>
     </g>
     <g id="text_4">
      <!-- 40 -->
      <g transform="translate(287.299873 322.182437) scale(0.1 -0.1)">
       <defs>
        <path id="DejaVuSans-34" d="M 2419 4116 
L 825 1625 
L 2419 1625 
L 2419 4116 
z
M 2253 4666 
L 3047 4666 
L 3047 1625 
L 3713 1625 
L 3713 1100 
L 3047 1100 
L 3047 0 
L 2419 0 
L 2419 1100 
L 313 1100 
L 313 1709 
L 2253 4666 
z
" transform="scale(0.015625)"/>
       </defs>
       <use xlink:href="#DejaVuSans-34"/>
       <use xlink:href="#DejaVuSans-30" x="63.623047"/>
      </g>
     </g>
    </g>
    <g id="xtick_5">
     <g id="line2d_5">
      <g>
       <use xlink:href="#mde36aa93df" x="354.191186" y="307.584" style="stroke: #000000; stroke-width: 0.8"/>
      </g>
     </g>
     <g id="text_5">
      <!-- 50 -->
      <g transform="translate(347.828686 322.182437) scale(0.1 -0.1)">
       <defs>
        <path id="DejaVuSans-35" d="M 691 4666 
L 3169 4666 
L 3169 4134 
L 1269 4134 
L 1269 2991 
Q 1406 3038 1543 3061 
Q 1681 3084 1819 3084 
Q 2600 3084 3056 2656 
Q 3513 2228 3513 1497 
Q 3513 744 3044 326 
Q 2575 -91 1722 -91 
Q 1428 -91 1123 -41 
Q 819 9 494 109 
L 494 744 
Q 775 591 1075 516 
Q 1375 441 1709 441 
Q 2250 441 2565 725 
Q 2881 1009 2881 1497 
Q 2881 1984 2565 2268 
Q 2250 2553 1709 2553 
Q 1456 2553 1204 2497 
Q 953 2441 691 2322 
L 691 4666 
z
" transform="scale(0.015625)"/>
       </defs>
       <use xlink:href="#DejaVuSans-35"/>
       <use xlink:href="#DejaVuSans-30" x="63.623047"/>
      </g>
     </g>
    </g>
    <g id="xtick_6">
     <g id="line2d_6">
      <g>
       <use xlink:href="#mde36aa93df" x="414.72" y="307.584" style="stroke: #000000; stroke-width: 0.8"/>
      </g>
     </g>
     <g id="text_6">
      <!-- 60 -->
      <g transform="translate(408.3575 322.182437) scale(0.1 -0.1)">
       <defs>
        <path id="DejaVuSans-36" d="M 2113 2584 
Q 1688 2584 1439 2293 
Q 1191 2003 1191 1497 
Q 1191 994 1439 701 
Q 1688 409 2113 409 
Q 2538 409 2786 701 
Q 3034 994 3034 1497 
Q 3034 2003 2786 2293 
Q 2538 2584 2113 2584 
z
M 3366 4563 
L 3366 3988 
Q 3128 4100 2886 4159 
Q 2644 4219 2406 4219 
Q 1781 4219 1451 3797 
Q 1122 3375 1075 2522 
Q 1259 2794 1537 2939 
Q 1816 3084 2150 3084 
Q 2853 3084 3261 2657 
Q 3669 2231 3669 1497 
Q 3669 778 3244 343 
Q 2819 -91 2113 -91 
Q 1303 -91 875 529 
Q 447 1150 447 2328 
Q 447 3434 972 4092 
Q 1497 4750 2381 4750 
Q 2619 4750 2861 4703 
Q 3103 4656 3366 4563 
z
" transform="scale(0.015625)"/>
       </defs>
       <use xlink:href="#DejaVuSans-36"/>
       <use xlink:href="#DejaVuSans-30" x="63.623047"/>
      </g>
     </g>
    </g>
    <g id="text_7">
     <!-- Epoch -->
     <g transform="translate(220.849063 335.860562) scale(0.1 -0.1)">
      <defs>
       <path id="DejaVuSans-45" d="M 628 4666 
L 3578 4666 
L 3578 4134 
L 1259 4134 
L 1259 2753 
L 3481 2753 
L 3481 2222 
L 1259 2222 
L 1259 531 
L 3634 531 
L 3634 0 
L 628 0 
L 628 4666 
z
" transform="scale(0.015625)"/>
       <path id="DejaVuSans-70" d="M 1159 525 
L 1159 -1331 
L 581 -1331 
L 581 3500 
L 1159 3500 
L 1159 2969 
Q 1341 3281 1617 3432 
Q 1894 3584 2278 3584 
Q 2916 3584 3314 3078 
Q 3713 2572 3713 1747 
Q 3713 922 3314 415 
Q 2916 -91 2278 -91 
Q 1894 -91 1617 61 
Q 1341 213 1159 525 
z
M 3116 1747 
Q 3116 2381 2855 2742 
Q 2594 3103 2138 3103 
Q 1681 3103 1420 2742 
Q 1159 2381 1159 1747 
Q 1159 1113 1420 752 
Q 1681 391 2138 391 
Q 2594 391 2855 752 
Q 3116 1113 3116 1747 
z
" transform="scale(0.015625)"/>
       <path id="DejaVuSans-6f" d="M 1959 3097 
Q 1497 3097 1228 2736 
Q 959 2375 959 1747 
Q 959 1119 1226 758 
Q 1494 397 1959 397 
Q 2419 397 2687 759 
Q 2956 1122 2956 1747 
Q 2956 2369 2687 2733 
Q 2419 3097 1959 3097 
z
M 1959 3584 
Q 2709 3584 3137 3096 
Q 3566 2609 3566 1747 
Q 3566 888 3137 398 
Q 2709 -91 1959 -91 
Q 1206 -91 779 398 
Q 353 888 353 1747 
Q 353 2609 779 3096 
Q 1206 3584 1959 3584 
z
" transform="scale(0.015625)"/>
       <path id="DejaVuSans-63" d="M 3122 3366 
L 3122 2828 
Q 2878 2963 2633 3030 
Q 2388 3097 2138 3097 
Q 1578 3097 1268 2742 
Q 959 2388 959 1747 
Q 959 1106 1268 751 
Q 1578 397 2138 397 
Q 2388 397 2633 464 
Q 2878 531 3122 666 
L 3122 134 
Q 2881 22 2623 -34 
Q 2366 -91 2075 -91 
Q 1284 -91 818 406 
Q 353 903 353 1747 
Q 353 2603 823 3093 
Q 1294 3584 2113 3584 
Q 2378 3584 2631 3529 
Q 2884 3475 3122 3366 
z
" transform="scale(0.015625)"/>
       <path id="DejaVuSans-68" d="M 3513 2113 
L 3513 0 
L 2938 0 
L 2938 2094 
Q 2938 2591 2744 2837 
Q 2550 3084 2163 3084 
Q 1697 3084 1428 2787 
Q 1159 2491 1159 1978 
L 1159 0 
L 581 0 
L 581 4863 
L 1159 4863 
L 1159 2956 
Q 1366 3272 1645 3428 
Q 1925 3584 2291 3584 
Q 2894 3584 3203 3211 
Q 3513 2838 3513 2113 
z
" transform="scale(0.015625)"/>
      </defs>
      <use xlink:href="#DejaVuSans-45"/>
      <use xlink:href="#DejaVuSans-70" x="63.183594"/>
      <use xlink:href="#DejaVuSans-6f" x="126.660156"/>
      <use xlink:href="#DejaVuSans-63" x="187.841797"/>
      <use xlink:href="#DejaVuSans-68" x="242.822266"/>
     </g>
    </g>
   </g>
   <g id="matplotlib.axis_2">
    <g id="ytick_1">
     <g id="line2d_7">
      <defs>
       <path id="m6f37b80d95" d="M 0 0 
L -3.5 0 
" style="stroke: #000000; stroke-width: 0.8"/>
      </defs>
      <g>
       <use xlink:href="#m6f37b80d95" x="57.6" y="278.314146" style="stroke: #000000; stroke-width: 0.8"/>
      </g>
     </g>
     <g id="text_8">
      <!-- 0.20 -->
      <g transform="translate(28.334375 282.113365) scale(0.1 -0.1)">
       <defs>
        <path id="DejaVuSans-2e" d="M 684 794 
L 1344 794 
L 1344 0 
L 684 0 
L 684 794 
z
" transform="scale(0.015625)"/>
       </defs>
       <use xlink:href="#DejaVuSans-30"/>
       <use xlink:href="#DejaVuSans-2e" x="63.623047"/>
       <use xlink:href="#DejaVuSans-32" x="95.410156"/>
       <use xlink:href="#DejaVuSans-30" x="159.033203"/>
      </g>
     </g>
    </g>
    <g id="ytick_2">
     <g id="line2d_8">
      <g>
       <use xlink:href="#m6f37b80d95" x="57.6" y="241.156891" style="stroke: #000000; stroke-width: 0.8"/>
      </g>
     </g>
     <g id="text_9">
      <!-- 0.22 -->
      <g transform="translate(28.334375 244.956109) scale(0.1 -0.1)">
       <use xlink:href="#DejaVuSans-30"/>
       <use xlink:href="#DejaVuSans-2e" x="63.623047"/>
       <use xlink:href="#DejaVuSans-32" x="95.410156"/>
       <use xlink:href="#DejaVuSans-32" x="159.033203"/>
      </g>
     </g>
    </g>
    <g id="ytick_3">
     <g id="line2d_9">
      <g>
       <use xlink:href="#m6f37b80d95" x="57.6" y="203.999635" style="stroke: #000000; stroke-width: 0.8"/>
      </g>
     </g>
     <g id="text_10">
      <!-- 0.24 -->
      <g transform="translate(28.334375 207.798854) scale(0.1 -0.1)">
       <use xlink:href="#DejaVuSans-30"/>
       <use xlink:href="#DejaVuSans-2e" x="63.623047"/>
       <use xlink:href="#DejaVuSans-32" x="95.410156"/>
       <use xlink:href="#DejaVuSans-34" x="159.033203"/>
      </g>
     </g>
    </g>
    <g id="ytick_4">
     <g id="line2d_10">
      <g>
       <use xlink:href="#m6f37b80d95" x="57.6" y="166.84238" style="stroke: #000000; stroke-width: 0.8"/>
      </g>
     </g>
     <g id="text_11">
      <!-- 0.26 -->
      <g transform="translate(28.334375 170.641599) scale(0.1 -0.1)">
       <use xlink:href="#DejaVuSans-30"/>
       <use xlink:href="#DejaVuSans-2e" x="63.623047"/>
       <use xlink:href="#DejaVuSans-32" x="95.410156"/>
       <use xlink:href="#DejaVuSans-36" x="159.033203"/>
      </g>
     </g>
    </g>
    <g id="ytick_5">
     <g id="line2d_11">
      <g>
       <use xlink:href="#m6f37b80d95" x="57.6" y="129.685125" style="stroke: #000000; stroke-width: 0.8"/>
      </g>
     </g>
     <g id="text_12">
      <!-- 0.28 -->
      <g transform="translate(28.334375 133.484343) scale(0.1 -0.1)">
       <defs>
        <path id="DejaVuSans-38" d="M 2034 2216 
Q 1584 2216 1326 1975 
Q 1069 1734 1069 1313 
Q 1069 891 1326 650 
Q 1584 409 2034 409 
Q 2484 409 2743 651 
Q 3003 894 3003 1313 
Q 3003 1734 2745 1975 
Q 2488 2216 2034 2216 
z
M 1403 2484 
Q 997 2584 770 2862 
Q 544 3141 544 3541 
Q 544 4100 942 4425 
Q 1341 4750 2034 4750 
Q 2731 4750 3128 4425 
Q 3525 4100 3525 3541 
Q 3525 3141 3298 2862 
Q 3072 2584 2669 2484 
Q 3125 2378 3379 2068 
Q 3634 1759 3634 1313 
Q 3634 634 3220 271 
Q 2806 -91 2034 -91 
Q 1263 -91 848 271 
Q 434 634 434 1313 
Q 434 1759 690 2068 
Q 947 2378 1403 2484 
z
M 1172 3481 
Q 1172 3119 1398 2916 
Q 1625 2713 2034 2713 
Q 2441 2713 2670 2916 
Q 2900 3119 2900 3481 
Q 2900 3844 2670 4047 
Q 2441 4250 2034 4250 
Q 1625 4250 1398 4047 
Q 1172 3844 1172 3481 
z
" transform="scale(0.015625)"/>
       </defs>
       <use xlink:href="#DejaVuSans-30"/>
       <use xlink:href="#DejaVuSans-2e" x="63.623047"/>
       <use xlink:href="#DejaVuSans-32" x="95.410156"/>
       <use xlink:href="#DejaVuSans-38" x="159.033203"/>
      </g>
     </g>
    </g>
    <g id="ytick_6">
     <g id="line2d_12">
      <g>
       <use xlink:href="#m6f37b80d95" x="57.6" y="92.527869" style="stroke: #000000; stroke-width: 0.8"/>
      </g>
     </g>
     <g id="text_13">
      <!-- 0.30 -->
      <g transform="translate(28.334375 96.327088) scale(0.1 -0.1)">
       <use xlink:href="#DejaVuSans-30"/>
       <use xlink:href="#DejaVuSans-2e" x="63.623047"/>
       <use xlink:href="#DejaVuSans-33" x="95.410156"/>
       <use xlink:href="#DejaVuSans-30" x="159.033203"/>
      </g>
     </g>
    </g>
    <g id="ytick_7">
     <g id="line2d_13">
      <g>
       <use xlink:href="#m6f37b80d95" x="57.6" y="55.370614" style="stroke: #000000; stroke-width: 0.8"/>
      </g>
     </g>
     <g id="text_14">
      <!-- 0.32 -->
      <g transform="translate(28.334375 59.169833) scale(0.1 -0.1)">
       <use xlink:href="#DejaVuSans-30"/>
       <use xlink:href="#DejaVuSans-2e" x="63.623047"/>
       <use xlink:href="#DejaVuSans-33" x="95.410156"/>
       <use xlink:href="#DejaVuSans-32" x="159.033203"/>
      </g>
     </g>
    </g>
    <g id="text_15">
     <!-- Loss -->
     <g transform="translate(22.254688 185.495187) rotate(-90) scale(0.1 -0.1)">
      <defs>
       <path id="DejaVuSans-4c" d="M 628 4666 
L 1259 4666 
L 1259 531 
L 3531 531 
L 3531 0 
L 628 0 
L 628 4666 
z
" transform="scale(0.015625)"/>
       <path id="DejaVuSans-73" d="M 2834 3397 
L 2834 2853 
Q 2591 2978 2328 3040 
Q 2066 3103 1784 3103 
Q 1356 3103 1142 2972 
Q 928 2841 928 2578 
Q 928 2378 1081 2264 
Q 1234 2150 1697 2047 
L 1894 2003 
Q 2506 1872 2764 1633 
Q 3022 1394 3022 966 
Q 3022 478 2636 193 
Q 2250 -91 1575 -91 
Q 1294 -91 989 -36 
Q 684 19 347 128 
L 347 722 
Q 666 556 975 473 
Q 1284 391 1588 391 
Q 1994 391 2212 530 
Q 2431 669 2431 922 
Q 2431 1156 2273 1281 
Q 2116 1406 1581 1522 
L 1381 1569 
Q 847 1681 609 1914 
Q 372 2147 372 2553 
Q 372 3047 722 3315 
Q 1072 3584 1716 3584 
Q 2034 3584 2315 3537 
Q 2597 3491 2834 3397 
z
" transform="scale(0.015625)"/>
      </defs>
      <use xlink:href="#DejaVuSans-4c"/>
      <use xlink:href="#DejaVuSans-6f" x="53.962891"/>
      <use xlink:href="#DejaVuSans-73" x="115.144531"/>
      <use xlink:href="#DejaVuSans-73" x="167.244141"/>
     </g>
    </g>
   </g>
   <g id="line2d_14">
    <path d="M 57.6 53.568 
L 63.652881 219.108776 
L 69.705763 232.372552 
L 75.758644 235.914579 
L 81.811525 238.113132 
L 87.864407 239.941935 
L 93.917288 241.399083 
L 99.970169 242.706467 
L 106.023051 243.898455 
L 112.075932 244.939381 
L 118.128814 245.908302 
L 124.181695 246.887652 
L 130.234576 247.716274 
L 136.287458 248.427889 
L 142.340339 249.201891 
L 148.39322 249.852925 
L 154.446102 250.464219 
L 160.498983 251.023295 
L 166.551864 251.633664 
L 172.604746 252.193193 
L 178.657627 252.661523 
L 184.710508 253.140674 
L 190.76339 253.550457 
L 196.816271 254.041368 
L 202.869153 254.434022 
L 208.922034 254.851221 
L 214.974915 255.222364 
L 221.027797 255.622494 
L 227.080678 255.949696 
L 233.133559 256.308487 
L 239.186441 256.557435 
L 245.239322 256.929356 
L 251.292203 257.206601 
L 257.345085 257.535461 
L 263.397966 257.807164 
L 269.450847 258.111707 
L 275.503729 258.384946 
L 281.55661 258.550884 
L 287.609492 258.744083 
L 293.662373 259.090229 
L 299.715254 259.303695 
L 305.768136 259.540451 
L 311.821017 259.735252 
L 317.873898 259.94089 
L 323.92678 260.192626 
L 329.979661 260.409856 
L 336.032542 260.540896 
L 342.085424 260.775315 
L 348.138305 260.962404 
L 354.191186 261.078786 
L 360.244068 261.371594 
L 366.296949 261.49612 
L 372.349831 261.751914 
L 378.402712 261.837869 
L 384.455593 261.967322 
L 390.508475 262.211668 
L 396.561356 262.315839 
L 402.614237 262.455017 
L 408.667119 262.669657 
L 414.72 262.785808 
L 420.772881 262.96049 
L 426.825763 263.050914 
L 432.878644 263.224753 
L 438.931525 263.414771 
L 444.984407 263.465404 
L 451.037288 263.620875 
L 457.090169 263.689403 
L 461.8 263.82192 
" clip-path="url(#p23f499b924)" style="fill: none; stroke: #1f77b4; stroke-width: 1.5; stroke-linecap: square"/>
   </g>
   <g id="line2d_15">
    <path d="M 57.6 202.169498 
L 63.652881 232.324648 
L 69.705763 236.971569 
L 75.758644 240.479738 
L 81.811525 241.611598 
L 87.864407 243.405607 
L 93.917288 244.684321 
L 99.970169 245.5706 
L 106.023051 245.855064 
L 112.075932 247.863471 
L 118.128814 248.808312 
L 124.181695 249.110227 
L 130.234576 250.191104 
L 136.287458 250.690692 
L 142.340339 251.259021 
L 148.39322 251.580333 
L 154.446102 252.363017 
L 160.498983 253.875121 
L 166.551864 253.436746 
L 172.604746 254.683032 
L 178.657627 255.257942 
L 184.710508 255.465591 
L 190.76339 255.864456 
L 196.816271 255.489287 
L 202.869153 255.921893 
L 208.922034 256.482744 
L 214.974915 257.242989 
L 221.027797 257.236538 
L 227.080678 257.623384 
L 233.133559 257.813078 
L 239.186441 257.650156 
L 245.239322 258.349835 
L 251.292203 258.095311 
L 257.345085 258.978657 
L 263.397966 258.963176 
L 269.450847 258.740026 
L 275.503729 259.012221 
L 281.55661 259.697114 
L 287.609492 259.403808 
L 293.662373 259.716297 
L 299.715254 259.936867 
L 305.768136 260.401203 
L 311.821017 261.01512 
L 317.873898 260.389375 
L 323.92678 261.117975 
L 329.979661 260.420504 
L 336.032542 261.43749 
L 342.085424 262.279151 
L 348.138305 261.993923 
L 354.191186 260.842193 
L 360.244068 262.130472 
L 366.296949 262.459041 
L 372.349831 262.365265 
L 378.402712 262.32202 
L 384.455593 262.299719 
L 390.508475 263.512096 
L 396.561356 263.06665 
L 402.614237 263.1814 
L 408.667119 263.391029 
L 414.72 263.239715 
L 420.772881 263.103482 
L 426.825763 263.627654 
L 432.878644 264.133733 
L 438.931525 263.494739 
L 444.984407 263.746918 
L 451.037288 263.600437 
L 457.090169 263.840207 
L 461.8 264.341485 
" clip-path="url(#p23f499b924)" style="fill: none; stroke: #ff7f0e; stroke-width: 1.5; stroke-linecap: square"/>
   </g>
   <g id="line2d_16">
    <path d="M 57.6 54.441451 
L 63.652881 217.89614 
L 69.705763 230.772719 
L 75.758644 234.094787 
L 81.811525 236.24187 
L 87.864407 237.843118 
L 93.917288 239.249335 
L 99.970169 240.503018 
L 106.023051 241.63296 
L 112.075932 242.648342 
L 118.128814 243.704113 
L 124.181695 244.500108 
L 130.234576 245.351404 
L 136.287458 246.192883 
L 142.340339 246.870724 
L 148.39322 247.607737 
L 154.446102 248.200471 
L 160.498983 248.81414 
L 166.551864 249.395491 
L 172.604746 249.94186 
L 178.657627 250.509507 
L 184.710508 250.936226 
L 190.76339 251.474416 
L 196.816271 251.876434 
L 202.869153 252.31897 
L 208.922034 252.695455 
L 214.974915 253.203403 
L 221.027797 253.500789 
L 227.080678 253.846485 
L 233.133559 254.2013 
L 239.186441 254.527884 
L 245.239322 254.930178 
L 251.292203 255.158264 
L 257.345085 255.437899 
L 263.397966 255.817125 
L 269.450847 256.094088 
L 275.503729 256.413811 
L 281.55661 256.621884 
L 287.609492 256.840922 
L 293.662373 257.101825 
L 299.715254 257.292697 
L 305.768136 257.602295 
L 311.821017 257.853948 
L 317.873898 258.039184 
L 323.92678 258.28015 
L 329.979661 258.501946 
L 336.032542 258.687692 
L 342.085424 258.853837 
L 348.138305 259.083309 
L 354.191186 259.297256 
L 360.244068 259.444094 
L 366.296949 259.592628 
L 372.349831 259.770311 
L 378.402712 259.887197 
L 384.455593 260.114607 
L 390.508475 260.231191 
L 396.561356 260.383025 
L 402.614237 260.580412 
L 408.667119 260.691252 
L 414.72 260.845671 
L 420.772881 261.033572 
L 426.825763 261.216427 
L 432.878644 261.339153 
L 438.931525 261.430687 
L 444.984407 261.607869 
L 451.037288 261.686199 
L 457.090169 261.831842 
L 461.8 261.93746 
" clip-path="url(#p23f499b924)" style="fill: none; stroke: #2ca02c; stroke-width: 1.5; stroke-linecap: square"/>
   </g>
   <g id="line2d_17">
    <path d="M 57.6 201.185489 
L 63.652881 231.841519 
L 69.705763 236.534654 
L 75.758644 238.983608 
L 81.811525 240.30423 
L 87.864407 241.977631 
L 93.917288 242.687334 
L 99.970169 243.641479 
L 106.023051 244.706948 
L 112.075932 244.810833 
L 118.128814 246.558001 
L 124.181695 246.794172 
L 130.234576 248.495221 
L 136.287458 248.092473 
L 142.340339 249.356204 
L 148.39322 250.304164 
L 154.446102 250.290651 
L 160.498983 251.829404 
L 166.551864 250.790546 
L 172.604746 252.094082 
L 178.657627 252.500864 
L 184.710508 252.711181 
L 190.76339 253.858115 
L 196.816271 253.77645 
L 202.869153 253.842322 
L 208.922034 254.18551 
L 214.974915 255.303964 
L 221.027797 255.057339 
L 227.080678 254.89532 
L 233.133559 255.957158 
L 239.186441 255.425265 
L 245.239322 256.83823 
L 251.292203 257.094093 
L 257.345085 256.915768 
L 263.397966 256.950937 
L 269.450847 257.611455 
L 275.503729 257.300213 
L 281.55661 257.570025 
L 287.609492 258.592359 
L 293.662373 257.756048 
L 299.715254 258.216952 
L 305.768136 258.682017 
L 311.821017 259.309439 
L 317.873898 259.491114 
L 323.92678 259.677028 
L 329.979661 258.859462 
L 336.032542 259.075041 
L 342.085424 260.193904 
L 348.138305 259.914707 
L 354.191186 260.714692 
L 360.244068 260.291869 
L 366.296949 260.615717 
L 372.349831 261.552321 
L 378.402712 261.078218 
L 384.455593 261.203415 
L 390.508475 260.442343 
L 396.561356 261.654509 
L 402.614237 260.852615 
L 408.667119 261.448244 
L 414.72 261.151753 
L 420.772881 262.234929 
L 426.825763 262.257594 
L 432.878644 261.978442 
L 438.931525 262.172343 
L 444.984407 262.534692 
L 451.037288 262.223995 
L 457.090169 263.049498 
L 461.8 262.05661 
" clip-path="url(#p23f499b924)" style="fill: none; stroke: #d62728; stroke-width: 1.5; stroke-linecap: square"/>
   </g>
   <g id="line2d_18">
    <path d="M 57.6 76.884735 
L 63.652881 225.050842 
L 69.705763 235.553366 
L 75.758644 239.044594 
L 81.811525 241.171592 
L 87.864407 243.127378 
L 93.917288 244.604872 
L 99.970169 246.135452 
L 106.023051 247.315685 
L 112.075932 248.391355 
L 118.128814 249.436772 
L 124.181695 250.318383 
L 130.234576 251.135942 
L 136.287458 251.899855 
L 142.340339 252.650033 
L 148.39322 253.359473 
L 154.446102 253.960026 
L 160.498983 254.510707 
L 166.551864 255.080363 
L 172.604746 255.632156 
L 178.657627 256.118632 
L 184.710508 256.639128 
L 190.76339 257.05966 
L 196.816271 257.534685 
L 202.869153 257.856251 
L 208.922034 258.344418 
L 214.974915 258.636958 
L 221.027797 259.031507 
L 227.080678 259.329343 
L 233.133559 259.787593 
L 239.186441 260.062893 
L 245.239322 260.36669 
L 251.292203 260.731201 
L 257.345085 261.014599 
L 263.397966 261.201747 
L 269.450847 261.512336 
L 275.503729 261.803557 
L 281.55661 262.034659 
L 287.609492 262.365012 
L 293.662373 262.468473 
L 299.715254 262.743411 
L 305.768136 263.026846 
L 311.821017 263.167502 
L 317.873898 263.447443 
L 323.92678 263.651923 
L 329.979661 263.865027 
L 336.032542 263.990516 
L 342.085424 264.287848 
L 348.138305 264.407028 
L 354.191186 264.621402 
L 360.244068 264.812815 
L 366.296949 265.017061 
L 372.349831 265.115424 
L 378.402712 265.38699 
L 384.455593 265.451163 
L 390.508475 265.622184 
L 396.561356 265.783266 
L 402.614237 265.940585 
L 408.667119 266.113081 
L 414.72 266.25631 
L 420.772881 266.442542 
L 426.825763 266.464852 
L 432.878644 266.581687 
L 438.931525 266.820018 
L 444.984407 266.911922 
L 451.037288 267.000847 
L 457.090169 267.139585 
L 461.8 267.285911 
" clip-path="url(#p23f499b924)" style="fill: none; stroke: #9467bd; stroke-width: 1.5; stroke-linecap: square"/>
   </g>
   <g id="line2d_19">
    <path d="M 57.6 212.705626 
L 63.652881 237.23597 
L 69.705763 240.369007 
L 75.758644 242.545021 
L 81.811525 245.897888 
L 87.864407 246.584431 
L 93.917288 247.791696 
L 99.970169 249.514065 
L 106.023051 250.343271 
L 112.075932 251.610555 
L 118.128814 251.77108 
L 124.181695 253.152149 
L 130.234576 252.988941 
L 136.287458 254.212337 
L 142.340339 255.027394 
L 148.39322 255.681854 
L 154.446102 255.968527 
L 160.498983 255.835878 
L 166.551864 257.261632 
L 172.604746 258.151175 
L 178.657627 258.195557 
L 184.710508 257.048816 
L 190.76339 258.613248 
L 196.816271 259.450889 
L 202.869153 259.597337 
L 208.922034 259.378102 
L 214.974915 260.190479 
L 221.027797 261.1952 
L 227.080678 261.45558 
L 233.133559 260.595935 
L 239.186441 261.485269 
L 245.239322 261.504208 
L 251.292203 261.373369 
L 257.345085 262.936699 
L 263.397966 262.902212 
L 269.450847 262.829454 
L 275.503729 262.960576 
L 281.55661 263.817636 
L 287.609492 262.476061 
L 293.662373 263.374242 
L 299.715254 263.876884 
L 305.768136 264.085542 
L 311.821017 264.17375 
L 317.873898 264.124204 
L 323.92678 265.14684 
L 329.979661 263.381402 
L 336.032542 264.685604 
L 342.085424 265.331624 
L 348.138305 264.806531 
L 354.191186 265.820121 
L 360.244068 265.268778 
L 366.296949 265.411102 
L 372.349831 265.767396 
L 378.402712 265.746982 
L 384.455593 266.78438 
L 390.508475 266.537982 
L 396.561356 266.005975 
L 402.614237 266.57635 
L 408.667119 266.732339 
L 414.72 267.065736 
L 420.772881 267.512651 
L 426.825763 267.161349 
L 432.878644 266.719287 
L 438.931525 267.466371 
L 444.984407 267.879635 
L 451.037288 266.011507 
L 457.090169 267.726114 
L 461.8 267.65846 
" clip-path="url(#p23f499b924)" style="fill: none; stroke: #8c564b; stroke-width: 1.5; stroke-linecap: square"/>
   </g>
   <g id="line2d_20">
    <path d="M 57.6 77.726006 
L 63.652881 225.575435 
L 69.705763 235.981906 
L 75.758644 239.347128 
L 81.811525 241.65643 
L 87.864407 243.602653 
L 93.917288 245.187174 
L 99.970169 246.560424 
L 106.023051 247.80584 
L 112.075932 248.966184 
L 118.128814 250.045111 
L 124.181695 250.985874 
L 130.234576 251.880668 
L 136.287458 252.686247 
L 142.340339 253.489982 
L 148.39322 254.057411 
L 154.446102 254.760371 
L 160.498983 255.362998 
L 166.551864 255.979587 
L 172.604746 256.536042 
L 178.657627 257.101324 
L 184.710508 257.539145 
L 190.76339 258.038034 
L 196.816271 258.473105 
L 202.869153 258.867362 
L 208.922034 259.352661 
L 214.974915 259.671311 
L 221.027797 260.013558 
L 227.080678 260.395341 
L 233.133559 260.810426 
L 239.186441 261.115959 
L 245.239322 261.442511 
L 251.292203 261.750732 
L 257.345085 262.027062 
L 263.397966 262.395693 
L 269.450847 262.61019 
L 275.503729 262.84296 
L 281.55661 263.184345 
L 287.609492 263.391632 
L 293.662373 263.618782 
L 299.715254 263.845139 
L 305.768136 264.09231 
L 311.821017 264.356134 
L 317.873898 264.520772 
L 323.92678 264.721132 
L 329.979661 264.900826 
L 336.032542 265.119383 
L 342.085424 265.24845 
L 348.138305 265.51785 
L 354.191186 265.732836 
L 360.244068 265.820874 
L 366.296949 266.011295 
L 372.349831 266.194461 
L 378.402712 266.345373 
L 384.455593 266.454991 
L 390.508475 266.701603 
L 396.561356 266.763935 
L 402.614237 266.934732 
L 408.667119 266.99626 
L 414.72 267.222944 
L 420.772881 267.37207 
L 426.825763 267.494713 
L 432.878644 267.607829 
L 438.931525 267.667102 
L 444.984407 267.890701 
L 451.037288 267.975234 
L 457.090169 268.17042 
L 461.8 268.189562 
" clip-path="url(#p23f499b924)" style="fill: none; stroke: #e377c2; stroke-width: 1.5; stroke-linecap: square"/>
   </g>
   <g id="line2d_21">
    <path d="M 57.6 213.349623 
L 63.652881 237.666821 
L 69.705763 241.304547 
L 75.758644 243.341512 
L 81.811525 245.750957 
L 87.864407 247.249135 
L 93.917288 248.401906 
L 99.970169 249.389762 
L 106.023051 250.736277 
L 112.075932 251.798343 
L 118.128814 252.805986 
L 124.181695 253.556669 
L 130.234576 254.066324 
L 136.287458 254.273538 
L 142.340339 255.915372 
L 148.39322 256.269131 
L 154.446102 256.947777 
L 160.498983 258.135564 
L 166.551864 258.104908 
L 172.604746 257.697219 
L 178.657627 259.080682 
L 184.710508 258.822243 
L 190.76339 259.653201 
L 196.816271 259.146845 
L 202.869153 259.678819 
L 208.922034 260.598085 
L 214.974915 261.198122 
L 221.027797 261.206459 
L 227.080678 262.101663 
L 233.133559 260.122166 
L 239.186441 261.887015 
L 245.239322 262.503278 
L 251.292203 263.014662 
L 257.345085 263.334039 
L 263.397966 263.527614 
L 269.450847 263.134427 
L 275.503729 263.768448 
L 281.55661 263.692892 
L 287.609492 263.606459 
L 293.662373 264.021976 
L 299.715254 264.726307 
L 305.768136 264.933607 
L 311.821017 265.449334 
L 317.873898 265.143085 
L 323.92678 265.77968 
L 329.979661 265.515795 
L 336.032542 266.355435 
L 342.085424 266.790269 
L 348.138305 265.827875 
L 354.191186 266.488856 
L 360.244068 266.250268 
L 366.296949 265.330496 
L 372.349831 266.619479 
L 378.402712 266.435109 
L 384.455593 267.1059 
L 390.508475 266.239589 
L 396.561356 268.042868 
L 402.614237 267.409312 
L 408.667119 267.241863 
L 414.72 267.584346 
L 420.772881 267.564687 
L 426.825763 267.926425 
L 432.878644 267.340874 
L 438.931525 268.678001 
L 444.984407 267.494314 
L 451.037288 268.207404 
L 457.090169 268.178031 
L 461.8 267.918797 
" clip-path="url(#p23f499b924)" style="fill: none; stroke: #7f7f7f; stroke-width: 1.5; stroke-linecap: square"/>
   </g>
   <g id="line2d_22">
    <path d="M 57.6 240.364709 
L 63.652881 256.626556 
L 69.705763 261.879872 
L 75.758644 265.193375 
L 81.811525 267.992323 
L 87.864407 270.222226 
L 93.917288 272.018576 
L 99.970169 273.67631 
L 106.023051 274.930813 
L 112.075932 276.156994 
L 118.128814 277.220211 
L 124.181695 278.143646 
L 130.234576 279.078361 
L 136.287458 279.908317 
L 142.340339 280.708339 
L 148.39322 281.261327 
L 154.446102 281.997337 
L 160.498983 282.574493 
L 166.551864 283.10211 
L 172.604746 283.594645 
L 178.657627 284.216194 
L 184.710508 284.750513 
L 190.76339 285.247347 
L 196.816271 285.539921 
L 202.869153 286.201367 
L 208.922034 286.518855 
L 214.974915 286.926797 
L 221.027797 287.223387 
L 227.080678 287.605353 
L 233.133559 288.105827 
L 239.186441 288.337496 
L 245.239322 288.672386 
L 251.292203 288.99827 
L 257.345085 289.552438 
L 263.397966 289.6491 
L 269.450847 289.937175 
L 275.503729 290.281678 
L 281.55661 290.41818 
L 287.609492 290.965704 
L 293.662373 290.990156 
L 299.715254 291.341182 
L 305.768136 291.567623 
L 311.821017 291.881754 
L 317.873898 292.025065 
L 323.92678 292.431241 
L 329.979661 292.472676 
L 336.032542 292.712326 
L 342.085424 292.755932 
L 348.138305 293.205125 
L 354.191186 293.315683 
L 360.244068 293.679695 
L 366.296949 293.598049 
L 372.349831 293.931898 
L 378.402712 294.281131 
L 384.455593 293.637345 
L 390.508475 294.895753 
L 396.561356 294.743621 
L 402.614237 294.847457 
L 408.667119 295.30354 
L 414.72 295.488 
" clip-path="url(#p23f499b924)" style="fill: none; stroke: #bcbd22; stroke-width: 1.5; stroke-linecap: square"/>
   </g>
   <g id="line2d_23">
    <path d="M 57.6 254.393393 
L 63.652881 261.245062 
L 69.705763 260.542271 
L 75.758644 264.55353 
L 81.811525 264.285919 
L 87.864407 267.102338 
L 93.917288 267.812917 
L 99.970169 269.191976 
L 106.023051 271.246794 
L 112.075932 269.105019 
L 118.128814 271.514233 
L 124.181695 271.620611 
L 130.234576 272.628138 
L 136.287458 273.199563 
L 142.340339 272.369502 
L 148.39322 272.667224 
L 154.446102 272.820551 
L 160.498983 273.193832 
L 166.551864 273.324612 
L 172.604746 273.611429 
L 178.657627 273.84368 
L 184.710508 272.208399 
L 190.76339 272.957816 
L 196.816271 274.976724 
L 202.869153 274.614611 
L 208.922034 274.276668 
L 214.974915 274.404695 
L 221.027797 274.126539 
L 227.080678 273.848163 
L 233.133559 274.322657 
L 239.186441 275.831031 
L 245.239322 275.361517 
L 251.292203 275.456853 
L 257.345085 274.219094 
L 263.397966 275.266699 
L 269.450847 274.71993 
L 275.503729 274.721274 
L 281.55661 276.040224 
L 287.609492 275.890909 
L 293.662373 275.688943 
L 299.715254 275.80504 
L 305.768136 275.744125 
L 311.821017 276.175263 
L 317.873898 275.417659 
L 323.92678 275.86063 
L 329.979661 276.174573 
L 336.032542 276.049534 
L 342.085424 276.900697 
L 348.138305 276.259099 
L 354.191186 276.981674 
L 360.244068 275.895107 
L 366.296949 276.567096 
L 372.349831 275.075555 
L 378.402712 276.065053 
L 384.455593 276.458076 
L 390.508475 275.728605 
L 396.561356 275.281754 
L 402.614237 275.531236 
L 408.667119 276.396991 
L 414.72 274.910339 
" clip-path="url(#p23f499b924)" style="fill: none; stroke: #17becf; stroke-width: 1.5; stroke-linecap: square"/>
   </g>
   <g id="patch_3">
    <path d="M 57.6 307.584 
L 57.6 41.472 
" style="fill: none; stroke: #000000; stroke-width: 0.8; stroke-linejoin: miter; stroke-linecap: square"/>
   </g>
   <g id="patch_4">
    <path d="M 414.72 307.584 
L 414.72 41.472 
" style="fill: none; stroke: #000000; stroke-width: 0.8; stroke-linejoin: miter; stroke-linecap: square"/>
   </g>
   <g id="patch_5">
    <path d="M 57.6 307.584 
L 414.72 307.584 
" style="fill: none; stroke: #000000; stroke-width: 0.8; stroke-linejoin: miter; stroke-linecap: square"/>
   </g>
   <g id="patch_6">
    <path d="M 57.6 41.472 
L 414.72 41.472 
" style="fill: none; stroke: #000000; stroke-width: 0.8; stroke-linejoin: miter; stroke-linecap: square"/>
   </g>
   <g id="legend_1">
    <g id="patch_7">
     <path d="M 352.445 196.25325 
L 407.72 196.25325 
Q 409.72 196.25325 409.72 194.25325 
L 409.72 48.472 
Q 409.72 46.472 407.72 46.472 
L 352.445 46.472 
Q 350.445 46.472 350.445 48.472 
L 350.445 194.25325 
Q 350.445 196.25325 352.445 196.25325 
z
" style="fill: #ffffff; opacity: 0.8; stroke: #cccccc; stroke-linejoin: miter"/>
    </g>
    <g id="line2d_24">
     <path d="M 354.445 54.570437 
L 364.445 54.570437 
L 374.445 54.570437 
" style="fill: none; stroke: #1f77b4; stroke-width: 1.5; stroke-linecap: square"/>
    </g>
    <g id="text_16">
     <!-- train -->
     <g transform="translate(382.445 58.070437) scale(0.1 -0.1)">
      <defs>
       <path id="DejaVuSans-74" d="M 1172 4494 
L 1172 3500 
L 2356 3500 
L 2356 3053 
L 1172 3053 
L 1172 1153 
Q 1172 725 1289 603 
Q 1406 481 1766 481 
L 2356 481 
L 2356 0 
L 1766 0 
Q 1100 0 847 248 
Q 594 497 594 1153 
L 594 3053 
L 172 3053 
L 172 3500 
L 594 3500 
L 594 4494 
L 1172 4494 
z
" transform="scale(0.015625)"/>
       <path id="DejaVuSans-72" d="M 2631 2963 
Q 2534 3019 2420 3045 
Q 2306 3072 2169 3072 
Q 1681 3072 1420 2755 
Q 1159 2438 1159 1844 
L 1159 0 
L 581 0 
L 581 3500 
L 1159 3500 
L 1159 2956 
Q 1341 3275 1631 3429 
Q 1922 3584 2338 3584 
Q 2397 3584 2469 3576 
Q 2541 3569 2628 3553 
L 2631 2963 
z
" transform="scale(0.015625)"/>
       <path id="DejaVuSans-61" d="M 2194 1759 
Q 1497 1759 1228 1600 
Q 959 1441 959 1056 
Q 959 750 1161 570 
Q 1363 391 1709 391 
Q 2188 391 2477 730 
Q 2766 1069 2766 1631 
L 2766 1759 
L 2194 1759 
z
M 3341 1997 
L 3341 0 
L 2766 0 
L 2766 531 
Q 2569 213 2275 61 
Q 1981 -91 1556 -91 
Q 1019 -91 701 211 
Q 384 513 384 1019 
Q 384 1609 779 1909 
Q 1175 2209 1959 2209 
L 2766 2209 
L 2766 2266 
Q 2766 2663 2505 2880 
Q 2244 3097 1772 3097 
Q 1472 3097 1187 3025 
Q 903 2953 641 2809 
L 641 3341 
Q 956 3463 1253 3523 
Q 1550 3584 1831 3584 
Q 2591 3584 2966 3190 
Q 3341 2797 3341 1997 
z
" transform="scale(0.015625)"/>
       <path id="DejaVuSans-69" d="M 603 3500 
L 1178 3500 
L 1178 0 
L 603 0 
L 603 3500 
z
M 603 4863 
L 1178 4863 
L 1178 4134 
L 603 4134 
L 603 4863 
z
" transform="scale(0.015625)"/>
       <path id="DejaVuSans-6e" d="M 3513 2113 
L 3513 0 
L 2938 0 
L 2938 2094 
Q 2938 2591 2744 2837 
Q 2550 3084 2163 3084 
Q 1697 3084 1428 2787 
Q 1159 2491 1159 1978 
L 1159 0 
L 581 0 
L 581 3500 
L 1159 3500 
L 1159 2956 
Q 1366 3272 1645 3428 
Q 1925 3584 2291 3584 
Q 2894 3584 3203 3211 
Q 3513 2838 3513 2113 
z
" transform="scale(0.015625)"/>
      </defs>
      <use xlink:href="#DejaVuSans-74"/>
      <use xlink:href="#DejaVuSans-72" x="39.208984"/>
      <use xlink:href="#DejaVuSans-61" x="80.322266"/>
      <use xlink:href="#DejaVuSans-69" x="141.601562"/>
      <use xlink:href="#DejaVuSans-6e" x="169.384766"/>
     </g>
    </g>
    <g id="line2d_25">
     <path d="M 354.445 69.248562 
L 364.445 69.248562 
L 374.445 69.248562 
" style="fill: none; stroke: #ff7f0e; stroke-width: 1.5; stroke-linecap: square"/>
    </g>
    <g id="text_17">
     <!-- val -->
     <g transform="translate(382.445 72.748562) scale(0.1 -0.1)">
      <defs>
       <path id="DejaVuSans-76" d="M 191 3500 
L 800 3500 
L 1894 563 
L 2988 3500 
L 3597 3500 
L 2284 0 
L 1503 0 
L 191 3500 
z
" transform="scale(0.015625)"/>
       <path id="DejaVuSans-6c" d="M 603 4863 
L 1178 4863 
L 1178 0 
L 603 0 
L 603 4863 
z
" transform="scale(0.015625)"/>
      </defs>
      <use xlink:href="#DejaVuSans-76"/>
      <use xlink:href="#DejaVuSans-61" x="59.179688"/>
      <use xlink:href="#DejaVuSans-6c" x="120.458984"/>
     </g>
    </g>
    <g id="line2d_26">
     <path d="M 354.445 83.926688 
L 364.445 83.926688 
L 374.445 83.926688 
" style="fill: none; stroke: #2ca02c; stroke-width: 1.5; stroke-linecap: square"/>
    </g>
    <g id="text_18">
     <!-- train -->
     <g transform="translate(382.445 87.426688) scale(0.1 -0.1)">
      <use xlink:href="#DejaVuSans-74"/>
      <use xlink:href="#DejaVuSans-72" x="39.208984"/>
      <use xlink:href="#DejaVuSans-61" x="80.322266"/>
      <use xlink:href="#DejaVuSans-69" x="141.601562"/>
      <use xlink:href="#DejaVuSans-6e" x="169.384766"/>
     </g>
    </g>
    <g id="line2d_27">
     <path d="M 354.445 98.604812 
L 364.445 98.604812 
L 374.445 98.604812 
" style="fill: none; stroke: #d62728; stroke-width: 1.5; stroke-linecap: square"/>
    </g>
    <g id="text_19">
     <!-- val -->
     <g transform="translate(382.445 102.104812) scale(0.1 -0.1)">
      <use xlink:href="#DejaVuSans-76"/>
      <use xlink:href="#DejaVuSans-61" x="59.179688"/>
      <use xlink:href="#DejaVuSans-6c" x="120.458984"/>
     </g>
    </g>
    <g id="line2d_28">
     <path d="M 354.445 113.282938 
L 364.445 113.282938 
L 374.445 113.282938 
" style="fill: none; stroke: #9467bd; stroke-width: 1.5; stroke-linecap: square"/>
    </g>
    <g id="text_20">
     <!-- train -->
     <g transform="translate(382.445 116.782938) scale(0.1 -0.1)">
      <use xlink:href="#DejaVuSans-74"/>
      <use xlink:href="#DejaVuSans-72" x="39.208984"/>
      <use xlink:href="#DejaVuSans-61" x="80.322266"/>
      <use xlink:href="#DejaVuSans-69" x="141.601562"/>
      <use xlink:href="#DejaVuSans-6e" x="169.384766"/>
     </g>
    </g>
    <g id="line2d_29">
     <path d="M 354.445 127.961062 
L 364.445 127.961062 
L 374.445 127.961062 
" style="fill: none; stroke: #8c564b; stroke-width: 1.5; stroke-linecap: square"/>
    </g>
    <g id="text_21">
     <!-- val -->
     <g transform="translate(382.445 131.461062) scale(0.1 -0.1)">
      <use xlink:href="#DejaVuSans-76"/>
      <use xlink:href="#DejaVuSans-61" x="59.179688"/>
      <use xlink:href="#DejaVuSans-6c" x="120.458984"/>
     </g>
    </g>
    <g id="line2d_30">
     <path d="M 354.445 142.639187 
L 364.445 142.639187 
L 374.445 142.639187 
" style="fill: none; stroke: #e377c2; stroke-width: 1.5; stroke-linecap: square"/>
    </g>
    <g id="text_22">
     <!-- train -->
     <g transform="translate(382.445 146.139187) scale(0.1 -0.1)">
      <use xlink:href="#DejaVuSans-74"/>
      <use xlink:href="#DejaVuSans-72" x="39.208984"/>
      <use xlink:href="#DejaVuSans-61" x="80.322266"/>
      <use xlink:href="#DejaVuSans-69" x="141.601562"/>
      <use xlink:href="#DejaVuSans-6e" x="169.384766"/>
     </g>
    </g>
    <g id="line2d_31">
     <path d="M 354.445 157.317312 
L 364.445 157.317312 
L 374.445 157.317312 
" style="fill: none; stroke: #7f7f7f; stroke-width: 1.5; stroke-linecap: square"/>
    </g>
    <g id="text_23">
     <!-- val -->
     <g transform="translate(382.445 160.817312) scale(0.1 -0.1)">
      <use xlink:href="#DejaVuSans-76"/>
      <use xlink:href="#DejaVuSans-61" x="59.179688"/>
      <use xlink:href="#DejaVuSans-6c" x="120.458984"/>
     </g>
    </g>
    <g id="line2d_32">
     <path d="M 354.445 171.995437 
L 364.445 171.995437 
L 374.445 171.995437 
" style="fill: none; stroke: #bcbd22; stroke-width: 1.5; stroke-linecap: square"/>
    </g>
    <g id="text_24">
     <!-- train -->
     <g transform="translate(382.445 175.495437) scale(0.1 -0.1)">
      <use xlink:href="#DejaVuSans-74"/>
      <use xlink:href="#DejaVuSans-72" x="39.208984"/>
      <use xlink:href="#DejaVuSans-61" x="80.322266"/>
      <use xlink:href="#DejaVuSans-69" x="141.601562"/>
      <use xlink:href="#DejaVuSans-6e" x="169.384766"/>
     </g>
    </g>
    <g id="line2d_33">
     <path d="M 354.445 186.673562 
L 364.445 186.673562 
L 374.445 186.673562 
" style="fill: none; stroke: #17becf; stroke-width: 1.5; stroke-linecap: square"/>
    </g>
    <g id="text_25">
     <!-- val -->
     <g transform="translate(382.445 190.173562) scale(0.1 -0.1)">
      <use xlink:href="#DejaVuSans-76"/>
      <use xlink:href="#DejaVuSans-61" x="59.179688"/>
      <use xlink:href="#DejaVuSans-6c" x="120.458984"/>
     </g>
    </g>
   </g>
  </g>
 </g>
 <defs>
  <clipPath id="p23f499b924">
   <rect x="57.6" y="41.472" width="357.12" height="266.112"/>
  </clipPath>
 </defs>
</svg>
