<?xml version="1.0" encoding="utf-8" standalone="no"?>
<!DOCTYPE svg PUBLIC "-//W3C//DTD SVG 1.1//EN"
  "http://www.w3.org/Graphics/SVG/1.1/DTD/svg11.dtd">
<svg xmlns:xlink="http://www.w3.org/1999/xlink" width="460.8pt" height="345.6pt" viewBox="0 0 460.8 345.6" xmlns="http://www.w3.org/2000/svg" version="1.1">
 <metadata>
  <rdf:RDF xmlns:dc="http://purl.org/dc/elements/1.1/" xmlns:cc="http://creativecommons.org/ns#" xmlns:rdf="http://www.w3.org/1999/02/22-rdf-syntax-ns#">
   <cc:Work>
    <dc:type rdf:resource="http://purl.org/dc/dcmitype/StillImage"/>
    <dc:date>2024-07-06T14:24:10.354107</dc:date>
    <dc:format>image/svg+xml</dc:format>
    <dc:creator>
     <cc:Agent>
      <dc:title>Matplotlib v3.7.4, https://matplotlib.org/</dc:title>
     </cc:Agent>
    </dc:creator>
   </cc:Work>
  </rdf:RDF>
 </metadata>
 <defs>
  <style type="text/css">*{stroke-linejoin: round; stroke-linecap: butt}</style>
 </defs>
 <g id="figure_1">
  <g id="patch_1">
   <path d="M 0 345.6 
L 460.8 345.6 
L 460.8 0 
L 0 0 
z
" style="fill: #ffffff"/>
  </g>
  <g id="axes_1">
   <g id="patch_2">
    <path d="M 57.6 307.584 
L 414.72 307.584 
L 414.72 41.472 
L 57.6 41.472 
z
" style="fill: #ffffff"/>
   </g>
   <g id="matplotlib.axis_1">
    <g id="xtick_1">
     <g id="line2d_1">
      <defs>
       <path id="m215b702311" d="M 0 0 
L 0 3.5 
" style="stroke: #000000; stroke-width: 0.8"/>
      </defs>
      <g>
       <use xlink:href="#m215b702311" x="94.227692" y="307.584" style="stroke: #000000; stroke-width: 0.8"/>
      </g>
     </g>
     <g id="text_1">
      <!-- 5 -->
      <g transform="translate(91.046442 322.182437) scale(0.1 -0.1)">
       <defs>
        <path id="DejaVuSans-35" d="M 691 4666 
L 3169 4666 
L 3169 4134 
L 1269 4134 
L 1269 2991 
Q 1406 3038 1543 3061 
Q 1681 3084 1819 3084 
Q 2600 3084 3056 2656 
Q 3513 2228 3513 1497 
Q 3513 744 3044 326 
Q 2575 -91 1722 -91 
Q 1428 -91 1123 -41 
Q 819 9 494 109 
L 494 744 
Q 775 591 1075 516 
Q 1375 441 1709 441 
Q 2250 441 2565 725 
Q 2881 1009 2881 1497 
Q 2881 1984 2565 2268 
Q 2250 2553 1709 2553 
Q 1456 2553 1204 2497 
Q 953 2441 691 2322 
L 691 4666 
z
" transform="scale(0.015625)"/>
       </defs>
       <use xlink:href="#DejaVuSans-35"/>
      </g>
     </g>
    </g>
    <g id="xtick_2">
     <g id="line2d_2">
      <g>
       <use xlink:href="#m215b702311" x="140.012308" y="307.584" style="stroke: #000000; stroke-width: 0.8"/>
      </g>
     </g>
     <g id="text_2">
      <!-- 10 -->
      <g transform="translate(133.649808 322.182437) scale(0.1 -0.1)">
       <defs>
        <path id="DejaVuSans-31" d="M 794 531 
L 1825 531 
L 1825 4091 
L 703 3866 
L 703 4441 
L 1819 4666 
L 2450 4666 
L 2450 531 
L 3481 531 
L 3481 0 
L 794 0 
L 794 531 
z
" transform="scale(0.015625)"/>
        <path id="DejaVuSans-30" d="M 2034 4250 
Q 1547 4250 1301 3770 
Q 1056 3291 1056 2328 
Q 1056 1369 1301 889 
Q 1547 409 2034 409 
Q 2525 409 2770 889 
Q 3016 1369 3016 2328 
Q 3016 3291 2770 3770 
Q 2525 4250 2034 4250 
z
M 2034 4750 
Q 2819 4750 3233 4129 
Q 3647 3509 3647 2328 
Q 3647 1150 3233 529 
Q 2819 -91 2034 -91 
Q 1250 -91 836 529 
Q 422 1150 422 2328 
Q 422 3509 836 4129 
Q 1250 4750 2034 4750 
z
" transform="scale(0.015625)"/>
       </defs>
       <use xlink:href="#DejaVuSans-31"/>
       <use xlink:href="#DejaVuSans-30" x="63.623047"/>
      </g>
     </g>
    </g>
    <g id="xtick_3">
     <g id="line2d_3">
      <g>
       <use xlink:href="#m215b702311" x="185.796923" y="307.584" style="stroke: #000000; stroke-width: 0.8"/>
      </g>
     </g>
     <g id="text_3">
      <!-- 15 -->
      <g transform="translate(179.434423 322.182437) scale(0.1 -0.1)">
       <use xlink:href="#DejaVuSans-31"/>
       <use xlink:href="#DejaVuSans-35" x="63.623047"/>
      </g>
     </g>
    </g>
    <g id="xtick_4">
     <g id="line2d_4">
      <g>
       <use xlink:href="#m215b702311" x="231.581538" y="307.584" style="stroke: #000000; stroke-width: 0.8"/>
      </g>
     </g>
     <g id="text_4">
      <!-- 20 -->
      <g transform="translate(225.219038 322.182437) scale(0.1 -0.1)">
       <defs>
        <path id="DejaVuSans-32" d="M 1228 531 
L 3431 531 
L 3431 0 
L 469 0 
L 469 531 
Q 828 903 1448 1529 
Q 2069 2156 2228 2338 
Q 2531 2678 2651 2914 
Q 2772 3150 2772 3378 
Q 2772 3750 2511 3984 
Q 2250 4219 1831 4219 
Q 1534 4219 1204 4116 
Q 875 4013 500 3803 
L 500 4441 
Q 881 4594 1212 4672 
Q 1544 4750 1819 4750 
Q 2544 4750 2975 4387 
Q 3406 4025 3406 3419 
Q 3406 3131 3298 2873 
Q 3191 2616 2906 2266 
Q 2828 2175 2409 1742 
Q 1991 1309 1228 531 
z
" transform="scale(0.015625)"/>
       </defs>
       <use xlink:href="#DejaVuSans-32"/>
       <use xlink:href="#DejaVuSans-30" x="63.623047"/>
      </g>
     </g>
    </g>
    <g id="xtick_5">
     <g id="line2d_5">
      <g>
       <use xlink:href="#m215b702311" x="277.366154" y="307.584" style="stroke: #000000; stroke-width: 0.8"/>
      </g>
     </g>
     <g id="text_5">
      <!-- 25 -->
      <g transform="translate(271.003654 322.182437) scale(0.1 -0.1)">
       <use xlink:href="#DejaVuSans-32"/>
       <use xlink:href="#DejaVuSans-35" x="63.623047"/>
      </g>
     </g>
    </g>
    <g id="xtick_6">
     <g id="line2d_6">
      <g>
       <use xlink:href="#m215b702311" x="323.150769" y="307.584" style="stroke: #000000; stroke-width: 0.8"/>
      </g>
     </g>
     <g id="text_6">
      <!-- 30 -->
      <g transform="translate(316.788269 322.182437) scale(0.1 -0.1)">
       <defs>
        <path id="DejaVuSans-33" d="M 2597 2516 
Q 3050 2419 3304 2112 
Q 3559 1806 3559 1356 
Q 3559 666 3084 287 
Q 2609 -91 1734 -91 
Q 1441 -91 1130 -33 
Q 819 25 488 141 
L 488 750 
Q 750 597 1062 519 
Q 1375 441 1716 441 
Q 2309 441 2620 675 
Q 2931 909 2931 1356 
Q 2931 1769 2642 2001 
Q 2353 2234 1838 2234 
L 1294 2234 
L 1294 2753 
L 1863 2753 
Q 2328 2753 2575 2939 
Q 2822 3125 2822 3475 
Q 2822 3834 2567 4026 
Q 2313 4219 1838 4219 
Q 1578 4219 1281 4162 
Q 984 4106 628 3988 
L 628 4550 
Q 988 4650 1302 4700 
Q 1616 4750 1894 4750 
Q 2613 4750 3031 4423 
Q 3450 4097 3450 3541 
Q 3450 3153 3228 2886 
Q 3006 2619 2597 2516 
z
" transform="scale(0.015625)"/>
       </defs>
       <use xlink:href="#DejaVuSans-33"/>
       <use xlink:href="#DejaVuSans-30" x="63.623047"/>
      </g>
     </g>
    </g>
    <g id="xtick_7">
     <g id="line2d_7">
      <g>
       <use xlink:href="#m215b702311" x="368.935385" y="307.584" style="stroke: #000000; stroke-width: 0.8"/>
      </g>
     </g>
     <g id="text_7">
      <!-- 35 -->
      <g transform="translate(362.572885 322.182437) scale(0.1 -0.1)">
       <use xlink:href="#DejaVuSans-33"/>
       <use xlink:href="#DejaVuSans-35" x="63.623047"/>
      </g>
     </g>
    </g>
    <g id="xtick_8">
     <g id="line2d_8">
      <g>
       <use xlink:href="#m215b702311" x="414.72" y="307.584" style="stroke: #000000; stroke-width: 0.8"/>
      </g>
     </g>
     <g id="text_8">
      <!-- 40 -->
      <g transform="translate(408.3575 322.182437) scale(0.1 -0.1)">
       <defs>
        <path id="DejaVuSans-34" d="M 2419 4116 
L 825 1625 
L 2419 1625 
L 2419 4116 
z
M 2253 4666 
L 3047 4666 
L 3047 1625 
L 3713 1625 
L 3713 1100 
L 3047 1100 
L 3047 0 
L 2419 0 
L 2419 1100 
L 313 1100 
L 313 1709 
L 2253 4666 
z
" transform="scale(0.015625)"/>
       </defs>
       <use xlink:href="#DejaVuSans-34"/>
       <use xlink:href="#DejaVuSans-30" x="63.623047"/>
      </g>
     </g>
    </g>
    <g id="text_9">
     <!-- Epoch -->
     <g transform="translate(220.849063 335.860562) scale(0.1 -0.1)">
      <defs>
       <path id="DejaVuSans-45" d="M 628 4666 
L 3578 4666 
L 3578 4134 
L 1259 4134 
L 1259 2753 
L 3481 2753 
L 3481 2222 
L 1259 2222 
L 1259 531 
L 3634 531 
L 3634 0 
L 628 0 
L 628 4666 
z
" transform="scale(0.015625)"/>
       <path id="DejaVuSans-70" d="M 1159 525 
L 1159 -1331 
L 581 -1331 
L 581 3500 
L 1159 3500 
L 1159 2969 
Q 1341 3281 1617 3432 
Q 1894 3584 2278 3584 
Q 2916 3584 3314 3078 
Q 3713 2572 3713 1747 
Q 3713 922 3314 415 
Q 2916 -91 2278 -91 
Q 1894 -91 1617 61 
Q 1341 213 1159 525 
z
M 3116 1747 
Q 3116 2381 2855 2742 
Q 2594 3103 2138 3103 
Q 1681 3103 1420 2742 
Q 1159 2381 1159 1747 
Q 1159 1113 1420 752 
Q 1681 391 2138 391 
Q 2594 391 2855 752 
Q 3116 1113 3116 1747 
z
" transform="scale(0.015625)"/>
       <path id="DejaVuSans-6f" d="M 1959 3097 
Q 1497 3097 1228 2736 
Q 959 2375 959 1747 
Q 959 1119 1226 758 
Q 1494 397 1959 397 
Q 2419 397 2687 759 
Q 2956 1122 2956 1747 
Q 2956 2369 2687 2733 
Q 2419 3097 1959 3097 
z
M 1959 3584 
Q 2709 3584 3137 3096 
Q 3566 2609 3566 1747 
Q 3566 888 3137 398 
Q 2709 -91 1959 -91 
Q 1206 -91 779 398 
Q 353 888 353 1747 
Q 353 2609 779 3096 
Q 1206 3584 1959 3584 
z
" transform="scale(0.015625)"/>
       <path id="DejaVuSans-63" d="M 3122 3366 
L 3122 2828 
Q 2878 2963 2633 3030 
Q 2388 3097 2138 3097 
Q 1578 3097 1268 2742 
Q 959 2388 959 1747 
Q 959 1106 1268 751 
Q 1578 397 2138 397 
Q 2388 397 2633 464 
Q 2878 531 3122 666 
L 3122 134 
Q 2881 22 2623 -34 
Q 2366 -91 2075 -91 
Q 1284 -91 818 406 
Q 353 903 353 1747 
Q 353 2603 823 3093 
Q 1294 3584 2113 3584 
Q 2378 3584 2631 3529 
Q 2884 3475 3122 3366 
z
" transform="scale(0.015625)"/>
       <path id="DejaVuSans-68" d="M 3513 2113 
L 3513 0 
L 2938 0 
L 2938 2094 
Q 2938 2591 2744 2837 
Q 2550 3084 2163 3084 
Q 1697 3084 1428 2787 
Q 1159 2491 1159 1978 
L 1159 0 
L 581 0 
L 581 4863 
L 1159 4863 
L 1159 2956 
Q 1366 3272 1645 3428 
Q 1925 3584 2291 3584 
Q 2894 3584 3203 3211 
Q 3513 2838 3513 2113 
z
" transform="scale(0.015625)"/>
      </defs>
      <use xlink:href="#DejaVuSans-45"/>
      <use xlink:href="#DejaVuSans-70" x="63.183594"/>
      <use xlink:href="#DejaVuSans-6f" x="126.660156"/>
      <use xlink:href="#DejaVuSans-63" x="187.841797"/>
      <use xlink:href="#DejaVuSans-68" x="242.822266"/>
     </g>
    </g>
   </g>
   <g id="matplotlib.axis_2">
    <g id="ytick_1">
     <g id="line2d_9">
      <defs>
       <path id="m54073d2553" d="M 0 0 
L -3.5 0 
" style="stroke: #000000; stroke-width: 0.8"/>
      </defs>
      <g>
       <use xlink:href="#m54073d2553" x="57.6" y="294.03103" style="stroke: #000000; stroke-width: 0.8"/>
      </g>
     </g>
     <g id="text_10">
      <!-- 5.4 -->
      <g transform="translate(34.696875 297.830249) scale(0.1 -0.1)">
       <defs>
        <path id="DejaVuSans-2e" d="M 684 794 
L 1344 794 
L 1344 0 
L 684 0 
L 684 794 
z
" transform="scale(0.015625)"/>
       </defs>
       <use xlink:href="#DejaVuSans-35"/>
       <use xlink:href="#DejaVuSans-2e" x="63.623047"/>
       <use xlink:href="#DejaVuSans-34" x="95.410156"/>
      </g>
     </g>
    </g>
    <g id="ytick_2">
     <g id="line2d_10">
      <g>
       <use xlink:href="#m54073d2553" x="57.6" y="248.524123" style="stroke: #000000; stroke-width: 0.8"/>
      </g>
     </g>
     <g id="text_11">
      <!-- 5.6 -->
      <g transform="translate(34.696875 252.323342) scale(0.1 -0.1)">
       <defs>
        <path id="DejaVuSans-36" d="M 2113 2584 
Q 1688 2584 1439 2293 
Q 1191 2003 1191 1497 
Q 1191 994 1439 701 
Q 1688 409 2113 409 
Q 2538 409 2786 701 
Q 3034 994 3034 1497 
Q 3034 2003 2786 2293 
Q 2538 2584 2113 2584 
z
M 3366 4563 
L 3366 3988 
Q 3128 4100 2886 4159 
Q 2644 4219 2406 4219 
Q 1781 4219 1451 3797 
Q 1122 3375 1075 2522 
Q 1259 2794 1537 2939 
Q 1816 3084 2150 3084 
Q 2853 3084 3261 2657 
Q 3669 2231 3669 1497 
Q 3669 778 3244 343 
Q 2819 -91 2113 -91 
Q 1303 -91 875 529 
Q 447 1150 447 2328 
Q 447 3434 972 4092 
Q 1497 4750 2381 4750 
Q 2619 4750 2861 4703 
Q 3103 4656 3366 4563 
z
" transform="scale(0.015625)"/>
       </defs>
       <use xlink:href="#DejaVuSans-35"/>
       <use xlink:href="#DejaVuSans-2e" x="63.623047"/>
       <use xlink:href="#DejaVuSans-36" x="95.410156"/>
      </g>
     </g>
    </g>
    <g id="ytick_3">
     <g id="line2d_11">
      <g>
       <use xlink:href="#m54073d2553" x="57.6" y="203.017216" style="stroke: #000000; stroke-width: 0.8"/>
      </g>
     </g>
     <g id="text_12">
      <!-- 5.8 -->
      <g transform="translate(34.696875 206.816435) scale(0.1 -0.1)">
       <defs>
        <path id="DejaVuSans-38" d="M 2034 2216 
Q 1584 2216 1326 1975 
Q 1069 1734 1069 1313 
Q 1069 891 1326 650 
Q 1584 409 2034 409 
Q 2484 409 2743 651 
Q 3003 894 3003 1313 
Q 3003 1734 2745 1975 
Q 2488 2216 2034 2216 
z
M 1403 2484 
Q 997 2584 770 2862 
Q 544 3141 544 3541 
Q 544 4100 942 4425 
Q 1341 4750 2034 4750 
Q 2731 4750 3128 4425 
Q 3525 4100 3525 3541 
Q 3525 3141 3298 2862 
Q 3072 2584 2669 2484 
Q 3125 2378 3379 2068 
Q 3634 1759 3634 1313 
Q 3634 634 3220 271 
Q 2806 -91 2034 -91 
Q 1263 -91 848 271 
Q 434 634 434 1313 
Q 434 1759 690 2068 
Q 947 2378 1403 2484 
z
M 1172 3481 
Q 1172 3119 1398 2916 
Q 1625 2713 2034 2713 
Q 2441 2713 2670 2916 
Q 2900 3119 2900 3481 
Q 2900 3844 2670 4047 
Q 2441 4250 2034 4250 
Q 1625 4250 1398 4047 
Q 1172 3844 1172 3481 
z
" transform="scale(0.015625)"/>
       </defs>
       <use xlink:href="#DejaVuSans-35"/>
       <use xlink:href="#DejaVuSans-2e" x="63.623047"/>
       <use xlink:href="#DejaVuSans-38" x="95.410156"/>
      </g>
     </g>
    </g>
    <g id="ytick_4">
     <g id="line2d_12">
      <g>
       <use xlink:href="#m54073d2553" x="57.6" y="157.510309" style="stroke: #000000; stroke-width: 0.8"/>
      </g>
     </g>
     <g id="text_13">
      <!-- 6.0 -->
      <g transform="translate(34.696875 161.309528) scale(0.1 -0.1)">
       <use xlink:href="#DejaVuSans-36"/>
       <use xlink:href="#DejaVuSans-2e" x="63.623047"/>
       <use xlink:href="#DejaVuSans-30" x="95.410156"/>
      </g>
     </g>
    </g>
    <g id="ytick_5">
     <g id="line2d_13">
      <g>
       <use xlink:href="#m54073d2553" x="57.6" y="112.003403" style="stroke: #000000; stroke-width: 0.8"/>
      </g>
     </g>
     <g id="text_14">
      <!-- 6.2 -->
      <g transform="translate(34.696875 115.802621) scale(0.1 -0.1)">
       <use xlink:href="#DejaVuSans-36"/>
       <use xlink:href="#DejaVuSans-2e" x="63.623047"/>
       <use xlink:href="#DejaVuSans-32" x="95.410156"/>
      </g>
     </g>
    </g>
    <g id="ytick_6">
     <g id="line2d_14">
      <g>
       <use xlink:href="#m54073d2553" x="57.6" y="66.496496" style="stroke: #000000; stroke-width: 0.8"/>
      </g>
     </g>
     <g id="text_15">
      <!-- 6.4 -->
      <g transform="translate(34.696875 70.295714) scale(0.1 -0.1)">
       <use xlink:href="#DejaVuSans-36"/>
       <use xlink:href="#DejaVuSans-2e" x="63.623047"/>
       <use xlink:href="#DejaVuSans-34" x="95.410156"/>
      </g>
     </g>
    </g>
    <g id="text_16">
     <!-- Loss -->
     <g transform="translate(28.617188 185.495187) rotate(-90) scale(0.1 -0.1)">
      <defs>
       <path id="DejaVuSans-4c" d="M 628 4666 
L 1259 4666 
L 1259 531 
L 3531 531 
L 3531 0 
L 628 0 
L 628 4666 
z
" transform="scale(0.015625)"/>
       <path id="DejaVuSans-73" d="M 2834 3397 
L 2834 2853 
Q 2591 2978 2328 3040 
Q 2066 3103 1784 3103 
Q 1356 3103 1142 2972 
Q 928 2841 928 2578 
Q 928 2378 1081 2264 
Q 1234 2150 1697 2047 
L 1894 2003 
Q 2506 1872 2764 1633 
Q 3022 1394 3022 966 
Q 3022 478 2636 193 
Q 2250 -91 1575 -91 
Q 1294 -91 989 -36 
Q 684 19 347 128 
L 347 722 
Q 666 556 975 473 
Q 1284 391 1588 391 
Q 1994 391 2212 530 
Q 2431 669 2431 922 
Q 2431 1156 2273 1281 
Q 2116 1406 1581 1522 
L 1381 1569 
Q 847 1681 609 1914 
Q 372 2147 372 2553 
Q 372 3047 722 3315 
Q 1072 3584 1716 3584 
Q 2034 3584 2315 3537 
Q 2597 3491 2834 3397 
z
" transform="scale(0.015625)"/>
      </defs>
      <use xlink:href="#DejaVuSans-4c"/>
      <use xlink:href="#DejaVuSans-6f" x="53.962891"/>
      <use xlink:href="#DejaVuSans-73" x="115.144531"/>
      <use xlink:href="#DejaVuSans-73" x="167.244141"/>
     </g>
    </g>
   </g>
   <g id="line2d_15">
    <path d="M 57.6 219.368477 
L 66.756923 239.91128 
L 75.913846 247.332665 
L 85.070769 251.634923 
L 94.227692 255.274916 
L 103.384615 257.867968 
L 112.541538 260.390089 
L 121.698462 262.28211 
L 130.855385 264.237535 
L 140.012308 265.915498 
L 149.169231 267.244624 
L 158.326154 268.64905 
L 167.483077 269.632339 
L 176.64 271.111299 
L 185.796923 271.647289 
L 194.953846 272.975276 
L 204.110769 273.798616 
L 213.267692 274.639969 
L 222.424615 275.603909 
L 231.581538 276.308776 
L 240.738462 277.22383 
L 249.895385 278.132108 
L 259.052308 278.231823 
L 268.209231 278.98198 
L 277.366154 279.704278 
L 286.523077 280.151367 
L 295.68 280.756869 
L 304.836923 281.378932 
L 313.993846 281.625387 
L 323.150769 282.445513 
L 332.307692 283.155831 
L 341.464615 283.556171 
L 350.621538 283.71734 
L 359.778462 284.117383 
L 368.935385 284.651963 
L 378.092308 285.279134 
L 387.249231 285.614463 
L 396.406154 285.921792 
L 405.563077 286.182649 
L 414.72 286.642339 
L 423.876923 286.911548 
L 433.033846 287.282433 
L 442.190769 287.365985 
L 451.347692 288.006498 
L 460.504615 288.436812 
L 461.8 288.483734 
" clip-path="url(#p58cd19774c)" style="fill: none; stroke: #1f77b4; stroke-width: 1.5; stroke-linecap: square"/>
   </g>
   <g id="line2d_16">
    <path d="M 57.6 241.952892 
L 66.756923 246.217344 
L 75.913846 251.048205 
L 85.070769 254.503283 
L 94.227692 256.006955 
L 103.384615 257.634727 
L 112.541538 259.135058 
L 121.698462 259.938444 
L 130.855385 260.432902 
L 140.012308 261.257064 
L 149.169231 263.910642 
L 158.326154 263.371693 
L 167.483077 264.195814 
L 176.64 265.734741 
L 185.796923 263.7517 
L 194.953846 267.212971 
L 204.110769 263.648833 
L 213.267692 264.994153 
L 222.424615 265.919255 
L 231.581538 264.725349 
L 240.738462 268.122499 
L 249.895385 263.747428 
L 259.052308 267.598828 
L 268.209231 267.292841 
L 277.366154 264.921299 
L 286.523077 266.195382 
L 295.68 268.486146 
L 304.836923 266.503927 
L 313.993846 268.478685 
L 323.150769 268.05159 
L 332.307692 268.711077 
L 341.464615 269.326362 
L 350.621538 267.691218 
L 359.778462 266.510644 
L 368.935385 266.385839 
L 378.092308 267.755864 
L 387.249231 267.129166 
L 396.406154 266.894144 
L 405.563077 269.332032 
L 414.72 269.610384 
L 423.876923 267.563958 
L 433.033846 269.409314 
L 442.190769 269.663274 
L 451.347692 267.47043 
L 460.504615 267.409882 
L 461.8 267.602167 
" clip-path="url(#p58cd19774c)" style="fill: none; stroke: #ff7f0e; stroke-width: 1.5; stroke-linecap: square"/>
   </g>
   <g id="line2d_17">
    <path d="M 57.6 218.841855 
L 66.756923 240.390643 
L 75.913846 247.570355 
L 85.070769 252.38512 
L 94.227692 255.60116 
L 103.384615 258.663022 
L 112.541538 260.698186 
L 121.698462 262.787472 
L 130.855385 264.629653 
L 140.012308 266.177332 
L 149.169231 267.605507 
L 158.326154 268.999442 
L 167.483077 269.99863 
L 176.64 270.860878 
L 185.796923 272.012844 
L 194.953846 272.901554 
L 204.110769 273.463057 
L 213.267692 274.627928 
L 222.424615 275.436983 
L 231.581538 275.819443 
L 240.738462 276.637938 
L 249.895385 277.298511 
L 259.052308 278.251491 
L 268.209231 278.547585 
L 277.366154 279.090915 
L 286.523077 279.973881 
L 295.68 280.256703 
L 304.836923 281.009434 
L 313.993846 281.373583 
L 323.150769 281.741198 
L 332.307692 282.080747 
L 341.464615 282.469805 
L 350.621538 283.18472 
L 359.778462 283.722263 
L 368.935385 284.06686 
L 378.092308 284.47553 
L 387.249231 284.768412 
L 396.406154 285.187785 
L 405.563077 285.549078 
L 414.72 285.361866 
L 423.876923 286.340813 
L 433.033846 286.425526 
L 442.190769 286.675661 
L 451.347692 287.139985 
L 460.504615 287.301656 
L 461.8 287.410202 
" clip-path="url(#p58cd19774c)" style="fill: none; stroke: #2ca02c; stroke-width: 1.5; stroke-linecap: square"/>
   </g>
   <g id="line2d_18">
    <path d="M 57.6 241.466579 
L 66.756923 250.344427 
L 75.913846 253.246178 
L 85.070769 257.958258 
L 94.227692 257.564078 
L 103.384615 258.825246 
L 112.541538 258.945024 
L 121.698462 261.028331 
L 130.855385 260.578255 
L 140.012308 262.376863 
L 149.169231 266.050366 
L 158.326154 264.490405 
L 167.483077 264.862662 
L 176.64 264.640299 
L 185.796923 265.11761 
L 194.953846 265.455238 
L 204.110769 266.436949 
L 213.267692 265.758812 
L 222.424615 260.440436 
L 231.581538 266.892599 
L 240.738462 267.879042 
L 249.895385 268.589823 
L 259.052308 267.180631 
L 268.209231 267.199165 
L 277.366154 267.098754 
L 286.523077 266.346003 
L 295.68 266.47621 
L 304.836923 266.743415 
L 313.993846 269.092578 
L 323.150769 268.774682 
L 332.307692 268.149772 
L 341.464615 266.556392 
L 350.621538 267.99507 
L 359.778462 269.01056 
L 368.935385 268.126394 
L 378.092308 270.296622 
L 387.249231 269.467903 
L 396.406154 267.579673 
L 405.563077 269.110128 
L 414.72 266.323497 
L 423.876923 267.116302 
L 433.033846 268.003971 
L 442.190769 268.978881 
L 451.347692 268.563301 
L 460.504615 267.279092 
L 461.8 267.721649 
" clip-path="url(#p58cd19774c)" style="fill: none; stroke: #d62728; stroke-width: 1.5; stroke-linecap: square"/>
   </g>
   <g id="line2d_19">
    <path d="M 57.6 221.575222 
L 66.756923 243.568467 
L 75.913846 251.144704 
L 85.070769 256.167452 
L 94.227692 259.517176 
L 103.384615 262.693486 
L 112.541538 264.964045 
L 121.698462 267.021318 
L 130.855385 268.971088 
L 140.012308 270.452546 
L 149.169231 271.795655 
L 158.326154 273.481013 
L 167.483077 274.705143 
L 176.64 275.844474 
L 185.796923 276.772568 
L 194.953846 277.713768 
L 204.110769 278.542543 
L 213.267692 279.852593 
L 222.424615 280.348963 
L 231.581538 281.155477 
L 240.738462 282.235504 
L 249.895385 282.778109 
L 259.052308 283.40408 
L 268.209231 284.047485 
L 277.366154 284.839394 
L 286.523077 285.354539 
L 295.68 286.019732 
L 304.836923 286.595983 
L 313.993846 287.142855 
L 323.150769 287.733211 
L 332.307692 288.201645 
L 341.464615 288.676721 
L 350.621538 289.084403 
L 359.778462 289.604914 
L 368.935385 290.239934 
L 378.092308 290.414955 
" clip-path="url(#p58cd19774c)" style="fill: none; stroke: #9467bd; stroke-width: 1.5; stroke-linecap: square"/>
   </g>
   <g id="line2d_20">
    <path d="M 57.6 245.640846 
L 66.756923 252.357994 
L 75.913846 256.553101 
L 85.070769 260.409514 
L 94.227692 260.727855 
L 103.384615 263.783334 
L 112.541538 264.333878 
L 121.698462 264.604238 
L 130.855385 266.12469 
L 140.012308 267.932149 
L 149.169231 265.951313 
L 158.326154 267.553618 
L 167.483077 268.645421 
L 176.64 269.295438 
L 185.796923 270.261137 
L 194.953846 269.920659 
L 204.110769 270.673859 
L 213.267692 268.629428 
L 222.424615 270.163448 
L 231.581538 271.211497 
L 240.738462 271.447395 
L 249.895385 271.131904 
L 259.052308 268.318432 
L 268.209231 272.292402 
L 277.366154 270.726251 
L 286.523077 272.581018 
L 295.68 269.927775 
L 304.836923 271.535702 
L 313.993846 271.538172 
L 323.150769 267.770233 
L 332.307692 271.398283 
L 341.464615 270.282712 
L 350.621538 272.501297 
L 359.778462 271.999034 
L 368.935385 271.913788 
L 378.092308 271.442448 
" clip-path="url(#p58cd19774c)" style="fill: none; stroke: #8c564b; stroke-width: 1.5; stroke-linecap: square"/>
   </g>
   <g id="line2d_21">
    <path d="M 57.6 223.202218 
L 66.756923 245.041193 
L 75.913846 252.612249 
L 85.070769 256.947133 
L 94.227692 260.836494 
L 103.384615 263.797852 
L 112.541538 266.270194 
L 121.698462 268.311434 
L 130.855385 270.266677 
L 140.012308 271.873573 
L 149.169231 273.409932 
L 158.326154 274.650996 
L 167.483077 275.952537 
L 176.64 277.174005 
L 185.796923 278.098339 
L 194.953846 278.978622 
L 204.110769 280.388819 
L 213.267692 281.141985 
L 222.424615 281.966394 
L 231.581538 282.865629 
L 240.738462 283.488372 
L 249.895385 283.986272 
L 259.052308 284.880769 
L 268.209231 285.447555 
L 277.366154 286.076175 
L 286.523077 286.723395 
L 295.68 287.242909 
L 304.836923 287.833318 
L 313.993846 288.408392 
L 323.150769 288.772916 
L 332.307692 289.667897 
L 341.464615 290.116601 
L 350.621538 290.545474 
L 359.778462 290.873458 
L 368.935385 291.836766 
L 378.092308 291.728038 
L 387.249231 292.533237 
L 396.406154 292.744593 
L 405.563077 293.191742 
L 414.72 293.585904 
L 423.876923 293.500538 
L 433.033846 293.985561 
L 442.190769 294.157002 
L 451.347692 294.798093 
L 460.504615 295.197023 
L 461.8 295.213725 
" clip-path="url(#p58cd19774c)" style="fill: none; stroke: #e377c2; stroke-width: 1.5; stroke-linecap: square"/>
   </g>
   <g id="line2d_22">
    <path d="M 57.6 246.353427 
L 66.756923 254.16508 
L 75.913846 257.036757 
L 85.070769 260.698057 
L 94.227692 262.434512 
L 103.384615 263.307783 
L 112.541538 265.953685 
L 121.698462 266.916085 
L 130.855385 266.947194 
L 140.012308 269.182964 
L 149.169231 266.659332 
L 158.326154 268.081449 
L 167.483077 269.648941 
L 176.64 271.007017 
L 185.796923 270.325023 
L 194.953846 270.383685 
L 204.110769 273.476982 
L 213.267692 271.269471 
L 222.424615 268.753304 
L 231.581538 273.267591 
L 240.738462 272.048473 
L 249.895385 270.91766 
L 259.052308 271.0845 
L 268.209231 273.401879 
L 277.366154 272.965009 
L 286.523077 273.177396 
L 295.68 273.680845 
L 304.836923 274.473317 
L 313.993846 273.262064 
L 323.150769 272.050769 
L 332.307692 271.40959 
L 341.464615 271.300587 
L 350.621538 273.205336 
L 359.778462 272.311523 
L 368.935385 272.546542 
L 378.092308 273.642432 
L 387.249231 275.444163 
L 396.406154 274.526898 
L 405.563077 274.024972 
L 414.72 274.562384 
L 423.876923 272.369647 
L 433.033846 272.839443 
L 442.190769 273.732176 
L 451.347692 272.104917 
L 460.504615 272.901785 
L 461.8 272.85349 
" clip-path="url(#p58cd19774c)" style="fill: none; stroke: #7f7f7f; stroke-width: 1.5; stroke-linecap: square"/>
   </g>
   <g id="line2d_23">
    <path d="M 57.6 54.043647 
L 66.756923 83.340412 
L 75.913846 92.513134 
L 85.070769 98.751718 
L 94.227692 103.154507 
L 103.384615 106.654723 
L 112.541538 109.667264 
L 121.698462 112.368308 
L 130.855385 114.423927 
L 140.012308 116.57316 
L 149.169231 118.190439 
L 158.326154 119.907513 
L 167.483077 121.086377 
L 176.64 122.582615 
L 185.796923 124.033975 
L 194.953846 125.062038 
L 204.110769 126.011211 
L 213.267692 126.968173 
L 222.424615 127.77149 
L 231.581538 128.840097 
L 240.738462 129.727249 
L 249.895385 130.31898 
L 259.052308 130.938654 
L 268.209231 131.834458 
L 277.366154 132.86215 
L 286.523077 133.385255 
L 295.68 133.592636 
L 304.836923 134.445911 
L 313.993846 134.865236 
L 323.150769 135.71317 
L 332.307692 136.66102 
L 341.464615 136.869416 
L 350.621538 137.082693 
L 359.778462 137.375049 
L 368.935385 137.904213 
L 378.092308 138.323573 
L 387.249231 138.709948 
L 396.406154 139.285663 
L 405.563077 139.869811 
L 414.72 140.307838 
L 423.876923 140.138776 
L 433.033846 140.351633 
L 442.190769 141.277175 
L 451.347692 141.842972 
L 460.504615 141.679497 
" clip-path="url(#p58cd19774c)" style="fill: none; stroke: #bcbd22; stroke-width: 1.5; stroke-linecap: square"/>
   </g>
   <g id="line2d_24">
    <path d="M 57.6 144.65082 
L 66.756923 156.087858 
L 75.913846 161.090314 
L 85.070769 163.90693 
L 94.227692 164.031018 
L 103.384615 168.380416 
L 112.541538 169.998538 
L 121.698462 171.316823 
L 130.855385 171.300075 
L 140.012308 171.215464 
L 149.169231 171.996789 
L 158.326154 171.637605 
L 167.483077 173.527647 
L 176.64 175.103405 
L 185.796923 174.21886 
L 194.953846 175.718525 
L 204.110769 173.987066 
L 213.267692 175.751462 
L 222.424615 174.665444 
L 231.581538 178.540244 
L 240.738462 175.549381 
L 249.895385 176.844431 
L 259.052308 175.216382 
L 268.209231 176.246187 
L 277.366154 179.302043 
L 286.523077 177.084492 
L 295.68 176.654948 
L 304.836923 177.660696 
L 313.993846 176.248205 
L 323.150769 176.29216 
L 332.307692 177.299399 
L 341.464615 176.390814 
L 350.621538 176.619425 
L 359.778462 175.641488 
L 368.935385 180.768915 
L 378.092308 177.225823 
L 387.249231 179.184114 
L 396.406154 177.995628 
L 405.563077 177.909285 
L 414.72 180.139198 
L 423.876923 179.858892 
L 433.033846 177.664596 
L 442.190769 180.24574 
L 451.347692 180.112586 
L 460.504615 178.760266 
" clip-path="url(#p58cd19774c)" style="fill: none; stroke: #17becf; stroke-width: 1.5; stroke-linecap: square"/>
   </g>
   <g id="line2d_25">
    <path d="M 57.6 53.568 
L 66.756923 84.371104 
L 75.913846 93.336998 
L 85.070769 99.407918 
L 94.227692 103.79935 
L 103.384615 107.629099 
L 112.541538 110.401014 
L 121.698462 112.798532 
L 130.855385 115.045759 
L 140.012308 116.873949 
L 149.169231 118.468315 
L 158.326154 120.333514 
L 167.483077 121.341771 
L 176.64 122.708208 
L 185.796923 123.901172 
L 194.953846 124.831319 
L 204.110769 125.834608 
L 213.267692 126.932749 
L 222.424615 127.773025 
L 231.581538 128.635127 
L 240.738462 129.416938 
L 249.895385 130.335982 
L 259.052308 130.590169 
L 268.209231 131.483202 
L 277.366154 132.431771 
L 286.523077 133.007604 
L 295.68 133.553667 
L 304.836923 134.113341 
L 313.993846 134.438164 
L 323.150769 135.36799 
L 332.307692 135.773064 
L 341.464615 136.313167 
L 350.621538 136.882149 
L 359.778462 136.967727 
L 368.935385 138.011908 
L 378.092308 138.230338 
L 387.249231 138.472843 
L 396.406154 138.818681 
L 405.563077 139.309441 
L 414.72 140.153534 
" clip-path="url(#p58cd19774c)" style="fill: none; stroke: #1f77b4; stroke-width: 1.5; stroke-linecap: square"/>
   </g>
   <g id="line2d_26">
    <path d="M 57.6 150.741806 
L 66.756923 153.272472 
L 75.913846 162.706619 
L 85.070769 164.747135 
L 94.227692 165.665776 
L 103.384615 168.609985 
L 112.541538 167.214417 
L 121.698462 170.760685 
L 130.855385 169.940035 
L 140.012308 173.210302 
L 149.169231 172.690521 
L 158.326154 171.892269 
L 167.483077 172.349972 
L 176.64 171.305197 
L 185.796923 177.167396 
L 194.953846 176.989966 
L 204.110769 174.846023 
L 213.267692 175.802922 
L 222.424615 174.772553 
L 231.581538 176.98741 
L 240.738462 178.929515 
L 249.895385 176.993687 
L 259.052308 175.176636 
L 268.209231 174.882744 
L 277.366154 174.773916 
L 286.523077 176.889069 
L 295.68 178.796532 
L 304.836923 180.203904 
L 313.993846 178.201518 
L 323.150769 180.355439 
L 332.307692 179.586571 
L 341.464615 177.516525 
L 350.621538 178.608454 
L 359.778462 176.855843 
L 368.935385 179.413402 
L 378.092308 179.810414 
L 387.249231 179.980901 
L 396.406154 177.444307 
L 405.563077 178.977093 
L 414.72 178.142693 
" clip-path="url(#p58cd19774c)" style="fill: none; stroke: #ff7f0e; stroke-width: 1.5; stroke-linecap: square"/>
   </g>
   <g id="patch_3">
    <path d="M 57.6 307.584 
L 57.6 41.472 
" style="fill: none; stroke: #000000; stroke-width: 0.8; stroke-linejoin: miter; stroke-linecap: square"/>
   </g>
   <g id="patch_4">
    <path d="M 414.72 307.584 
L 414.72 41.472 
" style="fill: none; stroke: #000000; stroke-width: 0.8; stroke-linejoin: miter; stroke-linecap: square"/>
   </g>
   <g id="patch_5">
    <path d="M 57.6 307.584 
L 414.72 307.584 
" style="fill: none; stroke: #000000; stroke-width: 0.8; stroke-linejoin: miter; stroke-linecap: square"/>
   </g>
   <g id="patch_6">
    <path d="M 57.6 41.472 
L 414.72 41.472 
" style="fill: none; stroke: #000000; stroke-width: 0.8; stroke-linejoin: miter; stroke-linecap: square"/>
   </g>
   <g id="legend_1">
    <g id="patch_7">
     <path d="M 208.5225 225.6095 
L 263.7975 225.6095 
Q 265.7975 225.6095 265.7975 223.6095 
L 265.7975 48.472 
Q 265.7975 46.472 263.7975 46.472 
L 208.5225 46.472 
Q 206.5225 46.472 206.5225 48.472 
L 206.5225 223.6095 
Q 206.5225 225.6095 208.5225 225.6095 
z
" style="fill: #ffffff; opacity: 0.8; stroke: #cccccc; stroke-linejoin: miter"/>
    </g>
    <g id="line2d_27">
     <path d="M 210.5225 54.570437 
L 220.5225 54.570437 
L 230.5225 54.570437 
" style="fill: none; stroke: #1f77b4; stroke-width: 1.5; stroke-linecap: square"/>
    </g>
    <g id="text_17">
     <!-- train -->
     <g transform="translate(238.5225 58.070437) scale(0.1 -0.1)">
      <defs>
       <path id="DejaVuSans-74" d="M 1172 4494 
L 1172 3500 
L 2356 3500 
L 2356 3053 
L 1172 3053 
L 1172 1153 
Q 1172 725 1289 603 
Q 1406 481 1766 481 
L 2356 481 
L 2356 0 
L 1766 0 
Q 1100 0 847 248 
Q 594 497 594 1153 
L 594 3053 
L 172 3053 
L 172 3500 
L 594 3500 
L 594 4494 
L 1172 4494 
z
" transform="scale(0.015625)"/>
       <path id="DejaVuSans-72" d="M 2631 2963 
Q 2534 3019 2420 3045 
Q 2306 3072 2169 3072 
Q 1681 3072 1420 2755 
Q 1159 2438 1159 1844 
L 1159 0 
L 581 0 
L 581 3500 
L 1159 3500 
L 1159 2956 
Q 1341 3275 1631 3429 
Q 1922 3584 2338 3584 
Q 2397 3584 2469 3576 
Q 2541 3569 2628 3553 
L 2631 2963 
z
" transform="scale(0.015625)"/>
       <path id="DejaVuSans-61" d="M 2194 1759 
Q 1497 1759 1228 1600 
Q 959 1441 959 1056 
Q 959 750 1161 570 
Q 1363 391 1709 391 
Q 2188 391 2477 730 
Q 2766 1069 2766 1631 
L 2766 1759 
L 2194 1759 
z
M 3341 1997 
L 3341 0 
L 2766 0 
L 2766 531 
Q 2569 213 2275 61 
Q 1981 -91 1556 -91 
Q 1019 -91 701 211 
Q 384 513 384 1019 
Q 384 1609 779 1909 
Q 1175 2209 1959 2209 
L 2766 2209 
L 2766 2266 
Q 2766 2663 2505 2880 
Q 2244 3097 1772 3097 
Q 1472 3097 1187 3025 
Q 903 2953 641 2809 
L 641 3341 
Q 956 3463 1253 3523 
Q 1550 3584 1831 3584 
Q 2591 3584 2966 3190 
Q 3341 2797 3341 1997 
z
" transform="scale(0.015625)"/>
       <path id="DejaVuSans-69" d="M 603 3500 
L 1178 3500 
L 1178 0 
L 603 0 
L 603 3500 
z
M 603 4863 
L 1178 4863 
L 1178 4134 
L 603 4134 
L 603 4863 
z
" transform="scale(0.015625)"/>
       <path id="DejaVuSans-6e" d="M 3513 2113 
L 3513 0 
L 2938 0 
L 2938 2094 
Q 2938 2591 2744 2837 
Q 2550 3084 2163 3084 
Q 1697 3084 1428 2787 
Q 1159 2491 1159 1978 
L 1159 0 
L 581 0 
L 581 3500 
L 1159 3500 
L 1159 2956 
Q 1366 3272 1645 3428 
Q 1925 3584 2291 3584 
Q 2894 3584 3203 3211 
Q 3513 2838 3513 2113 
z
" transform="scale(0.015625)"/>
      </defs>
      <use xlink:href="#DejaVuSans-74"/>
      <use xlink:href="#DejaVuSans-72" x="39.208984"/>
      <use xlink:href="#DejaVuSans-61" x="80.322266"/>
      <use xlink:href="#DejaVuSans-69" x="141.601562"/>
      <use xlink:href="#DejaVuSans-6e" x="169.384766"/>
     </g>
    </g>
    <g id="line2d_28">
     <path d="M 210.5225 69.248562 
L 220.5225 69.248562 
L 230.5225 69.248562 
" style="fill: none; stroke: #ff7f0e; stroke-width: 1.5; stroke-linecap: square"/>
    </g>
    <g id="text_18">
     <!-- val -->
     <g transform="translate(238.5225 72.748562) scale(0.1 -0.1)">
      <defs>
       <path id="DejaVuSans-76" d="M 191 3500 
L 800 3500 
L 1894 563 
L 2988 3500 
L 3597 3500 
L 2284 0 
L 1503 0 
L 191 3500 
z
" transform="scale(0.015625)"/>
       <path id="DejaVuSans-6c" d="M 603 4863 
L 1178 4863 
L 1178 0 
L 603 0 
L 603 4863 
z
" transform="scale(0.015625)"/>
      </defs>
      <use xlink:href="#DejaVuSans-76"/>
      <use xlink:href="#DejaVuSans-61" x="59.179688"/>
      <use xlink:href="#DejaVuSans-6c" x="120.458984"/>
     </g>
    </g>
    <g id="line2d_29">
     <path d="M 210.5225 83.926688 
L 220.5225 83.926688 
L 230.5225 83.926688 
" style="fill: none; stroke: #2ca02c; stroke-width: 1.5; stroke-linecap: square"/>
    </g>
    <g id="text_19">
     <!-- train -->
     <g transform="translate(238.5225 87.426688) scale(0.1 -0.1)">
      <use xlink:href="#DejaVuSans-74"/>
      <use xlink:href="#DejaVuSans-72" x="39.208984"/>
      <use xlink:href="#DejaVuSans-61" x="80.322266"/>
      <use xlink:href="#DejaVuSans-69" x="141.601562"/>
      <use xlink:href="#DejaVuSans-6e" x="169.384766"/>
     </g>
    </g>
    <g id="line2d_30">
     <path d="M 210.5225 98.604812 
L 220.5225 98.604812 
L 230.5225 98.604812 
" style="fill: none; stroke: #d62728; stroke-width: 1.5; stroke-linecap: square"/>
    </g>
    <g id="text_20">
     <!-- val -->
     <g transform="translate(238.5225 102.104812) scale(0.1 -0.1)">
      <use xlink:href="#DejaVuSans-76"/>
      <use xlink:href="#DejaVuSans-61" x="59.179688"/>
      <use xlink:href="#DejaVuSans-6c" x="120.458984"/>
     </g>
    </g>
    <g id="line2d_31">
     <path d="M 210.5225 113.282938 
L 220.5225 113.282938 
L 230.5225 113.282938 
" style="fill: none; stroke: #9467bd; stroke-width: 1.5; stroke-linecap: square"/>
    </g>
    <g id="text_21">
     <!-- train -->
     <g transform="translate(238.5225 116.782938) scale(0.1 -0.1)">
      <use xlink:href="#DejaVuSans-74"/>
      <use xlink:href="#DejaVuSans-72" x="39.208984"/>
      <use xlink:href="#DejaVuSans-61" x="80.322266"/>
      <use xlink:href="#DejaVuSans-69" x="141.601562"/>
      <use xlink:href="#DejaVuSans-6e" x="169.384766"/>
     </g>
    </g>
    <g id="line2d_32">
     <path d="M 210.5225 127.961062 
L 220.5225 127.961062 
L 230.5225 127.961062 
" style="fill: none; stroke: #8c564b; stroke-width: 1.5; stroke-linecap: square"/>
    </g>
    <g id="text_22">
     <!-- val -->
     <g transform="translate(238.5225 131.461062) scale(0.1 -0.1)">
      <use xlink:href="#DejaVuSans-76"/>
      <use xlink:href="#DejaVuSans-61" x="59.179688"/>
      <use xlink:href="#DejaVuSans-6c" x="120.458984"/>
     </g>
    </g>
    <g id="line2d_33">
     <path d="M 210.5225 142.639187 
L 220.5225 142.639187 
L 230.5225 142.639187 
" style="fill: none; stroke: #e377c2; stroke-width: 1.5; stroke-linecap: square"/>
    </g>
    <g id="text_23">
     <!-- train -->
     <g transform="translate(238.5225 146.139187) scale(0.1 -0.1)">
      <use xlink:href="#DejaVuSans-74"/>
      <use xlink:href="#DejaVuSans-72" x="39.208984"/>
      <use xlink:href="#DejaVuSans-61" x="80.322266"/>
      <use xlink:href="#DejaVuSans-69" x="141.601562"/>
      <use xlink:href="#DejaVuSans-6e" x="169.384766"/>
     </g>
    </g>
    <g id="line2d_34">
     <path d="M 210.5225 157.317312 
L 220.5225 157.317312 
L 230.5225 157.317312 
" style="fill: none; stroke: #7f7f7f; stroke-width: 1.5; stroke-linecap: square"/>
    </g>
    <g id="text_24">
     <!-- val -->
     <g transform="translate(238.5225 160.817312) scale(0.1 -0.1)">
      <use xlink:href="#DejaVuSans-76"/>
      <use xlink:href="#DejaVuSans-61" x="59.179688"/>
      <use xlink:href="#DejaVuSans-6c" x="120.458984"/>
     </g>
    </g>
    <g id="line2d_35">
     <path d="M 210.5225 171.995437 
L 220.5225 171.995437 
L 230.5225 171.995437 
" style="fill: none; stroke: #bcbd22; stroke-width: 1.5; stroke-linecap: square"/>
    </g>
    <g id="text_25">
     <!-- train -->
     <g transform="translate(238.5225 175.495437) scale(0.1 -0.1)">
      <use xlink:href="#DejaVuSans-74"/>
      <use xlink:href="#DejaVuSans-72" x="39.208984"/>
      <use xlink:href="#DejaVuSans-61" x="80.322266"/>
      <use xlink:href="#DejaVuSans-69" x="141.601562"/>
      <use xlink:href="#DejaVuSans-6e" x="169.384766"/>
     </g>
    </g>
    <g id="line2d_36">
     <path d="M 210.5225 186.673562 
L 220.5225 186.673562 
L 230.5225 186.673562 
" style="fill: none; stroke: #17becf; stroke-width: 1.5; stroke-linecap: square"/>
    </g>
    <g id="text_26">
     <!-- val -->
     <g transform="translate(238.5225 190.173562) scale(0.1 -0.1)">
      <use xlink:href="#DejaVuSans-76"/>
      <use xlink:href="#DejaVuSans-61" x="59.179688"/>
      <use xlink:href="#DejaVuSans-6c" x="120.458984"/>
     </g>
    </g>
    <g id="line2d_37">
     <path d="M 210.5225 201.351687 
L 220.5225 201.351687 
L 230.5225 201.351687 
" style="fill: none; stroke: #1f77b4; stroke-width: 1.5; stroke-linecap: square"/>
    </g>
    <g id="text_27">
     <!-- train -->
     <g transform="translate(238.5225 204.851687) scale(0.1 -0.1)">
      <use xlink:href="#DejaVuSans-74"/>
      <use xlink:href="#DejaVuSans-72" x="39.208984"/>
      <use xlink:href="#DejaVuSans-61" x="80.322266"/>
      <use xlink:href="#DejaVuSans-69" x="141.601562"/>
      <use xlink:href="#DejaVuSans-6e" x="169.384766"/>
     </g>
    </g>
    <g id="line2d_38">
     <path d="M 210.5225 216.029812 
L 220.5225 216.029812 
L 230.5225 216.029812 
" style="fill: none; stroke: #ff7f0e; stroke-width: 1.5; stroke-linecap: square"/>
    </g>
    <g id="text_28">
     <!-- val -->
     <g transform="translate(238.5225 219.529812) scale(0.1 -0.1)">
      <use xlink:href="#DejaVuSans-76"/>
      <use xlink:href="#DejaVuSans-61" x="59.179688"/>
      <use xlink:href="#DejaVuSans-6c" x="120.458984"/>
     </g>
    </g>
   </g>
  </g>
 </g>
 <defs>
  <clipPath id="p58cd19774c">
   <rect x="57.6" y="41.472" width="357.12" height="266.112"/>
  </clipPath>
 </defs>
</svg>
