<?xml version="1.0" encoding="utf-8" standalone="no"?>
<!DOCTYPE svg PUBLIC "-//W3C//DTD SVG 1.1//EN"
  "http://www.w3.org/Graphics/SVG/1.1/DTD/svg11.dtd">
<svg xmlns:xlink="http://www.w3.org/1999/xlink" width="460.8pt" height="345.6pt" viewBox="0 0 460.8 345.6" xmlns="http://www.w3.org/2000/svg" version="1.1">
 <metadata>
  <rdf:RDF xmlns:dc="http://purl.org/dc/elements/1.1/" xmlns:cc="http://creativecommons.org/ns#" xmlns:rdf="http://www.w3.org/1999/02/22-rdf-syntax-ns#">
   <cc:Work>
    <dc:type rdf:resource="http://purl.org/dc/dcmitype/StillImage"/>
    <dc:date>2024-08-02T14:21:20.825464</dc:date>
    <dc:format>image/svg+xml</dc:format>
    <dc:creator>
     <cc:Agent>
      <dc:title>Matplotlib v3.7.4, https://matplotlib.org/</dc:title>
     </cc:Agent>
    </dc:creator>
   </cc:Work>
  </rdf:RDF>
 </metadata>
 <defs>
  <style type="text/css">*{stroke-linejoin: round; stroke-linecap: butt}</style>
 </defs>
 <g id="figure_1">
  <g id="patch_1">
   <path d="M 0 345.6 
L 460.8 345.6 
L 460.8 0 
L 0 0 
z
" style="fill: #ffffff"/>
  </g>
  <g id="axes_1">
   <g id="patch_2">
    <path d="M 57.6 307.584 
L 414.72 307.584 
L 414.72 41.472 
L 57.6 41.472 
z
" style="fill: #ffffff"/>
   </g>
   <g id="matplotlib.axis_1">
    <g id="xtick_1">
     <g id="line2d_1">
      <defs>
       <path id="m29e6d4f83b" d="M 0 0 
L 0 3.5 
" style="stroke: #000000; stroke-width: 0.8"/>
      </defs>
      <g>
       <use xlink:href="#m29e6d4f83b" x="119.409231" y="307.584" style="stroke: #000000; stroke-width: 0.8"/>
      </g>
     </g>
     <g id="text_1">
      <!-- 10 -->
      <g transform="translate(113.046731 322.182437) scale(0.1 -0.1)">
       <defs>
        <path id="DejaVuSans-31" d="M 794 531 
L 1825 531 
L 1825 4091 
L 703 3866 
L 703 4441 
L 1819 4666 
L 2450 4666 
L 2450 531 
L 3481 531 
L 3481 0 
L 794 0 
L 794 531 
z
" transform="scale(0.015625)"/>
        <path id="DejaVuSans-30" d="M 2034 4250 
Q 1547 4250 1301 3770 
Q 1056 3291 1056 2328 
Q 1056 1369 1301 889 
Q 1547 409 2034 409 
Q 2525 409 2770 889 
Q 3016 1369 3016 2328 
Q 3016 3291 2770 3770 
Q 2525 4250 2034 4250 
z
M 2034 4750 
Q 2819 4750 3233 4129 
Q 3647 3509 3647 2328 
Q 3647 1150 3233 529 
Q 2819 -91 2034 -91 
Q 1250 -91 836 529 
Q 422 1150 422 2328 
Q 422 3509 836 4129 
Q 1250 4750 2034 4750 
z
" transform="scale(0.015625)"/>
       </defs>
       <use xlink:href="#DejaVuSans-31"/>
       <use xlink:href="#DejaVuSans-30" x="63.623047"/>
      </g>
     </g>
    </g>
    <g id="xtick_2">
     <g id="line2d_2">
      <g>
       <use xlink:href="#m29e6d4f83b" x="188.086154" y="307.584" style="stroke: #000000; stroke-width: 0.8"/>
      </g>
     </g>
     <g id="text_2">
      <!-- 20 -->
      <g transform="translate(181.723654 322.182437) scale(0.1 -0.1)">
       <defs>
        <path id="DejaVuSans-32" d="M 1228 531 
L 3431 531 
L 3431 0 
L 469 0 
L 469 531 
Q 828 903 1448 1529 
Q 2069 2156 2228 2338 
Q 2531 2678 2651 2914 
Q 2772 3150 2772 3378 
Q 2772 3750 2511 3984 
Q 2250 4219 1831 4219 
Q 1534 4219 1204 4116 
Q 875 4013 500 3803 
L 500 4441 
Q 881 4594 1212 4672 
Q 1544 4750 1819 4750 
Q 2544 4750 2975 4387 
Q 3406 4025 3406 3419 
Q 3406 3131 3298 2873 
Q 3191 2616 2906 2266 
Q 2828 2175 2409 1742 
Q 1991 1309 1228 531 
z
" transform="scale(0.015625)"/>
       </defs>
       <use xlink:href="#DejaVuSans-32"/>
       <use xlink:href="#DejaVuSans-30" x="63.623047"/>
      </g>
     </g>
    </g>
    <g id="xtick_3">
     <g id="line2d_3">
      <g>
       <use xlink:href="#m29e6d4f83b" x="256.763077" y="307.584" style="stroke: #000000; stroke-width: 0.8"/>
      </g>
     </g>
     <g id="text_3">
      <!-- 30 -->
      <g transform="translate(250.400577 322.182437) scale(0.1 -0.1)">
       <defs>
        <path id="DejaVuSans-33" d="M 2597 2516 
Q 3050 2419 3304 2112 
Q 3559 1806 3559 1356 
Q 3559 666 3084 287 
Q 2609 -91 1734 -91 
Q 1441 -91 1130 -33 
Q 819 25 488 141 
L 488 750 
Q 750 597 1062 519 
Q 1375 441 1716 441 
Q 2309 441 2620 675 
Q 2931 909 2931 1356 
Q 2931 1769 2642 2001 
Q 2353 2234 1838 2234 
L 1294 2234 
L 1294 2753 
L 1863 2753 
Q 2328 2753 2575 2939 
Q 2822 3125 2822 3475 
Q 2822 3834 2567 4026 
Q 2313 4219 1838 4219 
Q 1578 4219 1281 4162 
Q 984 4106 628 3988 
L 628 4550 
Q 988 4650 1302 4700 
Q 1616 4750 1894 4750 
Q 2613 4750 3031 4423 
Q 3450 4097 3450 3541 
Q 3450 3153 3228 2886 
Q 3006 2619 2597 2516 
z
" transform="scale(0.015625)"/>
       </defs>
       <use xlink:href="#DejaVuSans-33"/>
       <use xlink:href="#DejaVuSans-30" x="63.623047"/>
      </g>
     </g>
    </g>
    <g id="xtick_4">
     <g id="line2d_4">
      <g>
       <use xlink:href="#m29e6d4f83b" x="325.44" y="307.584" style="stroke: #000000; stroke-width: 0.8"/>
      </g>
     </g>
     <g id="text_4">
      <!-- 40 -->
      <g transform="translate(319.0775 322.182437) scale(0.1 -0.1)">
       <defs>
        <path id="DejaVuSans-34" d="M 2419 4116 
L 825 1625 
L 2419 1625 
L 2419 4116 
z
M 2253 4666 
L 3047 4666 
L 3047 1625 
L 3713 1625 
L 3713 1100 
L 3047 1100 
L 3047 0 
L 2419 0 
L 2419 1100 
L 313 1100 
L 313 1709 
L 2253 4666 
z
" transform="scale(0.015625)"/>
       </defs>
       <use xlink:href="#DejaVuSans-34"/>
       <use xlink:href="#DejaVuSans-30" x="63.623047"/>
      </g>
     </g>
    </g>
    <g id="xtick_5">
     <g id="line2d_5">
      <g>
       <use xlink:href="#m29e6d4f83b" x="394.116923" y="307.584" style="stroke: #000000; stroke-width: 0.8"/>
      </g>
     </g>
     <g id="text_5">
      <!-- 50 -->
      <g transform="translate(387.754423 322.182437) scale(0.1 -0.1)">
       <defs>
        <path id="DejaVuSans-35" d="M 691 4666 
L 3169 4666 
L 3169 4134 
L 1269 4134 
L 1269 2991 
Q 1406 3038 1543 3061 
Q 1681 3084 1819 3084 
Q 2600 3084 3056 2656 
Q 3513 2228 3513 1497 
Q 3513 744 3044 326 
Q 2575 -91 1722 -91 
Q 1428 -91 1123 -41 
Q 819 9 494 109 
L 494 744 
Q 775 591 1075 516 
Q 1375 441 1709 441 
Q 2250 441 2565 725 
Q 2881 1009 2881 1497 
Q 2881 1984 2565 2268 
Q 2250 2553 1709 2553 
Q 1456 2553 1204 2497 
Q 953 2441 691 2322 
L 691 4666 
z
" transform="scale(0.015625)"/>
       </defs>
       <use xlink:href="#DejaVuSans-35"/>
       <use xlink:href="#DejaVuSans-30" x="63.623047"/>
      </g>
     </g>
    </g>
    <g id="text_6">
     <!-- Epoch -->
     <g transform="translate(220.849063 335.860562) scale(0.1 -0.1)">
      <defs>
       <path id="DejaVuSans-45" d="M 628 4666 
L 3578 4666 
L 3578 4134 
L 1259 4134 
L 1259 2753 
L 3481 2753 
L 3481 2222 
L 1259 2222 
L 1259 531 
L 3634 531 
L 3634 0 
L 628 0 
L 628 4666 
z
" transform="scale(0.015625)"/>
       <path id="DejaVuSans-70" d="M 1159 525 
L 1159 -1331 
L 581 -1331 
L 581 3500 
L 1159 3500 
L 1159 2969 
Q 1341 3281 1617 3432 
Q 1894 3584 2278 3584 
Q 2916 3584 3314 3078 
Q 3713 2572 3713 1747 
Q 3713 922 3314 415 
Q 2916 -91 2278 -91 
Q 1894 -91 1617 61 
Q 1341 213 1159 525 
z
M 3116 1747 
Q 3116 2381 2855 2742 
Q 2594 3103 2138 3103 
Q 1681 3103 1420 2742 
Q 1159 2381 1159 1747 
Q 1159 1113 1420 752 
Q 1681 391 2138 391 
Q 2594 391 2855 752 
Q 3116 1113 3116 1747 
z
" transform="scale(0.015625)"/>
       <path id="DejaVuSans-6f" d="M 1959 3097 
Q 1497 3097 1228 2736 
Q 959 2375 959 1747 
Q 959 1119 1226 758 
Q 1494 397 1959 397 
Q 2419 397 2687 759 
Q 2956 1122 2956 1747 
Q 2956 2369 2687 2733 
Q 2419 3097 1959 3097 
z
M 1959 3584 
Q 2709 3584 3137 3096 
Q 3566 2609 3566 1747 
Q 3566 888 3137 398 
Q 2709 -91 1959 -91 
Q 1206 -91 779 398 
Q 353 888 353 1747 
Q 353 2609 779 3096 
Q 1206 3584 1959 3584 
z
" transform="scale(0.015625)"/>
       <path id="DejaVuSans-63" d="M 3122 3366 
L 3122 2828 
Q 2878 2963 2633 3030 
Q 2388 3097 2138 3097 
Q 1578 3097 1268 2742 
Q 959 2388 959 1747 
Q 959 1106 1268 751 
Q 1578 397 2138 397 
Q 2388 397 2633 464 
Q 2878 531 3122 666 
L 3122 134 
Q 2881 22 2623 -34 
Q 2366 -91 2075 -91 
Q 1284 -91 818 406 
Q 353 903 353 1747 
Q 353 2603 823 3093 
Q 1294 3584 2113 3584 
Q 2378 3584 2631 3529 
Q 2884 3475 3122 3366 
z
" transform="scale(0.015625)"/>
       <path id="DejaVuSans-68" d="M 3513 2113 
L 3513 0 
L 2938 0 
L 2938 2094 
Q 2938 2591 2744 2837 
Q 2550 3084 2163 3084 
Q 1697 3084 1428 2787 
Q 1159 2491 1159 1978 
L 1159 0 
L 581 0 
L 581 4863 
L 1159 4863 
L 1159 2956 
Q 1366 3272 1645 3428 
Q 1925 3584 2291 3584 
Q 2894 3584 3203 3211 
Q 3513 2838 3513 2113 
z
" transform="scale(0.015625)"/>
      </defs>
      <use xlink:href="#DejaVuSans-45"/>
      <use xlink:href="#DejaVuSans-70" x="63.183594"/>
      <use xlink:href="#DejaVuSans-6f" x="126.660156"/>
      <use xlink:href="#DejaVuSans-63" x="187.841797"/>
      <use xlink:href="#DejaVuSans-68" x="242.822266"/>
     </g>
    </g>
   </g>
   <g id="matplotlib.axis_2">
    <g id="ytick_1">
     <g id="line2d_6">
      <defs>
       <path id="m560089defa" d="M 0 0 
L -3.5 0 
" style="stroke: #000000; stroke-width: 0.8"/>
      </defs>
      <g>
       <use xlink:href="#m560089defa" x="57.6" y="290.227179" style="stroke: #000000; stroke-width: 0.8"/>
      </g>
     </g>
     <g id="text_7">
      <!-- 0.100 -->
      <g transform="translate(21.971875 294.026398) scale(0.1 -0.1)">
       <defs>
        <path id="DejaVuSans-2e" d="M 684 794 
L 1344 794 
L 1344 0 
L 684 0 
L 684 794 
z
" transform="scale(0.015625)"/>
       </defs>
       <use xlink:href="#DejaVuSans-30"/>
       <use xlink:href="#DejaVuSans-2e" x="63.623047"/>
       <use xlink:href="#DejaVuSans-31" x="95.410156"/>
       <use xlink:href="#DejaVuSans-30" x="159.033203"/>
       <use xlink:href="#DejaVuSans-30" x="222.65625"/>
      </g>
     </g>
    </g>
    <g id="ytick_2">
     <g id="line2d_7">
      <g>
       <use xlink:href="#m560089defa" x="57.6" y="255.591781" style="stroke: #000000; stroke-width: 0.8"/>
      </g>
     </g>
     <g id="text_8">
      <!-- 0.125 -->
      <g transform="translate(21.971875 259.390999) scale(0.1 -0.1)">
       <use xlink:href="#DejaVuSans-30"/>
       <use xlink:href="#DejaVuSans-2e" x="63.623047"/>
       <use xlink:href="#DejaVuSans-31" x="95.410156"/>
       <use xlink:href="#DejaVuSans-32" x="159.033203"/>
       <use xlink:href="#DejaVuSans-35" x="222.65625"/>
      </g>
     </g>
    </g>
    <g id="ytick_3">
     <g id="line2d_8">
      <g>
       <use xlink:href="#m560089defa" x="57.6" y="220.956382" style="stroke: #000000; stroke-width: 0.8"/>
      </g>
     </g>
     <g id="text_9">
      <!-- 0.150 -->
      <g transform="translate(21.971875 224.755601) scale(0.1 -0.1)">
       <use xlink:href="#DejaVuSans-30"/>
       <use xlink:href="#DejaVuSans-2e" x="63.623047"/>
       <use xlink:href="#DejaVuSans-31" x="95.410156"/>
       <use xlink:href="#DejaVuSans-35" x="159.033203"/>
       <use xlink:href="#DejaVuSans-30" x="222.65625"/>
      </g>
     </g>
    </g>
    <g id="ytick_4">
     <g id="line2d_9">
      <g>
       <use xlink:href="#m560089defa" x="57.6" y="186.320984" style="stroke: #000000; stroke-width: 0.8"/>
      </g>
     </g>
     <g id="text_10">
      <!-- 0.175 -->
      <g transform="translate(21.971875 190.120203) scale(0.1 -0.1)">
       <defs>
        <path id="DejaVuSans-37" d="M 525 4666 
L 3525 4666 
L 3525 4397 
L 1831 0 
L 1172 0 
L 2766 4134 
L 525 4134 
L 525 4666 
z
" transform="scale(0.015625)"/>
       </defs>
       <use xlink:href="#DejaVuSans-30"/>
       <use xlink:href="#DejaVuSans-2e" x="63.623047"/>
       <use xlink:href="#DejaVuSans-31" x="95.410156"/>
       <use xlink:href="#DejaVuSans-37" x="159.033203"/>
       <use xlink:href="#DejaVuSans-35" x="222.65625"/>
      </g>
     </g>
    </g>
    <g id="ytick_5">
     <g id="line2d_10">
      <g>
       <use xlink:href="#m560089defa" x="57.6" y="151.685586" style="stroke: #000000; stroke-width: 0.8"/>
      </g>
     </g>
     <g id="text_11">
      <!-- 0.200 -->
      <g transform="translate(21.971875 155.484805) scale(0.1 -0.1)">
       <use xlink:href="#DejaVuSans-30"/>
       <use xlink:href="#DejaVuSans-2e" x="63.623047"/>
       <use xlink:href="#DejaVuSans-32" x="95.410156"/>
       <use xlink:href="#DejaVuSans-30" x="159.033203"/>
       <use xlink:href="#DejaVuSans-30" x="222.65625"/>
      </g>
     </g>
    </g>
    <g id="ytick_6">
     <g id="line2d_11">
      <g>
       <use xlink:href="#m560089defa" x="57.6" y="117.050188" style="stroke: #000000; stroke-width: 0.8"/>
      </g>
     </g>
     <g id="text_12">
      <!-- 0.225 -->
      <g transform="translate(21.971875 120.849407) scale(0.1 -0.1)">
       <use xlink:href="#DejaVuSans-30"/>
       <use xlink:href="#DejaVuSans-2e" x="63.623047"/>
       <use xlink:href="#DejaVuSans-32" x="95.410156"/>
       <use xlink:href="#DejaVuSans-32" x="159.033203"/>
       <use xlink:href="#DejaVuSans-35" x="222.65625"/>
      </g>
     </g>
    </g>
    <g id="ytick_7">
     <g id="line2d_12">
      <g>
       <use xlink:href="#m560089defa" x="57.6" y="82.41479" style="stroke: #000000; stroke-width: 0.8"/>
      </g>
     </g>
     <g id="text_13">
      <!-- 0.250 -->
      <g transform="translate(21.971875 86.214009) scale(0.1 -0.1)">
       <use xlink:href="#DejaVuSans-30"/>
       <use xlink:href="#DejaVuSans-2e" x="63.623047"/>
       <use xlink:href="#DejaVuSans-32" x="95.410156"/>
       <use xlink:href="#DejaVuSans-35" x="159.033203"/>
       <use xlink:href="#DejaVuSans-30" x="222.65625"/>
      </g>
     </g>
    </g>
    <g id="ytick_8">
     <g id="line2d_13">
      <g>
       <use xlink:href="#m560089defa" x="57.6" y="47.779392" style="stroke: #000000; stroke-width: 0.8"/>
      </g>
     </g>
     <g id="text_14">
      <!-- 0.275 -->
      <g transform="translate(21.971875 51.57861) scale(0.1 -0.1)">
       <use xlink:href="#DejaVuSans-30"/>
       <use xlink:href="#DejaVuSans-2e" x="63.623047"/>
       <use xlink:href="#DejaVuSans-32" x="95.410156"/>
       <use xlink:href="#DejaVuSans-37" x="159.033203"/>
       <use xlink:href="#DejaVuSans-35" x="222.65625"/>
      </g>
     </g>
    </g>
    <g id="text_15">
     <!-- Loss -->
     <g transform="translate(15.892188 185.495187) rotate(-90) scale(0.1 -0.1)">
      <defs>
       <path id="DejaVuSans-4c" d="M 628 4666 
L 1259 4666 
L 1259 531 
L 3531 531 
L 3531 0 
L 628 0 
L 628 4666 
z
" transform="scale(0.015625)"/>
       <path id="DejaVuSans-73" d="M 2834 3397 
L 2834 2853 
Q 2591 2978 2328 3040 
Q 2066 3103 1784 3103 
Q 1356 3103 1142 2972 
Q 928 2841 928 2578 
Q 928 2378 1081 2264 
Q 1234 2150 1697 2047 
L 1894 2003 
Q 2506 1872 2764 1633 
Q 3022 1394 3022 966 
Q 3022 478 2636 193 
Q 2250 -91 1575 -91 
Q 1294 -91 989 -36 
Q 684 19 347 128 
L 347 722 
Q 666 556 975 473 
Q 1284 391 1588 391 
Q 1994 391 2212 530 
Q 2431 669 2431 922 
Q 2431 1156 2273 1281 
Q 2116 1406 1581 1522 
L 1381 1569 
Q 847 1681 609 1914 
Q 372 2147 372 2553 
Q 372 3047 722 3315 
Q 1072 3584 1716 3584 
Q 2034 3584 2315 3537 
Q 2597 3491 2834 3397 
z
" transform="scale(0.015625)"/>
      </defs>
      <use xlink:href="#DejaVuSans-4c"/>
      <use xlink:href="#DejaVuSans-6f" x="53.962891"/>
      <use xlink:href="#DejaVuSans-73" x="115.144531"/>
      <use xlink:href="#DejaVuSans-73" x="167.244141"/>
     </g>
    </g>
   </g>
   <g id="line2d_14">
    <path d="M 57.6 53.568 
L 64.467692 251.706851 
L 71.335385 268.262271 
L 78.203077 270.913854 
L 85.070769 272.007149 
L 91.938462 272.784796 
L 98.806154 273.410069 
L 105.673846 273.935637 
L 112.541538 274.404526 
L 119.409231 274.849812 
L 126.276923 275.232539 
L 133.144615 275.574534 
L 140.012308 275.888134 
L 146.88 276.198411 
L 153.747692 276.508291 
L 160.615385 276.752643 
L 167.483077 277.010147 
L 174.350769 277.223577 
L 181.218462 277.458802 
L 188.086154 277.661801 
L 194.953846 277.875756 
L 201.821538 278.073468 
L 208.689231 278.248244 
L 215.556923 278.413828 
L 222.424615 278.573752 
L 229.292308 278.742801 
L 236.16 278.875079 
L 243.027692 279.06376 
L 249.895385 279.182547 
L 256.763077 279.319549 
L 263.630769 279.453234 
L 270.498462 279.586185 
L 277.366154 279.683622 
L 284.233846 279.816606 
L 291.101538 279.929471 
L 297.969231 280.053311 
L 304.836923 280.155089 
L 311.704615 280.253009 
L 318.572308 280.350974 
L 325.44 280.479683 
L 332.307692 280.547695 
L 339.175385 280.660719 
L 346.043077 280.724426 
L 352.910769 280.837946 
L 359.778462 280.909747 
L 366.646154 280.970626 
L 373.513846 281.069225 
L 380.381538 281.186801 
L 387.249231 281.236369 
L 394.116923 281.311779 
L 400.984615 281.399428 
L 407.852308 281.481122 
L 414.72 281.529776 
L 421.587692 281.599771 
L 428.455385 281.700087 
L 435.323077 281.771779 
L 442.190769 281.834987 
L 449.058462 281.872955 
L 455.926154 281.943203 
L 461.8 281.99128 
" clip-path="url(#p4ce2f9a796)" style="fill: none; stroke: #1f77b4; stroke-width: 1.5; stroke-linecap: square"/>
   </g>
   <g id="line2d_15">
    <path d="M 57.6 230.830854 
L 64.467692 272.512011 
L 71.335385 278.008762 
L 78.203077 279.827941 
L 85.070769 280.540313 
L 91.938462 281.185325 
L 98.806154 281.375036 
L 105.673846 282.2634 
L 112.541538 282.306823 
L 119.409231 282.52767 
L 126.276923 283.131279 
L 133.144615 283.538861 
L 140.012308 283.889785 
L 146.88 283.905536 
L 153.747692 284.231694 
L 160.615385 284.159259 
L 167.483077 284.277829 
L 174.350769 284.890573 
L 181.218462 285.124204 
L 188.086154 285.123016 
L 194.953846 285.487457 
L 201.821538 285.396696 
L 208.689231 285.609779 
L 215.556923 285.571808 
L 222.424615 285.93938 
L 229.292308 286.17683 
L 236.16 286.130918 
L 243.027692 286.188369 
L 249.895385 286.261426 
L 256.763077 286.416784 
L 263.630769 286.731169 
L 270.498462 286.651607 
L 277.366154 287.156952 
L 284.233846 286.872574 
L 291.101538 287.076782 
L 297.969231 287.349057 
L 304.836923 287.277895 
L 311.704615 287.425353 
L 318.572308 287.247262 
L 325.44 287.326127 
L 332.307692 287.736774 
L 339.175385 287.58284 
L 346.043077 287.614355 
L 352.910769 287.976997 
L 359.778462 287.765982 
L 366.646154 287.786774 
L 373.513846 288.211508 
L 380.381538 287.914734 
L 387.249231 288.492002 
L 394.116923 288.345126 
L 400.984615 288.347558 
L 407.852308 288.416243 
L 414.72 288.337909 
L 421.587692 288.40943 
L 428.455385 288.400806 
L 435.323077 288.556902 
L 442.190769 288.776299 
L 449.058462 288.688189 
L 455.926154 288.512783 
L 461.8 288.62159 
" clip-path="url(#p4ce2f9a796)" style="fill: none; stroke: #ff7f0e; stroke-width: 1.5; stroke-linecap: square"/>
   </g>
   <g id="line2d_16">
    <path d="M 57.6 54.020501 
L 64.467692 251.245831 
L 71.335385 267.75083 
L 78.203077 270.332902 
L 85.070769 271.357032 
L 91.938462 272.101376 
L 98.806154 272.677008 
L 105.673846 273.190653 
L 112.541538 273.663229 
L 119.409231 274.056599 
L 126.276923 274.473585 
L 133.144615 274.809779 
L 140.012308 275.126522 
L 146.88 275.436368 
L 153.747692 275.738221 
L 160.615385 275.966025 
L 167.483077 276.23916 
L 174.350769 276.486215 
L 181.218462 276.724652 
L 188.086154 276.913994 
L 194.953846 277.127031 
L 201.821538 277.326508 
L 208.689231 277.507607 
L 215.556923 277.693567 
L 222.424615 277.87185 
L 229.292308 278.016731 
L 236.16 278.178469 
L 243.027692 278.323135 
L 249.895385 278.481102 
L 256.763077 278.624473 
L 263.630769 278.747984 
L 270.498462 278.872668 
L 277.366154 278.982764 
L 284.233846 279.112023 
L 291.101538 279.227738 
L 297.969231 279.348961 
L 304.836923 279.432081 
L 311.704615 279.54911 
L 318.572308 279.688266 
L 325.44 279.755239 
L 332.307692 279.839589 
L 339.175385 279.945067 
L 346.043077 280.050645 
L 352.910769 280.139381 
L 359.778462 280.264481 
L 366.646154 280.302564 
L 373.513846 280.408321 
L 380.381538 280.478226 
L 387.249231 280.553385 
L 394.116923 280.620261 
L 400.984615 280.708208 
L 407.852308 280.778622 
L 414.72 280.862891 
L 421.587692 280.892257 
L 428.455385 280.992046 
L 435.323077 281.044065 
L 442.190769 281.108533 
L 449.058462 281.187644 
L 455.926154 281.246255 
L 461.8 281.303822 
" clip-path="url(#p4ce2f9a796)" style="fill: none; stroke: #2ca02c; stroke-width: 1.5; stroke-linecap: square"/>
   </g>
   <g id="line2d_17">
    <path d="M 57.6 230.117174 
L 64.467692 272.217765 
L 71.335385 277.519751 
L 78.203077 279.615895 
L 85.070769 279.658406 
L 91.938462 280.448169 
L 98.806154 281.066058 
L 105.673846 281.557501 
L 112.541538 281.662636 
L 119.409231 282.190876 
L 126.276923 282.456178 
L 133.144615 282.68432 
L 140.012308 282.721128 
L 146.88 283.271819 
L 153.747692 283.481551 
L 160.615385 283.59667 
L 167.483077 284.228038 
L 174.350769 283.872091 
L 181.218462 284.259838 
L 188.086154 284.490462 
L 194.953846 284.614052 
L 201.821538 284.883321 
L 208.689231 284.688743 
L 215.556923 285.349601 
L 222.424615 285.259548 
L 229.292308 285.315016 
L 236.16 285.373841 
L 243.027692 285.5888 
L 249.895385 285.582309 
L 256.763077 285.905913 
L 263.630769 286.020409 
L 270.498462 286.056829 
L 277.366154 286.186068 
L 284.233846 286.217973 
L 291.101538 286.37718 
L 297.969231 286.444068 
L 304.836923 286.633876 
L 311.704615 286.603787 
L 318.572308 286.740934 
L 325.44 286.686563 
L 332.307692 286.722014 
L 339.175385 286.83271 
L 346.043077 287.060099 
L 352.910769 286.964129 
L 359.778462 287.082398 
L 366.646154 287.106848 
L 373.513846 287.436217 
L 380.381538 287.052599 
L 387.249231 287.624083 
L 394.116923 287.260637 
L 400.984615 287.589343 
L 407.852308 287.765821 
L 414.72 287.96212 
L 421.587692 287.480712 
L 428.455385 287.729227 
L 435.323077 287.694158 
L 442.190769 288.055294 
L 449.058462 287.889146 
L 455.926154 288.217506 
L 461.8 287.938272 
" clip-path="url(#p4ce2f9a796)" style="fill: none; stroke: #d62728; stroke-width: 1.5; stroke-linecap: square"/>
   </g>
   <g id="line2d_18">
    <path d="M 57.6 81.27494 
L 64.467692 257.56024 
L 71.335385 269.955465 
L 78.203077 272.279405 
L 85.070769 273.372829 
L 91.938462 274.182439 
L 98.806154 274.855947 
L 105.673846 275.42718 
L 112.541538 275.905731 
L 119.409231 276.360176 
L 126.276923 276.756996 
L 133.144615 277.117105 
L 140.012308 277.483358 
L 146.88 277.75419 
L 153.747692 278.043537 
L 160.615385 278.312146 
L 167.483077 278.569783 
L 174.350769 278.797953 
L 181.218462 279.05393 
L 188.086154 279.245872 
L 194.953846 279.44547 
L 201.821538 279.645602 
L 208.689231 279.821278 
L 215.556923 280.01126 
L 222.424615 280.180773 
L 229.292308 280.336537 
L 236.16 280.4835 
L 243.027692 280.630154 
L 249.895385 280.781341 
L 256.763077 280.917627 
L 263.630769 281.044983 
L 270.498462 281.186124 
L 277.366154 281.296577 
L 284.233846 281.426468 
L 291.101538 281.564821 
L 297.969231 281.637129 
L 304.836923 281.766241 
L 311.704615 281.866866 
L 318.572308 281.990373 
L 325.44 282.062928 
L 332.307692 282.204151 
L 339.175385 282.259733 
L 346.043077 282.361846 
L 352.910769 282.4362 
L 359.778462 282.555842 
L 366.646154 282.620414 
L 373.513846 282.713765 
L 380.381538 282.763329 
L 387.249231 282.874176 
L 394.116923 282.947833 
L 400.984615 283.013406 
L 407.852308 283.095171 
L 414.72 283.17463 
L 421.587692 283.23558 
L 428.455385 283.286743 
L 435.323077 283.38694 
L 442.190769 283.441182 
L 449.058462 283.502116 
L 455.926154 283.559589 
L 461.8 283.601321 
" clip-path="url(#p4ce2f9a796)" style="fill: none; stroke: #9467bd; stroke-width: 1.5; stroke-linecap: square"/>
   </g>
   <g id="line2d_19">
    <path d="M 57.6 243.591731 
L 64.467692 275.139673 
L 71.335385 279.72219 
L 78.203077 280.985357 
L 85.070769 281.836848 
L 91.938462 282.23547 
L 98.806154 283.302929 
L 105.673846 283.734965 
L 112.541538 283.944402 
L 119.409231 283.930132 
L 126.276923 284.502976 
L 133.144615 285.368727 
L 140.012308 285.170184 
L 146.88 285.472574 
L 153.747692 285.523991 
L 160.615385 285.881572 
L 167.483077 286.372864 
L 174.350769 286.40649 
L 181.218462 286.32329 
L 188.086154 286.550738 
L 194.953846 286.697143 
L 201.821538 287.18142 
L 208.689231 287.25324 
L 215.556923 287.285017 
L 222.424615 287.316069 
L 229.292308 287.379072 
L 236.16 287.499218 
L 243.027692 287.729875 
L 249.895385 287.596067 
L 256.763077 287.721915 
L 263.630769 287.92224 
L 270.498462 288.126826 
L 277.366154 288.412481 
L 284.233846 288.188728 
L 291.101538 288.487064 
L 297.969231 288.904369 
L 304.836923 288.768892 
L 311.704615 288.743634 
L 318.572308 288.748915 
L 325.44 289.292684 
L 332.307692 289.173962 
L 339.175385 289.298863 
L 346.043077 289.246562 
L 352.910769 289.063872 
L 359.778462 289.598926 
L 366.646154 289.267048 
L 373.513846 289.431466 
L 380.381538 289.787649 
L 387.249231 289.564301 
L 394.116923 289.643295 
L 400.984615 289.624664 
L 407.852308 289.623273 
L 414.72 289.941371 
L 421.587692 289.726364 
L 428.455385 289.369285 
L 435.323077 290.021906 
L 442.190769 289.985062 
L 449.058462 290.322706 
L 455.926154 290.253408 
L 461.8 289.971257 
" clip-path="url(#p4ce2f9a796)" style="fill: none; stroke: #8c564b; stroke-width: 1.5; stroke-linecap: square"/>
   </g>
   <g id="line2d_20">
    <path d="M 57.6 83.305699 
L 64.467692 258.172376 
L 71.335385 270.177561 
L 78.203077 272.42054 
L 85.070769 273.550477 
L 91.938462 274.341842 
L 98.806154 275.018827 
L 105.673846 275.629051 
L 112.541538 276.13956 
L 119.409231 276.589023 
L 126.276923 277.017226 
L 133.144615 277.40521 
L 140.012308 277.713048 
L 146.88 278.038439 
L 153.747692 278.365092 
L 160.615385 278.601706 
L 167.483077 278.910182 
L 174.350769 279.159342 
L 181.218462 279.372874 
L 188.086154 279.600049 
L 194.953846 279.795095 
L 201.821538 279.986975 
L 208.689231 280.175384 
L 215.556923 280.381229 
L 222.424615 280.532331 
L 229.292308 280.68973 
L 236.16 280.857047 
L 243.027692 281.001347 
L 249.895385 281.124557 
L 256.763077 281.270465 
L 263.630769 281.400288 
L 270.498462 281.533154 
L 277.366154 281.675035 
L 284.233846 281.772075 
L 291.101538 281.932751 
L 297.969231 281.999632 
L 304.836923 282.140337 
L 311.704615 282.246255 
L 318.572308 282.362815 
L 325.44 282.42607 
L 332.307692 282.533363 
L 339.175385 282.606794 
L 346.043077 282.710631 
L 352.910769 282.797583 
L 359.778462 282.875235 
L 366.646154 282.966496 
L 373.513846 283.07056 
L 380.381538 283.13666 
L 387.249231 283.186532 
L 394.116923 283.283954 
L 400.984615 283.368746 
L 407.852308 283.423468 
L 414.72 283.519313 
L 421.587692 283.563766 
L 428.455385 283.638885 
L 435.323077 283.67816 
L 442.190769 283.763516 
L 449.058462 283.83907 
L 455.926154 283.878924 
L 461.8 283.932886 
" clip-path="url(#p4ce2f9a796)" style="fill: none; stroke: #e377c2; stroke-width: 1.5; stroke-linecap: square"/>
   </g>
   <g id="line2d_21">
    <path d="M 57.6 244.744679 
L 64.467692 275.456619 
L 71.335385 279.912542 
L 78.203077 281.221176 
L 85.070769 281.92484 
L 91.938462 282.571765 
L 98.806154 283.074891 
L 105.673846 283.712486 
L 112.541538 284.093288 
L 119.409231 284.665409 
L 126.276923 284.663041 
L 133.144615 285.344443 
L 140.012308 285.259399 
L 146.88 285.752947 
L 153.747692 286.068476 
L 160.615385 286.008403 
L 167.483077 286.020898 
L 174.350769 286.179125 
L 181.218462 286.59421 
L 188.086154 286.664121 
L 194.953846 286.884463 
L 201.821538 287.283099 
L 208.689231 287.467819 
L 215.556923 287.301077 
L 222.424615 287.719788 
L 229.292308 287.87702 
L 236.16 287.934303 
L 243.027692 288.119258 
L 249.895385 288.188303 
L 256.763077 288.379923 
L 263.630769 288.471237 
L 270.498462 288.515719 
L 277.366154 288.600762 
L 284.233846 288.668309 
L 291.101538 288.883299 
L 297.969231 289.013899 
L 304.836923 289.06469 
L 311.704615 288.634952 
L 318.572308 288.37389 
L 325.44 289.066995 
L 332.307692 289.079282 
L 339.175385 289.152592 
L 346.043077 289.41912 
L 352.910769 289.587534 
L 359.778462 289.5193 
L 366.646154 289.752244 
L 373.513846 289.76444 
L 380.381538 289.550178 
L 387.249231 289.836371 
L 394.116923 290.081698 
L 400.984615 289.936966 
L 407.852308 290.094396 
L 414.72 290.337411 
L 421.587692 290.038169 
L 428.455385 290.097571 
L 435.323077 290.464246 
L 442.190769 290.481771 
L 449.058462 290.057486 
L 455.926154 290.048603 
L 461.8 290.5952 
" clip-path="url(#p4ce2f9a796)" style="fill: none; stroke: #7f7f7f; stroke-width: 1.5; stroke-linecap: square"/>
   </g>
   <g id="line2d_22">
    <path d="M 57.6 270.418911 
L 64.467692 279.022437 
L 71.335385 281.137829 
L 78.203077 282.540502 
L 85.070769 283.570913 
L 91.938462 284.412537 
L 98.806154 285.133264 
L 105.673846 285.716275 
L 112.541538 286.227136 
L 119.409231 286.75505 
L 126.276923 287.197808 
L 133.144615 287.501579 
L 140.012308 287.867484 
L 146.88 288.096672 
L 153.747692 288.421118 
L 160.615385 288.698894 
L 167.483077 288.857536 
L 174.350769 289.120603 
L 181.218462 289.4021 
L 188.086154 289.609949 
L 194.953846 289.750277 
L 201.821538 289.958993 
L 208.689231 290.071978 
L 215.556923 290.366872 
L 222.424615 290.479266 
L 229.292308 290.665014 
L 236.16 290.78002 
L 243.027692 290.97124 
L 249.895385 291.12962 
L 256.763077 291.240667 
L 263.630769 291.3305 
L 270.498462 291.452287 
L 277.366154 291.670245 
L 284.233846 291.714032 
L 291.101538 291.829658 
L 297.969231 291.959201 
L 304.836923 292.038895 
L 311.704615 292.191515 
L 318.572308 292.292096 
L 325.44 292.29073 
L 332.307692 292.507728 
L 339.175385 292.536136 
L 346.043077 292.6718 
L 352.910769 292.73999 
L 359.778462 292.881326 
L 366.646154 292.917593 
L 373.513846 292.978155 
L 380.381538 293.114463 
L 387.249231 293.07451 
" clip-path="url(#p4ce2f9a796)" style="fill: none; stroke: #bcbd22; stroke-width: 1.5; stroke-linecap: square"/>
   </g>
   <g id="line2d_23">
    <path d="M 57.6 284.882606 
L 64.467692 285.407588 
L 71.335385 287.828751 
L 78.203077 288.148563 
L 85.070769 289.429228 
L 91.938462 289.779705 
L 98.806154 290.233021 
L 105.673846 290.428267 
L 112.541538 290.999185 
L 119.409231 290.960629 
L 126.276923 291.569167 
L 133.144615 291.305791 
L 140.012308 291.35863 
L 146.88 291.713678 
L 153.747692 291.809532 
L 160.615385 291.720266 
L 167.483077 292.351194 
L 174.350769 292.251092 
L 181.218462 291.736664 
L 188.086154 292.096585 
L 194.953846 292.422318 
L 201.821538 292.4269 
L 208.689231 292.640687 
L 215.556923 291.841088 
L 222.424615 292.484087 
L 229.292308 292.925209 
L 236.16 292.381445 
L 243.027692 292.274353 
L 249.895385 293.083486 
L 256.763077 292.565045 
L 263.630769 292.66791 
L 270.498462 293.02353 
L 277.366154 293.000842 
L 284.233846 292.769519 
L 291.101538 292.23055 
L 297.969231 292.871091 
L 304.836923 292.858982 
L 311.704615 292.941921 
L 318.572308 293.083958 
L 325.44 292.72707 
L 332.307692 292.876485 
L 339.175385 292.710695 
L 346.043077 292.804418 
L 352.910769 292.885949 
L 359.778462 292.978289 
L 366.646154 292.774184 
L 373.513846 292.930593 
L 380.381538 292.417856 
L 387.249231 292.832248 
" clip-path="url(#p4ce2f9a796)" style="fill: none; stroke: #17becf; stroke-width: 1.5; stroke-linecap: square"/>
   </g>
   <g id="line2d_24">
    <path d="M 57.6 270.581211 
L 64.467692 279.066662 
L 71.335385 281.213045 
L 78.203077 282.59326 
L 85.070769 283.684914 
L 91.938462 284.544491 
L 98.806154 285.215539 
L 105.673846 285.793577 
L 112.541538 286.293819 
L 119.409231 286.708176 
L 126.276923 287.109381 
L 133.144615 287.497943 
L 140.012308 287.78161 
L 146.88 288.145996 
L 153.747692 288.358936 
L 160.615385 288.653969 
L 167.483077 288.920137 
L 174.350769 289.109069 
L 181.218462 289.332266 
L 188.086154 289.529942 
L 194.953846 289.737855 
L 201.821538 289.900391 
L 208.689231 290.092002 
L 215.556923 290.232228 
L 222.424615 290.442246 
L 229.292308 290.572815 
L 236.16 290.67853 
L 243.027692 290.881802 
L 249.895385 291.038859 
L 256.763077 291.222371 
L 263.630769 291.333258 
L 270.498462 291.430617 
" clip-path="url(#p4ce2f9a796)" style="fill: none; stroke: #1f77b4; stroke-width: 1.5; stroke-linecap: square"/>
   </g>
   <g id="line2d_25">
    <path d="M 57.6 285.308039 
L 64.467692 286.609956 
L 71.335385 288.292054 
L 78.203077 288.795077 
L 85.070769 289.500904 
L 91.938462 290.011273 
L 98.806154 290.183304 
L 105.673846 291.118382 
L 112.541538 290.545732 
L 119.409231 290.281112 
L 126.276923 290.574256 
L 133.144615 291.988673 
L 140.012308 291.044411 
L 146.88 291.33561 
L 153.747692 291.731143 
L 160.615385 291.938083 
L 167.483077 291.953549 
L 174.350769 291.653975 
L 181.218462 292.375059 
L 188.086154 292.210642 
L 194.953846 292.319709 
L 201.821538 292.958629 
L 208.689231 292.124779 
L 215.556923 292.871562 
L 222.424615 291.800934 
L 229.292308 292.842225 
L 236.16 292.504091 
L 243.027692 292.792122 
L 249.895385 292.84934 
L 256.763077 292.756013 
L 263.630769 292.265972 
L 270.498462 292.543555 
" clip-path="url(#p4ce2f9a796)" style="fill: none; stroke: #ff7f0e; stroke-width: 1.5; stroke-linecap: square"/>
   </g>
   <g id="line2d_26">
    <path d="M 57.6 271.466201 
L 64.467692 280.244457 
L 71.335385 282.410433 
L 78.203077 283.895242 
L 85.070769 284.900647 
L 91.938462 285.801024 
L 98.806154 286.463257 
L 105.673846 287.075236 
L 112.541538 287.601492 
L 119.409231 288.083203 
L 126.276923 288.47302 
L 133.144615 288.881888 
L 140.012308 289.18566 
L 146.88 289.528513 
L 153.747692 289.853063 
L 160.615385 290.087365 
L 167.483077 290.416266 
L 174.350769 290.600151 
L 181.218462 290.770424 
L 188.086154 291.088413 
L 194.953846 291.291871 
L 201.821538 291.525821 
L 208.689231 291.66109 
L 215.556923 291.912824 
L 222.424615 292.11745 
L 229.292308 292.179427 
L 236.16 292.395179 
L 243.027692 292.565281 
L 249.895385 292.764372 
L 256.763077 292.908031 
L 263.630769 293.010679 
" clip-path="url(#p4ce2f9a796)" style="fill: none; stroke: #2ca02c; stroke-width: 1.5; stroke-linecap: square"/>
   </g>
   <g id="line2d_27">
    <path d="M 57.6 285.951273 
L 64.467692 287.867679 
L 71.335385 288.917648 
L 78.203077 289.873815 
L 85.070769 290.618169 
L 91.938462 291.745832 
L 98.806154 290.983543 
L 105.673846 291.746479 
L 112.541538 291.858483 
L 119.409231 292.168138 
L 126.276923 292.588314 
L 133.144615 291.837064 
L 140.012308 292.343914 
L 146.88 292.713183 
L 153.747692 292.892124 
L 160.615385 292.694898 
L 167.483077 293.000283 
L 174.350769 292.544846 
L 181.218462 293.891372 
L 188.086154 293.868548 
L 194.953846 294.199461 
L 201.821538 293.306539 
L 208.689231 293.783616 
L 215.556923 293.95438 
L 222.424615 293.44474 
L 229.292308 293.752127 
L 236.16 293.609398 
L 243.027692 294.167425 
L 249.895385 293.524084 
L 256.763077 293.965522 
L 263.630769 294.192433 
" clip-path="url(#p4ce2f9a796)" style="fill: none; stroke: #d62728; stroke-width: 1.5; stroke-linecap: square"/>
   </g>
   <g id="line2d_28">
    <path d="M 57.6 271.635582 
L 64.467692 280.472012 
L 71.335385 282.713761 
L 78.203077 284.171183 
L 85.070769 285.143998 
L 91.938462 286.050423 
L 98.806154 286.78013 
L 105.673846 287.325968 
L 112.541538 287.875096 
L 119.409231 288.365292 
L 126.276923 288.794346 
L 133.144615 289.161213 
L 140.012308 289.456418 
L 146.88 289.856007 
L 153.747692 290.068368 
L 160.615385 290.464451 
L 167.483077 290.639179 
L 174.350769 290.896426 
L 181.218462 291.202639 
L 188.086154 291.369049 
L 194.953846 291.512969 
L 201.821538 291.741542 
L 208.689231 291.93673 
L 215.556923 292.126099 
L 222.424615 292.344898 
L 229.292308 292.501475 
L 236.16 292.624211 
L 243.027692 292.81597 
L 249.895385 292.930682 
L 256.763077 293.133734 
L 263.630769 293.274868 
L 270.498462 293.316723 
L 277.366154 293.490015 
L 284.233846 293.591492 
L 291.101538 293.793245 
L 297.969231 293.85638 
L 304.836923 293.989066 
L 311.704615 294.13269 
L 318.572308 294.209742 
L 325.44 294.279488 
L 332.307692 294.388123 
L 339.175385 294.565117 
L 346.043077 294.670524 
L 352.910769 294.687502 
L 359.778462 294.822655 
L 366.646154 294.966558 
L 373.513846 294.971467 
L 380.381538 295.019854 
L 387.249231 295.143297 
L 394.116923 295.213943 
L 400.984615 295.347068 
L 407.852308 295.443439 
L 414.72 295.488 
" clip-path="url(#p4ce2f9a796)" style="fill: none; stroke: #9467bd; stroke-width: 1.5; stroke-linecap: square"/>
   </g>
   <g id="line2d_29">
    <path d="M 57.6 286.267323 
L 64.467692 287.881923 
L 71.335385 289.471007 
L 78.203077 289.458007 
L 85.070769 290.746802 
L 91.938462 291.147227 
L 98.806154 291.574631 
L 105.673846 292.219959 
L 112.541538 291.702085 
L 119.409231 291.695225 
L 126.276923 292.954779 
L 133.144615 292.154499 
L 140.012308 292.94136 
L 146.88 292.742036 
L 153.747692 293.819098 
L 160.615385 292.796157 
L 167.483077 293.824507 
L 174.350769 293.983773 
L 181.218462 293.838135 
L 188.086154 293.705606 
L 194.953846 294.112318 
L 201.821538 293.627131 
L 208.689231 293.739508 
L 215.556923 294.206064 
L 222.424615 294.384023 
L 229.292308 294.278076 
L 236.16 293.352788 
L 243.027692 293.887114 
L 249.895385 294.211076 
L 256.763077 294.340834 
L 263.630769 293.737099 
L 270.498462 294.523931 
L 277.366154 294.243774 
L 284.233846 293.968369 
L 291.101538 294.381199 
L 297.969231 293.597509 
L 304.836923 293.927355 
L 311.704615 293.970682 
L 318.572308 293.750269 
L 325.44 294.495046 
L 332.307692 294.755903 
L 339.175385 294.142156 
L 346.043077 294.763194 
L 352.910769 294.279399 
L 359.778462 294.548244 
L 366.646154 294.092672 
L 373.513846 294.513574 
L 380.381538 294.238933 
L 387.249231 294.316787 
L 394.116923 293.947144 
L 400.984615 294.715293 
L 407.852308 293.853143 
L 414.72 294.60709 
" clip-path="url(#p4ce2f9a796)" style="fill: none; stroke: #8c564b; stroke-width: 1.5; stroke-linecap: square"/>
   </g>
   <g id="patch_3">
    <path d="M 57.6 307.584 
L 57.6 41.472 
" style="fill: none; stroke: #000000; stroke-width: 0.8; stroke-linejoin: miter; stroke-linecap: square"/>
   </g>
   <g id="patch_4">
    <path d="M 414.72 307.584 
L 414.72 41.472 
" style="fill: none; stroke: #000000; stroke-width: 0.8; stroke-linejoin: miter; stroke-linecap: square"/>
   </g>
   <g id="patch_5">
    <path d="M 57.6 307.584 
L 414.72 307.584 
" style="fill: none; stroke: #000000; stroke-width: 0.8; stroke-linejoin: miter; stroke-linecap: square"/>
   </g>
   <g id="patch_6">
    <path d="M 57.6 41.472 
L 414.72 41.472 
" style="fill: none; stroke: #000000; stroke-width: 0.8; stroke-linejoin: miter; stroke-linecap: square"/>
   </g>
   <g id="legend_1">
    <g id="patch_7">
     <path d="M 352.445 284.322 
L 407.72 284.322 
Q 409.72 284.322 409.72 282.322 
L 409.72 48.472 
Q 409.72 46.472 407.72 46.472 
L 352.445 46.472 
Q 350.445 46.472 350.445 48.472 
L 350.445 282.322 
Q 350.445 284.322 352.445 284.322 
z
" style="fill: #ffffff; opacity: 0.8; stroke: #cccccc; stroke-linejoin: miter"/>
    </g>
    <g id="line2d_30">
     <path d="M 354.445 54.570437 
L 364.445 54.570437 
L 374.445 54.570437 
" style="fill: none; stroke: #1f77b4; stroke-width: 1.5; stroke-linecap: square"/>
    </g>
    <g id="text_16">
     <!-- train -->
     <g transform="translate(382.445 58.070437) scale(0.1 -0.1)">
      <defs>
       <path id="DejaVuSans-74" d="M 1172 4494 
L 1172 3500 
L 2356 3500 
L 2356 3053 
L 1172 3053 
L 1172 1153 
Q 1172 725 1289 603 
Q 1406 481 1766 481 
L 2356 481 
L 2356 0 
L 1766 0 
Q 1100 0 847 248 
Q 594 497 594 1153 
L 594 3053 
L 172 3053 
L 172 3500 
L 594 3500 
L 594 4494 
L 1172 4494 
z
" transform="scale(0.015625)"/>
       <path id="DejaVuSans-72" d="M 2631 2963 
Q 2534 3019 2420 3045 
Q 2306 3072 2169 3072 
Q 1681 3072 1420 2755 
Q 1159 2438 1159 1844 
L 1159 0 
L 581 0 
L 581 3500 
L 1159 3500 
L 1159 2956 
Q 1341 3275 1631 3429 
Q 1922 3584 2338 3584 
Q 2397 3584 2469 3576 
Q 2541 3569 2628 3553 
L 2631 2963 
z
" transform="scale(0.015625)"/>
       <path id="DejaVuSans-61" d="M 2194 1759 
Q 1497 1759 1228 1600 
Q 959 1441 959 1056 
Q 959 750 1161 570 
Q 1363 391 1709 391 
Q 2188 391 2477 730 
Q 2766 1069 2766 1631 
L 2766 1759 
L 2194 1759 
z
M 3341 1997 
L 3341 0 
L 2766 0 
L 2766 531 
Q 2569 213 2275 61 
Q 1981 -91 1556 -91 
Q 1019 -91 701 211 
Q 384 513 384 1019 
Q 384 1609 779 1909 
Q 1175 2209 1959 2209 
L 2766 2209 
L 2766 2266 
Q 2766 2663 2505 2880 
Q 2244 3097 1772 3097 
Q 1472 3097 1187 3025 
Q 903 2953 641 2809 
L 641 3341 
Q 956 3463 1253 3523 
Q 1550 3584 1831 3584 
Q 2591 3584 2966 3190 
Q 3341 2797 3341 1997 
z
" transform="scale(0.015625)"/>
       <path id="DejaVuSans-69" d="M 603 3500 
L 1178 3500 
L 1178 0 
L 603 0 
L 603 3500 
z
M 603 4863 
L 1178 4863 
L 1178 4134 
L 603 4134 
L 603 4863 
z
" transform="scale(0.015625)"/>
       <path id="DejaVuSans-6e" d="M 3513 2113 
L 3513 0 
L 2938 0 
L 2938 2094 
Q 2938 2591 2744 2837 
Q 2550 3084 2163 3084 
Q 1697 3084 1428 2787 
Q 1159 2491 1159 1978 
L 1159 0 
L 581 0 
L 581 3500 
L 1159 3500 
L 1159 2956 
Q 1366 3272 1645 3428 
Q 1925 3584 2291 3584 
Q 2894 3584 3203 3211 
Q 3513 2838 3513 2113 
z
" transform="scale(0.015625)"/>
      </defs>
      <use xlink:href="#DejaVuSans-74"/>
      <use xlink:href="#DejaVuSans-72" x="39.208984"/>
      <use xlink:href="#DejaVuSans-61" x="80.322266"/>
      <use xlink:href="#DejaVuSans-69" x="141.601562"/>
      <use xlink:href="#DejaVuSans-6e" x="169.384766"/>
     </g>
    </g>
    <g id="line2d_31">
     <path d="M 354.445 69.248562 
L 364.445 69.248562 
L 374.445 69.248562 
" style="fill: none; stroke: #ff7f0e; stroke-width: 1.5; stroke-linecap: square"/>
    </g>
    <g id="text_17">
     <!-- val -->
     <g transform="translate(382.445 72.748562) scale(0.1 -0.1)">
      <defs>
       <path id="DejaVuSans-76" d="M 191 3500 
L 800 3500 
L 1894 563 
L 2988 3500 
L 3597 3500 
L 2284 0 
L 1503 0 
L 191 3500 
z
" transform="scale(0.015625)"/>
       <path id="DejaVuSans-6c" d="M 603 4863 
L 1178 4863 
L 1178 0 
L 603 0 
L 603 4863 
z
" transform="scale(0.015625)"/>
      </defs>
      <use xlink:href="#DejaVuSans-76"/>
      <use xlink:href="#DejaVuSans-61" x="59.179688"/>
      <use xlink:href="#DejaVuSans-6c" x="120.458984"/>
     </g>
    </g>
    <g id="line2d_32">
     <path d="M 354.445 83.926688 
L 364.445 83.926688 
L 374.445 83.926688 
" style="fill: none; stroke: #2ca02c; stroke-width: 1.5; stroke-linecap: square"/>
    </g>
    <g id="text_18">
     <!-- train -->
     <g transform="translate(382.445 87.426688) scale(0.1 -0.1)">
      <use xlink:href="#DejaVuSans-74"/>
      <use xlink:href="#DejaVuSans-72" x="39.208984"/>
      <use xlink:href="#DejaVuSans-61" x="80.322266"/>
      <use xlink:href="#DejaVuSans-69" x="141.601562"/>
      <use xlink:href="#DejaVuSans-6e" x="169.384766"/>
     </g>
    </g>
    <g id="line2d_33">
     <path d="M 354.445 98.604812 
L 364.445 98.604812 
L 374.445 98.604812 
" style="fill: none; stroke: #d62728; stroke-width: 1.5; stroke-linecap: square"/>
    </g>
    <g id="text_19">
     <!-- val -->
     <g transform="translate(382.445 102.104812) scale(0.1 -0.1)">
      <use xlink:href="#DejaVuSans-76"/>
      <use xlink:href="#DejaVuSans-61" x="59.179688"/>
      <use xlink:href="#DejaVuSans-6c" x="120.458984"/>
     </g>
    </g>
    <g id="line2d_34">
     <path d="M 354.445 113.282937 
L 364.445 113.282937 
L 374.445 113.282937 
" style="fill: none; stroke: #9467bd; stroke-width: 1.5; stroke-linecap: square"/>
    </g>
    <g id="text_20">
     <!-- train -->
     <g transform="translate(382.445 116.782937) scale(0.1 -0.1)">
      <use xlink:href="#DejaVuSans-74"/>
      <use xlink:href="#DejaVuSans-72" x="39.208984"/>
      <use xlink:href="#DejaVuSans-61" x="80.322266"/>
      <use xlink:href="#DejaVuSans-69" x="141.601562"/>
      <use xlink:href="#DejaVuSans-6e" x="169.384766"/>
     </g>
    </g>
    <g id="line2d_35">
     <path d="M 354.445 127.961062 
L 364.445 127.961062 
L 374.445 127.961062 
" style="fill: none; stroke: #8c564b; stroke-width: 1.5; stroke-linecap: square"/>
    </g>
    <g id="text_21">
     <!-- val -->
     <g transform="translate(382.445 131.461062) scale(0.1 -0.1)">
      <use xlink:href="#DejaVuSans-76"/>
      <use xlink:href="#DejaVuSans-61" x="59.179688"/>
      <use xlink:href="#DejaVuSans-6c" x="120.458984"/>
     </g>
    </g>
    <g id="line2d_36">
     <path d="M 354.445 142.639187 
L 364.445 142.639187 
L 374.445 142.639187 
" style="fill: none; stroke: #e377c2; stroke-width: 1.5; stroke-linecap: square"/>
    </g>
    <g id="text_22">
     <!-- train -->
     <g transform="translate(382.445 146.139187) scale(0.1 -0.1)">
      <use xlink:href="#DejaVuSans-74"/>
      <use xlink:href="#DejaVuSans-72" x="39.208984"/>
      <use xlink:href="#DejaVuSans-61" x="80.322266"/>
      <use xlink:href="#DejaVuSans-69" x="141.601562"/>
      <use xlink:href="#DejaVuSans-6e" x="169.384766"/>
     </g>
    </g>
    <g id="line2d_37">
     <path d="M 354.445 157.317312 
L 364.445 157.317312 
L 374.445 157.317312 
" style="fill: none; stroke: #7f7f7f; stroke-width: 1.5; stroke-linecap: square"/>
    </g>
    <g id="text_23">
     <!-- val -->
     <g transform="translate(382.445 160.817312) scale(0.1 -0.1)">
      <use xlink:href="#DejaVuSans-76"/>
      <use xlink:href="#DejaVuSans-61" x="59.179688"/>
      <use xlink:href="#DejaVuSans-6c" x="120.458984"/>
     </g>
    </g>
    <g id="line2d_38">
     <path d="M 354.445 171.995437 
L 364.445 171.995437 
L 374.445 171.995437 
" style="fill: none; stroke: #bcbd22; stroke-width: 1.5; stroke-linecap: square"/>
    </g>
    <g id="text_24">
     <!-- train -->
     <g transform="translate(382.445 175.495437) scale(0.1 -0.1)">
      <use xlink:href="#DejaVuSans-74"/>
      <use xlink:href="#DejaVuSans-72" x="39.208984"/>
      <use xlink:href="#DejaVuSans-61" x="80.322266"/>
      <use xlink:href="#DejaVuSans-69" x="141.601562"/>
      <use xlink:href="#DejaVuSans-6e" x="169.384766"/>
     </g>
    </g>
    <g id="line2d_39">
     <path d="M 354.445 186.673562 
L 364.445 186.673562 
L 374.445 186.673562 
" style="fill: none; stroke: #17becf; stroke-width: 1.5; stroke-linecap: square"/>
    </g>
    <g id="text_25">
     <!-- val -->
     <g transform="translate(382.445 190.173562) scale(0.1 -0.1)">
      <use xlink:href="#DejaVuSans-76"/>
      <use xlink:href="#DejaVuSans-61" x="59.179688"/>
      <use xlink:href="#DejaVuSans-6c" x="120.458984"/>
     </g>
    </g>
    <g id="line2d_40">
     <path d="M 354.445 201.351687 
L 364.445 201.351687 
L 374.445 201.351687 
" style="fill: none; stroke: #1f77b4; stroke-width: 1.5; stroke-linecap: square"/>
    </g>
    <g id="text_26">
     <!-- train -->
     <g transform="translate(382.445 204.851687) scale(0.1 -0.1)">
      <use xlink:href="#DejaVuSans-74"/>
      <use xlink:href="#DejaVuSans-72" x="39.208984"/>
      <use xlink:href="#DejaVuSans-61" x="80.322266"/>
      <use xlink:href="#DejaVuSans-69" x="141.601562"/>
      <use xlink:href="#DejaVuSans-6e" x="169.384766"/>
     </g>
    </g>
    <g id="line2d_41">
     <path d="M 354.445 216.029812 
L 364.445 216.029812 
L 374.445 216.029812 
" style="fill: none; stroke: #ff7f0e; stroke-width: 1.5; stroke-linecap: square"/>
    </g>
    <g id="text_27">
     <!-- val -->
     <g transform="translate(382.445 219.529812) scale(0.1 -0.1)">
      <use xlink:href="#DejaVuSans-76"/>
      <use xlink:href="#DejaVuSans-61" x="59.179688"/>
      <use xlink:href="#DejaVuSans-6c" x="120.458984"/>
     </g>
    </g>
    <g id="line2d_42">
     <path d="M 354.445 230.707937 
L 364.445 230.707937 
L 374.445 230.707937 
" style="fill: none; stroke: #2ca02c; stroke-width: 1.5; stroke-linecap: square"/>
    </g>
    <g id="text_28">
     <!-- train -->
     <g transform="translate(382.445 234.207937) scale(0.1 -0.1)">
      <use xlink:href="#DejaVuSans-74"/>
      <use xlink:href="#DejaVuSans-72" x="39.208984"/>
      <use xlink:href="#DejaVuSans-61" x="80.322266"/>
      <use xlink:href="#DejaVuSans-69" x="141.601562"/>
      <use xlink:href="#DejaVuSans-6e" x="169.384766"/>
     </g>
    </g>
    <g id="line2d_43">
     <path d="M 354.445 245.386062 
L 364.445 245.386062 
L 374.445 245.386062 
" style="fill: none; stroke: #d62728; stroke-width: 1.5; stroke-linecap: square"/>
    </g>
    <g id="text_29">
     <!-- val -->
     <g transform="translate(382.445 248.886062) scale(0.1 -0.1)">
      <use xlink:href="#DejaVuSans-76"/>
      <use xlink:href="#DejaVuSans-61" x="59.179688"/>
      <use xlink:href="#DejaVuSans-6c" x="120.458984"/>
     </g>
    </g>
    <g id="line2d_44">
     <path d="M 354.445 260.064187 
L 364.445 260.064187 
L 374.445 260.064187 
" style="fill: none; stroke: #9467bd; stroke-width: 1.5; stroke-linecap: square"/>
    </g>
    <g id="text_30">
     <!-- train -->
     <g transform="translate(382.445 263.564187) scale(0.1 -0.1)">
      <use xlink:href="#DejaVuSans-74"/>
      <use xlink:href="#DejaVuSans-72" x="39.208984"/>
      <use xlink:href="#DejaVuSans-61" x="80.322266"/>
      <use xlink:href="#DejaVuSans-69" x="141.601562"/>
      <use xlink:href="#DejaVuSans-6e" x="169.384766"/>
     </g>
    </g>
    <g id="line2d_45">
     <path d="M 354.445 274.742312 
L 364.445 274.742312 
L 374.445 274.742312 
" style="fill: none; stroke: #8c564b; stroke-width: 1.5; stroke-linecap: square"/>
    </g>
    <g id="text_31">
     <!-- val -->
     <g transform="translate(382.445 278.242312) scale(0.1 -0.1)">
      <use xlink:href="#DejaVuSans-76"/>
      <use xlink:href="#DejaVuSans-61" x="59.179688"/>
      <use xlink:href="#DejaVuSans-6c" x="120.458984"/>
     </g>
    </g>
   </g>
  </g>
 </g>
 <defs>
  <clipPath id="p4ce2f9a796">
   <rect x="57.6" y="41.472" width="357.12" height="266.112"/>
  </clipPath>
 </defs>
</svg>
